<svg width="321" height="321" viewBox="0 0 321 321" fill="none" xmlns="http://www.w3.org/2000/svg">
<path d="M72.3193 193.191C73.1578 192.761 74.1111 192.607 75.0423 192.753C76.1999 192.968 77.2616 193.539 78.0798 194.385L78.0862 194.392L78.0928 194.398C78.9608 195.233 79.5513 196.314 79.7844 197.496C80.0655 199.023 79.8488 200.6 79.1662 201.995C78.332 203.441 77.1668 204.67 75.766 205.579L75.766 205.579L75.7556 205.586C74.5646 206.402 73.1852 207.324 72.1026 208.041C71.5615 208.4 71.095 208.708 70.7637 208.926C70.6669 208.989 70.5816 209.045 70.5095 209.093C70.4463 209.052 70.3731 209.005 70.2909 208.952C69.9792 208.753 69.5372 208.473 69.0149 208.152C67.9721 207.512 66.6021 206.702 65.3083 206.035L65.3084 206.035L65.2988 206.031C63.7973 205.297 62.4934 204.215 61.4963 202.874C60.6408 201.567 60.2285 200.018 60.3202 198.458C60.419 197.256 60.8794 196.111 61.6409 195.175L61.6459 195.169L61.6507 195.163C62.3643 194.227 63.3523 193.537 64.4767 193.188C65.4158 192.923 66.4163 192.974 67.3234 193.334C68.2323 193.695 68.9963 194.346 69.4969 195.186L69.9638 195.97L70.3732 195.155C70.7974 194.311 71.4789 193.623 72.3193 193.191Z" stroke="#F598AF"/>
<path d="M251.245 122.283C252.083 121.853 253.037 121.699 253.968 121.844C255.125 122.06 256.187 122.63 257.005 123.477L257.011 123.484L257.018 123.49C257.886 124.326 258.478 125.406 258.716 126.587C258.99 128.119 258.766 129.697 258.079 131.093C257.247 132.541 256.081 133.769 254.679 134.677L254.679 134.677L254.668 134.685C253.48 135.501 252.101 136.422 251.018 137.139C250.476 137.498 250.009 137.806 249.677 138.024C249.581 138.087 249.496 138.142 249.425 138.19C249.362 138.148 249.289 138.101 249.207 138.048C248.896 137.846 248.454 137.563 247.931 137.239C246.888 136.594 245.516 135.783 244.216 135.131L244.216 135.131L244.211 135.129C242.71 134.396 241.406 133.314 240.409 131.973C239.559 130.662 239.153 129.111 239.252 127.55C239.347 126.347 239.808 125.202 240.572 124.268L240.578 124.261L240.583 124.254C241.293 123.317 242.279 122.627 243.402 122.28C244.341 122.014 245.342 122.066 246.249 122.426C247.158 122.787 247.922 123.438 248.422 124.278L248.889 125.062L249.299 124.247C249.723 123.402 250.404 122.715 251.245 122.283Z" stroke="#F598AF"/>
<path d="M77.2006 182.481C77.2636 181.643 77.5843 180.845 78.1186 180.196C78.617 179.539 79.3084 179.054 80.096 178.809C80.5158 178.694 80.9544 178.666 81.3857 178.724C81.817 178.782 82.232 178.927 82.6062 179.149C83.0479 179.421 83.4196 179.793 83.6912 180.234C83.9938 179.632 84.4806 179.141 85.081 178.834C85.6813 178.527 86.3638 178.419 87.0296 178.527C87.8405 178.671 88.5846 179.069 89.1546 179.663C89.7608 180.246 90.1732 181.001 90.3359 181.827C90.5293 182.88 90.3761 183.968 89.8993 184.927C89.3394 185.906 88.5535 186.735 87.6074 187.348C86.073 188.401 84.0571 189.723 84.0571 189.723C84.0571 189.723 82.2082 188.503 80.5646 187.643C79.5506 187.148 78.6701 186.417 77.9966 185.512C77.4131 184.613 77.134 183.551 77.2006 182.481Z" fill="#F5F5F5"/>
<path d="M227.769 143.23C227.836 142.392 228.156 141.595 228.687 140.944C229.186 140.289 229.877 139.807 230.664 139.564C231.337 139.378 232.052 139.417 232.701 139.674C233.349 139.931 233.897 140.393 234.259 140.989C234.472 140.569 234.775 140.201 235.145 139.91C235.489 139.643 235.884 139.447 236.306 139.337C236.727 139.227 237.167 139.203 237.598 139.268C238.408 139.417 239.152 139.817 239.723 140.411C240.33 140.993 240.743 141.749 240.904 142.575C241.097 143.628 240.944 144.716 240.468 145.676C239.909 146.655 239.123 147.485 238.176 148.096C236.641 149.142 234.625 150.465 234.625 150.465C234.625 150.465 232.783 149.252 231.133 148.385C230.117 147.892 229.236 147.161 228.565 146.253C227.982 145.357 227.703 144.297 227.769 143.23Z" fill="#F5F5F5"/>
<path d="M261.428 178.429C260.91 177.624 260.662 176.674 260.72 175.718C260.776 174.984 261.057 174.285 261.526 173.716L261.532 173.709L261.538 173.701C261.972 173.129 262.572 172.706 263.257 172.492C263.61 172.397 263.978 172.373 264.34 172.422C264.703 172.471 265.053 172.593 265.369 172.78C265.742 173.01 266.056 173.325 266.286 173.699L266.758 174.466L267.16 173.66C267.413 173.152 267.823 172.738 268.328 172.479C268.832 172.221 269.406 172.131 269.965 172.222C270.67 172.353 271.317 172.7 271.817 173.214L271.823 173.22L271.829 173.226C272.36 173.737 272.722 174.399 272.866 175.122C273.035 176.064 272.899 177.035 272.479 177.895C271.958 178.799 271.229 179.566 270.352 180.13L270.345 180.134L270.338 180.139C269.578 180.663 268.693 181.255 267.997 181.716C267.65 181.947 267.35 182.145 267.137 182.285L267.071 182.328C267.057 182.32 267.043 182.311 267.029 182.301C266.828 182.172 266.544 181.991 266.208 181.783C265.538 181.368 264.655 180.841 263.818 180.403L263.818 180.402L263.805 180.396C262.868 179.939 262.053 179.264 261.428 178.429Z" stroke="black"/>
<path d="M81.4696 209.086C81.5127 208.535 81.7258 208.01 82.0795 207.584C82.4023 207.153 82.8509 206.832 83.3635 206.666C83.6405 206.59 83.93 206.571 84.2145 206.61C84.4991 206.648 84.773 206.744 85.0198 206.891C85.3091 207.073 85.5529 207.319 85.7325 207.61C85.8738 207.333 86.073 207.09 86.3167 206.897C86.544 206.721 86.8046 206.594 87.0827 206.522C87.3608 206.45 87.6506 206.436 87.9345 206.48C88.4687 206.576 88.9587 206.839 89.3341 207.231C89.7396 207.611 90.0195 208.106 90.1366 208.65C90.2618 209.346 90.1605 210.064 89.8477 210.698C89.4786 211.345 88.9589 211.893 88.3326 212.296C87.3246 212.99 85.9893 213.856 85.9893 213.856C85.9893 213.856 84.7759 213.054 83.6909 212.489C83.0254 212.159 82.447 211.678 82.0024 211.083C81.6148 210.492 81.4279 209.792 81.4696 209.086Z" fill="#F5F5F5"/>
<path d="M72.2378 88.5967C72.355 88.5347 72.4804 88.4893 72.6102 88.4619L73.6502 88.173C74.5297 87.929 75.7431 87.6144 77.0913 87.2742C78.4395 86.9339 79.6593 86.6322 80.5453 86.4267L81.5917 86.1892C81.7203 86.1572 81.8513 86.1357 81.9834 86.125C81.8652 86.1851 81.7402 86.2304 81.611 86.2598L80.5774 86.5487C79.6978 86.7927 78.478 87.1073 77.1363 87.4475C75.7945 87.7878 74.5683 88.0895 73.6823 88.295L72.6294 88.5325C72.5009 88.565 72.3699 88.5865 72.2378 88.5967Z" fill="#E0E0E0"/>
<path d="M80.4165 99.2025C80.5712 99.1329 80.7325 99.0792 80.898 99.042L82.2269 98.6632C83.3504 98.3486 84.9041 97.9313 86.6246 97.4755C88.3452 97.0197 89.9053 96.6217 91.0416 96.3392L92.3834 96.0182C92.5452 95.9722 92.7105 95.94 92.8777 95.9219C92.7252 95.9929 92.5661 96.0488 92.4026 96.0888L91.0737 96.4676C89.9502 96.7757 88.3901 97.1995 86.6696 97.6489C84.949 98.0983 83.389 98.5027 82.259 98.7852L80.9173 99.1062C80.7544 99.1566 80.5865 99.1889 80.4165 99.2025Z" fill="#E0E0E0"/>
<path d="M92.5635 95.9148C92.5831 95.7341 92.6196 95.5557 92.6726 95.3819C92.7625 95.016 92.8781 94.528 93.0257 93.9502C93.321 92.7369 93.7255 91.0612 94.1171 89.1994C94.5087 87.3376 94.8297 85.6363 95.048 84.4101C95.1572 83.8195 95.247 83.3316 95.3112 82.9528C95.3359 82.7724 95.3746 82.5943 95.4268 82.4199C95.4267 82.6027 95.4117 82.7852 95.3819 82.9656C95.3369 83.3123 95.2727 83.8131 95.1764 84.4294C94.9902 85.6684 94.6949 87.3697 94.2969 89.2315C93.8988 91.0933 93.4751 92.7754 93.1477 93.9823C92.9808 94.5858 92.8395 95.0673 92.7368 95.4012C92.69 95.5759 92.6321 95.7474 92.5635 95.9148Z" fill="#E0E0E0"/>
<path d="M231.935 82.6189C231.879 82.5271 231.835 82.4277 231.807 82.3236L231.505 81.4505C231.242 80.6865 230.863 79.5759 230.484 78.1956C229.656 75.435 228.635 71.5894 227.563 67.3329C226.491 63.0765 225.509 59.2245 224.738 56.451L223.82 53.1704C223.724 52.8173 223.641 52.5284 223.576 52.278C223.54 52.1746 223.518 52.0665 223.512 51.957C223.563 52.0542 223.606 52.155 223.641 52.2588C223.718 52.4963 223.82 52.7852 223.942 53.1319C224.206 53.8959 224.552 55.0065 224.963 56.3868C225.791 59.141 226.812 62.9866 227.884 67.2495C228.956 71.5124 229.939 75.3579 230.709 78.1635L231.627 81.4441C231.723 81.7972 231.807 82.0861 231.871 82.3365C231.904 82.4277 231.925 82.5225 231.935 82.6189Z" fill="#E0E0E0"/>
<path d="M303.904 299.056C303.904 299.152 239.704 299.229 160.507 299.229C81.3095 299.229 17.0967 299.171 17.0967 299.056C17.0967 298.94 81.2967 298.889 160.507 298.889C239.717 298.889 303.904 298.966 303.904 299.056Z" fill="#263238"/>
<path d="M202.679 143.461C203.03 137.516 203.385 131.571 203.745 125.626C203.79 124.907 203.899 124.079 204.515 123.7C204.816 123.582 205.139 123.532 205.461 123.554C205.783 123.576 206.096 123.67 206.377 123.829C216.919 128.072 224.655 139.834 225.579 151.152" fill="#DD5491"/>
<g opacity="0.3">
<path d="M206.262 129.863C208.731 131.481 210.792 133.649 212.285 136.196C213.777 138.743 214.66 141.601 214.865 144.546C214.982 145.257 214.831 145.987 214.441 146.594C214.241 146.811 213.998 146.985 213.727 147.103C213.456 147.221 213.163 147.282 212.868 147.281C212.276 147.274 211.688 147.183 211.122 147.011C209.703 146.645 208.207 146.247 207.154 145.22C206.192 144.2 205.641 142.86 205.607 141.458C205.581 140.068 205.724 138.679 206.031 137.323L207.828 140.392L205.902 130.454C205.872 130.367 205.861 130.274 205.87 130.182C205.879 130.09 205.907 130.001 205.954 129.921C206.063 129.78 206.371 129.831 206.352 130.011" fill="white"/>
</g>
<path d="M141.567 156.122C136.066 149.59 132.903 141.409 132.579 132.875L138.453 135.642L136.983 133.851C145.555 134.565 153.51 138.599 159.151 145.092" fill="#DD5491"/>
<g opacity="0.3">
<path d="M144.822 153.527C142.515 151.851 140.577 149.718 139.127 147.262C137.677 144.807 136.746 142.079 136.393 139.249C136.348 138.864 136.393 138.357 136.752 138.229C136.886 138.205 137.024 138.212 137.155 138.249C137.286 138.285 137.407 138.351 137.51 138.44L148.109 145.368C147.649 144.707 147.362 143.941 147.275 143.14L151.769 146.433C151.939 146.528 152.09 146.656 152.211 146.809C152.332 146.962 152.422 147.138 152.475 147.326C152.477 147.537 152.429 147.746 152.334 147.934C152.239 148.123 152.1 148.287 151.929 148.411C151.181 149.086 150.269 149.556 149.285 149.775C148.3 149.993 147.276 149.952 146.312 149.656L148.238 151.332C147.664 151.702 147.021 151.953 146.348 152.069C145.675 152.185 144.986 152.163 144.322 152.006C144.256 152.322 144.288 152.651 144.411 152.95C144.535 153.249 144.745 153.503 145.015 153.681" fill="white"/>
</g>
<path d="M261.294 212.149C261.294 212.149 269.512 220.643 273.248 219.937C273.248 219.937 260.267 206.127 254.81 193.383C252.203 187.357 249.098 181.559 245.527 176.049C247.985 171.812 250.175 167.017 251.176 162.169C248.416 165.371 245.27 168.217 241.809 170.644C241.527 170.246 241.238 169.854 240.943 169.456C243.846 166.829 245.782 163.301 246.438 159.441L233.463 158.882C233.87 158.298 234.236 157.686 234.561 157.053C228.187 151.574 221.051 147.052 213.375 143.628C198.449 135.135 165.225 132.329 149.047 146.139C134.557 154.587 130.673 165.399 119.258 168.076L112.491 167.337C112.491 167.337 109.859 181.462 118.507 187.772L112.087 186.283C112.087 186.283 113.268 191.907 119.585 198.109L115.644 197.627C115.644 197.627 117.351 206.474 122.808 208.599C122.808 208.599 114.283 209.665 111.894 206.474C111.894 206.474 109.057 219.699 121.967 224.687C121.967 224.687 83.2803 229.22 94.1558 276.58C96.7238 287.642 111.971 295.603 129.53 299.448L256.004 298.954C263.708 296.437 272.901 270.911 273.242 260.646C273.582 250.38 268.472 230.549 268.472 230.549L273.261 236.924L261.294 212.149Z" fill="#DD5491"/>
<path d="M116.741 231.883C109.48 231.447 102.347 237.09 101.108 244.261C105.833 241.127 111.227 239.148 116.857 238.483C114.639 240.522 113.094 243.187 112.426 246.124C111.757 249.062 111.997 252.133 113.114 254.931C114.05 252.43 115.484 250.145 117.329 248.215C119.174 246.285 121.392 244.75 123.848 243.702C122.17 245.726 121.043 248.148 120.575 250.735C120.107 253.322 120.315 255.985 121.177 258.468" fill="#DD5491"/>
<path d="M121.177 258.481C121.134 258.397 121.099 258.309 121.074 258.218C121.017 258.044 120.914 257.788 120.811 257.447C120.529 256.437 120.352 255.4 120.285 254.353C120.186 252.698 120.353 251.037 120.779 249.435C121.337 247.315 122.351 245.343 123.752 243.657L123.899 243.856C121.467 244.907 119.271 246.437 117.443 248.355C115.616 250.273 114.193 252.54 113.261 255.02L113.12 255.406L112.966 255.027C112.19 253.073 111.831 250.979 111.912 248.878C111.992 246.778 112.511 244.717 113.435 242.829C114.248 241.161 115.372 239.664 116.747 238.418L116.876 238.707C111.273 239.368 105.901 241.324 101.185 244.421L100.903 244.607L100.967 244.273C101.252 242.724 101.795 241.233 102.572 239.863C103.261 238.621 104.126 237.486 105.14 236.492C106.76 234.852 108.719 233.586 110.88 232.782C112.261 232.264 113.714 231.961 115.187 231.883C115.701 231.883 116.093 231.883 116.349 231.883C116.086 231.883 115.707 231.883 115.194 231.883C113.735 231.995 112.301 232.321 110.937 232.852C108.814 233.669 106.893 234.938 105.307 236.569C104.319 237.555 103.478 238.677 102.81 239.901C102.057 241.25 101.532 242.715 101.256 244.235L101.031 244.087C105.779 240.954 111.194 238.975 116.844 238.309L117.364 238.251L116.972 238.598C115.639 239.818 114.55 241.28 113.762 242.906C112.853 244.755 112.342 246.774 112.26 248.833C112.178 250.891 112.528 252.945 113.287 254.86H112.992C114.008 252.171 115.594 249.734 117.64 247.715C119.42 245.953 121.521 244.547 123.829 243.574L124.317 243.368L123.976 243.773C122.587 245.427 121.572 247.363 121.004 249.448C120.57 251.03 120.386 252.669 120.458 254.308C120.508 255.346 120.663 256.376 120.92 257.383C121.004 257.73 121.094 257.993 121.139 258.166C121.162 258.27 121.175 258.375 121.177 258.481Z" fill="#263238"/>
<path d="M249.308 251.805C253.227 250.976 257.313 251.522 260.877 253.352C264.441 255.182 267.266 258.184 268.876 261.852" fill="#DD5491"/>
<path d="M268.876 261.852C268.812 261.884 268.317 260.632 267.065 258.892C265.434 256.624 263.287 254.775 260.801 253.5C258.315 252.224 255.562 251.557 252.768 251.554C250.624 251.554 249.314 251.875 249.308 251.804C249.601 251.698 249.904 251.622 250.213 251.58C251.06 251.42 251.919 251.334 252.781 251.323C255.625 251.259 258.44 251.905 260.971 253.203C263.502 254.501 265.67 256.41 267.277 258.757C267.766 259.461 268.195 260.204 268.561 260.978C268.699 261.257 268.805 261.549 268.876 261.852Z" fill="#263238"/>
<g opacity="0.3">
<path d="M204.714 262.475C200.054 263.219 194.121 266.744 191.958 270.923C191.496 271.816 191.919 271.938 191.958 272.939C191.959 273.444 192.101 273.939 192.369 274.366C192.637 274.794 193.019 275.138 193.473 275.36C193.703 275.453 193.95 275.497 194.198 275.489C194.446 275.481 194.69 275.421 194.913 275.312C195.137 275.204 195.335 275.05 195.495 274.86C195.655 274.67 195.773 274.449 195.842 274.21C195.285 277.631 196.032 281.136 197.935 284.033C199.246 283.294 200.303 282.175 200.965 280.823C200.843 283.331 201.236 285.838 202.119 288.188C203.003 290.539 204.358 292.684 206.101 294.491L203.828 285.625C203.013 282.415 202.223 279.687 202.442 276.393C202.673 272.875 204.766 269.909 206.39 266.994C204.156 267.964 201.569 272.355 199.367 275.032C199.235 272.702 199.634 270.373 200.533 268.22C201.433 266.067 202.81 264.146 204.56 262.603" fill="black"/>
</g>
<path d="M203.841 285.728C203.768 285.608 203.708 285.481 203.662 285.349C203.565 285.092 203.379 284.707 203.225 284.213C202.743 282.772 202.452 281.274 202.358 279.757C202.206 277.448 202.478 275.131 203.161 272.92C204 270.11 205.499 267.541 207.533 265.428L207.758 265.659C205.881 267.341 204.1 269.126 202.423 271.007C201.339 272.243 200.382 273.585 199.566 275.013L199.315 275.456L199.257 274.955C198.974 272.307 199.455 269.634 200.644 267.251C201.629 265.232 203.092 263.484 204.907 262.16L205.029 262.378C203.753 262.853 202.584 263.575 201.588 264.503C200.837 265.2 200.188 266 199.662 266.879C199.328 267.439 199.04 268.025 198.802 268.631C198.733 268.85 198.652 269.064 198.558 269.273C198.55 269.218 198.55 269.162 198.558 269.106C198.59 268.991 198.628 268.824 198.699 268.612C198.91 267.985 199.184 267.381 199.514 266.808C200.035 265.902 200.683 265.076 201.44 264.356C202.448 263.399 203.635 262.65 204.933 262.154L205.793 261.826L205.048 262.372C203.297 263.691 201.89 265.414 200.946 267.392C199.803 269.725 199.342 272.333 199.617 274.917L199.309 274.852C200.136 273.406 201.104 272.045 202.198 270.789C203.885 268.898 205.679 267.106 207.571 265.421L207.796 265.653C205.793 267.726 204.306 270.242 203.456 272.997C202.767 275.176 202.475 277.462 202.596 279.744C202.67 281.249 202.927 282.738 203.36 284.181C203.501 284.688 203.668 285.06 203.745 285.323C203.786 285.456 203.818 285.591 203.841 285.728Z" fill="#263238"/>
<path d="M127.668 285.047C130.19 287.845 133.508 289.803 137.176 290.658C137.375 290.738 137.592 290.764 137.805 290.735C138.017 290.706 138.219 290.622 138.389 290.491C138.762 290.08 138.454 289.432 138.145 288.976L134.069 282.954C136.971 285.248 140.412 286.76 144.065 287.345C144.675 287.442 145.426 287.442 145.734 286.915C145.822 286.684 145.854 286.435 145.829 286.188C145.803 285.942 145.72 285.705 145.586 285.496C144.944 284.122 144.302 282.768 143.545 281.445" fill="#DD5491"/>
<path d="M143.545 281.42C143.623 281.519 143.69 281.627 143.744 281.741L144.257 282.704C144.488 283.134 144.752 283.648 145.06 284.232C145.222 284.531 145.389 284.852 145.56 285.195C145.774 285.555 145.912 285.955 145.965 286.37C145.983 286.618 145.91 286.865 145.759 287.063C145.594 287.26 145.368 287.395 145.117 287.448C144.621 287.524 144.115 287.5 143.628 287.378C142.567 287.196 141.522 286.932 140.501 286.588C138.138 285.799 135.929 284.607 133.972 283.063L134.216 282.839L134.923 283.885L137.195 287.249L138.28 288.848C138.473 289.122 138.614 289.429 138.697 289.753C138.746 289.932 138.737 290.121 138.672 290.294C138.606 290.467 138.487 290.615 138.332 290.716C138.03 290.869 137.683 290.905 137.356 290.819C137.054 290.767 136.784 290.678 136.502 290.613C135.943 290.453 135.41 290.286 134.91 290.093C133.973 289.741 133.066 289.312 132.2 288.809C130.945 288.088 129.783 287.214 128.74 286.209C128.374 285.85 128.098 285.567 127.931 285.355C127.834 285.256 127.748 285.146 127.674 285.028C127.787 285.108 127.89 285.201 127.982 285.304C128.169 285.497 128.451 285.773 128.83 286.113C129.895 287.071 131.064 287.907 132.316 288.604C133.178 289.086 134.078 289.498 135.006 289.837C135.507 290.023 136.033 290.183 136.579 290.337C137.125 290.491 137.734 290.703 138.171 290.459C138.273 290.391 138.349 290.291 138.389 290.175C138.428 290.059 138.428 289.933 138.389 289.817C138.314 289.535 138.185 289.269 138.011 289.034C137.657 288.514 137.298 287.981 136.926 287.442C136.189 286.35 135.43 285.229 134.646 284.078L133.94 283.031L133.298 282.133L134.178 282.8C136.946 284.99 140.208 286.471 143.679 287.114C144.131 287.235 144.602 287.266 145.066 287.204C145.262 287.179 145.44 287.079 145.566 286.927C145.691 286.774 145.753 286.58 145.74 286.383C145.696 285.994 145.574 285.618 145.381 285.278C145.214 284.938 145.053 284.636 144.906 284.309L144.154 282.762L143.692 281.773C143.627 281.663 143.578 281.544 143.545 281.42Z" fill="#263238"/>
<g opacity="0.3">
<path d="M143.506 245.102C144.925 247.497 147.002 249.433 149.49 250.681C149.347 249.362 148.8 248.12 147.923 247.125C150.632 249.705 153.842 251.702 157.354 252.993C155.859 253.658 154.227 253.959 152.592 253.871C150.957 253.782 149.367 253.306 147.953 252.482C146.538 251.658 145.34 250.51 144.456 249.132C143.573 247.754 143.029 246.186 142.871 244.557" fill="black"/>
</g>
<g opacity="0.3">
<path d="M126.326 203.263C131.424 213.066 147.91 217.907 160.84 218.119C164.833 218.177 170.47 221.13 174.425 220.745C183.304 219.891 190.513 215.108 199.411 214.325C204.952 213.856 210.524 213.683 216.001 212.752C221.477 211.821 221.227 211.172 225.579 207.712C229.932 204.252 234.638 200.823 234.567 195.264C226.388 205.279 218.306 208.38 205.716 211.314C193.126 214.248 180.036 214.183 167.125 213.586C152.918 212.944 138.004 211.378 126.326 203.257" fill="black"/>
</g>
<path d="M170.188 128.072C170.246 128.072 170.297 128.798 170.489 129.947C170.744 131.442 171.153 132.908 171.709 134.319C172.279 135.727 172.991 137.074 173.834 138.338C174.218 138.841 174.576 139.364 174.906 139.904C174.906 139.904 174.759 139.795 174.534 139.551C174.214 139.211 173.916 138.851 173.642 138.473C172.728 137.231 171.976 135.878 171.401 134.447C170.825 133.006 170.441 131.495 170.258 129.953C170.198 129.491 170.164 129.026 170.156 128.56C170.143 128.397 170.154 128.233 170.188 128.072Z" fill="#DD5491"/>
<path d="M174.38 126.473C174.438 126.473 174.181 127.115 173.93 128.187C173.614 129.571 173.508 130.995 173.616 132.411C173.732 133.825 174.063 135.213 174.598 136.526C175.009 137.541 175.362 138.125 175.311 138.151C175.259 138.176 175.189 138.029 175.015 137.772C174.774 137.405 174.559 137.021 174.373 136.623C173.141 133.963 172.902 130.95 173.699 128.129C173.814 127.707 173.962 127.295 174.142 126.896C174.277 126.588 174.361 126.434 174.38 126.473Z" fill="#DD5491"/>
<path d="M95.8057 233.174C95.882 233.082 95.9681 232.998 96.0625 232.924C96.2358 232.77 96.4862 232.526 96.8393 232.282C97.8258 231.498 98.8686 230.787 99.9594 230.157C103.583 228.103 107.526 226.675 111.625 225.932C115.71 225.188 119.85 224.776 124.002 224.7C125.594 224.661 126.878 224.648 127.764 224.648H128.792C128.911 224.638 129.032 224.638 129.151 224.648C129.034 224.678 128.913 224.693 128.792 224.693L127.771 224.745L124.009 224.905C119.877 225.037 115.759 225.466 111.689 226.189C107.625 226.931 103.705 228.314 100.075 230.285C98.985 230.898 97.9324 231.576 96.9227 232.314C96.2101 232.885 95.8249 233.193 95.8057 233.174Z" fill="#DD5491"/>
<path d="M187.836 129.26C187.836 129.318 186.739 128.952 184.954 128.515C183.916 128.26 182.851 128.133 181.782 128.136C180.484 128.145 179.213 128.507 178.104 129.183C177.541 129.533 177.05 129.989 176.659 130.525C176.308 131.031 176.061 131.603 175.934 132.207C175.75 133.253 175.796 134.326 176.069 135.352C176.512 137.124 176.987 138.177 176.922 138.203C176.777 137.976 176.658 137.732 176.569 137.477C176.278 136.806 176.034 136.115 175.838 135.41C175.524 134.352 175.454 133.238 175.632 132.149C175.758 131.5 176.016 130.884 176.39 130.338C176.803 129.763 177.324 129.272 177.924 128.894C179.085 128.19 180.418 127.822 181.776 127.828C182.862 127.839 183.941 127.994 184.986 128.29C185.878 128.528 186.585 128.772 187.073 128.932C187.338 129.016 187.593 129.125 187.836 129.26Z" fill="#DD5491"/>
<path d="M284.156 290.145C283.462 285.536 281.202 280.997 277.344 278.371C273.486 275.745 267.932 275.437 264.26 278.319L249.019 298.928L281.466 299.063C283.276 297.387 284.522 292.585 284.156 290.145Z" fill="#DD5491"/>
<g opacity="0.3">
<path d="M262.578 298.632C265.319 297.49 267.341 295.031 268.587 292.334C269.832 289.638 270.378 286.685 270.924 283.764C271.373 281.343 271.797 278.73 270.744 276.496C270.493 276.483 270.242 276.535 270.017 276.647C269.792 276.76 269.6 276.929 269.46 277.138C269.178 277.564 268.972 278.035 268.85 278.531C266.34 286.454 262.469 293.297 256.145 298.658" fill="black"/>
</g>
<g opacity="0.3">
<path d="M166.201 137.65C169.411 146.902 169.816 156.91 169.469 166.662C169.296 171.529 168.93 176.446 167.408 181.075C165.887 185.704 163.094 190.063 158.946 192.631C155.03 195.052 150.19 195.687 145.619 195.084C141.048 194.48 136.708 192.728 132.592 190.66C127.893 188.298 123.367 185.473 119.72 181.672C116.074 177.872 113.082 172.562 112.479 167.343L119.245 168.081C119.245 168.081 124.452 167.529 132.547 159.697C141.394 151.145 143.006 150.099 149.631 145.643C154.769 142.245 160.343 139.557 166.201 137.65Z" fill="white"/>
</g>
<g opacity="0.3">
<path d="M194.166 194.674C195.446 193.952 196.927 193.669 198.383 193.867C199.839 194.065 201.19 194.734 202.23 195.772C203.26 194.426 204.653 193.402 206.246 192.822C207.838 192.242 209.564 192.129 211.218 192.498C209.212 193.286 207.344 194.39 205.684 195.765C204.098 197.223 202.955 199.316 203.154 201.46C201.171 199.323 198.89 197.483 196.381 195.996C195.341 195.354 193.974 194.834 192.998 195.553" fill="black"/>
</g>
<path d="M216.277 267C212.55 269.675 209.803 273.498 208.457 277.884C207.11 282.269 207.239 286.975 208.823 291.28" fill="#DD5491"/>
<path d="M208.823 291.282C208.77 291.205 208.729 291.121 208.701 291.032C208.637 290.859 208.528 290.615 208.419 290.281C208.106 289.353 207.868 288.402 207.706 287.437C207.146 284.234 207.351 280.944 208.305 277.835C209.259 274.727 210.934 271.888 213.195 269.551C213.871 268.85 214.603 268.205 215.384 267.625C215.654 267.413 215.885 267.265 216.026 267.162C216.168 267.06 216.264 267.015 216.27 267.028C216.011 267.275 215.739 267.509 215.455 267.727C214.716 268.352 214.017 269.024 213.362 269.737C211.177 272.083 209.553 274.894 208.612 277.959C207.671 281.024 207.438 284.262 207.931 287.43C208.074 288.388 208.277 289.336 208.541 290.268C208.658 290.599 208.752 290.938 208.823 291.282Z" fill="#263238"/>
<path d="M229.046 244.775C231.672 242.759 235.062 240.641 238.034 242.06C238.857 242.511 239.563 243.149 240.095 243.923C240.627 244.697 240.97 245.585 241.096 246.515C241.327 248.378 241.21 250.268 240.75 252.088C238.594 262.707 233.91 272.65 227.094 281.074C224.623 284.13 221.105 287.224 217.265 286.383C213.683 285.594 211.648 281.498 211.86 277.832C212.072 274.166 213.921 270.834 215.635 267.56C219.705 259.856 223.66 251.407 229.027 244.75" fill="#DD5491"/>
<path d="M229.046 244.775C228.995 244.859 228.94 244.941 228.879 245.019L228.366 245.706C227.91 246.309 227.249 247.215 226.44 248.402C224.203 251.788 222.154 255.294 220.302 258.905L216.45 266.378C215.089 269.075 213.375 271.861 212.483 275.122C212.003 276.778 211.913 278.523 212.22 280.22C212.543 281.986 213.417 283.604 214.717 284.842C215.391 285.449 216.198 285.889 217.073 286.126C217.97 286.358 218.907 286.382 219.814 286.197C221.671 285.718 223.365 284.749 224.719 283.391C226.105 282.05 227.366 280.587 228.488 279.019C229.643 277.504 230.683 275.938 231.698 274.384C235.293 268.643 238.013 262.398 239.768 255.856C240.153 254.401 240.483 252.984 240.756 251.606C241.047 250.3 241.178 248.963 241.148 247.625C241.071 245.102 239.749 242.81 237.867 242.046C237.003 241.681 236.052 241.567 235.126 241.719C234.345 241.851 233.585 242.086 232.866 242.419C231.871 242.89 230.919 243.449 230.022 244.088L229.316 244.589C229.162 244.698 229.072 244.749 229.072 244.749L229.297 244.563C229.451 244.435 229.676 244.261 229.984 244.037C230.867 243.369 231.813 242.788 232.808 242.303C233.534 241.95 234.305 241.701 235.1 241.565C236.131 241.375 237.195 241.515 238.141 241.964C239.087 242.414 239.867 243.15 240.371 244.069C240.992 245.15 241.338 246.367 241.379 247.613C241.423 248.969 241.3 250.325 241.013 251.651C240.737 253.037 240.416 254.463 240.037 255.926C238.296 262.5 235.58 268.775 231.98 274.544C230.979 276.111 229.932 277.677 228.77 279.205C227.637 280.791 226.363 282.272 224.963 283.629C223.565 285.028 221.815 286.024 219.898 286.511C218.941 286.706 217.953 286.677 217.009 286.428C216.081 286.172 215.227 285.699 214.518 285.048C213.173 283.76 212.274 282.078 211.95 280.245C211.634 278.501 211.728 276.708 212.226 275.007C213.144 271.681 214.877 268.895 216.238 266.211C217.6 263.528 218.948 261.037 220.142 258.758C222.014 255.15 224.098 251.655 226.382 248.293C227.204 247.112 227.884 246.219 228.353 245.629L228.899 244.987C228.945 244.914 228.994 244.843 229.046 244.775Z" fill="#263238"/>
<g opacity="0.3">
<path d="M229.367 253.93V253.963C230.009 252.152 231.377 251.632 232.847 251.099C234.317 250.566 236.095 250.624 237.277 251.651C238.638 252.833 238.811 254.913 238.445 256.678C238.359 257.302 238.103 257.89 237.707 258.38C237.502 258.617 237.226 258.783 236.92 258.854C236.614 258.924 236.294 258.895 236.005 258.771C235.363 258.418 235.164 257.487 234.484 257.205C233.803 256.922 232.905 257.558 232.083 257.763C231.521 257.872 230.938 257.783 230.434 257.512C229.93 257.24 229.535 256.803 229.316 256.274C229.168 255.899 229.097 255.499 229.106 255.097C229.115 254.695 229.203 254.298 229.367 253.93Z" fill="black"/>
</g>
<g opacity="0.3">
<path d="M232.166 244.89C232.496 245.037 232.771 245.284 232.952 245.597C233.133 245.909 233.211 246.271 233.174 246.63C233.142 247.436 232.966 248.229 232.654 248.973C232.43 249.615 232.051 250.328 231.37 250.353C231.179 250.348 230.993 250.294 230.829 250.196C230.665 250.099 230.528 249.96 230.433 249.795C230.249 249.459 230.145 249.086 230.131 248.703C230.067 247.828 230.203 246.95 230.529 246.135C230.67 245.711 230.933 245.338 231.287 245.063C231.465 244.928 231.683 244.855 231.906 244.855C232.13 244.855 232.347 244.928 232.526 245.063" fill="black"/>
</g>
<g opacity="0.3">
<path d="M239.857 246.47C240.187 246.617 240.462 246.864 240.643 247.176C240.824 247.489 240.902 247.85 240.865 248.21C240.833 249.015 240.657 249.809 240.345 250.553C240.121 251.195 239.735 251.908 239.061 251.933C238.87 251.929 238.683 251.875 238.519 251.777C238.355 251.679 238.219 251.541 238.124 251.375C237.934 251.042 237.83 250.667 237.822 250.283C237.759 249.409 237.893 248.531 238.214 247.715C238.357 247.29 238.623 246.917 238.978 246.643C239.156 246.507 239.373 246.434 239.597 246.434C239.821 246.434 240.039 246.507 240.217 246.643" fill="black"/>
</g>
<g opacity="0.3">
<path d="M236.609 243.529C236.938 243.68 237.211 243.929 237.392 244.241C237.572 244.554 237.651 244.916 237.617 245.275C237.582 246.079 237.406 246.87 237.097 247.612C236.866 248.254 236.487 248.973 235.813 248.993C235.622 248.988 235.435 248.934 235.271 248.836C235.107 248.739 234.971 248.6 234.876 248.434C234.691 248.102 234.589 247.729 234.58 247.349C234.511 246.474 234.645 245.595 234.972 244.781C235.112 244.354 235.378 243.98 235.736 243.709C235.913 243.575 236.13 243.502 236.352 243.502C236.575 243.502 236.791 243.575 236.969 243.709" fill="black"/>
</g>
<g opacity="0.3">
<path d="M234.118 269.773C233.606 273.658 232.549 277.451 230.979 281.041C229.395 284.645 226.974 287.819 223.917 290.298C222.504 291.402 220.848 292.353 219.057 292.398C216.521 292.462 214.21 290.645 213.067 288.379C211.924 286.112 211.783 283.48 211.898 280.951C213.125 282.999 214.505 285.181 216.726 286.087C217.708 286.416 218.749 286.529 219.778 286.418C220.808 286.307 221.801 285.975 222.69 285.445C224.462 284.371 226.012 282.968 227.255 281.31C230.006 277.952 232.267 274.222 233.97 270.229" fill="black"/>
</g>
<path d="M90.3292 245.288C87.1706 244.318 83.2672 243.516 80.9432 245.891C80.3342 246.606 79.9009 247.453 79.678 248.365C79.455 249.276 79.4486 250.228 79.6592 251.143C80.0931 252.97 80.8638 254.701 81.9319 256.247C87.6705 265.438 95.5358 273.114 104.864 278.627C108.247 280.617 112.626 282.286 115.926 280.148C119.014 278.158 119.476 273.606 117.999 270.249C116.523 266.891 113.634 264.394 110.867 261.935C104.357 256.157 97.693 249.621 90.3228 245.243" fill="#DD5491"/>
<path d="M90.3295 245.288C90.3295 245.288 90.4194 245.327 90.5927 245.423L91.331 245.86C91.973 246.251 92.9296 246.848 94.1173 247.664C97.4335 250.015 100.608 252.56 103.625 255.284L109.898 260.895C112.113 262.931 114.713 264.934 116.735 267.726C117.799 269.144 118.517 270.791 118.834 272.535C119.164 274.369 118.905 276.261 118.096 277.94C117.656 278.796 117.023 279.537 116.247 280.104C115.449 280.671 114.53 281.044 113.563 281.195C111.589 281.417 109.592 281.098 107.785 280.271C105.994 279.49 104.275 278.551 102.649 277.465C101.032 276.438 99.4972 275.334 98.0142 274.223C95.2002 272.048 92.56 269.657 90.1176 267.071C87.896 264.73 85.8449 262.233 83.9801 259.599C83.1134 258.359 82.3109 257.133 81.5726 255.933C80.8369 254.792 80.244 253.565 79.8071 252.28C79.4098 251.098 79.3084 249.837 79.5118 248.607C79.6616 247.571 80.1343 246.608 80.8627 245.855C81.591 245.103 82.5381 244.599 83.5692 244.415C84.3628 244.268 85.1727 244.229 85.9767 244.3C87.0796 244.41 88.1694 244.625 89.2317 244.942C89.5976 245.044 89.8737 245.128 90.0534 245.192L90.3295 245.295L90.047 245.224L89.2124 245.006C88.1479 244.723 87.0611 244.532 85.9639 244.434C85.1736 244.376 84.3791 244.424 83.6013 244.576C82.6786 244.762 81.828 245.208 81.1489 245.86C79.653 247.24 79.2229 249.847 80.0318 252.235C80.4711 253.498 81.0618 254.703 81.7909 255.824C82.5356 257.018 83.3403 258.231 84.2048 259.464C88.1423 264.975 92.8787 269.87 98.2582 273.986C99.7348 275.096 101.263 276.194 102.874 277.196C104.475 278.271 106.171 279.2 107.94 279.969C109.681 280.77 111.606 281.085 113.512 280.881C114.437 280.74 115.316 280.386 116.08 279.847C116.817 279.313 117.415 278.611 117.826 277.799C118.609 276.185 118.861 274.365 118.545 272.599C118.241 270.902 117.544 269.299 116.51 267.919C114.533 265.171 111.952 263.162 109.737 261.114L103.497 255.47C100.498 252.73 97.3497 250.158 94.0659 247.766C92.8975 246.932 91.9602 246.322 91.3246 245.911L90.5991 245.449L90.3295 245.288Z" fill="#263238"/>
<g opacity="0.3">
<path d="M93.2439 253.969C92.0048 252.499 90.5475 252.486 88.981 252.505C87.4145 252.525 85.771 253.205 85.0263 254.573C84.166 256.165 84.731 258.168 85.6683 259.709C85.9627 260.264 86.4078 260.724 86.9523 261.038C87.226 261.191 87.5419 261.252 87.853 261.212C88.1642 261.171 88.4539 261.031 88.6793 260.813C89.1608 260.254 89.0259 259.323 89.5524 258.81C90.0788 258.296 91.1638 258.585 91.9984 258.495C92.5629 258.4 93.0773 258.113 93.455 257.682C93.8326 257.252 94.0506 256.705 94.0721 256.133C94.0893 255.331 93.792 254.554 93.2439 253.969Z" fill="black"/>
</g>
<g opacity="0.3">
<path d="M87.4467 246.483C87.1894 246.737 87.0188 247.067 86.9589 247.424C86.8989 247.781 86.9528 248.148 87.1129 248.473C87.4188 249.213 87.8535 249.894 88.3969 250.482C88.827 250.989 89.4433 251.542 90.0725 251.33C90.2499 251.258 90.4057 251.142 90.5249 250.992C90.6441 250.843 90.7227 250.665 90.753 250.476C90.8108 250.099 90.7778 249.714 90.6567 249.352C90.4052 248.508 89.9663 247.731 89.3727 247.08C89.0922 246.729 88.7116 246.471 88.2813 246.341C88.0662 246.282 87.8378 246.295 87.6305 246.377C87.4231 246.459 87.2482 246.607 87.1321 246.797" fill="black"/>
</g>
<g opacity="0.3">
<path d="M80.8019 250.663C80.5452 250.917 80.3748 251.245 80.3149 251.601C80.255 251.957 80.3086 252.323 80.4681 252.647C80.7736 253.387 81.2084 254.068 81.7521 254.656C82.1886 255.163 82.7985 255.715 83.4341 255.504C83.6108 255.431 83.766 255.314 83.8851 255.165C84.0042 255.015 84.0832 254.838 84.1146 254.65C84.1704 254.272 84.1352 253.887 84.0119 253.526C83.7629 252.681 83.3237 251.903 82.7279 251.254C82.4474 250.902 82.0668 250.645 81.6365 250.515C81.4215 250.456 81.193 250.469 80.9857 250.551C80.7784 250.633 80.6034 250.781 80.4873 250.971" fill="black"/>
</g>
<g opacity="0.3">
<path d="M82.818 246.772C82.5613 247.026 82.3909 247.354 82.331 247.71C82.2711 248.066 82.3247 248.432 82.4842 248.756C82.7897 249.497 83.2245 250.177 83.7682 250.765C84.2048 251.273 84.8147 251.825 85.4502 251.613C85.6273 251.541 85.7828 251.424 85.9019 251.275C86.0211 251.125 86.0999 250.948 86.1308 250.759C86.1865 250.382 86.1513 249.997 86.028 249.636C85.779 248.79 85.3398 248.013 84.744 247.363C84.4636 247.012 84.0829 246.754 83.6526 246.625C83.4376 246.566 83.2091 246.578 83.0018 246.66C82.7945 246.742 82.6195 246.89 82.5035 247.08" fill="black"/>
</g>
<g opacity="0.3">
<path d="M94.374 270.475C96.2084 273.926 98.5186 277.103 101.237 279.912C103.97 282.739 107.34 284.87 111.066 286.127C112.774 286.672 114.655 286.98 116.35 286.396C118.751 285.568 120.272 283.058 120.548 280.535C120.824 278.012 120.054 275.489 119.04 273.165C118.61 275.514 118.083 278.044 116.311 279.649C115.514 280.302 114.584 280.774 113.587 281.034C112.589 281.293 111.548 281.333 110.533 281.151C108.497 280.769 106.553 279.999 104.807 278.885C101.057 276.7 97.6335 273.999 94.6372 270.86" fill="black"/>
</g>
<g opacity="0.3">
<path d="M91.9855 266.987C91.7993 267.244 91.6131 267.507 91.4334 267.771C92.2262 266.492 93.2701 265.387 94.502 264.523C95.7338 263.658 97.1281 263.053 98.6005 262.743C100.073 262.433 101.593 262.424 103.069 262.718C104.544 263.012 105.945 263.602 107.187 264.452C108.428 265.303 109.484 266.396 110.291 267.666C111.098 268.936 111.639 270.357 111.882 271.842C112.124 273.327 112.063 274.846 111.702 276.306C111.341 277.767 110.688 279.14 109.782 280.341C102.564 277.39 96.0303 272.987 90.5859 267.405" fill="white"/>
</g>
<path d="M273.235 260.652C273.24 260.796 273.229 260.941 273.203 261.082C273.158 261.403 273.1 261.808 273.036 262.315C272.888 263.387 272.638 264.928 272.285 266.809C271.411 271.776 270.096 276.655 268.356 281.389C267.355 283.986 266.147 286.498 264.741 288.9C264.414 289.452 264.061 289.966 263.74 290.48L263.252 291.231L262.732 291.931L261.743 293.247C261.403 293.651 261.063 294.03 260.742 294.389C260.421 294.749 260.132 295.115 259.811 295.41L258.925 296.264L258.148 297.002L257.442 297.561L256.46 298.331C256.351 298.428 256.23 298.51 256.1 298.575C256.197 298.467 256.302 298.366 256.415 298.274L257.358 297.465L258.039 296.887L258.79 296.129L259.657 295.269C259.971 294.967 260.247 294.595 260.562 294.235L261.538 293.086L262.507 291.764L263.014 291.07C263.175 290.826 263.329 290.576 263.49 290.319C263.811 289.806 264.132 289.292 264.478 288.746C265.845 286.349 267.028 283.851 268.016 281.273C269.755 276.564 271.106 271.72 272.054 266.79C272.433 264.902 272.696 263.368 272.908 262.296C272.998 261.795 273.075 261.391 273.132 261.076C273.156 260.932 273.19 260.791 273.235 260.652Z" fill="#263238"/>
<path d="M125.537 221.709C125.621 221.593 125.72 221.49 125.832 221.401L126.724 220.566C127.116 220.2 127.597 219.764 128.175 219.282C128.753 218.801 129.395 218.216 130.14 217.626C131.61 216.412 133.414 215.058 135.475 213.581C137.536 212.104 139.866 210.634 142.383 209.171C144.899 207.707 147.371 206.448 149.644 205.37C151.916 204.291 154.022 203.444 155.807 202.757C156.693 202.404 157.508 202.115 158.221 201.871C158.933 201.627 159.556 201.415 160.063 201.261L161.238 200.902C161.371 200.852 161.509 200.818 161.649 200.799C161.523 200.865 161.392 200.921 161.257 200.966L160.102 201.383C159.601 201.556 158.991 201.775 158.285 202.025C157.579 202.275 156.77 202.584 155.89 202.95C154.125 203.649 152.038 204.555 149.779 205.627C147.519 206.699 145.092 208.008 142.524 209.447C139.956 210.885 137.696 212.4 135.622 213.825C133.549 215.25 131.77 216.611 130.262 217.799C129.511 218.377 128.856 218.935 128.272 219.417C127.687 219.898 127.187 220.309 126.789 220.662L125.851 221.452C125.757 221.55 125.651 221.636 125.537 221.709Z" fill="#263238"/>
<path d="M107.464 210.986C107.464 210.986 107.503 210.954 107.58 210.897L107.939 210.653L109.352 209.754C109.962 209.362 110.713 208.893 111.612 208.386C112.51 207.879 113.538 207.263 114.668 206.672L116.465 205.716C117.107 205.388 117.749 205.074 118.449 204.74C119.81 204.053 121.312 203.411 122.879 202.711C126.044 201.376 129.575 200.04 133.363 198.859C137.15 197.678 140.829 196.824 144.2 196.156C145.888 195.854 147.493 195.546 149.008 195.347C149.759 195.245 150.491 195.123 151.191 195.046L153.22 194.821C154.504 194.667 155.679 194.603 156.706 194.526C157.733 194.448 158.632 194.404 159.351 194.384L161.02 194.339H161.45C161.501 194.33 161.553 194.33 161.604 194.339H161.457L161.02 194.378L159.357 194.487C158.632 194.526 157.746 194.577 156.725 194.68C155.704 194.782 154.529 194.853 153.245 195.026L151.223 195.27C150.523 195.354 149.798 195.482 149.047 195.591C147.538 195.797 145.939 196.118 144.257 196.426C140.906 197.113 137.24 197.999 133.459 199.148C129.678 200.297 126.159 201.639 123.001 202.955C121.434 203.642 119.932 204.277 118.571 204.952C117.884 205.285 117.21 205.594 116.581 205.908L114.777 206.845C113.621 207.423 112.607 208.014 111.708 208.508C110.809 209.003 110.039 209.452 109.416 209.824L107.978 210.672L107.599 210.884C107.516 210.974 107.464 210.993 107.464 210.986Z" fill="#263238"/>
<path d="M183.972 189.826C184.01 189.922 182.354 190.622 180.524 191.848C178.694 193.075 177.404 194.327 177.314 194.25C179.067 192.181 181.368 190.648 183.952 189.826H183.972Z" fill="#263238"/>
<path d="M194.834 193.313C194.834 193.377 193.884 192.947 192.311 192.549C190.262 192.014 188.139 191.819 186.026 191.971C183.913 192.06 181.844 192.61 179.966 193.583C179.218 194.033 178.574 194.637 178.078 195.355C178.144 195.121 178.255 194.903 178.406 194.713C178.795 194.18 179.283 193.727 179.844 193.377C181.243 192.459 183.497 191.824 186 191.631C188.149 191.476 190.308 191.706 192.375 192.312C192.999 192.486 193.61 192.7 194.205 192.954C194.427 193.05 194.638 193.171 194.834 193.313Z" fill="#263238"/>
<path d="M163.254 192.118C163.823 190.973 164.624 189.959 165.607 189.141C166.589 188.323 167.732 187.719 168.961 187.367C173.057 186.289 177.307 190.577 177.307 190.577C177.307 190.577 172.357 189.12 172.428 191.579C172.499 194.038 173.956 193.98 172.313 195.598C170.669 197.216 167.851 195.514 167.177 193.608L165.854 191.746L163.254 192.118Z" fill="#263238"/>
<path d="M180.216 194.525C180.216 194.525 180.216 194.609 180.248 194.757C180.269 194.981 180.269 195.206 180.248 195.431C180.13 196.253 179.798 197.031 179.285 197.684C178.91 198.18 178.439 198.595 177.899 198.904C177.359 199.213 176.763 199.41 176.145 199.482C175.383 199.54 174.617 199.417 173.911 199.124C173.205 198.83 172.578 198.374 172.081 197.793C171.59 197.228 171.243 196.552 171.074 195.822L171.388 195.732C171.581 196.337 171.634 196.977 171.541 197.605C171.449 198.232 171.214 198.83 170.855 199.353C170.37 200.033 169.683 200.544 168.891 200.812C168.1 201.081 167.244 201.093 166.445 200.849C166.276 200.798 166.113 200.731 165.957 200.65C165.854 200.592 165.803 200.56 165.803 200.547C165.803 200.535 166.04 200.637 166.477 200.74C167.094 200.881 167.735 200.881 168.351 200.74C169.276 200.532 170.087 199.978 170.618 199.193C170.942 198.704 171.152 198.148 171.232 197.567C171.312 196.985 171.26 196.394 171.08 195.835L171.395 195.752C171.558 196.426 171.882 197.052 172.338 197.575C172.801 198.117 173.383 198.545 174.04 198.823C174.696 199.102 175.408 199.224 176.12 199.18C176.701 199.117 177.264 198.939 177.777 198.657C178.289 198.375 178.741 197.994 179.105 197.536C179.615 196.921 179.963 196.189 180.119 195.405C180.203 194.866 180.184 194.525 180.216 194.525Z" fill="#263238"/>
<path d="M172.281 187.97C171.856 188.034 171.425 188.053 170.997 188.028C169.958 188.017 168.923 188.151 167.921 188.426C166.932 188.715 166.034 189.254 165.315 189.993C164.782 190.577 164.589 191.046 164.538 191.026C164.623 190.581 164.832 190.169 165.142 189.839C165.842 189.004 166.777 188.4 167.825 188.105C168.859 187.819 169.934 187.712 171.003 187.791C171.436 187.784 171.867 187.844 172.281 187.97Z" fill="white"/>
<path d="M179.109 200.946C178.539 200.654 178.108 200.34 177.831 200.011C177.461 199.692 177.246 199.358 177.192 199.02C177.281 199.02 177.594 199.454 178.127 199.984C178.66 200.514 179.192 200.935 179.109 200.946Z" fill="#263238"/>
<path d="M179.115 200.947C178.925 200.559 178.781 200.139 178.689 199.701C178.566 199.275 178.494 198.83 178.476 198.379C178.506 198.379 178.61 198.959 178.788 199.665C178.965 200.372 179.143 200.933 179.115 200.947Z" fill="#263238"/>
<path d="M127.803 211.122C127.881 211.038 127.967 210.963 128.06 210.897L128.836 210.293C129.478 209.773 130.525 209.061 131.802 208.226C133.08 207.392 134.634 206.454 136.412 205.491C138.19 204.528 140.193 203.565 142.35 202.686C144.508 201.806 146.607 201.087 148.539 200.503C150.472 199.919 152.244 199.495 153.74 199.219C155.235 198.943 156.455 198.705 157.303 198.577L158.278 198.455C158.392 198.442 158.506 198.442 158.619 198.455C158.512 198.501 158.4 198.531 158.285 198.545L157.322 198.725C156.481 198.866 155.274 199.11 153.791 199.444C152.308 199.777 150.581 200.227 148.655 200.811C146.729 201.395 144.649 202.134 142.498 203.007C140.347 203.88 138.364 204.849 136.579 205.78C134.794 206.711 133.24 207.629 131.95 208.438C130.66 209.247 129.639 209.927 128.939 210.415L128.124 210.961C127.912 211.077 127.809 211.134 127.803 211.122Z" fill="#263238"/>
<path d="M159.972 182.84C161.826 175.062 157.025 167.254 149.247 165.4C141.47 163.545 133.661 168.347 131.807 176.125C129.953 183.902 134.755 191.71 142.532 193.565C150.31 195.419 158.118 190.617 159.972 182.84Z" fill="#F5F5F5"/>
<path d="M160.378 179.502C160.378 186.487 155.659 192.156 151.666 192.156C147.673 192.156 144.45 186.487 144.45 179.502C144.45 172.517 147.66 166.842 151.691 166.842C155.723 166.842 160.378 172.511 160.378 179.502Z" fill="#263238"/>
<path d="M154.876 174.823C156.245 174.823 157.354 173.714 157.354 172.345C157.354 170.977 156.245 169.867 154.876 169.867C153.507 169.867 152.398 170.977 152.398 172.345C152.398 173.714 153.507 174.823 154.876 174.823Z" fill="white"/>
<path d="M148.469 188.696C148.324 188.511 148.203 188.308 148.109 188.093C147.806 187.524 147.547 186.934 147.332 186.327C146.999 185.429 146.739 184.506 146.555 183.567C146.337 182.415 146.217 181.246 146.196 180.074C146.192 178.9 146.288 177.727 146.485 176.569C146.65 175.626 146.89 174.699 147.204 173.795C147.405 173.185 147.652 172.59 147.942 172.017C148.029 171.789 148.146 171.573 148.289 171.375C148.347 171.375 147.904 172.306 147.429 173.847C147.153 174.747 146.938 175.665 146.787 176.594C146.612 177.735 146.526 178.888 146.53 180.042C146.551 181.196 146.66 182.346 146.857 183.483C147.026 184.412 147.26 185.328 147.557 186.224C148.064 187.778 148.526 188.67 148.469 188.696Z" fill="white"/>
<path d="M142.222 161.064C142.184 161.533 141.644 161.892 140.938 162.226C140.232 162.56 139.275 162.868 138.332 163.298C137.388 163.729 136.56 164.101 135.854 164.422C135.147 164.743 134.57 164.936 134.152 164.685C133.735 164.435 133.684 163.735 134.152 162.804C134.786 161.629 135.817 160.719 137.061 160.236C138.252 159.711 139.582 159.589 140.848 159.889C141.754 160.133 142.261 160.615 142.222 161.064Z" fill="#263238"/>
<path d="M73.1304 284.406L76.3853 279.308C91.8832 296.334 143.089 316.583 188.934 270.815C208.624 251.156 207.032 217.939 207.032 217.939L203.116 205.639H207.032C207.032 205.639 218.383 226.574 206.499 253.988C206.499 253.988 194.301 286.479 156.956 298.286C98.0464 316.891 73.1304 284.406 73.1304 284.406Z" fill="#DD5491"/>
<g opacity="0.7">
<path d="M73.1304 284.406L76.3853 279.308C91.8832 296.334 143.089 316.583 188.934 270.815C208.624 251.156 207.032 217.939 207.032 217.939L203.116 205.639H207.032C207.032 205.639 218.383 226.574 206.499 253.988C206.499 253.988 194.301 286.479 156.956 298.286C98.0464 316.891 73.1304 284.406 73.1304 284.406Z" fill="white"/>
</g>
<path d="M72.2522 290.634C83.1207 279.766 83.1207 262.144 72.2522 251.276C61.3836 240.407 43.7622 240.407 32.8936 251.276C22.0251 262.144 22.0251 279.766 32.8936 290.634C43.7622 301.503 61.3836 301.503 72.2522 290.634Z" fill="#DD5491"/>
<g opacity="0.7">
<path d="M72.2522 290.636C83.1207 279.768 83.1207 262.146 72.2522 251.278C61.3836 240.409 43.7622 240.409 32.8936 251.278C22.0251 262.146 22.0251 279.768 32.8936 290.636C43.7622 301.505 61.3836 301.505 72.2522 290.636Z" fill="white"/>
</g>
<path d="M59.2439 243.902C59.2289 244.081 59.1967 244.257 59.1476 244.429C59.0705 244.801 58.955 245.302 58.8201 245.937C58.7431 246.265 58.6596 246.631 58.5698 247.022C58.4799 247.414 58.3386 247.838 58.2102 248.306C57.9342 249.218 57.671 250.271 57.2472 251.394L56.6052 253.166C56.387 253.808 56.1109 254.405 55.8477 255.06C55.3469 256.376 54.6792 257.731 54.0051 259.163C52.4606 262.236 50.697 265.195 48.7279 268.016C46.7184 270.809 44.5106 273.455 42.1217 275.932C40.9854 277.042 39.9325 278.115 38.8539 279.026C38.3275 279.488 37.8267 279.957 37.3196 280.368L35.8494 281.543C34.9313 282.313 34.0261 282.91 33.2814 283.469C32.8898 283.745 32.5367 284.008 32.1964 284.233L31.2527 284.83L29.9687 285.639C29.8223 285.743 29.6651 285.831 29.5 285.902C29.6364 285.786 29.7801 285.679 29.9301 285.581L31.2141 284.721L32.1386 284.079C32.4725 283.841 32.8191 283.572 33.2043 283.295C33.9619 282.724 34.8543 282.108 35.7723 281.331L37.2233 280.15C37.7304 279.732 38.2184 279.264 38.7384 278.795C39.8041 277.877 40.8506 276.798 41.9484 275.688C44.3019 273.218 46.4813 270.588 48.4711 267.817C50.4322 265.011 52.1956 262.072 53.7483 259.021C54.4289 257.596 55.0965 256.254 55.6101 254.951C55.8798 254.309 56.1623 253.667 56.387 253.07C56.6117 252.473 56.8235 251.87 57.029 251.311C57.4655 250.194 57.748 249.147 58.0369 248.249C58.1717 247.793 58.313 247.369 58.4221 246.965C58.5312 246.56 58.6147 246.214 58.6982 245.886C58.8651 245.244 58.9935 244.763 59.0898 244.397C59.1271 244.228 59.1787 244.062 59.2439 243.902Z" fill="#DD5491"/>
<path d="M65.824 246.74C65.8042 246.929 65.7677 247.116 65.7149 247.299C65.625 247.69 65.503 248.217 65.3425 248.885C65.259 249.231 65.1627 249.616 65.06 250.034C64.9573 250.451 64.8096 250.894 64.662 251.375C64.3602 252.332 64.0713 253.449 63.6027 254.624L62.9157 256.492C62.6782 257.134 62.3636 257.776 62.0747 258.482C61.5162 259.863 60.7907 261.282 60.0396 262.777C58.3326 265.992 56.3794 269.07 54.1974 271.984C51.981 274.866 49.5494 277.577 46.9235 280.092C45.6909 281.228 44.5224 282.32 43.354 283.244C42.7762 283.713 42.2369 284.195 41.6784 284.599L40.0798 285.787C39.0847 286.563 38.1024 287.167 37.2678 287.713C36.4332 288.258 35.6949 288.727 35.085 289.08L33.6726 289.902C33.5123 290.003 33.3449 290.094 33.1719 290.172C33.3195 290.051 33.4762 289.941 33.6405 289.844L35.0144 288.971C35.6179 288.599 36.3498 288.143 37.1651 287.559C37.9805 286.974 38.9563 286.364 39.945 285.581L41.5179 284.406C42.07 283.996 42.6029 283.508 43.1742 283.039C44.3363 282.108 45.4854 281.017 46.7117 279.88C49.3086 277.357 51.7202 274.649 53.9277 271.778C56.0974 268.881 58.046 265.825 59.7571 262.636C60.5147 261.147 61.2465 259.741 61.8179 258.367C62.1068 257.686 62.4599 257.044 62.6654 256.396C62.8708 255.748 63.1469 255.112 63.3716 254.547C63.8531 253.372 64.1548 252.274 64.4758 251.337C64.6299 250.855 64.7904 250.412 64.9059 250.002C65.0215 249.591 65.1178 249.212 65.2077 248.865C65.3939 248.223 65.5351 247.684 65.6442 247.299C65.6929 247.109 65.753 246.923 65.824 246.74Z" fill="#DD5491"/>
<path d="M71.9038 251.74C71.8714 251.928 71.8242 252.112 71.7625 252.292C71.647 252.684 71.4865 253.204 71.2874 253.872C71.1847 254.212 71.0627 254.591 70.9408 255.002C70.8188 255.412 70.6326 255.855 70.4593 256.337C70.0997 257.281 69.7338 258.379 69.1753 259.547L68.3856 261.389C68.1095 262.031 67.7757 262.673 67.4483 263.354C66.8063 264.715 66.023 266.115 65.2141 267.598C63.3877 270.767 61.3479 273.809 59.1087 276.701C56.8155 279.564 54.3271 282.264 51.6615 284.784C50.3775 285.92 49.2347 287.012 48.047 287.943C47.4628 288.411 46.9171 288.886 46.3522 289.304L44.7407 290.498C43.7264 291.275 42.7441 291.884 41.9031 292.424C41.4794 292.7 41.0878 292.969 40.7154 293.194L39.6946 293.798L38.2694 294.619C38.1065 294.72 37.9371 294.811 37.7622 294.889C37.9116 294.767 38.0704 294.658 38.2373 294.562L39.624 293.689L40.6319 293.047C40.9979 292.815 41.3831 292.539 41.8004 292.257C42.6286 291.673 43.598 291.056 44.5995 290.267C45.1131 289.881 45.646 289.483 46.1981 289.06C46.7502 288.636 47.2895 288.161 47.8737 287.686C49.0421 286.755 50.2106 285.657 51.4496 284.527C54.0901 282.003 56.5607 279.307 58.8455 276.457C61.0934 273.581 63.148 270.559 64.9958 267.411C65.8112 265.935 66.6137 264.555 67.2557 263.2C67.5831 262.558 67.8977 261.916 68.2058 261.274C68.514 260.632 68.7515 260.022 69.0083 259.444C69.5476 258.289 69.9264 257.197 70.2923 256.234C70.4785 255.766 70.6519 255.329 70.7995 254.918C70.9472 254.507 71.0627 254.135 71.1783 253.795C71.403 253.153 71.5828 252.626 71.7112 252.241C71.7636 252.07 71.828 251.902 71.9038 251.74Z" fill="#DD5491"/>
<path d="M79.2034 278.146C78.9788 278.09 78.7629 278.003 78.5614 277.889C78.1762 277.709 77.6177 277.427 76.9371 277.074C75.5761 276.367 73.7272 275.34 71.7049 274.133C69.6826 272.926 67.9235 271.764 66.6587 270.891C66.0167 270.455 65.5224 270.095 65.1757 269.832C64.9881 269.712 64.8156 269.57 64.6621 269.408C64.8722 269.489 65.0708 269.597 65.2527 269.729L66.7871 270.692C68.0711 271.514 69.8751 272.618 71.8782 273.844C73.8812 275.071 75.7302 276.111 77.0527 276.868L78.6256 277.773C78.8354 277.869 79.03 277.994 79.2034 278.146Z" fill="#DD5491"/>
<path d="M80.3783 272.123C79.7309 271.759 79.1089 271.351 78.5165 270.903C77.3801 270.127 75.8008 269.074 74.0225 267.982C72.2441 266.891 70.5685 265.979 69.3615 265.312C68.6936 264.981 68.05 264.603 67.4355 264.182C67.6333 264.227 67.8236 264.3 68.0005 264.4C68.3536 264.554 68.8544 264.792 69.4707 265.1C70.7033 265.742 72.3918 266.608 74.1958 267.7C75.9998 268.791 77.5599 269.883 78.6898 270.711C79.2419 271.128 79.6849 271.468 79.9738 271.719C80.2627 271.969 80.3975 272.11 80.3783 272.123Z" fill="#DD5491"/>
<path d="M63.2304 296.091C63.1341 296.091 62.9159 290.993 62.7425 284.695C62.5692 278.397 62.4986 273.287 62.5884 273.287C62.6783 273.287 62.8966 278.385 63.0764 284.683C63.2561 290.981 63.3203 296.091 63.2304 296.091Z" fill="#DD5491"/>
<path d="M49.511 299.281C49.3418 297.161 49.2861 295.033 49.344 292.906C49.2859 290.78 49.3416 288.652 49.511 286.531C49.6764 288.652 49.7321 290.78 49.6779 292.906C49.7319 295.033 49.6762 297.161 49.511 299.281Z" fill="#DD5491"/>
<path d="M56.2519 298.53C56.162 298.53 56.1107 294.357 56.1492 289.214C56.1877 284.072 56.284 279.893 56.3803 279.893C56.4766 279.893 56.5151 284.066 56.483 289.214C56.4509 294.363 56.3418 298.53 56.2519 298.53Z" fill="#DD5491"/>
<path d="M42.025 275.925C41.9737 276.002 38.3399 273.658 33.9166 270.686C29.4932 267.713 25.9365 265.242 25.9879 265.145C26.0392 265.049 29.6729 267.412 34.1027 270.384C38.5325 273.357 42.0764 275.848 42.025 275.925Z" fill="#DD5491"/>
<path d="M37.1781 279.911C36.9854 279.882 36.7989 279.821 36.6259 279.732C36.2857 279.597 35.7913 279.378 35.1943 279.09C33.6514 278.336 32.1512 277.498 30.7003 276.579C28.9926 275.501 27.4903 274.429 26.4502 273.633C25.8602 273.23 25.308 272.774 24.8003 272.271C25.4234 272.619 26.0219 273.01 26.5915 273.44C27.6765 274.191 29.1595 275.225 30.88 276.297C32.6006 277.369 34.1671 278.255 35.3291 278.865C35.9654 279.177 36.5828 279.526 37.1781 279.911Z" fill="#DD5491"/>
<path d="M53.8832 259.111C53.569 259.263 53.2426 259.387 52.9073 259.483C52.5204 259.626 52.1261 259.748 51.7261 259.849C51.2638 259.978 50.7374 260.125 50.1467 260.247C48.7615 260.546 47.3593 260.761 45.9481 260.889C44.2192 261.043 42.4829 261.097 40.7479 261.05C39.0132 260.987 37.2834 260.827 35.5669 260.568C34.1666 260.352 32.7798 260.057 31.4132 259.682C30.829 259.535 30.3089 259.368 29.8531 259.22C29.3973 259.073 28.9993 258.938 28.6911 258.809C28.3567 258.701 28.0323 258.563 27.7217 258.398C28.065 258.467 28.4021 258.564 28.7296 258.687C29.0506 258.796 29.4422 258.918 29.9045 259.04C30.3667 259.162 30.8867 259.323 31.471 259.458C32.6394 259.759 34.039 260.016 35.6119 260.267C37.3151 260.503 39.0294 260.653 40.7479 260.716C42.461 260.76 44.1754 260.715 45.8839 260.581C47.2906 260.467 48.6901 260.276 50.0761 260.01C50.6732 259.907 51.1996 259.772 51.6619 259.663C52.1241 259.554 52.5286 259.451 52.8496 259.355C53.1852 259.24 53.5315 259.158 53.8832 259.111Z" fill="#DD5491"/>
<path d="M56.9579 251.908C56.6556 252.079 56.34 252.225 56.0142 252.345C55.706 252.486 55.3208 252.627 54.8714 252.788C54.422 252.948 53.9084 253.134 53.3371 253.301C51.9893 253.715 50.6198 254.053 49.2347 254.316C47.5361 254.626 45.8214 254.84 44.0987 254.958C42.3754 255.06 40.6475 255.06 38.9242 254.958C37.5181 254.867 36.1197 254.683 34.7383 254.406C34.1413 254.303 33.6148 254.162 33.1526 254.04C32.7572 253.943 32.3671 253.825 31.9841 253.687C31.6494 253.589 31.3231 253.464 31.0083 253.314C31.3537 253.365 31.6934 253.448 32.0227 253.565C32.3372 253.661 32.7353 253.757 33.1975 253.853C33.6598 253.95 34.1862 254.085 34.7768 254.174C36.1555 254.413 37.5466 254.571 38.9434 254.65C40.655 254.727 42.3695 254.712 44.0794 254.605C45.7883 254.476 47.4896 254.262 49.1769 253.963C50.7241 253.661 52.1173 253.359 53.26 253.025C53.8378 252.871 54.3514 252.704 54.8072 252.557C55.2631 252.409 55.6483 252.293 55.9628 252.171C56.2856 252.053 56.6188 251.965 56.9579 251.908Z" fill="#DD5491"/>
<path d="M58.8585 245.564C58.5905 245.714 58.3061 245.833 58.011 245.918C57.4589 246.129 56.6436 246.405 55.6356 246.714C52.9965 247.526 50.2985 248.134 47.5657 248.53C44.8307 248.93 42.0657 249.087 39.3031 248.999C38.2438 248.954 37.3771 248.89 36.7993 248.819C36.4916 248.802 36.1863 248.755 35.8877 248.678C36.1952 248.65 36.5046 248.65 36.8122 248.678C37.3964 248.71 38.2503 248.736 39.3096 248.749C42.0521 248.772 44.7926 248.59 47.5079 248.203C50.2267 247.8 52.9176 247.228 55.565 246.489C56.5794 246.206 57.4011 245.969 57.9661 245.796C58.2565 245.694 58.555 245.616 58.8585 245.564Z" fill="#DD5491"/>
<path d="M70.1065 272.945C69.0041 274.397 67.8142 275.78 66.5434 277.086C65.3542 278.469 64.0829 279.779 62.7363 281.009C63.8395 279.556 65.0294 278.171 66.2994 276.862C67.4875 275.48 68.7589 274.172 70.1065 272.945Z" fill="#DD5491"/>
<path d="M75.4479 276.105C75.3786 276.298 75.2813 276.48 75.159 276.645C74.9536 276.985 74.6326 277.454 74.2153 278.025C72.0243 280.992 69.2248 283.457 66.0041 285.254C65.3621 285.594 64.8806 285.851 64.5211 286.012C64.3417 286.111 64.1494 286.184 63.9497 286.23C63.9497 286.185 64.6944 285.78 65.8757 285.049C67.4251 284.101 68.8939 283.027 70.267 281.839C71.6246 280.629 72.8787 279.309 74.0163 277.89C74.9086 276.786 75.403 276.061 75.4479 276.105Z" fill="#DD5491"/>
<path d="M77.0718 278.955C76.9531 280.217 76.5713 281.441 75.951 282.547C75.3306 283.652 74.4856 284.616 73.4702 285.375C74.2768 284.433 75.0108 283.43 75.6659 282.377C76.218 281.272 76.6879 280.129 77.0718 278.955Z" fill="#DD5491"/>
<path d="M82.4583 284.855C82.264 285.889 81.7912 286.85 81.0908 287.635C80.4754 288.489 79.6354 289.156 78.6641 289.561C79.4318 288.895 80.1566 288.181 80.834 287.423C81.4246 286.6 81.967 285.742 82.4583 284.855Z" fill="#DD5491"/>
<path d="M91.1641 290.184C91.1943 291.293 90.9046 292.387 90.3295 293.336C89.8478 294.335 89.0818 295.171 88.1274 295.737C88.8453 294.94 89.4899 294.081 90.0534 293.169C90.5105 292.208 90.8821 291.209 91.1641 290.184Z" fill="#DD5491"/>
<path d="M101.134 294.973C101.372 296.015 101.261 297.106 100.819 298.08C100.479 299.091 99.8217 299.964 98.9448 300.571C100.284 299.004 101.055 297.032 101.134 294.973Z" fill="#DD5491"/>
<path d="M110.341 303.184C110.244 303.152 110.629 301.9 110.719 300.333C110.809 298.767 110.584 297.476 110.681 297.457C111.295 299.34 111.173 301.386 110.341 303.184Z" fill="#DD5491"/>
<path d="M117.884 303.737C117.794 303.699 118.256 302.581 118.378 301.124C118.5 299.667 118.25 298.492 118.378 298.473C118.696 299.33 118.819 300.247 118.738 301.158C118.657 302.068 118.374 302.949 117.91 303.737H117.884Z" fill="#DD5491"/>
<path d="M128.439 303.665C128.342 303.665 128.496 302.567 128.323 301.251C128.15 299.935 127.739 298.927 127.829 298.889C128.316 299.571 128.603 300.376 128.657 301.213C128.818 302.034 128.742 302.885 128.439 303.665Z" fill="#DD5491"/>
<path d="M135.731 303.023C135.629 303.023 135.629 301.989 135.282 300.789C134.935 299.588 134.415 298.696 134.499 298.645C135.013 299.239 135.389 299.94 135.602 300.697C135.815 301.453 135.859 302.247 135.731 303.023Z" fill="#DD5491"/>
<path d="M144.289 301.143C144.187 301.143 144.238 300.135 143.859 298.985C143.48 297.836 142.871 297.059 142.954 296.982C143.523 297.497 143.946 298.153 144.181 298.883C144.415 299.614 144.453 300.393 144.289 301.143Z" fill="#DD5491"/>
<path d="M154.825 298.999C154.722 298.999 154.709 297.875 154.24 296.598C153.772 295.32 153.065 294.447 153.143 294.383C153.777 294.957 154.262 295.678 154.555 296.483C154.848 297.287 154.941 298.151 154.825 298.999Z" fill="#DD5491"/>
<path d="M163.71 295.531C163.613 295.531 163.26 294.394 162.503 293.123C161.745 291.852 160.904 290.979 160.975 290.908C162.444 292.042 163.423 293.697 163.71 295.531Z" fill="#DD5491"/>
<path d="M173.642 290.324C173.545 290.324 173.244 289.117 172.435 287.821C171.626 286.524 170.676 285.702 170.74 285.625C171.541 286.145 172.217 286.836 172.719 287.649C173.22 288.462 173.536 289.375 173.642 290.324Z" fill="#DD5491"/>
<path d="M183.342 283.372C182.92 282.623 182.445 281.905 181.924 281.221C181.323 280.607 180.68 280.036 179.998 279.514C180.87 279.758 181.639 280.281 182.187 281.003C182.816 281.649 183.221 282.479 183.342 283.372Z" fill="#DD5491"/>
<path d="M191.65 276.278C191.566 276.336 190.796 275.303 189.627 274.25C188.459 273.197 187.367 272.51 187.419 272.42C188.336 272.761 189.167 273.3 189.852 273.999C190.61 274.619 191.223 275.397 191.65 276.278Z" fill="#DD5491"/>
<path d="M199.09 267.027C199.007 267.078 198.365 266.038 197.235 265.101C196.105 264.163 194.981 263.688 195.02 263.592C195.914 263.821 196.745 264.25 197.45 264.846C198.154 265.442 198.715 266.189 199.09 267.033V267.027Z" fill="#DD5491"/>
<path d="M205.722 256.016C204.973 255.417 204.19 254.859 203.379 254.347C202.514 253.936 201.627 253.574 200.721 253.262C201.717 253.256 202.694 253.532 203.54 254.058C204.44 254.488 205.198 255.167 205.722 256.016Z" fill="#DD5491"/>
<path d="M209.754 244.12C208.02 243.115 206.027 242.646 204.027 242.772C205.017 242.485 206.064 242.458 207.068 242.695C208.071 242.931 208.996 243.422 209.754 244.12Z" fill="#DD5491"/>
<path d="M211.545 231.345C211.513 231.441 210.467 231.075 209.125 230.934C207.783 230.793 206.685 230.934 206.672 230.806C208.305 230.345 210.053 230.538 211.545 231.345Z" fill="#DD5491"/>
<path d="M210.884 218.549C210.28 218.626 209.67 218.652 209.061 218.626C208.459 218.704 207.851 218.734 207.244 218.716C208.394 218.209 209.692 218.149 210.884 218.549Z" fill="#DD5491"/>
<path d="M208.265 209.761C207.632 209.629 206.985 209.571 206.339 209.587C205.712 209.71 205.1 209.901 204.516 210.159C204.516 210.127 204.631 209.941 204.939 209.735C205.349 209.47 205.815 209.305 206.3 209.254C206.785 209.199 207.276 209.261 207.732 209.433C208.104 209.568 208.284 209.722 208.265 209.761Z" fill="#DD5491"/>
<g opacity="0.3">
<path d="M164.724 252.947C167.838 258.86 175.099 261.897 181.737 261.088C188.376 260.279 194.288 256.151 198.429 250.886C201.479 246.996 203.739 241.956 202.48 237.18C199.187 244.026 193.426 249.373 186.354 252.147C179.282 254.922 171.422 254.919 164.352 252.138" fill="black"/>
</g>
<path d="M203.578 202.069C202.086 199.77 201.54 196.984 202.052 194.292C202.563 191.6 204.095 189.209 206.326 187.618C208.098 186.334 210.236 185.647 211.911 184.26C212.936 183.361 213.77 182.267 214.366 181.041C214.961 179.815 215.305 178.482 215.378 177.121C215.502 174.39 214.897 171.676 213.625 169.257L215.41 168.377L215.564 168.57C216.749 170.126 217.575 171.925 217.981 173.838C218.387 175.752 218.364 177.731 217.913 179.635C217.462 181.538 216.595 183.318 215.374 184.846C214.153 186.374 212.609 187.612 210.852 188.472C209.515 189.085 208.258 189.859 207.109 190.776C204.881 192.702 205.793 194.892 205.793 194.892" fill="#DD5491"/>
<g opacity="0.7">
<path d="M203.578 202.069C202.086 199.77 201.54 196.984 202.052 194.292C202.563 191.6 204.095 189.209 206.326 187.618C208.098 186.334 210.236 185.647 211.911 184.26C212.936 183.361 213.77 182.267 214.366 181.041C214.961 179.815 215.305 178.482 215.378 177.121C215.502 174.39 214.897 171.676 213.625 169.257L215.41 168.377L215.564 168.57C216.749 170.126 217.575 171.925 217.981 173.838C218.387 175.752 218.364 177.731 217.913 179.635C217.462 181.538 216.595 183.318 215.374 184.846C214.153 186.374 212.609 187.612 210.852 188.472C209.515 189.085 208.258 189.859 207.109 190.776C204.881 192.702 205.793 194.892 205.793 194.892" fill="white"/>
</g>
<path d="M206.082 195.008C205.355 194.864 204.614 194.799 203.873 194.815C203.138 194.934 202.419 195.134 201.729 195.412C202.312 194.882 203.053 194.555 203.838 194.482C204.623 194.409 205.411 194.594 206.082 195.008Z" fill="#DD5491"/>
<path d="M207.764 190.108C207.674 190.14 207.392 189.581 206.865 189.055C206.339 188.529 205.787 188.233 205.819 188.143C205.851 188.054 206.518 188.227 207.103 188.817C207.687 189.408 207.847 190.082 207.764 190.108Z" fill="#DD5491"/>
<path d="M214.062 186.384C213.972 186.416 213.741 185.793 213.234 185.184C212.727 184.574 212.181 184.214 212.226 184.131C212.271 184.047 212.945 184.298 213.51 184.978C214.075 185.659 214.152 186.371 214.062 186.384Z" fill="#DD5491"/>
<path d="M218.28 178.398C217.789 178.363 217.301 178.288 216.823 178.173C216.331 178.162 215.841 178.108 215.359 178.012C215.84 177.832 216.358 177.772 216.868 177.839C217.377 177.907 217.862 178.098 218.28 178.398Z" fill="#DD5491"/>
<path d="M216.848 170.681C216.848 170.777 216.302 170.745 215.705 170.925C215.108 171.105 214.665 171.394 214.601 171.323C214.537 171.252 214.922 170.796 215.609 170.604C216.296 170.411 216.874 170.597 216.848 170.681Z" fill="#DD5491"/>
<path d="M157.425 218.208C159.697 216.732 162.708 217.219 165.289 218.073C167.87 218.927 170.457 220.108 173.16 219.852C176.107 219.576 178.63 217.611 180.575 215.39C182.979 212.643 184.767 209.415 185.82 205.92C186.886 202.364 187.432 198.184 190.494 196.078C193.557 193.973 197.807 195.032 200.439 197.523C203.071 200.014 204.342 203.609 205.177 207.153C207.103 215.319 207.135 224.031 204.49 231.998C201.845 239.966 196.407 247.105 189.024 251.098C181.641 255.091 172.332 255.662 164.821 251.926" fill="#DD5491"/>
<path d="M164.821 251.908C164.939 251.949 165.054 251.996 165.167 252.049L166.169 252.486C166.618 252.659 167.177 252.865 167.838 253.128C168.499 253.391 169.283 253.571 170.175 253.77C172.338 254.237 174.55 254.434 176.762 254.354C178.141 254.299 179.515 254.14 180.871 253.879C182.392 253.602 183.885 253.189 185.333 252.647C188.668 251.4 191.742 249.543 194.398 247.17C197.454 244.466 199.996 241.232 201.903 237.624C204.007 233.638 205.385 229.31 205.973 224.842C206.606 220.043 206.502 215.176 205.665 210.409C205.279 207.991 204.675 205.612 203.861 203.302C203.096 201.055 201.785 199.032 200.047 197.415C198.331 195.9 196.102 195.096 193.813 195.168C192.718 195.216 191.654 195.547 190.725 196.131C189.829 196.723 189.082 197.514 188.543 198.442C187.438 200.266 186.963 202.346 186.424 204.31C185.951 206.248 185.271 208.129 184.395 209.921C183.572 211.594 182.566 213.17 181.397 214.621C180.34 215.982 179.095 217.186 177.699 218.197C176.425 219.128 174.941 219.73 173.378 219.949C171.982 220.077 170.575 219.926 169.238 219.506C166.74 218.768 164.699 217.818 162.895 217.529C161.529 217.226 160.109 217.261 158.76 217.632C158.414 217.74 158.079 217.88 157.759 218.049C157.54 218.171 157.425 218.222 157.425 218.222L157.739 218.023C158.055 217.838 158.388 217.685 158.734 217.568C160.094 217.163 161.533 217.105 162.92 217.401C164.744 217.677 166.811 218.614 169.289 219.327C170.603 219.73 171.984 219.87 173.353 219.738C174.878 219.515 176.325 218.92 177.564 218.004C178.938 217.002 180.162 215.809 181.198 214.46C182.345 213.017 183.333 211.455 184.145 209.799C185.009 208.021 185.678 206.155 186.141 204.233C186.674 202.275 187.143 200.169 188.279 198.282C188.84 197.31 189.621 196.484 190.558 195.868C191.521 195.253 192.628 194.901 193.768 194.847C194.933 194.793 196.097 194.974 197.19 195.38C198.308 195.782 199.342 196.387 200.24 197.165C202.017 198.817 203.358 200.884 204.143 203.18C204.968 205.513 205.578 207.915 205.966 210.358C206.815 215.156 206.916 220.057 206.268 224.886C205.673 229.393 204.277 233.756 202.147 237.771C200.219 241.415 197.646 244.678 194.552 247.401C191.864 249.775 188.757 251.626 185.39 252.858C183.931 253.396 182.427 253.804 180.896 254.078C179.529 254.331 178.145 254.481 176.755 254.528C174.529 254.594 172.303 254.378 170.13 253.886C169.238 253.693 168.467 253.436 167.793 253.244C167.119 253.051 166.573 252.788 166.13 252.602L165.142 252.133C164.93 251.972 164.821 251.908 164.821 251.908Z" fill="#263238"/>
<path d="M192.452 203.609C192.123 203.338 191.86 202.995 191.682 202.608C191.197 201.691 190.954 200.666 190.975 199.629C190.988 198.594 191.259 197.579 191.765 196.676C191.951 196.289 192.226 195.952 192.568 195.693C192.613 195.732 192.304 196.104 191.977 196.785C191.552 197.676 191.324 198.648 191.31 199.636C191.295 200.623 191.494 201.602 191.894 202.505C192.208 203.192 192.503 203.577 192.452 203.609Z" fill="#263238"/>
<path d="M196.349 203.044C196.056 202.741 195.824 202.383 195.669 201.991C195.239 201.062 194.986 200.06 194.924 199.038C194.86 198.017 194.991 196.993 195.309 196.021C195.413 195.611 195.599 195.227 195.855 194.891C195.375 196.211 195.172 197.616 195.257 199.019C195.342 200.421 195.714 201.791 196.349 203.044Z" fill="#263238"/>
<path d="M199.469 204.155C199.064 203.181 198.897 202.125 198.982 201.074C198.953 200.019 199.173 198.972 199.624 198.018C199.72 198.05 199.354 199.385 199.315 201.08C199.277 202.775 199.566 204.155 199.469 204.155Z" fill="#263238"/>
<path d="M253.07 212.18C247.195 215.763 239.382 215.082 233.296 211.866C227.21 208.649 222.6 203.263 218.755 197.613C217.663 196.008 216.559 194.307 214.864 193.338C211.532 191.412 206.929 193.274 205.016 196.548C203.103 199.822 203.462 204.021 204.939 207.526C204.939 207.526 208.855 226.503 229.271 238.303" fill="#DD5491"/>
<path d="M229.271 238.323C229.209 238.302 229.151 238.272 229.098 238.233L228.597 237.938C228.148 237.662 227.512 237.264 226.671 236.763C226.266 236.493 225.779 236.236 225.297 235.877L223.724 234.728C223.166 234.298 222.524 233.893 221.92 233.36L219.994 231.71C216.817 228.864 213.991 225.649 211.578 222.132C210.121 220.015 208.833 217.787 207.726 215.468C206.482 212.945 205.501 210.301 204.798 207.578V207.61C203.821 205.375 203.413 202.933 203.61 200.503C203.735 199.233 204.096 197.999 204.676 196.863C205.431 195.429 206.589 194.249 208.007 193.466C209.425 192.684 211.041 192.333 212.656 192.458C213.596 192.57 214.499 192.895 215.295 193.409C216.056 193.928 216.732 194.562 217.298 195.29C217.869 195.996 218.37 196.741 218.858 197.466C219.346 198.191 219.853 198.904 220.354 199.597C221.368 200.991 222.408 202.32 223.48 203.559C225.492 205.928 227.783 208.045 230.305 209.863C232.507 211.445 234.95 212.661 237.54 213.465C241.279 214.682 245.288 214.807 249.096 213.824C249.414 213.746 249.727 213.65 250.033 213.535C250.322 213.433 250.598 213.349 250.842 213.246C251.33 213.028 251.754 212.861 252.075 212.694L252.813 212.303C252.895 212.255 252.981 212.214 253.07 212.181C252.995 212.238 252.916 212.29 252.832 212.335L252.107 212.752C251.786 212.932 251.369 213.105 250.881 213.336C250.63 213.445 250.361 213.535 250.072 213.644C249.764 213.766 249.449 213.869 249.128 213.953C245.292 214.997 241.235 214.905 237.45 213.689C234.833 212.894 232.363 211.678 230.138 210.088C227.591 208.266 225.275 206.14 223.243 203.758C222.158 202.512 221.111 201.19 220.09 199.79C219.583 199.09 219.083 198.371 218.588 197.646C218.094 196.92 217.599 196.182 217.041 195.495C216.494 194.798 215.845 194.187 215.115 193.685C214.362 193.2 213.507 192.894 212.618 192.792C210.772 192.624 208.928 193.133 207.43 194.224C206.424 194.959 205.59 195.904 204.987 196.994C204.384 198.084 204.026 199.292 203.938 200.535C203.747 202.91 204.144 205.296 205.093 207.481V207.513C205.786 210.218 206.754 212.845 207.982 215.352C209.092 217.662 210.38 219.881 211.834 221.99C214.227 225.499 217.029 228.71 220.18 231.556L222.106 233.219C222.703 233.758 223.339 234.163 223.885 234.599L225.445 235.768C225.92 236.134 226.401 236.41 226.806 236.667L228.687 237.886L229.168 238.207C229.206 238.243 229.24 238.281 229.271 238.323Z" fill="#263238"/>
<path d="M210.46 204.085C209.974 202.534 209.29 201.051 208.425 199.674C206.923 197.427 205.01 196.246 205.087 196.156C205.534 196.342 205.949 196.6 206.313 196.92C208.168 198.386 209.527 200.388 210.203 202.653C210.371 203.112 210.458 203.596 210.46 204.085Z" fill="#263238"/>
<path d="M214.428 201.51C214.175 199.881 213.709 198.292 213.041 196.785C212.271 195.327 211.315 193.977 210.197 192.766C210.619 193.021 210.999 193.342 211.321 193.716C212.142 194.581 212.824 195.569 213.343 196.643C213.859 197.716 214.21 198.861 214.383 200.039C214.482 200.523 214.498 201.021 214.428 201.51Z" fill="#263238"/>
<g opacity="0.3">
<path d="M201.158 239.189C202.757 236.743 196.17 236.165 193.268 236.505C189.018 236.994 185.101 239.044 182.277 242.257C179.454 245.471 177.925 249.62 177.988 253.897C177.988 253.897 190.674 255.252 201.158 239.189Z" fill="white"/>
</g>
<g opacity="0.3">
<path d="M211.975 228.268C215.313 233.373 220.262 237.215 226.035 239.182C226.641 239.445 227.307 239.539 227.961 239.452C228.284 239.404 228.58 239.246 228.798 239.003C229.016 238.76 229.142 238.449 229.155 238.123C222.292 234.39 216.41 229.086 211.988 222.645C211.651 224.62 211.934 226.652 212.797 228.461" fill="black"/>
</g>
<path d="M203.143 184.946C208.796 179.292 208.796 170.126 203.143 164.472C197.489 158.818 188.323 158.818 182.669 164.472C177.015 170.126 177.015 179.292 182.669 184.946C188.323 190.599 197.489 190.599 203.143 184.946Z" fill="#F5F5F5"/>
<path d="M207.366 175.317C207.366 182.309 203.694 188.157 199.604 188.157C195.514 188.157 192.195 182.488 192.195 175.503C192.195 168.518 195.514 162.85 199.604 162.85C203.694 162.85 207.366 168.332 207.366 175.317Z" fill="#263238"/>
<path d="M196.002 181.319C195.881 181.176 195.782 181.016 195.707 180.844C195.475 180.391 195.275 179.921 195.11 179.438C193.992 176.216 194.085 172.697 195.373 169.539C195.563 169.065 195.791 168.608 196.054 168.171C196.135 168.002 196.241 167.847 196.368 167.709C196.42 167.709 196.035 168.428 195.598 169.635C195.035 171.194 194.723 172.832 194.673 174.489C194.631 176.143 194.847 177.793 195.315 179.381C195.707 180.581 196.06 181.294 196.002 181.319Z" fill="white"/>
<path d="M201.453 169.866C202.822 169.866 203.931 168.757 203.931 167.388C203.931 166.02 202.822 164.91 201.453 164.91C200.085 164.91 198.975 166.02 198.975 167.388C198.975 168.757 200.085 169.866 201.453 169.866Z" fill="white"/>
<path d="M202.281 156.841C202.005 157.22 201.306 157.213 200.426 157.072C199.547 156.931 198.442 156.674 197.248 156.481C196.054 156.289 194.975 156.173 194.109 156.051C193.242 155.929 192.574 155.756 192.401 155.319C192.228 154.883 192.645 154.26 193.621 153.74C194.195 153.446 194.813 153.249 195.451 153.156C196.229 153.034 197.022 153.034 197.8 153.156C199.204 153.369 200.51 154 201.55 154.966C202.32 155.762 202.545 156.475 202.281 156.841Z" fill="#263238"/>
<path d="M195.72 192.786C194.603 190.489 194.357 187.866 195.028 185.402C195.699 182.938 197.242 180.802 199.369 179.389C201.497 177.977 204.065 177.385 206.596 177.724C209.127 178.062 211.449 179.308 213.131 181.23" fill="#DD5491"/>
<path d="M213.144 181.229C213.144 181.229 212.836 180.94 212.264 180.446C211.448 179.753 210.53 179.19 209.542 178.777C208.083 178.16 206.51 177.858 204.926 177.891C202.979 177.873 201.071 178.437 199.446 179.511C197.822 180.585 196.556 182.12 195.81 183.919C195.165 185.366 194.833 186.932 194.834 188.516C194.834 189.585 194.996 190.648 195.316 191.668C195.547 192.387 195.726 192.772 195.694 192.785C195.635 192.704 195.585 192.615 195.547 192.522C195.412 192.26 195.294 191.99 195.194 191.713C194.816 190.684 194.616 189.599 194.603 188.503C194.56 186.879 194.876 185.266 195.527 183.778C196.281 181.92 197.577 180.333 199.247 179.224C200.917 178.116 202.883 177.537 204.888 177.563C206.511 177.544 208.119 177.88 209.6 178.546C210.597 178.984 211.513 179.587 212.309 180.33C212.527 180.53 212.731 180.744 212.919 180.972C213.005 181.048 213.08 181.135 213.144 181.229Z" fill="#263238"/>
<path d="M166.971 137.965C166.869 138.019 166.758 138.056 166.644 138.074L165.687 138.331C165.27 138.434 164.763 138.581 164.178 138.761L163.248 139.037L162.208 139.39C158.434 140.709 154.813 142.431 151.409 144.526C148 146.629 144.74 148.962 141.651 151.511C140.463 152.487 139.506 153.283 138.858 153.848L138.094 154.49C137.921 154.638 137.824 154.708 137.812 154.695C137.881 154.603 137.961 154.519 138.049 154.445L138.768 153.758C139.41 153.167 140.328 152.346 141.497 151.338C144.557 148.737 147.813 146.376 151.236 144.276C154.659 142.151 158.323 140.44 162.15 139.178L163.196 138.838L164.146 138.588C164.737 138.421 165.244 138.292 165.668 138.209L166.644 138.016C166.75 137.986 166.86 137.969 166.971 137.965Z" fill="#263238"/>
<path d="M73.8685 59.5636C73.7536 59.3236 73.6654 59.0717 73.6053 58.8125C73.5283 58.5685 73.4448 58.2604 73.3678 57.9073C73.2907 57.5542 73.188 57.1369 73.1238 56.6875C72.9478 55.626 72.8491 54.5532 72.8285 53.4775C72.8124 52.1563 72.9025 50.8359 73.0981 49.5292C73.312 48.2226 73.6275 46.9346 74.0419 45.6772C74.3966 44.6563 74.8258 43.6628 75.3259 42.7047C75.5249 42.2874 75.7496 41.9343 75.9294 41.6133C76.1091 41.2923 76.2825 41.0355 76.4301 40.8236C76.5671 40.593 76.7285 40.3777 76.9116 40.1816C76.963 40.2137 76.3274 41.1575 75.5377 42.801C75.0817 43.7637 74.6872 44.7544 74.3565 45.767C73.9636 47.0131 73.659 48.2853 73.4448 49.5741C73.2559 50.8646 73.1594 52.1668 73.1559 53.471C73.1618 54.5448 73.2368 55.617 73.3806 56.681C73.6117 58.4594 73.9327 59.5508 73.8685 59.5636Z" fill="#263238"/>
<path d="M225.499 20.2722L86.2891 46.1738L100.858 124.477L240.069 98.5749L225.499 20.2722Z" fill="white"/>
<path d="M240.069 98.5718C240.069 98.5718 239.967 98.0967 239.793 97.1723C239.62 96.2478 239.357 94.8739 239.017 93.0827C238.342 89.5004 237.347 84.2167 236.076 77.4372C233.508 63.8846 229.875 44.3292 225.368 20.2992L225.522 20.4019L86.3233 46.3323L86.4581 46.1333C91.5941 73.8291 96.5311 100.318 101.019 124.457L100.833 124.329L200.985 105.769L229.753 100.459L237.418 99.0533L239.395 98.6938L240.076 98.5782L239.434 98.7131L237.476 99.0854L229.836 100.517L201.113 105.929L100.884 124.631L100.73 124.663V124.509C96.2358 100.382 91.3052 73.8998 86.1436 46.1846V46.0177H86.3041L225.47 20.1387H225.599V20.2607L236.179 77.5142C237.424 84.2873 238.394 89.5581 239.055 93.1405L239.8 97.2108C239.992 98.1096 240.069 98.5718 240.069 98.5718Z" fill="#263238"/>
<path d="M146.164 76.1797L141.882 76.9758L142.909 82.4777L134.987 83.9543L133.96 78.4524L118.77 81.2772L117.781 75.9807L127.334 55.6485L135.751 54.082L127.174 73.0467L133.003 71.9617L132.091 67.0761L139.795 65.6509L140.707 70.5301L144.97 69.7404L146.164 76.1797Z" fill="#263238"/>
<path d="M146.158 67.0121C144.392 57.5297 148.726 51.0776 156.064 49.7102C163.402 48.3427 169.719 52.8174 171.472 62.2998C173.225 71.7821 168.904 78.2342 161.611 79.5888C154.318 80.9435 147.923 76.4944 146.158 67.0121ZM163.319 63.8021C162.195 57.7801 159.858 55.8541 157.29 56.3613C154.722 56.8685 153.194 59.4557 154.318 65.4905C155.441 71.5253 157.746 73.4321 160.372 72.9441C162.998 72.4562 164.442 69.8497 163.319 63.8149V63.8021Z" fill="#263238"/>
<path d="M203.02 65.5996L198.751 66.3957L199.771 71.8976L191.855 73.3742L190.828 67.8723L175.639 70.6971L174.656 65.4006L184.209 45.0684L192.6 43.502L184.049 62.4666L189.878 61.3817L188.966 56.496L196.67 55.0708L197.576 59.95L201.845 59.1603L203.02 65.5996Z" fill="#263238"/>
<path d="M148.995 99.3485L149.258 100.748L141.079 102.27L138.98 90.9961L146.934 89.5195L147.191 90.9191L140.848 92.1004L141.49 95.5608L147.146 94.5079L147.403 95.8818L141.747 96.941L142.428 100.575L148.995 99.3485Z" fill="#263238"/>
<path d="M159.396 98.8672L156.32 95.8563C156.102 95.914 155.865 95.9782 155.621 96.0232L152.834 96.5432L153.476 99.9715L151.871 100.273L149.772 88.9997L154.17 88.1779C157.097 87.6322 159.145 88.7878 159.601 91.2339C159.783 92.0103 159.704 92.8252 159.375 93.5519C159.047 94.2786 158.487 94.8765 157.784 95.2528L161.161 98.5398L159.396 98.8672ZM157.983 91.5356C157.681 89.9242 156.436 89.2051 154.375 89.6096L151.634 90.1168L152.578 95.1886L155.319 94.6814C157.38 94.2705 158.285 93.1406 157.983 91.5292V91.5356Z" fill="#263238"/>
<path d="M171.1 96.6835L168.024 93.6725C167.806 93.7303 167.569 93.7945 167.325 93.8394L164.538 94.353L165.18 97.7877L163.575 98.083L161.476 86.8159L165.874 85.9942C168.801 85.4485 170.849 86.6362 171.305 89.0501C171.492 89.8294 171.415 90.6485 171.086 91.3793C170.757 92.11 170.195 92.7111 169.488 93.0883L172.865 96.3753L171.1 96.6835ZM169.687 89.3518C169.386 87.7404 168.14 87.0214 166.079 87.4258L163.338 87.933L164.282 93.0048L167.023 92.4976C169.084 92.0932 169.989 90.9568 169.687 89.3518Z" fill="#263238"/>
<path d="M173.301 90.4441C172.692 87.1442 174.772 84.2039 178.238 83.5619C181.705 82.9199 184.658 84.8972 185.3 88.2164C185.942 91.5355 183.83 94.4502 180.402 95.0922C176.974 95.7342 173.918 93.7312 173.301 90.4441ZM183.676 88.5181C183.526 87.6468 183.119 86.8399 182.509 86.2002C181.899 85.5605 181.112 85.117 180.248 84.9259C179.385 84.7349 178.484 84.805 177.661 85.1274C176.838 85.4499 176.129 86.01 175.625 86.7365C175.121 87.463 174.844 88.323 174.831 89.2071C174.817 90.0912 175.067 90.9594 175.548 91.7012C176.029 92.443 176.72 93.0248 177.533 93.3725C178.346 93.7203 179.244 93.8183 180.113 93.6541C180.692 93.5654 181.246 93.3596 181.743 93.0493C182.24 92.739 182.668 92.3308 183.001 91.8495C183.335 91.3682 183.566 90.824 183.682 90.2502C183.799 89.6763 183.796 89.0847 183.676 88.5117V88.5181Z" fill="#263238"/>
<path d="M196.33 91.9907L193.242 88.9797C193.017 89.0375 192.78 89.0953 192.536 89.1402L189.749 89.6603L190.391 93.0885L188.78 93.3903L186.681 82.1168L191.078 81.3014C194.012 80.7557 196.054 81.9049 196.51 84.3573C196.694 85.1338 196.616 85.9495 196.287 86.6767C195.958 87.404 195.398 88.0016 194.693 88.3763L198.07 91.6633L196.33 91.9907ZM194.911 84.6527C194.616 83.0477 193.364 82.3286 191.303 82.7267L188.568 83.2338L189.512 88.3056L192.247 87.7985C194.308 87.4004 195.213 86.2641 194.911 84.6527Z" fill="#263238"/>
<path d="M222.562 28.7469C222.585 29.3211 222.436 29.889 222.136 30.3787C221.835 30.8684 221.396 31.2579 220.874 31.4977C220.352 31.7376 219.77 31.817 219.203 31.726C218.636 31.635 218.108 31.3776 217.687 30.9865C217.266 30.5953 216.971 30.088 216.839 29.5289C216.706 28.9697 216.743 28.3839 216.944 27.8456C217.145 27.3073 217.501 26.8409 217.968 26.5053C218.434 26.1697 218.99 25.9802 219.564 25.9607C220.331 25.9346 221.076 26.2131 221.638 26.7352C222.2 27.2573 222.532 27.9806 222.562 28.7469Z" fill="#E0E0E0"/>
<path d="M222.562 28.7487C222.53 28.7487 222.524 28.4919 222.382 28.0617C222.177 27.4609 221.783 26.9428 221.259 26.5851C220.835 26.2983 220.341 26.1342 219.83 26.1109C219.319 26.0877 218.811 26.2062 218.364 26.4534C217.916 26.7005 217.545 27.0667 217.292 27.5114C217.04 27.9562 216.915 28.4621 216.932 28.9734C216.957 29.4825 217.122 29.9749 217.409 30.3964C217.696 30.8178 218.093 31.1521 218.558 31.3624C219.022 31.5727 219.535 31.651 220.041 31.5885C220.547 31.5261 221.026 31.3254 221.426 31.0085C221.922 30.6126 222.274 30.0644 222.427 29.4484C222.536 29.0055 222.524 28.7487 222.556 28.7487C222.588 28.7487 222.556 28.8129 222.588 28.9348C222.6 29.1152 222.589 29.2964 222.556 29.4741C222.441 30.1437 222.093 30.7511 221.573 31.1883C221.187 31.5175 220.724 31.7437 220.226 31.8458C219.729 31.948 219.214 31.9227 218.729 31.7725C218.128 31.586 217.6 31.2178 217.217 30.7187C216.834 30.2196 216.615 29.614 216.591 28.9854C216.566 28.3567 216.737 27.7359 217.08 27.2083C217.422 26.6807 217.92 26.2724 218.505 26.0394C218.976 25.8498 219.487 25.7828 219.991 25.8446C220.496 25.9063 220.976 26.0948 221.387 26.3925C221.939 26.7905 222.332 27.3702 222.498 28.0296C222.547 28.203 222.57 28.3824 222.568 28.5625C222.575 28.6845 222.575 28.7487 222.562 28.7487Z" fill="#263238"/>
<path d="M220.944 26.7324C221.088 27.507 220.947 28.3074 220.546 28.9858C220.247 29.7135 219.696 30.3086 218.993 30.6615C219.451 30.0803 219.869 29.4691 220.245 28.8318C220.523 28.148 220.757 27.4467 220.944 26.7324Z" fill="#263238"/>
<path d="M221.49 29.8064C221.407 29.8578 221.021 29.0938 220.148 28.6444C219.596 28.4209 219.014 28.2781 218.421 28.2207C218.421 28.1757 218.614 28.0859 218.967 28.0602C219.43 28.036 219.891 28.1358 220.302 28.3491C220.713 28.5614 221.059 28.8808 221.304 29.2736C221.49 29.5753 221.554 29.7936 221.49 29.8064Z" fill="#263238"/>
<path d="M92.4571 67.0316L85.1538 72.8555L87.7876 76.1583L95.0909 70.3344L92.4571 67.0316Z" fill="#E0E0E0"/>
<path d="M95.0867 70.344C95.0867 70.344 94.7913 70.023 94.3163 69.4581L92.3903 67.1148H92.5636C90.6889 68.6427 88.1274 70.71 85.2897 72.9698C85.2897 73.1817 85.2897 72.6873 85.2897 72.7387L85.3347 72.7965L85.4246 72.9056L85.5979 73.1175L85.9382 73.5476L86.5802 74.3886L87.8642 75.9936H87.6394C89.7452 74.3308 91.5749 72.9184 92.891 71.9041L94.4447 70.7228C94.6339 70.5682 94.8333 70.4267 95.0417 70.2991C94.8907 70.4571 94.7275 70.603 94.5538 70.7356L93.0772 71.9683C91.7932 73.0212 89.9828 74.5363 87.8385 76.244L87.7165 76.3403L87.6138 76.2183L86.3298 74.6197C86.1051 74.3437 85.8804 74.0676 85.6557 73.7787L85.3154 73.355L85.1421 73.1367L85.0522 73.0276L85.0137 72.9762C85.0137 73.0276 85.065 72.5332 85.0137 72.7451C87.8513 70.4788 90.4386 68.4437 92.3453 66.9671L92.4416 66.8965L92.5187 66.9864C93.334 68.0392 93.9824 68.9124 94.4447 69.4773C94.678 69.7514 94.8925 70.0409 95.0867 70.344Z" fill="#263238"/>
<path d="M83.5112 77.039C83.8285 77.441 84.2219 77.7764 84.6689 78.0263C85.1159 78.2761 85.6077 78.4354 86.1163 78.495C86.6249 78.5546 87.1402 78.5134 87.6329 78.3737C88.1256 78.2341 88.5859 77.9987 88.9875 77.681L84.1019 71.582C83.3035 72.2298 82.7934 73.1668 82.6828 74.1889C82.5722 75.211 82.8699 76.2355 83.5112 77.039Z" fill="#E0E0E0"/>
<path d="M83.5115 77.0383C83.3936 76.9416 83.2917 76.8267 83.2098 76.698C82.9681 76.3419 82.79 75.9466 82.6834 75.5296C82.5118 74.886 82.5118 74.2087 82.6834 73.5651C82.895 72.7296 83.3699 71.9845 84.038 71.4401L84.16 71.3438L84.2563 71.4657L86.6959 74.5024C87.5561 75.581 88.3715 76.6146 89.1162 77.5583L89.2125 77.6803L89.0905 77.7766C88.4116 78.3056 87.5819 78.6047 86.7215 78.6305C86.0517 78.6473 85.3887 78.4926 84.7955 78.1811C84.4149 77.9829 84.0717 77.7201 83.7812 77.4042C83.6728 77.297 83.5818 77.1736 83.5115 77.0383C83.9186 77.427 84.3791 77.7556 84.879 78.0141C85.5268 78.3134 86.245 78.4269 86.9535 78.3418C87.662 78.2568 88.3329 77.9767 88.8915 77.5326V77.7509L86.4519 74.7142L84.0316 71.6583H84.2434C83.6849 72.105 83.2618 72.6983 83.0214 73.3718C82.781 74.0453 82.7329 74.7725 82.8824 75.4718C83.019 76.0204 83.2308 76.5476 83.5115 77.0383Z" fill="#263238"/>
<path d="M84.4103 75.0176C84.1103 75.3654 83.9135 75.7902 83.842 76.2439C83.7706 76.6977 83.8273 77.1624 84.0058 77.5856" fill="#E0E0E0"/>
<path d="M84.0057 77.6107C83.8375 77.4278 83.7186 77.2052 83.6602 76.9637C83.6018 76.7223 83.6058 76.4699 83.6718 76.2304C83.7938 75.3958 84.3588 74.9464 84.4101 75.017C84.4615 75.0876 84.102 75.5627 83.9993 76.301C83.8965 77.0393 84.102 77.5657 84.0057 77.6107Z" fill="#263238"/>
<path d="M89.0002 75.4339C88.4825 74.9039 88.0061 74.3351 87.575 73.7326C87.0622 73.2016 86.5901 72.6329 86.1626 72.0312C86.8255 72.3937 87.3965 72.9032 87.8318 73.5207C88.3574 74.0646 88.7564 74.7179 89.0002 75.4339Z" fill="#263238"/>
<path d="M89.8801 74.7528C89.3653 74.2219 88.8911 73.6532 88.4612 73.0515C87.9469 72.5196 87.4747 71.9487 87.0488 71.3438C88.3123 72.1713 89.2985 73.3588 89.8801 74.7528Z" fill="#263238"/>
<path d="M90.7146 74.0667C90.198 73.5375 89.7236 72.9686 89.2958 72.3654C88.7799 71.8355 88.3056 71.2667 87.877 70.6641C88.5411 71.0272 89.1141 71.5365 89.5526 72.1535C90.0742 72.6993 90.4707 73.3522 90.7146 74.0667Z" fill="#263238"/>
<path d="M91.5685 73.3856C91.0538 72.8547 90.5795 72.286 90.1497 71.6843C89.6377 71.1504 89.1656 70.5797 88.7373 69.9766C89.3964 70.3444 89.9663 70.8529 90.4065 71.466C90.9332 72.0104 91.3304 72.6665 91.5685 73.3856Z" fill="#263238"/>
<path d="M92.4479 72.6995C91.9313 72.1703 91.4569 71.6014 91.0291 70.9982C90.5141 70.4693 90.0418 69.9004 89.6167 69.2969C90.2769 69.6631 90.8471 70.1719 91.2859 70.7863C91.8075 71.3321 92.2041 71.985 92.4479 72.6995Z" fill="#263238"/>
<path d="M93.2824 72.0184C92.7677 71.4875 92.2934 70.9188 91.8636 70.3171C91.3515 69.7832 90.8795 69.2125 90.4512 68.6094C91.1103 68.9772 91.6802 69.4857 92.1204 70.0988C92.6471 70.6432 93.0442 71.2993 93.2824 72.0184Z" fill="#263238"/>
<path d="M94.1427 71.3323C93.6261 70.8031 93.1517 70.2342 92.7239 69.631C92.2089 69.1021 91.7366 68.5332 91.3115 67.9297C91.9717 68.2959 92.542 68.8047 92.9807 69.4191C93.5024 69.9649 93.8989 70.6178 94.1427 71.3323Z" fill="#263238"/>
<path d="M99.1888 52.6426C99.1567 52.6426 99.1503 52.3794 99.0091 51.9492C98.8054 51.3372 98.4032 50.8108 97.8663 50.4534C97.438 50.1612 96.937 49.9934 96.4191 49.9687C95.9012 49.9439 95.3866 50.0632 94.9323 50.3133C94.4781 50.5634 94.1021 50.9344 93.846 51.3852C93.5898 51.8361 93.4637 52.3491 93.4815 52.8673C93.5041 53.3858 93.6702 53.8879 93.9612 54.3177C94.2523 54.7475 94.6568 55.0881 95.1299 55.3017C95.603 55.5153 96.126 55.5934 96.6408 55.5275C97.1557 55.4615 97.6421 55.254 98.0461 54.9281C98.5498 54.5286 98.9066 53.9731 99.0604 53.3488C99.1696 52.9058 99.1567 52.6426 99.1888 52.6426C99.2209 52.6426 99.1888 52.7068 99.2209 52.8288C99.2331 53.0113 99.2223 53.1946 99.1888 53.3745C99.0844 54.0557 98.7435 54.6785 98.2258 55.1335C97.8358 55.4676 97.3669 55.6967 96.8636 55.7989C96.3603 55.9011 95.8392 55.8732 95.3497 55.7178C94.7502 55.5235 94.2246 55.1502 93.8438 54.648C93.4631 54.1458 93.2454 53.539 93.2202 52.9093C93.195 52.2796 93.3635 51.6573 93.703 51.1264C94.0424 50.5954 94.5365 50.1812 95.1186 49.9398C95.5965 49.7495 96.1146 49.6828 96.6251 49.7456C97.1357 49.8084 97.6221 49.9988 98.0397 50.2993C98.5963 50.703 98.9939 51.2891 99.1632 51.9556C99.21 52.1317 99.2358 52.3127 99.2402 52.4949C99.2188 52.5934 99.2017 52.6426 99.1888 52.6426Z" fill="#263238"/>
<path d="M80.1218 59.757C80.0127 59.5152 79.9268 59.2638 79.865 59.0058C79.7664 58.7073 79.6871 58.4028 79.6275 58.0942C79.5504 57.7411 79.4413 57.3366 79.3835 56.8808C79.2054 55.8195 79.1045 54.7467 79.0818 53.6708C79.0313 51.0195 79.4441 48.3798 80.3016 45.8705C80.6548 44.847 81.084 43.8512 81.5856 42.8916C81.7782 42.4743 82.0029 42.1212 82.1826 41.8067C82.3361 41.5352 82.5032 41.2716 82.6834 41.017C82.8221 40.7875 82.9834 40.5724 83.1649 40.375C83.2227 40.4135 82.5807 41.3508 81.7974 43.0008C81.3341 43.9611 80.9373 44.9521 80.6097 45.9668C80.2168 47.2102 79.9143 48.4804 79.7045 49.7675C79.5102 51.0595 79.4115 52.3642 79.4092 53.6708C79.4145 54.7446 79.4895 55.8168 79.6339 56.8808C79.865 58.6527 80.186 59.7377 80.1218 59.757Z" fill="#263238"/>
<path d="M249.41 87.9531C249.529 88.1916 249.617 88.4439 249.674 88.7043C249.769 89.0014 249.849 89.3036 249.911 89.6095C249.988 89.969 250.097 90.3735 250.155 90.8293C250.334 91.8905 250.434 92.9634 250.457 94.0393C250.506 96.6905 250.093 99.33 249.237 101.84C248.885 102.862 248.456 103.855 247.953 104.812C247.754 105.229 247.536 105.582 247.35 105.903C247.199 106.177 247.032 106.441 246.849 106.693C246.715 106.924 246.556 107.14 246.374 107.335C246.316 107.303 246.958 106.359 247.741 104.716C248.197 103.752 248.593 102.762 248.929 101.75C249.322 100.504 249.625 99.2319 249.834 97.9426C250.028 96.6527 250.127 95.3502 250.129 94.0457C250.12 92.9721 250.045 91.9001 249.905 90.8357C249.674 89.083 249.353 87.9916 249.41 87.9531Z" fill="#263238"/>
<path d="M253.59 89.084C253.707 89.3231 253.795 89.5753 253.853 89.8351C253.949 90.1323 254.028 90.4345 254.091 90.7403C254.168 91.0999 254.271 91.5043 254.335 91.9602C254.513 93.0214 254.614 94.0942 254.637 95.1702C254.65 96.4913 254.56 97.8114 254.367 99.1184C254.154 100.426 253.836 101.714 253.417 102.97C253.064 103.994 252.634 104.99 252.133 105.949C251.934 106.36 251.716 106.713 251.529 107.034C251.376 107.317 251.206 107.592 251.022 107.856C250.888 108.087 250.729 108.303 250.547 108.498C250.489 108.466 251.131 107.522 251.915 105.879C252.372 104.916 252.769 103.925 253.102 102.913C253.496 101.667 253.798 100.395 254.007 99.1056C254.202 97.8157 254.301 96.5132 254.303 95.2087C254.294 94.1351 254.219 93.063 254.078 91.9987C253.847 90.1882 253.526 89.0968 253.59 89.084Z" fill="#263238"/>
<path d="M113.974 139.448C118.039 134.018 119.922 127.261 119.249 120.511C118.576 113.761 115.398 107.509 110.341 102.988C105.284 98.4668 98.7163 96.0056 91.9336 96.09C85.1509 96.1744 78.6462 98.7983 73.7034 103.444C68.7606 108.089 65.7388 114.419 65.2343 121.183C64.7298 127.948 66.7794 134.656 70.9785 139.983C75.1776 145.31 81.2212 148.87 87.9163 149.959C94.6115 151.049 101.472 149.589 107.143 145.868L116.465 149.996L113.974 139.448Z" fill="#FAFAFA"/>
<path d="M93.8919 117.668C94.5279 117.342 95.2509 117.225 95.9572 117.335C96.8319 117.506 97.6329 117.941 98.2515 118.583L98.2575 118.589L98.2638 118.595C98.9271 119.237 99.3807 120.064 99.5649 120.968C99.7769 122.144 99.6052 123.356 99.0755 124.426C98.432 125.545 97.5306 126.495 96.4462 127.195L96.4402 127.199L96.4343 127.203C95.5037 127.843 94.4247 128.563 93.5773 129.124C93.1539 129.405 92.7887 129.645 92.5294 129.815C92.4785 129.849 92.4317 129.88 92.3893 129.907C92.3547 129.885 92.3172 129.861 92.2769 129.835C92.0324 129.678 91.6857 129.459 91.276 129.206C90.4582 128.701 89.3829 128.06 88.3666 127.526L88.3601 127.522L88.3534 127.519C87.1935 126.953 86.1854 126.118 85.4126 125.084C84.7725 124.079 84.4701 122.896 84.5496 121.706C84.6214 120.788 84.9742 119.913 85.5603 119.202L85.5669 119.194L85.5731 119.186C86.1149 118.469 86.8675 117.941 87.7251 117.675C88.4377 117.47 89.1981 117.507 89.8874 117.78C90.5781 118.055 91.1581 118.55 91.5364 119.19L92.0025 119.978L92.4135 119.16C92.7357 118.519 93.2534 117.996 93.8919 117.668Z" stroke="#DD5491"/>
<path d="M92.2426 96.1909C92.0846 96.1767 91.9256 96.1767 91.7675 96.1909L90.3872 96.2358C90.0791 96.2358 89.7452 96.2358 89.3665 96.2807L88.1467 96.4476L86.7214 96.6531L85.1293 97.0511C82.3935 97.7404 79.7904 98.877 77.4253 100.415C73.917 102.646 70.966 105.651 68.7983 109.198C66.6305 112.746 65.3036 116.742 64.9191 120.882C64.8128 122.125 64.7871 123.373 64.8421 124.619C64.887 125.261 64.8421 125.903 64.964 126.545C65.086 127.187 65.1566 127.829 65.2594 128.471C65.7369 131.115 66.6022 133.674 67.8274 136.065C69.1383 138.57 70.808 140.869 72.7836 142.89C74.8865 144.96 77.2968 146.692 79.9291 148.026C82.6522 149.425 85.6019 150.329 88.641 150.697C89.41 150.818 90.1866 150.884 90.965 150.896C91.7468 150.956 92.5313 150.971 93.3148 150.941C94.8974 150.875 96.4717 150.675 98.0206 150.344C101.364 149.62 104.541 148.274 107.387 146.376L107.105 146.408L116.645 150.26L117.21 150.491L117.05 149.901L114.276 139.667L114.231 139.917C116.818 136.487 118.56 132.495 119.316 128.265C119.683 126.298 119.808 124.293 119.688 122.295C119.669 121.328 119.577 120.365 119.412 119.412C119.341 118.943 119.264 118.481 119.194 118.019C119.123 117.557 118.969 117.114 118.86 116.664C117.267 110.395 113.496 104.898 108.222 101.154C106.273 99.7539 104.141 98.6284 101.885 97.8087L100.46 97.3015L99.1056 96.9548L97.8665 96.6467C97.4685 96.5696 97.0833 96.5311 96.7238 96.4733C96.0047 96.3835 95.3692 96.2615 94.7978 96.2294L93.3918 96.1844H92.5379C92.4422 96.1703 92.3448 96.1703 92.249 96.1844C92.344 96.2056 92.4407 96.2185 92.5379 96.223L93.3918 96.2871L94.7785 96.3835C95.3306 96.4284 95.9598 96.5632 96.6724 96.6724C101.848 97.5658 106.653 99.9426 110.504 103.514C114.355 107.086 117.086 111.699 118.366 116.793C118.468 117.236 118.603 117.672 118.687 118.122C118.77 118.571 118.821 119.033 118.892 119.489C119.047 120.421 119.131 121.363 119.142 122.307C119.252 124.267 119.123 126.234 118.757 128.162C118.002 132.302 116.282 136.206 113.737 139.558L113.653 139.674L113.692 139.815C114.591 143.108 115.515 146.517 116.472 150.016L116.876 149.657L107.342 145.805L107.195 145.747L107.054 145.83C104.268 147.672 101.163 148.978 97.8986 149.682C96.3857 150.007 94.848 150.202 93.3019 150.267C92.5356 150.293 91.7683 150.278 91.0036 150.222C90.2446 150.209 89.4875 150.145 88.7373 150.029C85.7663 149.672 82.882 148.792 80.218 147.429C77.6321 146.135 75.2609 144.45 73.1881 142.434C71.2512 140.457 69.61 138.21 68.3153 135.764C67.1011 133.426 66.2359 130.924 65.7473 128.336C65.651 127.694 65.5547 127.052 65.4584 126.455C65.3621 125.858 65.3749 125.171 65.33 124.58C65.0976 119.874 66.1064 115.19 68.2552 110.998C70.404 106.805 73.6173 103.251 77.5729 100.691C79.9012 99.1486 82.4638 97.9931 85.1614 97.2694L86.7343 96.8521L88.1467 96.621L89.3536 96.422C89.726 96.377 90.0662 96.3706 90.368 96.3449L91.7483 96.2422C91.914 96.2356 92.0791 96.2185 92.2426 96.1909Z" fill="#263238"/>
</svg>
