<svg width="183" height="153" viewBox="0 0 183 153" fill="none" xmlns="http://www.w3.org/2000/svg">
<path d="M68.7898 140.962V0.647765C68.6459 0.636212 68.5116 0.570757 68.4138 0.464479C68.316 0.3582 68.262 0.218929 68.2624 0.0745163C68.2624 0.0745163 68.2624 0.0229299 68.2624 0H67.2592C67.2625 0.0247349 67.2625 0.0497814 67.2592 0.0745163C67.2592 0.230352 67.1973 0.37981 67.0871 0.490003C66.9769 0.600195 66.8275 0.662101 66.6717 0.662101C66.5158 0.662101 66.3664 0.600195 66.2562 0.490003C66.146 0.37981 66.0841 0.230352 66.0841 0.0745163C66.0808 0.0497814 66.0808 0.0247349 66.0841 0H65.1267C65.1267 0 65.1267 0.0458539 65.1267 0.0745163C65.1267 0.226551 65.0664 0.37236 64.9588 0.479865C64.8513 0.58737 64.7055 0.647765 64.5535 0.647765C64.4015 0.647765 64.2557 0.58737 64.1482 0.479865C64.0406 0.37236 63.9803 0.226551 63.9803 0.0745163C63.9803 0.0745163 63.9803 0.0229299 63.9803 0H62.9771C62.9803 0.0247349 62.9803 0.0497814 62.9771 0.0745163C62.9771 0.230352 62.9152 0.37981 62.805 0.490003C62.6948 0.600195 62.5453 0.662101 62.3895 0.662101C62.2337 0.662101 62.0842 0.600195 61.974 0.490003C61.8638 0.37981 61.8019 0.230352 61.8019 0.0745163C61.7987 0.0497814 61.7987 0.0247349 61.8019 0H60.8274C60.8274 0 60.8274 0.0458539 60.8274 0.0745163C60.8274 0.226551 60.767 0.37236 60.6595 0.479865C60.552 0.58737 60.4062 0.647765 60.2541 0.647765C60.1021 0.647765 59.9563 0.58737 59.8488 0.479865C59.7413 0.37236 59.6809 0.226551 59.6809 0.0745163C59.6809 0.0745163 59.6809 0.0229299 59.6809 0H58.6777C58.6809 0.0247349 58.6809 0.0497814 58.6777 0.0745163C58.6777 0.226551 58.6173 0.37236 58.5098 0.479865C58.4023 0.58737 58.2565 0.647765 58.1045 0.647765C57.9524 0.647765 57.8066 0.58737 57.6991 0.479865C57.5916 0.37236 57.5312 0.226551 57.5312 0.0745163C57.528 0.0497814 57.528 0.0247349 57.5312 0H56.528C56.528 0 56.528 0.0458539 56.528 0.0745163C56.528 0.226551 56.4676 0.37236 56.3601 0.479865C56.2526 0.58737 56.1068 0.647765 55.9548 0.647765C55.8027 0.647765 55.6569 0.58737 55.5494 0.479865C55.4419 0.37236 55.3815 0.226551 55.3815 0.0745163C55.3783 0.0497814 55.3783 0.0247349 55.3815 0H54.3726C54.3759 0.0247349 54.3759 0.0497814 54.3726 0.0745163C54.3726 0.226551 54.3122 0.37236 54.2047 0.479865C54.0972 0.58737 53.9514 0.647765 53.7994 0.647765C53.6473 0.647765 53.5015 0.58737 53.394 0.479865C53.2865 0.37236 53.2261 0.226551 53.2261 0.0745163C53.2261 0.0745163 53.2261 0.0229299 53.2261 0H52.2287C52.2287 0 52.2287 0.0458539 52.2287 0.0745163C52.2287 0.226551 52.1683 0.37236 52.0608 0.479865C51.9533 0.58737 51.8074 0.647765 51.6554 0.647765C51.5034 0.647765 51.3576 0.58737 51.2501 0.479865C51.1426 0.37236 51.0822 0.226551 51.0822 0.0745163C51.0789 0.0497814 51.0789 0.0247349 51.0822 0H50.0732C50.0765 0.0247349 50.0765 0.0497814 50.0732 0.0745163C50.0732 0.226551 50.0129 0.37236 49.9053 0.479865C49.7978 0.58737 49.652 0.647765 49.5 0.647765C49.348 0.647765 49.2022 0.58737 49.0947 0.479865C48.9871 0.37236 48.9268 0.226551 48.9268 0.0745163C48.9268 0.0745163 48.9268 0.0229299 48.9268 0H47.9236C47.9268 0.0247349 47.9268 0.0497814 47.9236 0.0745163C47.9236 0.226551 47.8632 0.37236 47.7557 0.479865C47.6482 0.58737 47.5024 0.647765 47.3503 0.647765C47.1983 0.647765 47.0525 0.58737 46.945 0.479865C46.8375 0.37236 46.7771 0.226551 46.7771 0.0745163C46.7738 0.0497814 46.7738 0.0247349 46.7771 0H45.8083C45.8083 0 45.8083 0.0458539 45.8083 0.0745163C45.8083 0.226551 45.7479 0.37236 45.6404 0.479865C45.5329 0.58737 45.3871 0.647765 45.235 0.647765C45.083 0.647765 44.9372 0.58737 44.8297 0.479865C44.7222 0.37236 44.6618 0.226551 44.6618 0.0745163C44.6618 0.0745163 44.6618 0.0229299 44.6618 0H43.6586C43.6618 0.0247349 43.6618 0.0497814 43.6586 0.0745163C43.6586 0.230352 43.5967 0.37981 43.4865 0.490003C43.3763 0.600195 43.2268 0.662101 43.071 0.662101C42.9152 0.662101 42.7657 0.600195 42.6555 0.490003C42.5453 0.37981 42.4834 0.230352 42.4834 0.0745163C42.4802 0.0497814 42.4802 0.0247349 42.4834 0H41.4803C41.4803 0 41.4803 0.0458539 41.4803 0.0745163C41.4803 0.226551 41.4199 0.37236 41.3124 0.479865C41.2048 0.58737 41.059 0.647765 40.907 0.647765C40.755 0.647765 40.6092 0.58737 40.5017 0.479865C40.3942 0.37236 40.3338 0.226551 40.3338 0.0745163C40.3338 0.0745163 40.3338 0.0229299 40.3338 0H39.3306C39.3338 0.0247349 39.3338 0.0497814 39.3306 0.0745163C39.3306 0.230352 39.2687 0.37981 39.1585 0.490003C39.0483 0.600195 38.8988 0.662101 38.743 0.662101C38.5872 0.662101 38.4377 0.600195 38.3275 0.490003C38.2173 0.37981 38.1554 0.230352 38.1554 0.0745163C38.1522 0.0497814 38.1522 0.0247349 38.1554 0H37.1522C37.1522 0 37.1522 0.0458539 37.1522 0.0745163C37.1522 0.226551 37.0918 0.37236 36.9843 0.479865C36.8768 0.58737 36.731 0.647765 36.579 0.647765C36.4269 0.647765 36.2811 0.58737 36.1736 0.479865C36.0661 0.37236 36.0057 0.226551 36.0057 0.0745163C36.0025 0.0497814 36.0025 0.0247349 36.0057 0H34.9968C35.0001 0.0247349 35.0001 0.0497814 34.9968 0.0745163C34.9968 0.226551 34.9364 0.37236 34.8289 0.479865C34.7214 0.58737 34.5756 0.647765 34.4236 0.647765C34.2715 0.647765 34.1257 0.58737 34.0182 0.479865C33.9107 0.37236 33.8503 0.226551 33.8503 0.0745163C33.8471 0.0497814 33.8471 0.0247349 33.8503 0H32.8471C32.8471 0 32.8471 0.0458539 32.8471 0.0745163C32.8471 0.226551 32.7867 0.37236 32.6792 0.479865C32.5717 0.58737 32.4259 0.647765 32.2739 0.647765C32.1219 0.647765 31.976 0.58737 31.8685 0.479865C31.761 0.37236 31.7006 0.226551 31.7006 0.0745163C31.6974 0.0497814 31.6974 0.0247349 31.7006 0H30.6917C30.695 0.0247349 30.695 0.0497814 30.6917 0.0745163C30.6917 0.226551 30.6313 0.37236 30.5238 0.479865C30.4163 0.58737 30.2705 0.647765 30.1185 0.647765C29.9664 0.647765 29.8206 0.58737 29.7131 0.479865C29.6056 0.37236 29.5452 0.226551 29.5452 0.0745163C29.5452 0.0745163 29.5452 0.0229299 29.5452 0H28.542C28.5453 0.0247349 28.5453 0.0497814 28.542 0.0745163C28.542 0.230352 28.4801 0.37981 28.3699 0.490003C28.2598 0.600195 28.1103 0.662101 27.9545 0.662101C27.7986 0.662101 27.6492 0.600195 27.539 0.490003C27.4288 0.37981 27.3669 0.230352 27.3669 0.0745163C27.3636 0.0497814 27.3636 0.0247349 27.3669 0H26.4898C26.4898 0 26.4898 0.0458539 26.4898 0.0745163C26.4898 0.226551 26.4294 0.37236 26.3219 0.479865C26.2144 0.58737 26.0686 0.647765 25.9166 0.647765C25.7645 0.647765 25.6187 0.58737 25.5112 0.479865C25.4037 0.37236 25.3433 0.226551 25.3433 0.0745163C25.3433 0.0745163 25.3433 0.0229299 25.3433 0H24.3401C24.3434 0.0247349 24.3434 0.0497814 24.3401 0.0745163C24.3401 0.226551 24.2797 0.37236 24.1722 0.479865C24.0647 0.58737 23.9189 0.647765 23.7669 0.647765C23.6148 0.647765 23.469 0.58737 23.3615 0.479865C23.254 0.37236 23.1936 0.226551 23.1936 0.0745163C23.1904 0.0497814 23.1904 0.0247349 23.1936 0H22.1904C22.1904 0 22.1904 0.0458539 22.1904 0.0745163C22.1904 0.226551 22.13 0.37236 22.0225 0.479865C21.915 0.58737 21.7692 0.647765 21.6172 0.647765C21.4652 0.647765 21.3194 0.58737 21.2118 0.479865C21.1043 0.37236 21.0439 0.226551 21.0439 0.0745163C21.0439 0.0745163 21.0439 0.0229299 21.0439 0H20.0408C20.044 0.0247349 20.044 0.0497814 20.0408 0.0745163C20.0408 0.226551 19.9804 0.37236 19.8729 0.479865C19.7654 0.58737 19.6195 0.647765 19.4675 0.647765C19.3155 0.647765 19.1697 0.58737 19.0622 0.479865C18.9547 0.37236 18.8943 0.226551 18.8943 0.0745163C18.891 0.0497814 18.891 0.0247349 18.8943 0H17.8911C17.8911 0 17.8911 0.0458539 17.8911 0.0745163C17.8911 0.226551 17.8307 0.37236 17.7232 0.479865C17.6157 0.58737 17.4699 0.647765 17.3178 0.647765C17.1658 0.647765 17.02 0.58737 16.9125 0.479865C16.805 0.37236 16.7446 0.226551 16.7446 0.0745163C16.7446 0.0745163 16.7446 0.0229299 16.7446 0H15.7414C15.7446 0.0247349 15.7446 0.0497814 15.7414 0.0745163C15.7414 0.230352 15.6795 0.37981 15.5693 0.490003C15.4591 0.600195 15.3097 0.662101 15.1538 0.662101C14.998 0.662101 14.8485 0.600195 14.7383 0.490003C14.6281 0.37981 14.5662 0.230352 14.5662 0.0745163C14.563 0.0497814 14.563 0.0247349 14.5662 0H13.5631C13.5631 0 13.5631 0.0458539 13.5631 0.0745163C13.5631 0.226551 13.5027 0.37236 13.3952 0.479865C13.2877 0.58737 13.1418 0.647765 12.9898 0.647765C12.8378 0.647765 12.692 0.58737 12.5845 0.479865C12.477 0.37236 12.4166 0.226551 12.4166 0.0745163C12.4133 0.0497814 12.4133 0.0247349 12.4166 0H11.4076C11.4109 0.0247349 11.4109 0.0497814 11.4076 0.0745163C11.4076 0.226551 11.3472 0.37236 11.2397 0.479865C11.1322 0.58737 10.9864 0.647765 10.8344 0.647765C10.6824 0.647765 10.5366 0.58737 10.429 0.479865C10.3215 0.37236 10.2611 0.226551 10.2611 0.0745163C10.2611 0.0745163 10.2611 0.0229299 10.2611 0H9.25796C9.25796 0 9.25796 0.0458539 9.25796 0.0745163C9.25796 0.226551 9.19757 0.37236 9.09006 0.479865C8.98256 0.58737 8.83675 0.647765 8.68471 0.647765C8.53268 0.647765 8.38687 0.58737 8.27937 0.479865C8.17186 0.37236 8.11147 0.226551 8.11147 0.0745163C8.10822 0.0497814 8.10822 0.0247349 8.11147 0H7.1656C7.16885 0.0247349 7.16885 0.0497814 7.1656 0.0745163C7.1656 0.226551 7.10521 0.37236 6.9977 0.479865C6.8902 0.58737 6.74439 0.647765 6.59236 0.647765C6.44032 0.647765 6.29451 0.58737 6.18701 0.479865C6.0795 0.37236 6.01911 0.226551 6.01911 0.0745163C6.01911 0.0745163 6.01911 0.0229299 6.01911 0H5.02166C5.0249 0.0247349 5.0249 0.0497814 5.02166 0.0745163C5.02166 0.230352 4.95975 0.37981 4.84956 0.490003C4.73937 0.600195 4.58991 0.662101 4.43408 0.662101C4.27824 0.662101 4.12879 0.600195 4.01859 0.490003C3.9084 0.37981 3.8465 0.230352 3.8465 0.0745163C3.84325 0.0497814 3.84325 0.0247349 3.8465 0H2.87771C2.87771 0 2.87771 0.0458539 2.87771 0.0745163C2.87771 0.226551 2.81731 0.37236 2.7098 0.479865C2.6023 0.58737 2.4565 0.647765 2.30446 0.647765C2.15243 0.647765 2.00662 0.58737 1.89911 0.479865C1.79161 0.37236 1.73121 0.226551 1.73121 0.0745163C1.73121 0.0745163 1.73121 0.0229299 1.73121 0H0.728028C0.731271 0.0247349 0.731271 0.0497814 0.728028 0.0745163C0.728028 0.226551 0.667628 0.37236 0.560123 0.479865C0.452618 0.58737 0.306814 0.647765 0.15478 0.647765C0.101697 0.64453 0.0494568 0.632923 0 0.613371V140.962C0 144.155 1.26831 147.216 3.52591 149.474C5.78351 151.732 8.84548 153 12.0382 153H67.9185C70.2246 153 72.486 152.363 74.4535 151.16C72.7225 150.079 71.2946 148.577 70.3039 146.793C69.3132 145.009 68.7922 143.002 68.7898 140.962Z" fill="#DD5491"/>
<path opacity="0.8" d="M68.7898 140.962V0.647765C68.6459 0.636212 68.5116 0.570757 68.4138 0.464479C68.316 0.3582 68.262 0.218929 68.2624 0.0745163C68.2624 0.0745163 68.2624 0.0229299 68.2624 0H67.2592C67.2625 0.0247349 67.2625 0.0497814 67.2592 0.0745163C67.2592 0.230352 67.1973 0.37981 67.0871 0.490003C66.9769 0.600195 66.8275 0.662101 66.6717 0.662101C66.5158 0.662101 66.3664 0.600195 66.2562 0.490003C66.146 0.37981 66.0841 0.230352 66.0841 0.0745163C66.0808 0.0497814 66.0808 0.0247349 66.0841 0H65.1267C65.1267 0 65.1267 0.0458539 65.1267 0.0745163C65.1267 0.226551 65.0664 0.37236 64.9588 0.479865C64.8513 0.58737 64.7055 0.647765 64.5535 0.647765C64.4015 0.647765 64.2557 0.58737 64.1482 0.479865C64.0406 0.37236 63.9803 0.226551 63.9803 0.0745163C63.9803 0.0745163 63.9803 0.0229299 63.9803 0H62.9771C62.9803 0.0247349 62.9803 0.0497814 62.9771 0.0745163C62.9771 0.230352 62.9152 0.37981 62.805 0.490003C62.6948 0.600195 62.5453 0.662101 62.3895 0.662101C62.2337 0.662101 62.0842 0.600195 61.974 0.490003C61.8638 0.37981 61.8019 0.230352 61.8019 0.0745163C61.7987 0.0497814 61.7987 0.0247349 61.8019 0H60.8274C60.8274 0 60.8274 0.0458539 60.8274 0.0745163C60.8274 0.226551 60.767 0.37236 60.6595 0.479865C60.552 0.58737 60.4062 0.647765 60.2541 0.647765C60.1021 0.647765 59.9563 0.58737 59.8488 0.479865C59.7413 0.37236 59.6809 0.226551 59.6809 0.0745163C59.6809 0.0745163 59.6809 0.0229299 59.6809 0H58.6777C58.6809 0.0247349 58.6809 0.0497814 58.6777 0.0745163C58.6777 0.226551 58.6173 0.37236 58.5098 0.479865C58.4023 0.58737 58.2565 0.647765 58.1045 0.647765C57.9524 0.647765 57.8066 0.58737 57.6991 0.479865C57.5916 0.37236 57.5312 0.226551 57.5312 0.0745163C57.528 0.0497814 57.528 0.0247349 57.5312 0H56.528C56.528 0 56.528 0.0458539 56.528 0.0745163C56.528 0.226551 56.4676 0.37236 56.3601 0.479865C56.2526 0.58737 56.1068 0.647765 55.9548 0.647765C55.8027 0.647765 55.6569 0.58737 55.5494 0.479865C55.4419 0.37236 55.3815 0.226551 55.3815 0.0745163C55.3783 0.0497814 55.3783 0.0247349 55.3815 0H54.3726C54.3759 0.0247349 54.3759 0.0497814 54.3726 0.0745163C54.3726 0.226551 54.3122 0.37236 54.2047 0.479865C54.0972 0.58737 53.9514 0.647765 53.7994 0.647765C53.6473 0.647765 53.5015 0.58737 53.394 0.479865C53.2865 0.37236 53.2261 0.226551 53.2261 0.0745163C53.2261 0.0745163 53.2261 0.0229299 53.2261 0H52.2287C52.2287 0 52.2287 0.0458539 52.2287 0.0745163C52.2287 0.226551 52.1683 0.37236 52.0608 0.479865C51.9533 0.58737 51.8074 0.647765 51.6554 0.647765C51.5034 0.647765 51.3576 0.58737 51.2501 0.479865C51.1426 0.37236 51.0822 0.226551 51.0822 0.0745163C51.0789 0.0497814 51.0789 0.0247349 51.0822 0H50.0732C50.0765 0.0247349 50.0765 0.0497814 50.0732 0.0745163C50.0732 0.226551 50.0129 0.37236 49.9053 0.479865C49.7978 0.58737 49.652 0.647765 49.5 0.647765C49.348 0.647765 49.2022 0.58737 49.0947 0.479865C48.9871 0.37236 48.9268 0.226551 48.9268 0.0745163C48.9268 0.0745163 48.9268 0.0229299 48.9268 0H47.9236C47.9268 0.0247349 47.9268 0.0497814 47.9236 0.0745163C47.9236 0.226551 47.8632 0.37236 47.7557 0.479865C47.6482 0.58737 47.5024 0.647765 47.3503 0.647765C47.1983 0.647765 47.0525 0.58737 46.945 0.479865C46.8375 0.37236 46.7771 0.226551 46.7771 0.0745163C46.7738 0.0497814 46.7738 0.0247349 46.7771 0H45.8083C45.8083 0 45.8083 0.0458539 45.8083 0.0745163C45.8083 0.226551 45.7479 0.37236 45.6404 0.479865C45.5329 0.58737 45.3871 0.647765 45.235 0.647765C45.083 0.647765 44.9372 0.58737 44.8297 0.479865C44.7222 0.37236 44.6618 0.226551 44.6618 0.0745163C44.6618 0.0745163 44.6618 0.0229299 44.6618 0H43.6586C43.6618 0.0247349 43.6618 0.0497814 43.6586 0.0745163C43.6586 0.230352 43.5967 0.37981 43.4865 0.490003C43.3763 0.600195 43.2268 0.662101 43.071 0.662101C42.9152 0.662101 42.7657 0.600195 42.6555 0.490003C42.5453 0.37981 42.4834 0.230352 42.4834 0.0745163C42.4802 0.0497814 42.4802 0.0247349 42.4834 0H41.4803C41.4803 0 41.4803 0.0458539 41.4803 0.0745163C41.4803 0.226551 41.4199 0.37236 41.3124 0.479865C41.2048 0.58737 41.059 0.647765 40.907 0.647765C40.755 0.647765 40.6092 0.58737 40.5017 0.479865C40.3941 0.37236 40.3338 0.226551 40.3338 0.0745163C40.3338 0.0745163 40.3338 0.0229299 40.3338 0H39.3306C39.3338 0.0247349 39.3338 0.0497814 39.3306 0.0745163C39.3306 0.230352 39.2687 0.37981 39.1585 0.490003C39.0483 0.600195 38.8988 0.662101 38.743 0.662101C38.5872 0.662101 38.4377 0.600195 38.3275 0.490003C38.2173 0.37981 38.1554 0.230352 38.1554 0.0745163C38.1522 0.0497814 38.1522 0.0247349 38.1554 0H37.1522C37.1522 0 37.1522 0.0458539 37.1522 0.0745163C37.1522 0.226551 37.0918 0.37236 36.9843 0.479865C36.8768 0.58737 36.731 0.647765 36.579 0.647765C36.4269 0.647765 36.2811 0.58737 36.1736 0.479865C36.0661 0.37236 36.0057 0.226551 36.0057 0.0745163C36.0025 0.0497814 36.0025 0.0247349 36.0057 0H34.9968C35.0001 0.0247349 35.0001 0.0497814 34.9968 0.0745163C34.9968 0.226551 34.9364 0.37236 34.8289 0.479865C34.7214 0.58737 34.5756 0.647765 34.4236 0.647765C34.2715 0.647765 34.1257 0.58737 34.0182 0.479865C33.9107 0.37236 33.8503 0.226551 33.8503 0.0745163C33.8471 0.0497814 33.8471 0.0247349 33.8503 0H32.8471C32.8471 0 32.8471 0.0458539 32.8471 0.0745163C32.8471 0.226551 32.7867 0.37236 32.6792 0.479865C32.5717 0.58737 32.4259 0.647765 32.2739 0.647765C32.1219 0.647765 31.976 0.58737 31.8685 0.479865C31.761 0.37236 31.7006 0.226551 31.7006 0.0745163C31.6974 0.0497814 31.6974 0.0247349 31.7006 0H30.6917C30.695 0.0247349 30.695 0.0497814 30.6917 0.0745163C30.6917 0.226551 30.6313 0.37236 30.5238 0.479865C30.4163 0.58737 30.2705 0.647765 30.1185 0.647765C29.9664 0.647765 29.8206 0.58737 29.7131 0.479865C29.6056 0.37236 29.5452 0.226551 29.5452 0.0745163C29.5452 0.0745163 29.5452 0.0229299 29.5452 0H28.542C28.5453 0.0247349 28.5453 0.0497814 28.542 0.0745163C28.542 0.230352 28.4801 0.37981 28.3699 0.490003C28.2598 0.600195 28.1103 0.662101 27.9545 0.662101C27.7986 0.662101 27.6492 0.600195 27.539 0.490003C27.4288 0.37981 27.3669 0.230352 27.3669 0.0745163C27.3636 0.0497814 27.3636 0.0247349 27.3669 0H26.4898C26.4898 0 26.4898 0.0458539 26.4898 0.0745163C26.4898 0.226551 26.4294 0.37236 26.3219 0.479865C26.2144 0.58737 26.0686 0.647765 25.9166 0.647765C25.7645 0.647765 25.6187 0.58737 25.5112 0.479865C25.4037 0.37236 25.3433 0.226551 25.3433 0.0745163C25.3433 0.0745163 25.3433 0.0229299 25.3433 0H24.3401C24.3434 0.0247349 24.3434 0.0497814 24.3401 0.0745163C24.3401 0.226551 24.2797 0.37236 24.1722 0.479865C24.0647 0.58737 23.9189 0.647765 23.7669 0.647765C23.6148 0.647765 23.469 0.58737 23.3615 0.479865C23.254 0.37236 23.1936 0.226551 23.1936 0.0745163C23.1904 0.0497814 23.1904 0.0247349 23.1936 0H22.1904C22.1904 0 22.1904 0.0458539 22.1904 0.0745163C22.1904 0.226551 22.1301 0.37236 22.0225 0.479865C21.915 0.58737 21.7692 0.647765 21.6172 0.647765C21.4652 0.647765 21.3194 0.58737 21.2118 0.479865C21.1043 0.37236 21.0439 0.226551 21.0439 0.0745163C21.0439 0.0745163 21.0439 0.0229299 21.0439 0H20.0408C20.044 0.0247349 20.044 0.0497814 20.0408 0.0745163C20.0408 0.226551 19.9804 0.37236 19.8729 0.479865C19.7654 0.58737 19.6195 0.647765 19.4675 0.647765C19.3155 0.647765 19.1697 0.58737 19.0622 0.479865C18.9547 0.37236 18.8943 0.226551 18.8943 0.0745163C18.891 0.0497814 18.891 0.0247349 18.8943 0H17.8911C17.8911 0 17.8911 0.0458539 17.8911 0.0745163C17.8911 0.226551 17.8307 0.37236 17.7232 0.479865C17.6157 0.58737 17.4699 0.647765 17.3178 0.647765C17.1658 0.647765 17.02 0.58737 16.9125 0.479865C16.805 0.37236 16.7446 0.226551 16.7446 0.0745163C16.7446 0.0745163 16.7446 0.0229299 16.7446 0H15.7414C15.7446 0.0247349 15.7446 0.0497814 15.7414 0.0745163C15.7414 0.230352 15.6795 0.37981 15.5693 0.490003C15.4591 0.600195 15.3097 0.662101 15.1538 0.662101C14.998 0.662101 14.8485 0.600195 14.7383 0.490003C14.6281 0.37981 14.5662 0.230352 14.5662 0.0745163C14.563 0.0497814 14.563 0.0247349 14.5662 0H13.5631C13.5631 0 13.5631 0.0458539 13.5631 0.0745163C13.5631 0.226551 13.5027 0.37236 13.3952 0.479865C13.2877 0.58737 13.1418 0.647765 12.9898 0.647765C12.8378 0.647765 12.692 0.58737 12.5845 0.479865C12.477 0.37236 12.4166 0.226551 12.4166 0.0745163C12.4133 0.0497814 12.4133 0.0247349 12.4166 0H11.4076C11.4109 0.0247349 11.4109 0.0497814 11.4076 0.0745163C11.4076 0.226551 11.3472 0.37236 11.2397 0.479865C11.1322 0.58737 10.9864 0.647765 10.8344 0.647765C10.6824 0.647765 10.5366 0.58737 10.429 0.479865C10.3215 0.37236 10.2611 0.226551 10.2611 0.0745163C10.2611 0.0745163 10.2611 0.0229299 10.2611 0H9.25796C9.25796 0 9.25796 0.0458539 9.25796 0.0745163C9.25796 0.226551 9.19757 0.37236 9.09006 0.479865C8.98256 0.58737 8.83675 0.647765 8.68471 0.647765C8.53268 0.647765 8.38687 0.58737 8.27937 0.479865C8.17186 0.37236 8.11147 0.226551 8.11147 0.0745163C8.10822 0.0497814 8.10822 0.0247349 8.11147 0H7.1656C7.16885 0.0247349 7.16885 0.0497814 7.1656 0.0745163C7.1656 0.226551 7.10521 0.37236 6.9977 0.479865C6.8902 0.58737 6.74439 0.647765 6.59236 0.647765C6.44032 0.647765 6.29451 0.58737 6.18701 0.479865C6.0795 0.37236 6.01911 0.226551 6.01911 0.0745163C6.01911 0.0745163 6.01911 0.0229299 6.01911 0H5.02166C5.0249 0.0247349 5.0249 0.0497814 5.02166 0.0745163C5.02166 0.230352 4.95975 0.37981 4.84956 0.490003C4.73937 0.600195 4.58991 0.662101 4.43408 0.662101C4.27824 0.662101 4.12879 0.600195 4.01859 0.490003C3.9084 0.37981 3.8465 0.230352 3.8465 0.0745163C3.84325 0.0497814 3.84325 0.0247349 3.8465 0H2.87771C2.87771 0 2.87771 0.0458539 2.87771 0.0745163C2.87771 0.226551 2.81731 0.37236 2.7098 0.479865C2.6023 0.58737 2.4565 0.647765 2.30446 0.647765C2.15243 0.647765 2.00662 0.58737 1.89911 0.479865C1.79161 0.37236 1.73121 0.226551 1.73121 0.0745163C1.73121 0.0745163 1.73121 0.0229299 1.73121 0H0.728028C0.731271 0.0247349 0.731271 0.0497814 0.728028 0.0745163C0.728028 0.226551 0.667628 0.37236 0.560123 0.479865C0.452618 0.58737 0.306814 0.647765 0.15478 0.647765C0.101697 0.64453 0.0494568 0.632923 0 0.613371V140.962C0 144.155 1.26831 147.216 3.52591 149.474C5.78351 151.732 8.84548 153 12.0382 153H67.9185C70.2246 153 72.486 152.363 74.4535 151.16C72.7225 150.079 71.2946 148.577 70.3039 146.793C69.3132 145.009 68.7922 143.002 68.7898 140.962Z" fill="#F3D8E4"/>
<path d="M23.6866 14.4046L22.5859 12.8569C22.4581 12.8659 22.3297 12.8659 22.2019 12.8569H20.912V14.3817H20.4019V9.56641H22.2019C23.4229 9.56641 24.1681 10.1855 24.1681 11.2174C24.1851 11.5574 24.0851 11.893 23.8849 12.1683C23.6846 12.4436 23.3962 12.6421 23.0675 12.7307L24.2426 14.3817L23.6866 14.4046ZM23.6579 11.2403C23.6579 10.4721 23.1477 10.0307 22.1904 10.0307H20.912V12.4441H22.1904C23.1477 12.4441 23.6579 11.9798 23.6579 11.2403Z" fill="#DD5491"/>
<path d="M28.777 13.9637V14.4051H25.3719V9.58984H28.6739V10.0312H25.8592V11.751H28.3471V12.1809H25.8592V13.9695L28.777 13.9637Z" fill="#DD5491"/>
<path d="M29.5222 11.9815C29.5172 11.6523 29.5796 11.3256 29.7055 11.0214C29.8315 10.7172 30.0183 10.442 30.2546 10.2127C30.4909 9.98344 30.7715 9.80492 31.0794 9.68815C31.3872 9.57138 31.7156 9.51883 32.0445 9.53372C32.371 9.52081 32.6965 9.57695 32.9997 9.69845C33.303 9.81995 33.5772 10.0041 33.8044 10.2388L33.4834 10.5598C33.2989 10.3712 33.0773 10.2229 32.8326 10.1242C32.5879 10.0256 32.3255 9.97871 32.0617 9.98659C31.7983 9.98659 31.5374 10.0385 31.2939 10.1393C31.0505 10.2401 30.8293 10.3879 30.643 10.5742C30.4567 10.7605 30.3089 10.9817 30.2081 11.2252C30.1073 11.4686 30.0554 11.7295 30.0554 11.993C30.0554 12.2564 30.1073 12.5173 30.2081 12.7608C30.3089 13.0042 30.4567 13.2254 30.643 13.4117C30.8293 13.598 31.0505 13.7458 31.2939 13.8466C31.5374 13.9474 31.7983 13.9993 32.0617 13.9993C32.3256 14.0083 32.5884 13.9619 32.8332 13.8632C33.0781 13.7644 33.2995 13.6155 33.4834 13.4261L33.8044 13.7528C33.5755 13.9868 33.3001 14.1705 32.9961 14.2919C32.692 14.4133 32.366 14.4699 32.0388 14.4579C31.7079 14.4722 31.3776 14.4182 31.0685 14.2994C30.7594 14.1805 30.4781 13.9993 30.242 13.767C30.0059 13.5347 29.8202 13.2563 29.6964 12.9491C29.5726 12.6419 29.5133 12.3126 29.5222 11.9815Z" fill="#DD5491"/>
<path d="M38.2988 13.9637V14.4051H34.8937V9.58984H38.1956V10.0312H35.4039V11.751H37.8975V12.1809H35.4096V13.9695L38.2988 13.9637Z" fill="#DD5491"/>
<path d="M39.4968 9.58984H40.007V14.4051H39.4968V9.58984Z" fill="#DD5491"/>
<path d="M45.3497 11.2408C45.3497 12.2669 44.6045 12.886 43.3835 12.886H42.0822V14.4051H41.572V9.58984H43.3778C44.5988 9.58984 45.3497 10.209 45.3497 11.2408ZM44.8395 11.2408C44.8395 10.4726 44.3293 10.0312 43.3663 10.0312H42.0822V12.4389H43.3606C44.3236 12.4389 44.8338 11.9803 44.8338 11.2408H44.8395Z" fill="#DD5491"/>
<path d="M47.2185 10.0312H45.5275V9.58984H49.4198V10.0312H47.7287V14.4051H47.2185V10.0312Z" fill="#DD5491"/>
<path d="M2.86047 20.2188H5.85283V20.6258H2.86047V20.2188ZM2.86047 21.8067H5.85283V22.2137H2.86047V21.8067Z" fill="#DD5491"/>
<path d="M6.81592 20.2188H9.80828V20.6258H6.81592V20.2188ZM6.81592 21.8067H9.80828V22.2137H6.81592V21.8067Z" fill="#DD5491"/>
<path d="M10.7714 20.2188H13.7637V20.6258H10.7714V20.2188ZM10.7714 21.8067H13.7637V22.2137H10.7714V21.8067Z" fill="#DD5491"/>
<path d="M14.7267 20.2188H17.719V20.6258H14.7267V20.2188ZM14.7267 21.8067H17.719V22.2137H14.7267V21.8067Z" fill="#DD5491"/>
<path d="M18.6821 20.2188H21.6745V20.6258H18.6821V20.2188ZM18.6821 21.8067H21.6745V22.2137H18.6821V21.8067Z" fill="#DD5491"/>
<path d="M22.6376 20.2188H25.6299V20.6258H22.6376V20.2188ZM22.6376 21.8067H25.6299V22.2137H22.6376V21.8067Z" fill="#DD5491"/>
<path d="M26.593 20.2188H29.5854V20.6258H26.593V20.2188ZM26.593 21.8067H29.5854V22.2137H26.593V21.8067Z" fill="#DD5491"/>
<path d="M30.5485 20.2188H33.5408V20.6258H30.5485V20.2188ZM30.5485 21.8067H33.5408V22.2137H30.5485V21.8067Z" fill="#DD5491"/>
<path d="M34.5038 20.2188H37.4961V20.6258H34.5038V20.2188ZM34.5038 21.8067H37.4961V22.2137H34.5038V21.8067Z" fill="#DD5491"/>
<path d="M38.4707 20.2188H41.4631V20.6258H38.4707V20.2188ZM38.4707 21.8067H41.4631V22.2137H38.4707V21.8067Z" fill="#DD5491"/>
<path d="M42.4147 20.2188H45.407V20.6258H42.4147V20.2188ZM42.4147 21.8067H45.407V22.2137H42.4147V21.8067Z" fill="#DD5491"/>
<path d="M46.3701 20.2188H49.3625V20.6258H46.3701V20.2188ZM46.3701 21.8067H49.3625V22.2137H46.3701V21.8067Z" fill="#DD5491"/>
<path d="M50.3254 20.2188H53.3178V20.6258H50.3254V20.2188ZM50.3254 21.8067H53.3178V22.2137H50.3254V21.8067Z" fill="#DD5491"/>
<path d="M54.2809 20.2188H57.2732V20.6258H54.2809V20.2188ZM54.2809 21.8067H57.2732V22.2137H54.2809V21.8067Z" fill="#DD5491"/>
<path d="M58.2363 20.2188H61.2287V20.6258H58.2363V20.2188ZM58.2363 21.8067H61.2287V22.2137H58.2363V21.8067Z" fill="#DD5491"/>
<path d="M62.1918 20.2188H65.1841V20.6258H62.1918V20.2188ZM62.1918 21.8067H65.1841V22.2137H62.1918V21.8067Z" fill="#DD5491"/>
<g opacity="0.3">
<path d="M17.1402 30.6035H4.89564C4.7436 30.6035 4.59779 30.5431 4.49029 30.4356C4.38278 30.3281 4.32239 30.1823 4.32239 30.0303C4.32239 29.8782 4.38278 29.7324 4.49029 29.6249C4.59779 29.5174 4.7436 29.457 4.89564 29.457H17.1402C17.2923 29.457 17.4381 29.5174 17.5456 29.6249C17.6531 29.7324 17.7135 29.8782 17.7135 30.0303C17.7135 30.1823 17.6531 30.3281 17.5456 30.4356C17.4381 30.5431 17.2923 30.6035 17.1402 30.6035Z" fill="#DD5491"/>
</g>
<g opacity="0.3">
<path d="M64.1466 30.6035H37.5708C37.4188 30.6035 37.273 30.5431 37.1655 30.4356C37.058 30.3281 36.9976 30.1823 36.9976 30.0303C36.9976 29.8782 37.058 29.7324 37.1655 29.6249C37.273 29.5174 37.4188 29.457 37.5708 29.457H64.1466C64.2986 29.457 64.4444 29.5174 64.552 29.6249C64.6595 29.7324 64.7199 29.8782 64.7199 30.0303C64.7199 30.1823 64.6595 30.3281 64.552 30.4356C64.4444 30.5431 64.2986 30.6035 64.1466 30.6035Z" fill="#DD5491"/>
</g>
<path d="M15.3458 35.7624L14.7095 34.9082L14.0675 35.7509H13.7637L14.5548 34.719L13.821 33.7617H14.1248L14.7325 34.5471L15.3057 33.7617H15.6038L14.8471 34.7362L15.6497 35.7681L15.3458 35.7624Z" fill="#DD5491"/>
<path d="M17.7363 35.5199V35.7664H15.8617V35.5714L16.9739 34.4823C17.2777 34.1842 17.335 34.0065 17.335 33.823C17.335 33.5135 17.1172 33.3243 16.7102 33.3243C16.5734 33.3164 16.4366 33.3391 16.3097 33.3907C16.1828 33.4422 16.0689 33.5214 15.9764 33.6224L15.7815 33.4562C15.9011 33.3264 16.048 33.2247 16.2115 33.1583C16.375 33.0919 16.5511 33.0625 16.7274 33.0721C17.3006 33.0721 17.6159 33.3472 17.6159 33.7944C17.6091 33.9571 17.566 34.1163 17.4896 34.2601C17.4132 34.404 17.3055 34.5289 17.1745 34.6256L16.2688 35.5199H17.7363Z" fill="#DD5491"/>
<path d="M54.5216 35.7815V36.2229H54.3267V35.7873C53.9919 35.7781 53.6703 35.6547 53.4153 35.4376L53.5299 35.2197C53.75 35.4163 54.0319 35.5298 54.3267 35.5408V34.5376C53.9083 34.4344 53.4841 34.3083 53.4841 33.8038C53.4841 33.4369 53.7478 33.1216 54.3267 33.0758V32.6172H54.5216V33.0529C54.7958 33.0618 55.0627 33.1428 55.2955 33.2879L55.1981 33.5172C54.9955 33.386 54.7625 33.309 54.5216 33.2936V34.3369C54.9516 34.4401 55.4044 34.5662 55.4044 35.0764C55.3872 35.4261 55.0949 35.7471 54.5216 35.7815ZM54.3267 34.2739V33.3166C53.9369 33.3509 53.7535 33.5573 53.7535 33.7923C53.7535 34.0274 54 34.1936 54.3095 34.2739H54.3267ZM55.1236 35.0707C55.1236 34.7726 54.8484 34.6694 54.5216 34.5892V35.5408C54.9229 35.5121 55.0949 35.3172 55.0949 35.0707H55.1236Z" fill="#DD5491"/>
<path d="M56.4707 33.0938V35.7651H56.1955V33.3402H55.5649V33.0938H56.4707Z" fill="#DD5491"/>
<path d="M58.9185 34.9787C58.9185 35.4316 58.6033 35.787 57.9498 35.787C57.5988 35.7966 57.2571 35.6738 56.9924 35.443L57.1243 35.2252C57.3458 35.4329 57.6406 35.5442 57.944 35.5348C58.3969 35.5348 58.6377 35.3112 58.6377 34.9615C58.6377 34.6118 58.4256 34.3883 57.7491 34.3883H57.1759L57.3134 33.0469H58.7695V33.2934H57.5485L57.4568 34.1418H57.8007C58.6147 34.1876 58.9185 34.5029 58.9185 34.9787Z" fill="#DD5491"/>
<path d="M59.2739 35.5679C59.2731 35.5413 59.2777 35.5149 59.2876 35.4902C59.2974 35.4655 59.3121 35.4431 59.3309 35.4243C59.3497 35.4055 59.3721 35.3907 59.3968 35.3809C59.4215 35.3711 59.448 35.3665 59.4745 35.3673C59.5283 35.3673 59.5799 35.3882 59.6185 35.4257C59.657 35.4631 59.6794 35.5142 59.6809 35.5679C59.6809 35.6232 59.6594 35.6763 59.6208 35.7159C59.5823 35.7555 59.5298 35.7785 59.4745 35.78C59.4472 35.7801 59.4201 35.7745 59.395 35.7637C59.3699 35.7529 59.3472 35.7371 59.3284 35.7173C59.3097 35.6974 59.2951 35.6739 59.2857 35.6482C59.2764 35.6225 59.2723 35.5952 59.2739 35.5679Z" fill="#DD5491"/>
<path d="M60.0363 34.4289C60.0363 33.5805 60.4834 33.0703 61.0968 33.0703C61.7101 33.0703 62.1687 33.5805 62.1687 34.4289C62.1687 35.2773 61.7159 35.7875 61.0968 35.7875C60.4777 35.7875 60.0363 35.2773 60.0363 34.4289ZM61.8821 34.4289C61.8821 33.7124 61.5611 33.3225 61.0968 33.3225C60.6324 33.3225 60.3114 33.7124 60.3114 34.4289C60.3114 35.1455 60.6324 35.5353 61.0968 35.5353C61.5611 35.5353 61.8821 35.1397 61.8821 34.4289Z" fill="#DD5491"/>
<path d="M62.5471 34.4289C62.5471 33.5805 62.9885 33.0703 63.6076 33.0703C64.2267 33.0703 64.6739 33.5805 64.6739 34.4289C64.6739 35.2773 64.2267 35.7875 63.6076 35.7875C62.9885 35.7875 62.5471 35.2773 62.5471 34.4289ZM64.393 34.4289C64.393 33.7124 64.072 33.3225 63.6076 33.3225C63.1433 33.3225 62.8223 33.7124 62.8223 34.4289C62.8223 35.1455 63.1433 35.5353 63.6076 35.5353C64.072 35.5353 64.4102 35.1397 64.4102 34.4289H64.393Z" fill="#DD5491"/>
<g opacity="0.3">
<path d="M17.1402 40.1817H8.90833C8.7563 40.1817 8.61049 40.1213 8.50298 40.0138C8.39548 39.9062 8.33508 39.7604 8.33508 39.6084C8.33508 39.4564 8.39548 39.3106 8.50298 39.2031C8.61049 39.0956 8.7563 39.0352 8.90833 39.0352H17.1402C17.2922 39.0352 17.438 39.0956 17.5455 39.2031C17.653 39.3106 17.7134 39.4564 17.7134 39.6084C17.7134 39.7604 17.653 39.9062 17.5455 40.0138C17.438 40.1213 17.2922 40.1817 17.1402 40.1817Z" fill="#DD5491"/>
</g>
<g opacity="0.3">
<path d="M64.1465 40.1817H33.558C33.406 40.1817 33.2602 40.1213 33.1527 40.0138C33.0451 39.9062 32.9847 39.7604 32.9847 39.6084C32.9847 39.4564 33.0451 39.3106 33.1527 39.2031C33.2602 39.0956 33.406 39.0352 33.558 39.0352H64.1465C64.2986 39.0352 64.4444 39.0956 64.5519 39.2031C64.6594 39.3106 64.7198 39.4564 64.7198 39.6084C64.7198 39.7604 64.6594 39.9062 64.5519 40.0138C64.4444 40.1213 64.2986 40.1817 64.1465 40.1817Z" fill="#DD5491"/>
</g>
<path d="M15.3401 45.3384L14.7038 44.5015L14.0618 45.3384H13.7579L14.549 44.3123L13.821 43.332H14.1248L14.7267 44.1231L15.3 43.332H15.5981L14.8414 44.3123L15.6439 45.3384H15.3401Z" fill="#DD5491"/>
<path d="M17.7306 44.5537C17.7306 45.0123 17.4153 45.362 16.7675 45.362C16.4169 45.3754 16.0745 45.2544 15.8102 45.0238L15.942 44.8059C16.1644 45.0115 16.4591 45.1207 16.7618 45.1098C17.2146 45.1098 17.4554 44.8919 17.4554 44.5652C17.4554 44.2384 17.2433 43.9919 16.5611 43.9919H15.9879L16.1255 42.6562H17.5872V42.9371H16.3662L16.2745 43.7913H16.6185C17.4267 43.7684 17.7306 44.0836 17.7306 44.5537Z" fill="#DD5491"/>
<path d="M54.1777 45.3601V45.8016H53.9885V45.3659C53.6535 45.3632 53.3303 45.2412 53.077 45.0219L53.1859 44.8041C53.4088 44.9998 53.6921 45.1131 53.9885 45.1251V44.1219C53.57 44.0188 53.1401 43.8869 53.1401 43.3824C53.1401 43.0213 53.4038 42.7003 53.9885 42.6544V42.2188H54.1777V42.6544C54.4525 42.6587 54.7207 42.7402 54.9516 42.8894L54.8541 43.113C54.6514 42.9829 54.4182 42.9078 54.1777 42.8952V43.9041C54.6076 44.0073 55.0605 44.1277 55.0605 44.6379C55.0605 45.0047 54.7853 45.3258 54.1777 45.3601ZM53.9885 43.8468V42.8952C53.593 42.9296 53.4152 43.1302 53.4152 43.371C53.4152 43.6117 53.6732 43.7665 53.9885 43.8468ZM54.7853 44.6493C54.7853 44.3455 54.5044 44.248 54.1777 44.1678V45.1194C54.5961 45.0907 54.7853 44.8958 54.7853 44.6551V44.6493Z" fill="#DD5491"/>
<path d="M56.1439 42.6719V45.3375H55.8687V42.9356H55.2382V42.6948L56.1439 42.6719Z" fill="#DD5491"/>
<path d="M56.7803 44.007C56.7803 43.1529 57.2274 42.6484 57.8465 42.6484C58.4656 42.6484 58.9128 43.1529 58.9128 44.007C58.9128 44.8612 58.4656 45.3599 57.8465 45.3599C57.2274 45.3599 56.7803 44.8554 56.7803 44.007ZM58.6319 44.007C58.6319 43.2905 58.3108 42.9007 57.8465 42.9007C57.3822 42.9007 57.0612 43.2905 57.0612 44.007C57.0612 44.7236 57.3822 45.1077 57.8465 45.1077C58.3108 45.1077 58.6319 44.7179 58.6319 44.007Z" fill="#DD5491"/>
<path d="M59.2739 45.1478C59.2731 45.1209 59.2778 45.0942 59.2875 45.0692C59.2972 45.0442 59.3119 45.0214 59.3306 45.0022C59.3493 44.9829 59.3717 44.9677 59.3964 44.9572C59.4211 44.9468 59.4477 44.9414 59.4745 44.9414C59.5241 44.9496 59.5691 44.9752 59.6016 45.0135C59.6341 45.0518 59.6519 45.1004 59.6519 45.1506C59.6519 45.2009 59.6341 45.2495 59.6016 45.2878C59.5691 45.3261 59.5241 45.3516 59.4745 45.3599C59.4472 45.3599 59.4201 45.3544 59.395 45.3436C59.3699 45.3328 59.3472 45.317 59.3284 45.2971C59.3097 45.2773 59.2951 45.2538 59.2857 45.2281C59.2764 45.2024 59.2723 45.1751 59.2739 45.1478Z" fill="#DD5491"/>
<path d="M60.0363 44.007C60.0363 43.1529 60.4834 42.6484 61.0968 42.6484C61.7101 42.6484 62.1687 43.1529 62.1687 44.007C62.1687 44.8612 61.7159 45.3599 61.0968 45.3599C60.4777 45.3599 60.0363 44.8554 60.0363 44.007ZM61.8821 44.007C61.8821 43.2905 61.5668 42.9007 61.0968 42.9007C60.6267 42.9007 60.3114 43.2905 60.3114 44.007C60.3114 44.7236 60.6324 45.1077 61.0968 45.1077C61.5611 45.1077 61.8821 44.7179 61.8821 44.007Z" fill="#DD5491"/>
<path d="M62.5471 44.007C62.5471 43.1529 62.9885 42.6484 63.6076 42.6484C64.2267 42.6484 64.6739 43.1529 64.6739 44.007C64.6739 44.8612 64.2267 45.3599 63.6076 45.3599C62.9885 45.3599 62.5471 44.8554 62.5471 44.007ZM64.393 44.007C64.393 43.2905 64.072 42.9007 63.6076 42.9007C63.1433 42.9007 62.8223 43.2905 62.8223 44.007C62.8223 44.7236 63.1433 45.1077 63.6076 45.1077C64.072 45.1077 64.4102 44.7179 64.4102 44.007H64.393Z" fill="#DD5491"/>
<g opacity="0.3">
<path d="M17.1401 49.7559H6.61524C6.46321 49.7559 6.3174 49.6955 6.20989 49.588C6.10239 49.4805 6.04199 49.3347 6.04199 49.1826C6.04199 49.0306 6.10239 48.8848 6.20989 48.7773C6.3174 48.6698 6.46321 48.6094 6.61524 48.6094H17.1401C17.2921 48.6094 17.4379 48.6698 17.5454 48.7773C17.6529 48.8848 17.7133 49.0306 17.7133 49.1826C17.7133 49.3347 17.6529 49.4805 17.5454 49.588C17.4379 49.6955 17.2921 49.7559 17.1401 49.7559Z" fill="#DD5491"/>
</g>
<g opacity="0.3">
<path d="M64.1464 49.7559H41.5834C41.4313 49.7559 41.2855 49.6955 41.178 49.588C41.0705 49.4805 41.0101 49.3347 41.0101 49.1826C41.0101 49.0306 41.0705 48.8848 41.178 48.7773C41.2855 48.6698 41.4313 48.6094 41.5834 48.6094H64.1464C64.2985 48.6094 64.4443 48.6698 64.5518 48.7773C64.6593 48.8848 64.7197 49.0306 64.7197 49.1826C64.7197 49.3347 64.6593 49.4805 64.5518 49.588C64.4443 49.6955 64.2985 49.7559 64.1464 49.7559Z" fill="#DD5491"/>
</g>
<path d="M54.9114 54.9349V55.3763H54.7223V54.9406C54.3876 54.9359 54.0651 54.8142 53.8108 54.5967L53.9484 54.4018C54.1727 54.5951 54.4551 54.7081 54.7509 54.7228V53.7196C54.3324 53.6164 53.9082 53.4846 53.9082 52.9801C53.9082 52.6132 54.1662 52.2979 54.7509 52.2521V51.8164H54.9401V52.2463C55.2172 52.2534 55.4869 52.3367 55.7197 52.4871L55.6223 52.7107C55.4178 52.5788 55.1829 52.5018 54.9401 52.4871V53.5017C55.3758 53.6049 55.8286 53.7253 55.8286 54.2355C55.8 54.5852 55.5191 54.9062 54.9114 54.9349ZM54.7223 53.4272V52.4756C54.3325 52.51 54.149 52.7107 54.149 52.9514C54.149 53.1922 54.4127 53.347 54.7223 53.4272ZM55.5191 54.2298C55.5191 53.926 55.2439 53.8228 54.9114 53.7425V54.6998C55.3356 54.6655 55.5191 54.4705 55.5191 54.2298Z" fill="#DD5491"/>
<path d="M57.9152 54.1493C57.9152 54.5964 57.5885 54.9404 56.9465 54.9404C56.5933 54.9525 56.2489 54.8295 55.9834 54.5964L56.1152 54.3786C56.2263 54.4828 56.357 54.5638 56.4997 54.617C56.6424 54.6701 56.7943 54.6943 56.9465 54.6881C57.3879 54.6881 57.6343 54.4818 57.6343 54.1493C57.6343 53.8168 57.4051 53.6219 56.9121 53.6219H56.7229V53.4212L57.4624 52.4926H56.0923V52.2461H57.8121V52.441L57.0554 53.3926C57.6286 53.4213 57.9152 53.7251 57.9152 54.1493Z" fill="#DD5491"/>
<path d="M58.2993 53.5813C58.2993 52.7329 58.7465 52.2227 59.3656 52.2227C59.9847 52.2227 60.4318 52.7329 60.4318 53.5813C60.4318 54.4297 59.9847 54.9399 59.3656 54.9399C58.7465 54.9399 58.2993 54.4354 58.2993 53.5813ZM60.1509 53.5813C60.1509 52.8704 59.8299 52.4749 59.3656 52.4749C58.9012 52.4749 58.5802 52.8704 58.5802 53.5813C58.5802 54.2921 58.9012 54.6876 59.3656 54.6876C59.8299 54.6876 60.1509 54.2978 60.1509 53.5813Z" fill="#DD5491"/>
<path d="M60.7931 54.726C60.7915 54.699 60.7955 54.6719 60.8049 54.6465C60.8144 54.6211 60.829 54.598 60.8479 54.5786C60.8668 54.5592 60.8895 54.5439 60.9146 54.5337C60.9397 54.5236 60.9666 54.5188 60.9937 54.5196C61.0484 54.5196 61.1009 54.5414 61.1396 54.5801C61.1783 54.6188 61.2001 54.6713 61.2001 54.726C61.2001 54.7807 61.1783 54.8332 61.1396 54.8719C61.1009 54.9106 61.0484 54.9324 60.9937 54.9324C60.9669 54.9324 60.9403 54.927 60.9156 54.9166C60.8909 54.9061 60.8685 54.8908 60.8498 54.8716C60.8311 54.8523 60.8164 54.8295 60.8067 54.8045C60.7969 54.7795 60.7923 54.7528 60.7931 54.726Z" fill="#DD5491"/>
<path d="M62.2892 52.2461V54.9174H62.014V52.4926H61.4006V52.2461H62.2892Z" fill="#DD5491"/>
<path d="M64.737 54.1297C64.737 54.5826 64.4217 54.938 63.7682 54.938C63.4168 54.9505 63.0741 54.8273 62.8109 54.5941L62.9485 54.3762C63.17 54.5839 63.4648 54.6952 63.7682 54.6858C64.2211 54.6858 64.4619 54.468 64.4619 54.1412C64.4619 53.8145 64.2498 53.568 63.5676 53.568H62.9943L63.1319 52.2266H64.5937V52.4731H63.3727L63.281 53.3215H63.6249C64.4332 53.3387 64.737 53.6597 64.737 54.1297Z" fill="#DD5491"/>
<g opacity="0.3">
<path d="M17.1401 59.3379H4.89551C4.74348 59.3379 4.59767 59.2775 4.49017 59.17C4.38266 59.0625 4.32227 58.9167 4.32227 58.7647C4.32227 58.6126 4.38266 58.4668 4.49017 58.3593C4.59767 58.2518 4.74348 58.1914 4.89551 58.1914H17.1401C17.2921 58.1914 17.4379 58.2518 17.5454 58.3593C17.653 58.4668 17.7133 58.6126 17.7133 58.7647C17.7133 58.9167 17.653 59.0625 17.5454 59.17C17.4379 59.2775 17.2921 59.3379 17.1401 59.3379Z" fill="#DD5491"/>
</g>
<g opacity="0.3">
<path d="M64.1465 59.3379H35.2777C35.1257 59.3379 34.9799 59.2775 34.8724 59.17C34.7649 59.0625 34.7045 58.9167 34.7045 58.7647C34.7045 58.6126 34.7649 58.4668 34.8724 58.3593C34.9799 58.2518 35.1257 58.1914 35.2777 58.1914H64.1465C64.2985 58.1914 64.4443 58.2518 64.5519 58.3593C64.6594 58.4668 64.7198 58.6126 64.7198 58.7647C64.7198 58.9167 64.6594 59.0625 64.5519 59.17C64.4443 59.2775 64.2985 59.3379 64.1465 59.3379Z" fill="#DD5491"/>
</g>
<path d="M15.3458 64.4986L14.7095 63.6559L14.0675 64.4986H13.7637L14.5548 63.4667L13.7981 62.4922H14.1019L14.7095 63.2775L15.2828 62.4922H15.5809L14.8242 63.4667L15.6267 64.4986H15.3458Z" fill="#DD5491"/>
<path d="M17.7363 64.2503V64.4968H15.8617V64.3019L16.9739 63.2127C17.2777 62.9147 17.335 62.7369 17.335 62.5535C17.335 62.244 17.1172 62.0548 16.7102 62.0548C16.5734 62.0469 16.4366 62.0696 16.3097 62.1211C16.1828 62.1727 16.0689 62.2518 15.9764 62.3529L15.7815 62.1866C15.9011 62.0569 16.048 61.9552 16.2115 61.8888C16.375 61.8224 16.5511 61.793 16.7274 61.8026C17.3006 61.8026 17.6159 62.0777 17.6159 62.5248C17.6091 62.6876 17.566 62.8467 17.4896 62.9906C17.4132 63.1344 17.3055 63.2593 17.1745 63.3561L16.2688 64.2503H17.7363Z" fill="#DD5491"/>
<path d="M54.7968 64.5143V64.9557H54.6076V64.5201C54.2719 64.5157 53.9487 64.3917 53.6962 64.1704L53.8051 63.9525C54.0275 64.1491 54.3111 64.2625 54.6076 64.2736V63.2704C54.1834 63.1672 53.7592 63.0411 53.7592 62.5366C53.7592 62.1697 54.0229 61.8545 54.6076 61.8086V61.3672H54.7968V61.8029C55.0713 61.8098 55.3387 61.8911 55.5707 62.0379L55.4732 62.2672C55.2706 62.136 55.0377 62.059 54.7968 62.0436V63.0525C55.2267 63.1557 55.6796 63.2818 55.6796 63.792C55.6681 64.1474 55.4044 64.4799 54.7968 64.5143ZM54.6076 63.0067V62.0494C54.2121 62.0837 54.0344 62.2901 54.0344 62.5252C54.0344 62.7602 54.2923 62.9264 54.6076 63.0009V63.0067ZM55.4044 63.8035C55.4044 63.5054 55.1236 63.4022 54.7968 63.322V64.2736C55.2153 64.2449 55.4044 64.05 55.4044 63.8035Z" fill="#DD5491"/>
<path d="M56.763 61.8516V64.5229H56.4879V62.0981H55.8573V61.8516H56.763Z" fill="#DD5491"/>
<path d="M59.2109 63.7092C59.2109 64.1621 58.8956 64.5175 58.2421 64.5175C57.8907 64.5299 57.5479 64.4068 57.2848 64.1735L57.4224 63.9557C57.6438 64.1633 57.9387 64.2747 58.2421 64.2652C58.695 64.2652 58.9357 64.0417 58.9357 63.692C58.9357 63.3423 58.7179 63.1188 58.0415 63.1188H57.4682L57.6058 61.7773H59.0676V62.0238H57.8466L57.7548 62.8723H58.0988C58.9071 62.9181 59.2109 63.2334 59.2109 63.7092Z" fill="#DD5491"/>
<path d="M59.5662 64.3079C59.5655 64.2811 59.5701 64.2544 59.5798 64.2294C59.5896 64.2044 59.6042 64.1816 59.6229 64.1623C59.6417 64.1431 59.664 64.1278 59.6888 64.1174C59.7135 64.1069 59.74 64.1016 59.7669 64.1016C59.8216 64.1016 59.8741 64.1233 59.9128 64.162C59.9515 64.2007 59.9732 64.2532 59.9732 64.3079C59.9732 64.3627 59.9515 64.4152 59.9128 64.4539C59.8741 64.4926 59.8216 64.5143 59.7669 64.5143C59.7131 64.5128 59.6621 64.4904 59.6246 64.4519C59.5872 64.4133 59.5662 64.3617 59.5662 64.3079Z" fill="#DD5491"/>
<path d="M62.2319 64.2503V64.4968H60.3574V64.3019L61.4695 63.2127C61.7675 62.9147 61.8249 62.7369 61.8249 62.5535C61.8249 62.244 61.607 62.0548 61.2 62.0548C61.0642 62.0474 60.9284 62.0702 60.8024 62.1218C60.6765 62.1734 60.5637 62.2523 60.472 62.3529L60.2771 62.1866C60.3967 62.0569 60.5436 61.9552 60.7071 61.8888C60.8706 61.8224 61.0467 61.793 61.223 61.8026C61.7676 61.8026 62.1115 62.0777 62.1115 62.5248C62.1048 62.6876 62.0616 62.8467 61.9852 62.9906C61.9088 63.1344 61.8011 63.2593 61.6701 63.3561L60.7644 64.2503H62.2319Z" fill="#DD5491"/>
<path d="M62.5471 63.1594C62.5471 62.311 62.9885 61.8008 63.6076 61.8008C64.2267 61.8008 64.6739 62.311 64.6739 63.1594C64.6739 64.0078 64.2267 64.518 63.6076 64.518C62.9885 64.518 62.5471 64.0078 62.5471 63.1594ZM64.393 63.1594C64.393 62.4485 64.072 62.053 63.6076 62.053C63.1433 62.053 62.8223 62.4485 62.8223 63.1594C62.8223 63.8702 63.1433 64.2658 63.6076 64.2658C64.072 64.2658 64.4102 63.8702 64.4102 63.1594H64.393Z" fill="#DD5491"/>
<g opacity="0.3">
<path d="M17.1401 68.9082H6.042C5.88996 68.9082 5.74416 68.8478 5.63665 68.7403C5.52915 68.6328 5.46875 68.487 5.46875 68.335C5.46875 68.1829 5.52915 68.0371 5.63665 67.9296C5.74416 67.8221 5.88996 67.7617 6.042 67.7617H17.1401C17.2921 67.7617 17.4379 67.8221 17.5454 67.9296C17.6529 68.0371 17.7133 68.1829 17.7133 68.335C17.7133 68.487 17.6529 68.6328 17.5454 68.7403C17.4379 68.8478 17.2921 68.9082 17.1401 68.9082Z" fill="#DD5491"/>
</g>
<g opacity="0.3">
<path d="M64.1465 68.9082H33.558C33.406 68.9082 33.2602 68.8478 33.1527 68.7403C33.0451 68.6328 32.9847 68.487 32.9847 68.335C32.9847 68.1829 33.0451 68.0371 33.1527 67.9296C33.2602 67.8221 33.406 67.7617 33.558 67.7617H64.1465C64.2986 67.7617 64.4444 67.8221 64.5519 67.9296C64.6594 68.0371 64.7198 68.1829 64.7198 68.335C64.7198 68.487 64.6594 68.6328 64.5519 68.7403C64.4444 68.8478 64.2986 68.9082 64.1465 68.9082Z" fill="#DD5491"/>
</g>
<path d="M15.0994 74.067L14.4631 73.2301L13.821 74.067H13.5172L14.3083 73.0409L13.5573 72.0664H13.8612L14.4631 72.8518L15.0363 72.0664H15.3344L14.5777 73.0409L15.3803 74.067H15.0994Z" fill="#DD5491"/>
<path d="M17.8338 73.3686H17.3006V74.0679H17.0255V73.3686H15.5408V73.1679L16.9567 71.4023H17.2605L15.8962 73.1221H17.0427V72.503H17.3121V73.1221H17.8338V73.3686Z" fill="#DD5491"/>
<path d="M53.6733 74.0925V74.5281H53.4841V74.0925C53.1492 74.0887 52.8265 73.9669 52.5726 73.7485L52.6815 73.5307C52.9044 73.7264 53.1877 73.8397 53.4841 73.8517V72.8485C53.0656 72.7453 52.6357 72.6135 52.6357 72.1147C52.6357 71.7479 52.8994 71.4268 53.4841 71.381V70.9453H53.6733V71.381C53.9482 71.3853 54.2163 71.4667 54.4471 71.616L54.3554 71.8396C54.1504 71.71 53.9155 71.635 53.6733 71.6218V72.6307C54.1032 72.7338 54.5561 72.8542 54.5561 73.3644C54.5561 73.737 54.2809 74.0581 53.6733 74.0925ZM53.4841 72.5791V71.6275C53.0886 71.6619 52.9108 71.8625 52.9108 72.1033C52.9108 72.344 53.1688 72.4988 53.4841 72.5791ZM54.2809 73.3816C54.2809 73.0778 54 72.9803 53.6733 72.9001V73.8517C54.0917 73.823 54.2809 73.6281 54.2809 73.3816Z" fill="#DD5491"/>
<path d="M56.763 73.8287V74.0695H54.8885V73.8918L56.0006 72.8026C56.2987 72.5045 56.356 72.3268 56.356 72.1434C56.356 71.8338 56.1382 71.6446 55.7312 71.6446C55.5951 71.6355 55.4588 71.6576 55.3326 71.7093C55.2064 71.761 55.0937 71.8408 55.0031 71.9427L54.8082 71.7707C54.9289 71.6427 55.076 71.5425 55.2394 71.4771C55.4027 71.4118 55.5784 71.3829 55.7541 71.3924C56.2987 71.3924 56.6369 71.6675 56.6369 72.1147C56.63 72.2768 56.5874 72.4353 56.5121 72.579C56.4368 72.7227 56.3306 72.848 56.2012 72.9459L55.2955 73.8402L56.763 73.8287Z" fill="#DD5491"/>
<path d="M58.9185 73.2837C58.9185 73.7423 58.6033 74.0919 57.9498 74.0919C57.5995 74.1037 57.2576 73.9829 56.9924 73.7537L57.1243 73.5359C57.3458 73.7436 57.6406 73.8549 57.944 73.8455C58.3969 73.8455 58.6377 73.6219 58.6377 73.2722C58.6377 72.9225 58.4256 72.699 57.7491 72.699H57.1759L57.3134 71.3633H58.7695V71.6041H57.5485L57.4568 72.4582H57.8007C58.6147 72.4983 58.9185 72.8136 58.9185 73.2837Z" fill="#DD5491"/>
<path d="M59.2739 73.89C59.2731 73.8631 59.2778 73.8364 59.2875 73.8114C59.2972 73.7864 59.3119 73.7636 59.3306 73.7444C59.3493 73.7251 59.3717 73.7098 59.3964 73.6994C59.4211 73.689 59.4477 73.6836 59.4745 73.6836C59.5241 73.6918 59.5691 73.7174 59.6016 73.7557C59.6341 73.794 59.6519 73.8426 59.6519 73.8928C59.6519 73.9431 59.6341 73.9916 59.6016 74.03C59.5691 74.0683 59.5241 74.0938 59.4745 74.1021C59.4472 74.1021 59.4201 74.0966 59.395 74.0858C59.3699 74.075 59.3472 74.0592 59.3284 74.0393C59.3097 74.0194 59.2951 73.9959 59.2857 73.9703C59.2764 73.9446 59.2723 73.9173 59.2739 73.89Z" fill="#DD5491"/>
<path d="M60.0363 72.7453C60.0363 71.8912 60.4834 71.3867 61.0968 71.3867C61.7101 71.3867 62.1687 71.8912 62.1687 72.7453C62.1687 73.5995 61.7159 74.0982 61.0968 74.0982C60.4777 74.0982 60.0363 73.588 60.0363 72.7453ZM61.8821 72.7453C61.8821 72.0288 61.5668 71.6389 61.0968 71.6389C60.6267 71.6389 60.3114 72.0288 60.3114 72.7453C60.3114 73.4619 60.6324 73.8517 61.0968 73.8517C61.5611 73.8517 61.8821 73.4504 61.8821 72.7453Z" fill="#DD5491"/>
<path d="M62.5471 72.7453C62.5471 71.8912 62.9885 71.3867 63.6076 71.3867C64.2267 71.3867 64.6739 71.8912 64.6739 72.7453C64.6739 73.5995 64.2267 74.0982 63.6076 74.0982C62.9885 74.0982 62.5471 73.588 62.5471 72.7453ZM64.393 72.7453C64.393 72.0288 64.072 71.6389 63.6076 71.6389C63.1433 71.6389 62.8223 72.0288 62.8223 72.7453C62.8223 73.4619 63.1433 73.8517 63.6076 73.8517C64.072 73.8517 64.4102 73.4504 64.4102 72.7453H64.393Z" fill="#DD5491"/>
<g opacity="0.3">
<path d="M17.1402 78.4746H8.90833C8.7563 78.4746 8.61049 78.4142 8.50298 78.3067C8.39548 78.1992 8.33508 78.0534 8.33508 77.9014C8.33508 77.7493 8.39548 77.6035 8.50298 77.496C8.61049 77.3885 8.7563 77.3281 8.90833 77.3281H17.1402C17.2922 77.3281 17.438 77.3885 17.5455 77.496C17.653 77.6035 17.7134 77.7493 17.7134 77.9014C17.7134 78.0534 17.653 78.1992 17.5455 78.3067C17.438 78.4142 17.2922 78.4746 17.1402 78.4746Z" fill="#DD5491"/>
</g>
<g opacity="0.3">
<path d="M64.1465 78.4746H33.558C33.406 78.4746 33.2602 78.4142 33.1527 78.3067C33.0451 78.1992 32.9847 78.0534 32.9847 77.9014C32.9847 77.7493 33.0451 77.6035 33.1527 77.496C33.2602 77.3885 33.406 77.3281 33.558 77.3281H64.1465C64.2986 77.3281 64.4444 77.3885 64.5519 77.496C64.6594 77.6035 64.7198 77.7493 64.7198 77.9014C64.7198 78.0534 64.6594 78.1992 64.5519 78.3067C64.4444 78.4142 64.2986 78.4746 64.1465 78.4746Z" fill="#DD5491"/>
</g>
<path d="M53.123 83.6648V84.1062H52.9338V83.6706C52.5991 83.6659 52.2767 83.5442 52.0223 83.3266L52.1313 83.1088C52.3556 83.3022 52.638 83.4151 52.9338 83.4298V82.4266C52.5153 82.3234 52.0854 82.1916 52.0854 81.6871C52.0854 81.3203 52.3491 81.005 52.9338 80.9591V80.5234H53.123V80.9534C53.3984 80.9597 53.6665 81.0431 53.8969 81.1941L53.8051 81.4177C53.6004 81.2865 53.3656 81.2096 53.123 81.1941V82.2088C53.5529 82.312 54.0115 82.4324 54.0115 82.9425C54.0115 83.3152 53.7306 83.6362 53.123 83.6648ZM52.9338 82.1572V81.2056C52.5383 81.24 52.3606 81.4406 52.3606 81.6814C52.3606 81.9222 52.6185 82.0769 52.9338 82.1572ZM53.7306 82.9597C53.7306 82.6559 53.4497 82.5527 53.123 82.4725V83.4298C53.5414 83.3954 53.7306 83.2005 53.7306 82.9597Z" fill="#DD5491"/>
<path d="M55.095 80.9763V83.6362H54.8198V81.2113H54.1949V80.9648L55.095 80.9763Z" fill="#DD5491"/>
<path d="M56.4707 80.9763V83.6362H56.1955V81.2113H55.5649V80.9648L56.4707 80.9763Z" fill="#DD5491"/>
<path d="M58.9185 82.8641C58.9185 83.317 58.6033 83.6724 57.9498 83.6724C57.5983 83.6849 57.2556 83.5617 56.9924 83.3285L57.1243 83.1106C57.3458 83.3183 57.6406 83.4296 57.944 83.4202C58.3969 83.4202 58.6377 83.2024 58.6377 82.8756C58.6377 82.5489 58.4256 82.3024 57.7491 82.3024H57.1759L57.3134 80.9609H58.7695V81.2074H57.5485L57.4568 82.0558H57.8007C58.6147 82.073 58.9185 82.3941 58.9185 82.8641Z" fill="#DD5491"/>
<path d="M59.2739 83.4604C59.2723 83.4333 59.2763 83.4063 59.2858 83.3809C59.2952 83.3555 59.3098 83.3324 59.3287 83.313C59.3476 83.2935 59.3703 83.2783 59.3954 83.2681C59.4205 83.258 59.4475 83.2532 59.4745 83.254C59.5293 83.254 59.5818 83.2758 59.6205 83.3145C59.6592 83.3532 59.6809 83.4056 59.6809 83.4604C59.6809 83.4875 59.6756 83.5143 59.6652 83.5393C59.6548 83.5644 59.6396 83.5871 59.6205 83.6063C59.6013 83.6255 59.5786 83.6407 59.5535 83.651C59.5285 83.6614 59.5016 83.6667 59.4745 83.6667C59.4477 83.6668 59.4211 83.6614 59.3964 83.6509C59.3717 83.6405 59.3493 83.6252 59.3306 83.606C59.3119 83.5867 59.2972 83.5639 59.2875 83.5389C59.2778 83.5139 59.2731 83.4872 59.2739 83.4604Z" fill="#DD5491"/>
<path d="M60.0363 82.3117C60.0363 81.4633 60.4834 80.9531 61.0968 80.9531C61.7101 80.9531 62.1687 81.4633 62.1687 82.3117C62.1687 83.1601 61.7159 83.6703 61.0968 83.6703C60.4777 83.6703 60.0363 83.1659 60.0363 82.3117ZM61.8821 82.3117C61.8821 81.6009 61.5668 81.2054 61.0968 81.2054C60.6267 81.2054 60.3114 81.6009 60.3114 82.3117C60.3114 83.0225 60.6324 83.4181 61.0968 83.4181C61.5611 83.4181 61.8821 83.0283 61.8821 82.3117Z" fill="#DD5491"/>
<path d="M62.5471 82.3117C62.5471 81.4633 62.9885 80.9531 63.6076 80.9531C64.2267 80.9531 64.6739 81.4633 64.6739 82.3117C64.6739 83.1601 64.2267 83.6703 63.6076 83.6703C62.9885 83.6703 62.5471 83.1659 62.5471 82.3117ZM64.393 82.3117C64.393 81.6009 64.072 81.2054 63.6076 81.2054C63.1433 81.2054 62.8223 81.6009 62.8223 82.3117C62.8223 83.0225 63.1433 83.4181 63.6076 83.4181C64.072 83.4181 64.4102 83.0283 64.4102 82.3117H64.393Z" fill="#DD5491"/>
<g opacity="0.3">
<path d="M17.1401 88.0684H6.042C5.88996 88.0684 5.74416 88.008 5.63665 87.9005C5.52915 87.793 5.46875 87.6472 5.46875 87.4951C5.46875 87.3431 5.52915 87.1973 5.63665 87.0898C5.74416 86.9823 5.88996 86.9219 6.042 86.9219H17.1401C17.2921 86.9219 17.4379 86.9823 17.5454 87.0898C17.6529 87.1973 17.7133 87.3431 17.7133 87.4951C17.7133 87.6472 17.6529 87.793 17.5454 87.9005C17.4379 88.008 17.2921 88.0684 17.1401 88.0684Z" fill="#DD5491"/>
</g>
<g opacity="0.3">
<path d="M64.1466 88.0684H38.7173C38.5653 88.0684 38.4195 88.008 38.312 87.9005C38.2044 87.793 38.144 87.6472 38.144 87.4951C38.144 87.3431 38.2044 87.1973 38.312 87.0898C38.4195 86.9823 38.5653 86.9219 38.7173 86.9219H64.1466C64.2986 86.9219 64.4444 86.9823 64.5519 87.0898C64.6594 87.1973 64.7198 87.3431 64.7198 87.4951C64.7198 87.6472 64.6594 87.793 64.5519 87.9005C64.4444 88.008 64.2986 88.0684 64.1466 88.0684Z" fill="#DD5491"/>
</g>
<path d="M15.3458 93.2251L14.7095 92.3824L14.0675 93.2251H13.7637L14.5605 92.1933L13.8038 91.2188H14.1076L14.6809 92.0041L15.2541 91.2188H15.5522L14.8013 92.1933L15.5981 93.2251H15.3458Z" fill="#DD5491"/>
<path d="M17.6961 92.4579C17.6961 92.905 17.3694 93.2489 16.7273 93.2489C16.3742 93.2611 16.0298 93.1381 15.7643 92.905L15.8961 92.6872C16.1225 92.8944 16.4206 93.0055 16.7273 92.9967C17.1687 92.9967 17.4152 92.7904 17.4152 92.4579C17.4152 92.1254 17.1859 91.9305 16.6929 91.9305H16.5038V91.7241L17.2605 90.8012H15.8961V90.5547H17.6159V90.7496L16.8592 91.7012C17.4095 91.7298 17.6961 92.0337 17.6961 92.4579Z" fill="#DD5491"/>
<path d="M53.7306 93.2448V93.6862H53.5415V93.2505C53.2054 93.2477 52.8817 93.1235 52.63 92.9008L52.7389 92.683C52.9618 92.8787 53.2451 92.9921 53.5415 93.004V92.0008C53.123 91.8977 52.6931 91.7715 52.6931 91.2671C52.6931 90.9002 52.9568 90.5849 53.5415 90.5391V90.0977H53.7306V90.5161C54.0051 90.5231 54.2725 90.6043 54.5045 90.7512L54.4071 90.9805C54.2048 90.8486 53.9717 90.7715 53.7306 90.7569V91.7658C54.1606 91.869 54.6134 91.9951 54.6134 92.5053C54.6134 92.8894 54.3383 93.2104 53.7306 93.2448ZM53.5415 91.7372V90.7798C53.1459 90.8142 52.9682 91.0206 52.9682 91.2613C52.9682 91.5021 53.2262 91.6626 53.5415 91.7372ZM54.3383 92.534C54.3383 92.2359 54.0574 92.1327 53.7306 92.0524V93.004C54.1491 92.9754 54.3383 92.8091 54.3383 92.534Z" fill="#DD5491"/>
<path d="M56.8146 92.9808V93.2273H54.9401V93.0324L56.0522 91.9432C56.3503 91.6451 56.4076 91.4674 56.4076 91.284C56.4076 90.9744 56.1898 90.7853 55.7828 90.7853C55.6469 90.7774 55.511 90.8001 55.385 90.8517C55.259 90.9033 55.1462 90.9824 55.0548 91.0833L54.8599 90.9171C54.9795 90.7874 55.1263 90.6857 55.2898 90.6193C55.4534 90.5529 55.6295 90.5234 55.8057 90.533C56.3446 90.533 56.6885 90.8082 56.6885 91.2553C56.6794 91.4177 56.6359 91.5764 56.5608 91.7207C56.4857 91.865 56.3807 91.9916 56.2529 92.0923L55.3471 92.9808H56.8146Z" fill="#DD5491"/>
<path d="M57.1471 91.8898C57.1471 91.0414 57.5942 90.5312 58.2133 90.5312C58.8324 90.5312 59.2796 91.0414 59.2796 91.8898C59.2796 92.7383 58.8324 93.2484 58.2133 93.2484C57.5942 93.2484 57.1471 92.7383 57.1471 91.8898ZM58.9987 91.8898C58.9987 91.179 58.6777 90.7835 58.2133 90.7835C57.749 90.7835 57.428 91.179 57.428 91.8898C57.428 92.6007 57.749 92.9962 58.2133 92.9962C58.6777 92.9962 58.9987 92.6007 58.9987 91.8898Z" fill="#DD5491"/>
<path d="M59.635 93.0385C59.6342 93.0112 59.639 92.984 59.6491 92.9586C59.6592 92.9332 59.6743 92.9101 59.6937 92.8908C59.713 92.8715 59.736 92.8563 59.7614 92.8462C59.7868 92.8361 59.814 92.8313 59.8413 92.8321C59.8961 92.8321 59.9486 92.8539 59.9873 92.8926C60.026 92.9313 60.0477 92.9837 60.0477 93.0385C60.0477 93.0932 60.026 93.1457 59.9873 93.1844C59.9486 93.2231 59.8961 93.2449 59.8413 93.2449C59.8142 93.2449 59.7874 93.2395 59.7624 93.2291C59.7373 93.2188 59.7146 93.2036 59.6954 93.1844C59.6763 93.1652 59.6611 93.1425 59.6507 93.1175C59.6403 93.0924 59.635 93.0656 59.635 93.0385Z" fill="#DD5491"/>
<path d="M60.4032 91.8898C60.4032 91.0414 60.8446 90.5312 61.4637 90.5312C62.0828 90.5312 62.5357 91.0414 62.5357 91.8898C62.5357 92.7383 62.0828 93.2484 61.4637 93.2484C60.8446 93.2484 60.4032 92.7383 60.4032 91.8898ZM62.2491 91.8898C62.2491 91.179 61.928 90.7835 61.4637 90.7835C60.9994 90.7835 60.6784 91.179 60.6784 91.8898C60.6784 92.6007 60.9994 92.9962 61.4637 92.9962C61.928 92.9962 62.2491 92.6007 62.2491 91.8898Z" fill="#DD5491"/>
<path d="M64.7369 92.4422C64.7369 92.8951 64.4216 93.2505 63.7739 93.2505C63.4222 93.2648 63.0787 93.1414 62.8165 92.9066L62.9484 92.6887C63.1699 92.8964 63.4647 93.0077 63.7681 92.9983C64.221 92.9983 64.4617 92.7747 64.4617 92.4537C64.4617 92.1327 64.2496 91.8805 63.5675 91.8805H62.9942L63.1318 90.5391H64.5936V90.7856H63.3726L63.2809 91.634H63.6248C64.4331 91.6626 64.7369 91.9664 64.7369 92.4422Z" fill="#DD5491"/>
<g opacity="0.3">
<path d="M17.1402 97.6426H4.89564C4.7436 97.6426 4.59779 97.5822 4.49029 97.4747C4.38278 97.3672 4.32239 97.2214 4.32239 97.0693C4.32239 96.9173 4.38278 96.7715 4.49029 96.664C4.59779 96.5565 4.7436 96.4961 4.89564 96.4961H17.1402C17.2923 96.4961 17.4381 96.5565 17.5456 96.664C17.6531 96.7715 17.7135 96.9173 17.7135 97.0693C17.7135 97.2214 17.6531 97.3672 17.5456 97.4747C17.4381 97.5822 17.2923 97.6426 17.1402 97.6426Z" fill="#DD5491"/>
</g>
<g opacity="0.3">
<path d="M64.1465 97.6426H33.558C33.406 97.6426 33.2602 97.5822 33.1527 97.4747C33.0451 97.3672 32.9847 97.2214 32.9847 97.0693C32.9847 96.9173 33.0451 96.7715 33.1527 96.664C33.2602 96.5565 33.406 96.4961 33.558 96.4961H64.1465C64.2986 96.4961 64.4444 96.5565 64.5519 96.664C64.6594 96.7715 64.7198 96.9173 64.7198 97.0693C64.7198 97.2214 64.6594 97.3672 64.5519 97.4747C64.4444 97.5822 64.2986 97.6426 64.1465 97.6426Z" fill="#DD5491"/>
</g>
<path d="M13.9357 102.807L13.2994 101.982L12.6745 102.807H12.3707L13.1618 101.775L12.4051 100.801H12.6745L13.2478 101.586L13.821 100.801H14.1191L13.3624 101.775L14.165 102.807H13.9357Z" fill="#DD5491"/>
<path d="M15.2771 100.137V102.808H15.0019V100.377H14.3943V100.137H15.2771Z" fill="#DD5491"/>
<path d="M17.7363 102.551V102.798H15.8617V102.603L16.9739 101.514C17.2777 101.215 17.335 101.038 17.335 100.854C17.335 100.545 17.1172 100.356 16.7102 100.356C16.5733 100.346 16.4361 100.369 16.309 100.42C16.1819 100.472 16.0681 100.552 15.9764 100.654L15.7815 100.482C15.9021 100.354 16.0493 100.253 16.2127 100.188C16.376 100.123 16.5517 100.094 16.7274 100.103C17.3006 100.103 17.6159 100.378 17.6159 100.826C17.6091 100.988 17.566 101.148 17.4896 101.291C17.4132 101.435 17.3055 101.56 17.1745 101.657L16.2688 102.551H17.7363Z" fill="#DD5491"/>
<path d="M56.0464 102.823V103.259H55.8515V102.829C55.5167 102.82 55.1951 102.696 54.9401 102.479L55.0547 102.261C55.2748 102.458 55.5566 102.571 55.8515 102.582V101.579C55.4331 101.476 55.0089 101.344 55.0089 100.845C55.0089 100.479 55.2726 100.163 55.8515 100.117V99.6875H56.0464V100.123C56.3212 100.128 56.5891 100.21 56.8203 100.358L56.7229 100.582C56.5198 100.452 56.2869 100.377 56.0464 100.364V101.373C56.4764 101.476 56.9292 101.596 56.9292 102.107C56.9292 102.468 56.6483 102.789 56.0464 102.823ZM55.8515 101.31V100.358C55.4617 100.393 55.2783 100.593 55.2783 100.834C55.2783 101.075 55.542 101.23 55.8515 101.31ZM56.6484 102.112C56.6484 101.814 56.3732 101.711 56.0464 101.631V102.582C56.4649 102.554 56.6484 102.359 56.6484 102.112Z" fill="#DD5491"/>
<path d="M59.1076 102.014C59.1076 102.473 58.7923 102.828 58.1388 102.828C57.7879 102.838 57.4461 102.715 57.1815 102.484L57.3191 102.266C57.5406 102.474 57.8354 102.585 58.1388 102.576C58.5917 102.576 58.8325 102.352 58.8325 102.003C58.8325 101.653 58.6146 101.429 57.9382 101.429H57.365L57.5025 100.094H58.9643V100.335H57.7433L57.6516 101.189H57.9955C58.8153 101.229 59.1076 101.544 59.1076 102.014Z" fill="#DD5491"/>
<path d="M59.4746 102.613C59.4745 102.559 59.4955 102.507 59.533 102.469C59.5704 102.43 59.6215 102.408 59.6752 102.406C59.7248 102.414 59.7698 102.44 59.8023 102.478C59.8347 102.517 59.8526 102.565 59.8526 102.615C59.8526 102.666 59.8347 102.714 59.8023 102.753C59.7698 102.791 59.7248 102.816 59.6752 102.825C59.6481 102.824 59.6214 102.818 59.5967 102.807C59.5719 102.796 59.5496 102.78 59.5309 102.76C59.5123 102.741 59.4977 102.717 59.4881 102.692C59.4784 102.667 59.4738 102.64 59.4746 102.613Z" fill="#DD5491"/>
<path d="M62.2433 101.979C62.2422 102.094 62.2172 102.209 62.1698 102.314C62.1225 102.419 62.0538 102.514 61.9682 102.591C61.8826 102.669 61.7819 102.728 61.6724 102.764C61.5628 102.801 61.4469 102.815 61.3318 102.804C60.621 102.804 60.2369 102.311 60.2369 101.469C60.2369 100.626 60.7357 100.087 61.458 100.087C61.6773 100.077 61.8952 100.126 62.0885 100.231L61.9796 100.454C61.8235 100.363 61.6442 100.319 61.4637 100.328C60.8904 100.328 60.5178 100.695 60.5178 101.423C60.5127 101.495 60.5127 101.568 60.5178 101.641C60.5925 101.492 60.7099 101.369 60.8549 101.287C60.9999 101.206 61.1659 101.169 61.3318 101.182C61.4454 101.168 61.5607 101.177 61.6702 101.211C61.7797 101.244 61.8809 101.3 61.967 101.375C62.0532 101.451 62.1224 101.543 62.17 101.647C62.2176 101.752 62.2426 101.865 62.2433 101.979ZM61.9739 101.979C61.9751 101.895 61.9578 101.811 61.9231 101.735C61.8884 101.658 61.8372 101.59 61.7731 101.535C61.7091 101.48 61.6338 101.44 61.5526 101.418C61.4713 101.396 61.3862 101.391 61.3032 101.406C61.22 101.396 61.1358 101.404 61.0556 101.428C60.9754 101.452 60.9009 101.492 60.8366 101.545C60.7723 101.599 60.7196 101.665 60.6815 101.739C60.6435 101.814 60.6209 101.895 60.6153 101.979C60.6153 102.271 60.856 102.552 61.3204 102.552C61.3993 102.564 61.4797 102.558 61.5564 102.537C61.6331 102.515 61.7045 102.478 61.766 102.427C61.8275 102.376 61.8778 102.313 61.9136 102.242C61.9494 102.171 61.9699 102.093 61.9739 102.013V101.979Z" fill="#DD5491"/>
<path d="M62.5471 101.472C62.5471 100.618 62.9885 100.113 63.6076 100.113C64.2267 100.113 64.6739 100.618 64.6739 101.472C64.6739 102.326 64.2267 102.83 63.6076 102.83C62.9885 102.83 62.5471 102.32 62.5471 101.472ZM64.393 101.472C64.393 100.755 64.072 100.366 63.6076 100.366C63.1433 100.366 62.8223 100.755 62.8223 101.472C62.8223 102.188 63.1433 102.578 63.6076 102.578C64.072 102.578 64.4102 102.183 64.4102 101.472H64.393Z" fill="#DD5491"/>
<g opacity="0.3">
<path d="M17.1401 107.221H6.61524C6.46321 107.221 6.3174 107.16 6.20989 107.053C6.10239 106.945 6.04199 106.8 6.04199 106.647C6.04199 106.495 6.10239 106.35 6.20989 106.242C6.3174 106.135 6.46321 106.074 6.61524 106.074H17.1401C17.2921 106.074 17.4379 106.135 17.5454 106.242C17.6529 106.35 17.7133 106.495 17.7133 106.647C17.7133 106.8 17.6529 106.945 17.5454 107.053C17.4379 107.16 17.2921 107.221 17.1401 107.221Z" fill="#DD5491"/>
</g>
<g opacity="0.3">
<path d="M64.1465 107.221H39.8637C39.7116 107.221 39.5658 107.16 39.4583 107.053C39.3508 106.945 39.2904 106.8 39.2904 106.647C39.2904 106.495 39.3508 106.35 39.4583 106.242C39.5658 106.135 39.7116 106.074 39.8637 106.074H64.1465C64.2985 106.074 64.4443 106.135 64.5518 106.242C64.6593 106.35 64.7197 106.495 64.7197 106.647C64.7197 106.8 64.6593 106.945 64.5518 107.053C64.4443 107.16 64.2985 107.221 64.1465 107.221Z" fill="#DD5491"/>
</g>
<path d="M15.3458 112.377L14.7095 111.541L14.0675 112.377H13.7637L14.5548 111.351L13.821 110.371H14.1248L14.7325 111.156L15.3057 110.371H15.6038L14.8471 111.351L15.6497 112.377H15.3458Z" fill="#DD5491"/>
<path d="M17.7363 112.141V112.382H15.8617V112.187L16.9739 111.104C17.2777 110.806 17.335 110.628 17.335 110.445C17.335 110.135 17.1172 109.94 16.7102 109.94C16.5734 109.932 16.4366 109.955 16.3097 110.006C16.1828 110.058 16.0689 110.137 15.9764 110.238L15.7815 110.072C15.9014 109.943 16.0484 109.842 16.212 109.777C16.3755 109.711 16.5515 109.683 16.7274 109.694C17.3006 109.694 17.6159 109.963 17.6159 110.41C17.6096 110.574 17.5667 110.734 17.4903 110.879C17.4139 111.024 17.306 111.149 17.1745 111.247L16.2688 112.141H17.7363Z" fill="#DD5491"/>
<path d="M53.7707 112.397V112.839H53.5758V112.403C53.2411 112.398 52.9186 112.276 52.6643 112.059L52.779 111.841C53.001 112.034 53.2817 112.147 53.5758 112.162V111.153C53.1573 111.05 52.7331 110.918 52.7331 110.414C52.7331 110.047 52.9968 109.732 53.5758 109.686V109.25H53.7707V109.686C54.046 109.687 54.3148 109.769 54.5446 109.921L54.4471 110.144C54.2445 110.013 54.0116 109.936 53.7707 109.921V110.935C54.2006 111.039 54.6535 111.159 54.6535 111.669C54.6535 112.047 54.3726 112.368 53.7707 112.397ZM53.5758 110.889V109.938C53.186 109.972 53.0025 110.173 53.0025 110.414C53.0025 110.654 53.2662 110.809 53.5758 110.889ZM54.3726 111.692C54.3726 111.388 54.0974 111.285 53.7707 111.205V112.162C54.1892 112.128 54.3726 111.933 54.3726 111.692Z" fill="#DD5491"/>
<path d="M56.7688 111.61C56.7688 112.057 56.442 112.401 55.8 112.401C55.4469 112.413 55.1024 112.29 54.8369 112.057L54.9745 111.84C55.0848 111.943 55.2146 112.024 55.3563 112.077C55.498 112.13 55.6488 112.154 55.8 112.149C56.2414 112.149 56.4879 111.943 56.4879 111.61C56.4879 111.278 56.2643 111.083 55.7656 111.083H55.5764V110.882L56.3159 109.954H54.9516V109.707H56.6713V109.902L55.9146 110.854C56.4821 110.882 56.7688 111.186 56.7688 111.61Z" fill="#DD5491"/>
<path d="M58.9299 111.595C58.9299 112.047 58.6146 112.403 57.9611 112.403C57.6097 112.415 57.2669 112.292 57.0038 112.059L57.1356 111.841C57.3571 112.049 57.6519 112.16 57.9554 112.151C58.4082 112.151 58.649 111.933 58.649 111.606C58.649 111.279 58.4369 111.033 57.7605 111.033H57.1872L57.3248 109.691H58.7808V109.938H57.5598L57.4681 110.786H57.8121C58.6261 110.803 58.9299 111.153 58.9299 111.595Z" fill="#DD5491"/>
<path d="M59.2796 112.191C59.2788 112.164 59.2836 112.136 59.2937 112.111C59.3038 112.086 59.319 112.062 59.3383 112.043C59.3576 112.024 59.3807 112.009 59.4061 111.999C59.4315 111.988 59.4587 111.984 59.486 111.984C59.5407 111.984 59.5932 112.006 59.6319 112.045C59.6706 112.084 59.6924 112.136 59.6924 112.191C59.6924 112.246 59.6706 112.298 59.6319 112.337C59.5932 112.375 59.5407 112.397 59.486 112.397C59.4587 112.398 59.4315 112.393 59.4061 112.383C59.3807 112.373 59.3576 112.358 59.3383 112.339C59.319 112.319 59.3038 112.296 59.2937 112.271C59.2836 112.245 59.2788 112.218 59.2796 112.191Z" fill="#DD5491"/>
<path d="M62.3064 111.679H61.7733V112.378H61.4981V111.679H59.9905V111.478L61.4064 109.707H61.7102L60.3459 111.427H61.4924V110.808H61.7618V111.427H62.2949L62.3064 111.679Z" fill="#DD5491"/>
<path d="M62.5471 111.044C62.5471 110.196 62.9885 109.691 63.6076 109.691C64.2267 109.691 64.6739 110.196 64.6739 111.044C64.6739 111.893 64.2267 112.403 63.6076 112.403C62.9885 112.403 62.5471 111.898 62.5471 111.044ZM64.393 111.044C64.393 110.333 64.072 109.938 63.6076 109.938C63.1433 109.938 62.8223 110.333 62.8223 111.044C62.8223 111.755 63.1433 112.151 63.6076 112.151C64.072 112.151 64.4102 111.761 64.4102 111.044H64.393Z" fill="#DD5491"/>
<g opacity="0.3">
<path d="M17.1402 116.799H4.89564C4.7436 116.799 4.59779 116.738 4.49029 116.631C4.38278 116.523 4.32239 116.378 4.32239 116.226C4.32239 116.074 4.38278 115.928 4.49029 115.82C4.59779 115.713 4.7436 115.652 4.89564 115.652H17.1402C17.2923 115.652 17.4381 115.713 17.5456 115.82C17.6531 115.928 17.7135 116.074 17.7135 116.226C17.7135 116.378 17.6531 116.523 17.5456 116.631C17.4381 116.738 17.2923 116.799 17.1402 116.799Z" fill="#DD5491"/>
</g>
<g opacity="0.3">
<path d="M64.1466 116.799H38.144C37.992 116.799 37.8462 116.738 37.7387 116.631C37.6312 116.523 37.5708 116.378 37.5708 116.226C37.5708 116.074 37.6312 115.928 37.7387 115.82C37.8462 115.713 37.992 115.652 38.144 115.652H64.1466C64.2986 115.652 64.4444 115.713 64.5519 115.82C64.6595 115.928 64.7198 116.074 64.7198 116.226C64.7198 116.378 64.6595 116.523 64.5519 116.631C64.4444 116.738 64.2986 116.799 64.1466 116.799Z" fill="#DD5491"/>
</g>
<path d="M15.3458 121.959L14.7038 121.117L14.0675 121.959H13.7637L14.5548 120.928L13.7981 119.953H14.1019L14.7038 120.738L15.3114 119.953H15.6038L14.8528 120.928L15.6497 121.959H15.3458Z" fill="#DD5491"/>
<path d="M17.7363 121.711V121.958H15.8617V121.763L16.9739 120.674C17.2777 120.376 17.335 120.198 17.335 120.014C17.335 119.705 17.1172 119.516 16.7044 119.516C16.5686 119.508 16.4327 119.531 16.3068 119.583C16.1809 119.634 16.068 119.713 15.9764 119.814L15.7815 119.648C15.9011 119.518 16.048 119.416 16.2115 119.35C16.375 119.283 16.5511 119.254 16.7274 119.263C17.3006 119.263 17.6159 119.539 17.6159 119.986C17.6092 120.149 17.5661 120.309 17.4897 120.454C17.4134 120.599 17.3057 120.725 17.1745 120.823L16.2688 121.711H17.7363Z" fill="#DD5491"/>
<path d="M53.295 121.975V122.417H53.1058V121.981C52.7697 121.978 52.446 121.854 52.1943 121.631L52.3033 121.413C52.5261 121.609 52.8094 121.723 53.1058 121.734V120.731C52.6873 120.628 52.2574 120.502 52.2574 119.998C52.2574 119.631 52.5211 119.315 53.1058 119.27V118.828H53.295V119.264C53.5694 119.271 53.8369 119.352 54.0689 119.499L53.9714 119.728C53.7691 119.596 53.536 119.519 53.295 119.505V120.513C53.7249 120.617 54.1778 120.743 54.1778 121.253C54.1778 121.62 53.9026 121.941 53.295 121.975ZM53.1058 120.468V119.51C52.7103 119.545 52.5326 119.751 52.5326 119.992C52.5326 120.233 52.802 120.387 53.1058 120.468ZM53.9026 121.264C53.9026 120.966 53.6217 120.863 53.295 120.783V121.734C53.7134 121.706 53.9026 121.511 53.9026 121.264Z" fill="#DD5491"/>
<path d="M56.8662 121.255H56.3331V121.96H56.0579V121.255H54.5503V121.06L55.9662 119.289H56.27L54.9057 121.009H56.0522V120.39H56.3216V121.009H56.8548L56.8662 121.255Z" fill="#DD5491"/>
<path d="M58.9185 121.173C58.9185 121.626 58.6033 121.981 57.9498 121.981C57.5983 121.993 57.2556 121.87 56.9924 121.637L57.1243 121.419C57.3458 121.627 57.6406 121.738 57.944 121.729C58.3969 121.729 58.6377 121.505 58.6377 121.184C58.6377 120.863 58.4256 120.611 57.7491 120.611H57.1759L57.3134 119.27H58.7752V119.516H57.5542L57.4625 120.364H57.8064C58.6147 120.382 58.9185 120.697 58.9185 121.173Z" fill="#DD5491"/>
<path d="M59.2682 121.769C59.2674 121.742 59.2722 121.714 59.2822 121.689C59.2923 121.664 59.3075 121.641 59.3268 121.621C59.3462 121.602 59.3692 121.587 59.3946 121.577C59.42 121.567 59.4472 121.562 59.4745 121.563C59.5016 121.563 59.5285 121.568 59.5535 121.578C59.5785 121.589 59.6013 121.604 59.6204 121.623C59.6396 121.642 59.6548 121.665 59.6652 121.69C59.6756 121.715 59.6809 121.742 59.6809 121.769C59.6809 121.796 59.6756 121.823 59.6652 121.848C59.6548 121.873 59.6396 121.896 59.6204 121.915C59.6013 121.934 59.5785 121.949 59.5535 121.96C59.5285 121.97 59.5016 121.975 59.4745 121.975C59.4198 121.975 59.3673 121.954 59.3286 121.915C59.2899 121.876 59.2682 121.824 59.2682 121.769Z" fill="#DD5491"/>
<path d="M60.0363 120.624C60.0363 119.776 60.4834 119.266 61.0968 119.266C61.7101 119.266 62.1687 119.776 62.1687 120.624C62.1687 121.473 61.7159 121.983 61.0968 121.983C60.4777 121.983 60.0363 121.473 60.0363 120.624ZM61.8821 120.624C61.8821 119.913 61.5611 119.518 61.0968 119.518C60.6324 119.518 60.3114 119.913 60.3114 120.624C60.3114 121.335 60.6324 121.731 61.0968 121.731C61.5611 121.731 61.8821 121.335 61.8821 120.624Z" fill="#DD5491"/>
<path d="M62.5471 120.624C62.5471 119.776 62.9943 119.266 63.6134 119.266C64.2325 119.266 64.6796 119.776 64.6796 120.624C64.6796 121.473 64.2325 121.983 63.6134 121.983C62.9943 121.983 62.5471 121.473 62.5471 120.624ZM64.3987 120.624C64.3987 119.913 64.0777 119.518 63.6134 119.518C63.149 119.518 62.828 119.913 62.828 120.624C62.828 121.335 63.149 121.731 63.6134 121.731C64.0777 121.731 64.4102 121.335 64.4102 120.624H64.3987Z" fill="#DD5491"/>
<g opacity="0.3">
<path d="M17.1401 126.373H6.042C5.88996 126.373 5.74416 126.313 5.63665 126.205C5.52915 126.098 5.46875 125.952 5.46875 125.8C5.46875 125.648 5.52915 125.502 5.63665 125.394C5.74416 125.287 5.88996 125.227 6.042 125.227H17.1401C17.2921 125.227 17.4379 125.287 17.5454 125.394C17.6529 125.502 17.7133 125.648 17.7133 125.8C17.7133 125.952 17.6529 126.098 17.5454 126.205C17.4379 126.313 17.2921 126.373 17.1401 126.373Z" fill="#DD5491"/>
</g>
<g opacity="0.3">
<path d="M64.1465 126.373H33.558C33.406 126.373 33.2602 126.313 33.1527 126.205C33.0451 126.098 32.9847 125.952 32.9847 125.8C32.9847 125.648 33.0451 125.502 33.1527 125.394C33.2602 125.287 33.406 125.227 33.558 125.227H64.1465C64.2986 125.227 64.4444 125.287 64.5519 125.394C64.6594 125.502 64.7198 125.648 64.7198 125.8C64.7198 125.952 64.6594 126.098 64.5519 126.205C64.4444 126.313 64.2986 126.373 64.1465 126.373Z" fill="#DD5491"/>
</g>
<path d="M13.5746 131.538L12.9383 130.695L12.2963 131.538H11.9924L12.7892 130.506L12.0326 129.531H12.3364L12.9096 130.317L13.5115 129.531H13.8211L13.0701 130.506L13.867 131.538H13.5746Z" fill="#DD5491"/>
<path d="M14.9159 128.867V131.539H14.6407V129.108H14.0159V128.867H14.9159Z" fill="#DD5491"/>
<path d="M15.5408 130.202C15.5408 129.348 15.9822 128.844 16.6013 128.844C17.2204 128.844 17.6675 129.348 17.6675 130.202C17.6675 131.057 17.2204 131.561 16.6013 131.561C15.9822 131.561 15.5408 131.051 15.5408 130.202ZM17.3866 130.202C17.3866 129.486 17.0656 129.096 16.6013 129.096C16.1369 129.096 15.8159 129.486 15.8159 130.202C15.8159 130.919 16.1369 131.309 16.6013 131.309C17.0656 131.309 17.4038 130.913 17.4038 130.202H17.3866Z" fill="#DD5491"/>
<path d="M54.8255 131.553V131.989H54.6363V131.559C54.3015 131.55 53.9799 131.427 53.7249 131.209L53.8338 130.992C54.0567 131.187 54.3399 131.301 54.6363 131.313V130.309C54.2178 130.206 53.7879 130.074 53.7879 129.576C53.7879 129.209 54.0516 128.894 54.6363 128.848V128.406H54.8255V128.842C55.1004 128.846 55.3685 128.928 55.5994 129.077L55.5077 129.301C55.3026 129.171 55.0677 129.096 54.8255 129.083V130.069C55.2554 130.172 55.714 130.292 55.714 130.802C55.714 131.215 55.4331 131.519 54.8255 131.553ZM54.6363 130.069V129.117C54.2408 129.151 54.0631 129.352 54.0631 129.593C54.0631 129.834 54.321 129.96 54.6363 130.069ZM55.4331 130.871C55.4331 130.573 55.1522 130.47 54.8255 130.39V131.341C55.244 131.284 55.4331 131.089 55.4331 130.843V130.871Z" fill="#DD5491"/>
<path d="M56.8147 128.867V131.539H56.5395V129.108H55.9147V128.867H56.8147Z" fill="#DD5491"/>
<path d="M59.2452 130.749C59.2452 131.207 58.9242 131.563 58.2764 131.563C57.9253 131.573 57.5831 131.45 57.3191 131.219L57.4509 131.001C57.6724 131.208 57.9672 131.32 58.2707 131.31C58.7235 131.31 58.9643 131.087 58.9643 130.737C58.9643 130.387 58.7522 130.164 58.07 130.164H57.4968L57.6344 128.828H59.1076V129.069H57.8866L57.7949 129.923H58.1388C58.9356 129.963 59.2452 130.278 59.2452 130.749Z" fill="#DD5491"/>
<path d="M59.5949 131.342C59.5899 131.313 59.5914 131.282 59.5994 131.253C59.6073 131.224 59.6215 131.198 59.6408 131.175C59.6602 131.152 59.6843 131.133 59.7116 131.121C59.7388 131.108 59.7684 131.102 59.7984 131.102C59.8284 131.102 59.8581 131.108 59.8853 131.121C59.9125 131.133 59.9366 131.152 59.956 131.175C59.9754 131.198 59.9895 131.224 59.9974 131.253C60.0054 131.282 60.0069 131.313 60.0019 131.342C60.0069 131.372 60.0054 131.402 59.9974 131.431C59.9895 131.46 59.9754 131.487 59.956 131.51C59.9366 131.533 59.9125 131.551 59.8853 131.564C59.8581 131.576 59.8284 131.583 59.7984 131.583C59.7684 131.583 59.7388 131.576 59.7116 131.564C59.6843 131.551 59.6602 131.533 59.6408 131.51C59.6215 131.487 59.6073 131.46 59.5994 131.431C59.5914 131.402 59.5899 131.372 59.5949 131.342Z" fill="#DD5491"/>
<path d="M62.2147 130.749C62.2147 131.207 61.8937 131.563 61.2459 131.563C60.8948 131.573 60.5526 131.45 60.2886 131.219L60.4204 131.001C60.6419 131.208 60.9367 131.32 61.2402 131.31C61.693 131.31 61.9338 131.087 61.9338 130.737C61.9338 130.387 61.7217 130.164 61.0395 130.164H60.4663L60.6039 128.828H62.0656V129.069H60.8274L60.7357 129.923H61.0797C61.9051 129.963 62.2147 130.278 62.2147 130.749Z" fill="#DD5491"/>
<path d="M62.5471 130.202C62.5471 129.348 62.9885 128.844 63.6076 128.844C64.2267 128.844 64.6739 129.348 64.6739 130.202C64.6739 131.057 64.2267 131.561 63.6076 131.561C62.9885 131.561 62.5471 131.051 62.5471 130.202ZM64.393 130.202C64.393 129.486 64.072 129.096 63.6076 129.096C63.1433 129.096 62.8223 129.486 62.8223 130.202C62.8223 130.919 63.1433 131.309 63.6076 131.309C64.072 131.309 64.4102 130.913 64.4102 130.202H64.393Z" fill="#DD5491"/>
<g opacity="0.3">
<path d="M17.1402 135.951H8.90833C8.7563 135.951 8.61049 135.891 8.50298 135.783C8.39548 135.676 8.33508 135.53 8.33508 135.378C8.33508 135.226 8.39548 135.08 8.50298 134.973C8.61049 134.865 8.7563 134.805 8.90833 134.805H17.1402C17.2922 134.805 17.438 134.865 17.5455 134.973C17.653 135.08 17.7134 135.226 17.7134 135.378C17.7134 135.53 17.653 135.676 17.5455 135.783C17.438 135.891 17.2922 135.951 17.1402 135.951Z" fill="#DD5491"/>
</g>
<g opacity="0.3">
<path d="M64.1466 135.951H37.5708C37.4188 135.951 37.273 135.891 37.1655 135.783C37.058 135.676 36.9976 135.53 36.9976 135.378C36.9976 135.226 37.058 135.08 37.1655 134.973C37.273 134.865 37.4188 134.805 37.5708 134.805H64.1466C64.2986 134.805 64.4444 134.865 64.552 134.973C64.6595 135.08 64.7199 135.226 64.7199 135.378C64.7199 135.53 64.6595 135.676 64.552 135.783C64.4444 135.891 64.2986 135.951 64.1466 135.951Z" fill="#DD5491"/>
</g>
<path d="M15.0707 141.112L14.4344 140.275L13.821 141.112H13.5115L14.3083 140.086L13.5516 139.105H13.821L14.3943 139.891L14.9962 139.105H15.2943L14.5433 140.086L15.3401 141.112H15.0707Z" fill="#DD5491"/>
<path d="M17.6962 140.389C17.6962 140.865 17.3006 141.157 16.6643 141.157C16.028 141.157 15.6325 140.865 15.6325 140.389C15.6312 140.237 15.6817 140.09 15.7755 139.971C15.8693 139.853 16.0008 139.769 16.1484 139.735C16.0244 139.701 15.9157 139.625 15.8398 139.521C15.7639 139.417 15.7252 139.291 15.7299 139.162C15.7299 138.726 16.0968 138.457 16.6643 138.457C17.2318 138.457 17.6044 138.726 17.6044 139.162C17.6028 139.291 17.5602 139.416 17.483 139.519C17.4057 139.622 17.2977 139.698 17.1745 139.735C17.3231 139.768 17.456 139.851 17.5509 139.97C17.6458 140.089 17.6971 140.237 17.6962 140.389ZM17.4153 140.389C17.4153 140.062 17.1344 139.856 16.6643 139.856C16.1942 139.856 15.9076 140.062 15.9076 140.389C15.9076 140.716 16.1885 140.928 16.6643 140.928C17.1401 140.928 17.4153 140.698 17.4153 140.389ZM16.6872 139.615C17.1 139.615 17.3465 139.426 17.3465 139.139C17.3465 138.853 17.0828 138.652 16.6872 138.652C16.2917 138.652 16.0223 138.835 16.0223 139.133C16.0223 139.432 16.2458 139.615 16.6872 139.615Z" fill="#DD5491"/>
<path d="M54.1777 141.135V141.571H53.9885V141.135C53.6535 141.133 53.3303 141.011 53.077 140.791L53.1859 140.574C53.4103 140.767 53.6927 140.88 53.9885 140.895V139.891C53.57 139.788 53.1401 139.656 53.1401 139.152C53.1401 138.785 53.4038 138.47 53.9885 138.424V137.988H54.1777V138.424C54.4525 138.428 54.7207 138.51 54.9516 138.659L54.8541 138.883C54.6518 138.751 54.4187 138.674 54.1777 138.659V139.674C54.6076 139.777 55.0605 139.897 55.0605 140.407C55.0605 140.78 54.7853 141.101 54.1777 141.135ZM53.9885 139.622V138.67C53.593 138.705 53.4152 138.905 53.4152 139.146C53.4152 139.387 53.6732 139.542 53.9885 139.622ZM54.7853 140.425C54.7853 140.121 54.5044 140.018 54.1777 139.937V140.895C54.5961 140.86 54.7853 140.665 54.7853 140.425Z" fill="#DD5491"/>
<path d="M56.1439 138.447V141.113H55.8687V138.67H55.2382V138.43L56.1439 138.447Z" fill="#DD5491"/>
<path d="M56.7803 139.775C56.7803 138.926 57.2274 138.422 57.8465 138.422C58.4656 138.422 58.9128 138.926 58.9128 139.775C58.9128 140.623 58.4656 141.133 57.8465 141.133C57.2274 141.133 56.7803 140.629 56.7803 139.775ZM58.6319 139.775C58.6319 139.064 58.3108 138.668 57.8465 138.668C57.3822 138.668 57.0612 139.064 57.0612 139.775C57.0612 140.486 57.3822 140.881 57.8465 140.881C58.3108 140.881 58.6319 140.491 58.6319 139.775Z" fill="#DD5491"/>
<path d="M59.2739 140.921C59.2723 140.894 59.2763 140.867 59.2858 140.842C59.2952 140.816 59.3098 140.793 59.3287 140.774C59.3476 140.754 59.3703 140.739 59.3954 140.729C59.4205 140.719 59.4475 140.714 59.4745 140.715C59.5293 140.715 59.5818 140.737 59.6205 140.775C59.6592 140.814 59.6809 140.867 59.6809 140.921C59.6809 140.977 59.6594 141.03 59.6208 141.069C59.5823 141.109 59.5298 141.132 59.4745 141.133C59.4472 141.133 59.4201 141.128 59.395 141.117C59.3699 141.106 59.3472 141.091 59.3285 141.071C59.3097 141.051 59.2951 141.027 59.2858 141.002C59.2764 140.976 59.2723 140.949 59.2739 140.921Z" fill="#DD5491"/>
<path d="M60.0363 139.775C60.0363 138.926 60.4834 138.422 61.0968 138.422C61.7101 138.422 62.1687 138.926 62.1687 139.775C62.1687 140.623 61.7159 141.133 61.0968 141.133C60.4777 141.133 60.0363 140.629 60.0363 139.775ZM61.8821 139.775C61.8821 139.064 61.5668 138.668 61.0968 138.668C60.6267 138.668 60.3114 139.064 60.3114 139.775C60.3114 140.486 60.6324 140.881 61.0968 140.881C61.5611 140.881 61.8821 140.491 61.8821 139.775Z" fill="#DD5491"/>
<path d="M62.5471 139.775C62.5471 138.926 62.9885 138.422 63.6076 138.422C64.2267 138.422 64.6739 138.926 64.6739 139.775C64.6739 140.623 64.2267 141.133 63.6076 141.133C62.9885 141.133 62.5471 140.629 62.5471 139.775ZM64.393 139.775C64.393 139.064 64.072 138.668 63.6076 138.668C63.1433 138.668 62.8223 139.064 62.8223 139.775C62.8223 140.486 63.1433 140.881 63.6076 140.881C64.072 140.881 64.4102 140.491 64.4102 139.775H64.393Z" fill="#DD5491"/>
<g opacity="0.3">
<path d="M17.1401 145.549H7.18848C7.03645 145.549 6.89064 145.488 6.78313 145.381C6.67563 145.273 6.61523 145.128 6.61523 144.976C6.61523 144.824 6.67563 144.678 6.78313 144.57C6.89064 144.463 7.03645 144.402 7.18848 144.402H17.1401C17.2921 144.402 17.4379 144.463 17.5454 144.57C17.6529 144.678 17.7133 144.824 17.7133 144.976C17.7133 145.128 17.6529 145.273 17.5454 145.381C17.4379 145.488 17.2921 145.549 17.1401 145.549Z" fill="#DD5491"/>
</g>
<g opacity="0.3">
<path d="M64.1465 145.549H33.558C33.406 145.549 33.2602 145.488 33.1527 145.381C33.0451 145.273 32.9847 145.128 32.9847 144.976C32.9847 144.824 33.0451 144.678 33.1527 144.57C33.2602 144.463 33.406 144.402 33.558 144.402H64.1465C64.2986 144.402 64.4444 144.463 64.5519 144.57C64.6594 144.678 64.7198 144.824 64.7198 144.976C64.7198 145.128 64.6594 145.273 64.5519 145.381C64.4444 145.488 64.2986 145.549 64.1465 145.549Z" fill="#DD5491"/>
</g>
<path d="M54.5216 150.708V151.149H54.3267V150.708C53.9909 150.704 53.6675 150.58 53.4153 150.358L53.5299 150.14C53.75 150.337 54.0319 150.45 54.3267 150.461V149.458C53.9083 149.355 53.4841 149.229 53.4841 148.724C53.4841 148.357 53.7478 148.042 54.3267 147.996V147.555H54.5216V147.99C54.7958 147.999 55.0627 148.08 55.2955 148.225L55.1981 148.455C54.9955 148.324 54.7625 148.247 54.5216 148.231V149.24C54.9516 149.343 55.4044 149.469 55.4044 149.98C55.3872 150.352 55.0949 150.673 54.5216 150.708ZM54.3267 149.2V148.243C53.9369 148.277 53.7535 148.483 53.7535 148.724C53.7535 148.965 54 149.12 54.3095 149.2H54.3267ZM55.1236 149.997C55.1236 149.699 54.8484 149.595 54.5216 149.515V150.467C54.9229 150.438 55.0949 150.243 55.0949 149.997H55.1236Z" fill="#DD5491"/>
<path d="M56.4707 148.02V150.708H56.1955V148.283H55.5649V148.037L56.4707 148.02Z" fill="#DD5491"/>
<path d="M58.9185 149.903C58.9185 150.356 58.6033 150.711 57.9498 150.711C57.5983 150.724 57.2556 150.601 56.9924 150.368L57.1243 150.15C57.3458 150.357 57.6406 150.469 57.944 150.459C58.3969 150.459 58.6377 150.236 58.6377 149.915C58.6377 149.594 58.4256 149.341 57.7491 149.341H57.1759L57.3134 148H58.7695V148.246H57.5485L57.4568 149.095H57.8007C58.6147 149.112 58.9185 149.427 58.9185 149.903Z" fill="#DD5491"/>
<path d="M59.2739 150.499C59.2723 150.472 59.2763 150.445 59.2858 150.42C59.2952 150.395 59.3098 150.371 59.3287 150.352C59.3476 150.333 59.3703 150.317 59.3954 150.307C59.4205 150.297 59.4475 150.292 59.4745 150.293C59.5293 150.293 59.5818 150.315 59.6205 150.354C59.6592 150.392 59.6809 150.445 59.6809 150.499C59.6809 150.554 59.6592 150.607 59.6205 150.645C59.5818 150.684 59.5293 150.706 59.4745 150.706C59.4477 150.706 59.4211 150.7 59.3964 150.69C59.3717 150.68 59.3493 150.664 59.3306 150.645C59.3119 150.626 59.2972 150.603 59.2875 150.578C59.2778 150.553 59.2731 150.526 59.2739 150.499Z" fill="#DD5491"/>
<path d="M60.0363 149.355C60.0363 148.506 60.4834 147.996 61.0968 147.996C61.7101 147.996 62.1687 148.506 62.1687 149.355C62.1687 150.203 61.7159 150.713 61.0968 150.713C60.4777 150.713 60.0363 150.203 60.0363 149.355ZM61.8821 149.355C61.8821 148.644 61.5611 148.248 61.0968 148.248C60.6324 148.248 60.3114 148.644 60.3114 149.355C60.3114 150.066 60.6324 150.461 61.0968 150.461C61.5611 150.461 61.8821 150.066 61.8821 149.355Z" fill="#DD5491"/>
<path d="M62.5471 149.355C62.5471 148.506 62.9885 147.996 63.6076 147.996C64.2267 147.996 64.6739 148.506 64.6739 149.355C64.6739 150.203 64.2669 150.708 63.6248 150.708C62.9828 150.708 62.5471 150.203 62.5471 149.355ZM64.393 149.355C64.393 148.644 64.072 148.248 63.6076 148.248C63.1433 148.248 62.8223 148.644 62.8223 149.355C62.8223 150.066 63.1433 150.461 63.6076 150.461C64.072 150.461 64.4102 150.066 64.4102 149.355H64.393Z" fill="#DD5491"/>
<path d="M2.86047 2.44922H5.85283V2.85623H2.86047V2.44922ZM2.86047 4.03712H5.85283V4.44413H2.86047V4.03712Z" fill="#DD5491"/>
<path d="M6.81592 2.44922H9.80828V2.85623H6.81592V2.44922ZM6.81592 4.03712H9.80828V4.44413H6.81592V4.03712Z" fill="#DD5491"/>
<path d="M10.7714 2.44922H13.7637V2.85623H10.7714V2.44922ZM10.7714 4.03712H13.7637V4.44413H10.7714V4.03712Z" fill="#DD5491"/>
<path d="M14.7267 2.44922H17.719V2.85623H14.7267V2.44922ZM14.7267 4.03712H17.719V4.44413H14.7267V4.03712Z" fill="#DD5491"/>
<path d="M18.6821 2.44922H21.6745V2.85623H18.6821V2.44922ZM18.6821 4.03712H21.6745V4.44413H18.6821V4.03712Z" fill="#DD5491"/>
<path d="M22.6376 2.44922H25.6299V2.85623H22.6376V2.44922ZM22.6376 4.03712H25.6299V4.44413H22.6376V4.03712Z" fill="#DD5491"/>
<path d="M26.593 2.44922H29.5854V2.85623H26.593V2.44922ZM26.593 4.03712H29.5854V4.44413H26.593V4.03712Z" fill="#DD5491"/>
<path d="M30.5485 2.44922H33.5408V2.85623H30.5485V2.44922ZM30.5485 4.03712H33.5408V4.44413H30.5485V4.03712Z" fill="#DD5491"/>
<path d="M34.5038 2.44922H37.4961V2.85623H34.5038V2.44922ZM34.5038 4.03712H37.4961V4.44413H34.5038V4.03712Z" fill="#DD5491"/>
<path d="M38.4707 2.44922H41.4631V2.85623H38.4707V2.44922ZM38.4707 4.03712H41.4631V4.44413H38.4707V4.03712Z" fill="#DD5491"/>
<path d="M42.4147 2.44922H45.407V2.85623H42.4147V2.44922ZM42.4147 4.03712H45.407V4.44413H42.4147V4.03712Z" fill="#DD5491"/>
<path d="M46.3701 2.44922H49.3625V2.85623H46.3701V2.44922ZM46.3701 4.03712H49.3625V4.44413H46.3701V4.03712Z" fill="#DD5491"/>
<path d="M50.3254 2.44922H53.3178V2.85623H50.3254V2.44922ZM50.3254 4.03712H53.3178V4.44413H50.3254V4.03712Z" fill="#DD5491"/>
<path d="M54.2809 2.44922H57.2732V2.85623H54.2809V2.44922ZM54.2809 4.03712H57.2732V4.44413H54.2809V4.03712Z" fill="#DD5491"/>
<path d="M58.2363 2.44922H61.2287V2.85623H58.2363V2.44922ZM58.2363 4.03712H61.2287V4.44413H58.2363V4.03712Z" fill="#DD5491"/>
<path d="M62.1918 2.44922H65.1841V2.85623H62.1918V2.44922ZM62.1918 4.03712H65.1841V4.44413H62.1918V4.03712Z" fill="#DD5491"/>
<path d="M125.92 146.838L123.873 143.398C122.292 140.735 120.046 138.528 117.354 136.996C114.663 135.463 111.619 134.657 108.522 134.656H39.7319C42.8317 134.655 45.8783 135.462 48.572 136.995C51.2657 138.529 53.5138 140.738 55.095 143.404L57.1415 146.844C58.2253 148.663 59.7519 150.178 61.5791 151.249C63.4064 152.319 65.4748 152.91 67.5918 152.966H136.703C134.528 152.967 132.391 152.402 130.501 151.328C128.61 150.253 127.032 148.706 125.92 146.838Z" fill="#DD5491"/>
<path opacity="0.7" d="M125.92 146.838L123.873 143.398C122.292 140.735 120.046 138.528 117.354 136.996C114.663 135.463 111.619 134.657 108.522 134.656H39.7319C42.8317 134.655 45.8783 135.462 48.572 136.995C51.2657 138.529 53.5138 140.738 55.095 143.404L57.1415 146.844C58.2253 148.663 59.7519 150.178 61.5791 151.249C63.4064 152.319 65.4748 152.91 67.5918 152.966H136.703C134.528 152.967 132.391 152.402 130.501 151.328C128.61 150.253 127.032 148.706 125.92 146.838Z" fill="#ECB7CE"/>
<path d="M170.318 148.121C167.121 145.013 162.842 143.268 158.383 143.254H87.6325C85.7424 143.255 83.8776 143.689 82.1813 144.522C80.4851 145.356 79.0024 146.568 77.8471 148.063C76.9109 149.277 75.7585 150.307 74.4478 151.102C76.3557 152.306 78.5661 152.944 80.8223 152.942C81.4657 152.941 82.108 152.887 82.7427 152.781L82.6624 152.942H182.282C177.818 152.953 173.526 151.224 170.318 148.121Z" fill="#DD5491"/>
<g opacity="0.6">
<path d="M170.318 148.121C167.121 145.013 162.842 143.268 158.383 143.254H87.6325C85.7424 143.255 83.8776 143.689 82.1813 144.522C80.4851 145.356 79.0024 146.568 77.8471 148.063C76.9109 149.277 75.7585 150.307 74.4478 151.102C76.3557 152.306 78.5661 152.944 80.8223 152.942C81.4657 152.941 82.108 152.887 82.7427 152.781L82.6624 152.942H182.282C177.818 152.953 173.526 151.224 170.318 148.121Z" fill="#E090B3"/>
</g>
<path d="M67.9127 152.999H12.0325C14.2124 152.999 16.3514 152.407 18.2212 151.286C20.091 150.166 21.6214 148.558 22.649 146.636L23.979 144.142C25.4677 141.347 27.6731 138.997 30.369 137.335C33.0649 135.672 36.1544 134.756 39.3209 134.681C42.4873 134.606 45.6169 135.374 48.3887 136.906C51.1605 138.439 53.475 140.681 55.0949 143.403L57.1414 146.842C58.2488 148.714 59.8241 150.266 61.7125 151.346C63.6009 152.425 65.7376 152.995 67.9127 152.999Z" fill="#E787B2"/>
<path d="M101.528 148.121C98.331 145.013 94.0518 143.268 89.593 143.254H87.6325C85.7424 143.255 83.8776 143.689 82.1813 144.522C80.4851 145.356 79.0024 146.568 77.8471 148.063C76.675 149.583 75.1697 150.812 73.4474 151.658C71.725 152.504 69.8315 152.943 67.9127 152.942H113.492C109.028 152.953 104.736 151.224 101.528 148.121Z" fill="#E787B2"/>
</svg>
