<svg width="130" height="183" viewBox="0 0 130 183" fill="none" xmlns="http://www.w3.org/2000/svg">
<path d="M74.1581 2.02486V152.324C74.1588 152.615 74.1014 152.904 73.9893 153.173C73.8772 153.442 73.7126 153.686 73.5051 153.89C73.2976 154.095 73.0514 154.256 72.7809 154.364C72.5104 154.472 72.221 154.526 71.9297 154.521H1.99892C1.47722 154.527 0.974323 154.326 0.600307 153.962C0.409035 153.772 0.257859 153.545 0.155686 153.295C0.0535124 153.044 0.00240661 152.777 0.00537399 152.506V1.8422C-0.00370751 1.60915 0.0332467 1.37659 0.114122 1.15783C0.194998 0.939075 0.318206 0.738405 0.476703 0.567305C0.635201 0.396205 0.825876 0.258032 1.03782 0.160688C1.24977 0.0633441 1.47882 0.00874078 1.71189 0H21.5743C21.8521 0.00432572 22.1223 0.0916028 22.3501 0.250619C22.5779 0.409636 22.753 0.63313 22.8529 0.892399L23.6775 2.91726C23.7787 3.17515 23.9543 3.39715 24.182 3.5551C24.4096 3.71305 24.679 3.79984 24.956 3.80444H49.2596C49.5353 3.80318 49.8043 3.71953 50.0322 3.56423C50.26 3.40894 50.4362 3.18909 50.5382 2.93292L51.3627 0.897619C51.4624 0.637774 51.6372 0.413559 51.865 0.253657C52.0928 0.0937555 52.3631 0.00543658 52.6413 0H72.2167C72.7413 0.0150266 73.239 0.235812 73.6022 0.614669C73.9655 0.993527 74.1651 1.50006 74.1581 2.02486Z" fill="#DD5491"/>
<path opacity="0.6" d="M74.158 12.0039H0.00012207V138.192H74.158V12.0039Z" fill="white"/>
<path opacity="0.6" d="M9.22161 6.05469H10.2549V4.67695H9.22161V6.05469Z" fill="white"/>
<path opacity="0.6" d="M7.54116 6.05469H8.57446V4.2177H7.54116V6.05469Z" fill="white"/>
<path opacity="0.6" d="M5.8503 6.05469H6.88361V3.75846H5.8503V6.05469Z" fill="white"/>
<path opacity="0.6" d="M4.16988 6.05469H5.20319V3.29921H4.16988V6.05469Z" fill="white"/>
<path opacity="0.6" d="M64.6913 4.17188H64.0807V5.54961H64.6913V4.17188Z" fill="white"/>
<path opacity="0.6" d="M65.1087 6.05469L69.9882 6.05469V3.66974L65.1087 3.66974V6.05469Z" fill="white"/>
<g opacity="0.1">
<path d="M33.3634 3.80444L12.0137 83.7708L11.7788 84.6684L11.3927 86.1088L11.1474 87.0064L0.000213623 128.756V78.2389L20.8751 0H21.5535C21.8313 0.00432572 22.1015 0.0916029 22.3293 0.250619C22.5571 0.409636 22.7322 0.63313 22.8321 0.892399L23.6566 2.91726C23.7579 3.17516 23.9335 3.39715 24.1611 3.5551C24.3888 3.71305 24.6582 3.79984 24.9352 3.80444H33.3634Z" fill="white"/>
<path d="M74.1581 44.6367V95.1747L60.8451 145.05L60.5216 146.261L58.3245 154.491H44.8341L47.0312 146.266L47.3808 144.946L49.1448 138.339L49.4996 137.018L50.2042 134.372L50.559 133.052L51.2636 130.406L51.6132 129.086L62.7134 87.5137V87.5084L63.2248 85.5932V85.588L74.1581 44.6367Z" fill="white"/>
<path d="M40.6748 3.80469L19.4607 83.27L19.3302 83.7449L18.1717 88.1026L18.0412 88.5775L0.595055 153.937C0.403783 153.746 0.252608 153.519 0.150434 153.269C0.0482606 153.019 -0.00284518 152.751 0.000122193 152.481V144.793L15.0091 88.5775L15.1396 88.1026L16.2982 83.7449L16.4286 83.27L37.6427 3.80469H40.6748Z" fill="white"/>
</g>
<path opacity="0.9" d="M69.4769 22.7219V21.9338L69.0698 21.8973C69.0146 21.6389 68.9119 21.3929 68.7671 21.1719L69.028 20.8588L68.4696 20.3004L68.1565 20.5613C67.9378 20.4121 67.691 20.3091 67.4311 20.2586L67.3946 19.8516H66.6118L66.5752 20.2586C66.3154 20.3091 66.0685 20.4121 65.8498 20.5613L65.5315 20.3004L64.9783 20.8588L65.2393 21.1719C65.0901 21.3906 64.9871 21.6374 64.9366 21.8973L64.5295 21.9338V22.7219L64.9366 22.7584C64.9871 23.0183 65.0901 23.2651 65.2393 23.4838L64.9783 23.7969L65.5315 24.3553L65.8498 24.0944C66.0685 24.2435 66.3154 24.3465 66.5752 24.3971L66.6118 24.8041H67.3998L67.4363 24.3971C67.6962 24.3465 67.943 24.2435 68.1617 24.0944L68.4749 24.3553L69.0333 23.7969L68.7723 23.4838C68.9172 23.2628 69.0198 23.0168 69.075 22.7584L69.4769 22.7219ZM66.998 23.3898C66.7915 23.3898 66.5897 23.3286 66.4181 23.2139C66.2465 23.0993 66.1127 22.9362 66.0337 22.7455C65.9547 22.5548 65.934 22.3449 65.9743 22.1425C66.0145 21.94 66.114 21.754 66.2599 21.6081C66.4059 21.4621 66.5919 21.3627 66.7943 21.3224C66.9968 21.2821 67.2067 21.3028 67.3974 21.3818C67.5881 21.4608 67.7511 21.5946 67.8658 21.7662C67.9805 21.9379 68.0417 22.1397 68.0417 22.3461C68.0417 22.6229 67.9317 22.8884 67.736 23.0841C67.5403 23.2799 67.2748 23.3898 66.998 23.3898Z" fill="white"/>
<path d="M11.5335 22.2284L8.87194 20.0313C8.85261 20.0161 8.82871 20.0078 8.8041 20.0078C8.77948 20.0078 8.75559 20.0161 8.73626 20.0313L6.07471 22.2284C6.05677 22.2418 6.04361 22.2606 6.03718 22.2821C6.03074 22.3035 6.03138 22.3264 6.03898 22.3475C6.04659 22.3686 6.06076 22.3866 6.07941 22.399C6.09806 22.4114 6.1202 22.4175 6.14255 22.4163H6.73749C6.76567 22.4163 6.79279 22.4271 6.8132 22.4465C6.83361 22.466 6.84574 22.4925 6.84708 22.5207V24.5455C6.84705 24.5737 6.85788 24.6008 6.87732 24.6212C6.89675 24.6416 6.9233 24.6538 6.95145 24.6551H10.6515C10.6797 24.6538 10.7062 24.6416 10.7257 24.6212C10.7451 24.6008 10.7559 24.5737 10.7559 24.5455V22.5207C10.7559 22.5065 10.7587 22.4925 10.7643 22.4795C10.7699 22.4665 10.778 22.4547 10.7883 22.445C10.7985 22.4352 10.8107 22.4276 10.8239 22.4227C10.8372 22.4178 10.8513 22.4156 10.8655 22.4163H11.4604C11.4833 22.4188 11.5063 22.4136 11.5259 22.4017C11.5455 22.3898 11.5606 22.3717 11.569 22.3504C11.5773 22.329 11.5783 22.3054 11.5719 22.2834C11.5655 22.2613 11.552 22.242 11.5335 22.2284Z" fill="white"/>
<g opacity="0.6">
<path d="M65.615 143.351H69.6804C69.7584 143.35 69.8327 143.318 69.8874 143.262C69.942 143.207 69.9726 143.132 69.9726 143.054C69.9726 142.976 69.9418 142.902 69.887 142.847C69.8322 142.792 69.7579 142.762 69.6804 142.762H65.615C65.5375 142.762 65.4632 142.792 65.4083 142.847C65.3535 142.902 65.3228 142.976 65.3228 143.054C65.3227 143.132 65.3534 143.207 65.408 143.262C65.4627 143.318 65.537 143.35 65.615 143.351Z" fill="white"/>
<path d="M69.6804 144.238H65.615C65.5375 144.238 65.4632 144.269 65.4083 144.324C65.3535 144.379 65.3228 144.453 65.3228 144.531C65.3227 144.609 65.3534 144.683 65.408 144.739C65.4627 144.795 65.537 144.827 65.615 144.828H69.6804C69.7584 144.827 69.8327 144.795 69.8874 144.739C69.942 144.683 69.9726 144.609 69.9726 144.531C69.9726 144.453 69.9418 144.379 69.887 144.324C69.8322 144.269 69.7579 144.238 69.6804 144.238Z" fill="white"/>
<path d="M69.6804 145.742H65.615C65.5375 145.742 65.4632 145.773 65.4083 145.828C65.3535 145.883 65.3228 145.957 65.3228 146.034C65.3228 146.112 65.3535 146.186 65.4083 146.241C65.4632 146.296 65.5375 146.327 65.615 146.327H69.6804C69.7579 146.327 69.8322 146.296 69.887 146.241C69.9418 146.186 69.9726 146.112 69.9726 146.034C69.9726 145.957 69.9418 145.883 69.887 145.828C69.8322 145.773 69.7579 145.742 69.6804 145.742Z" fill="white"/>
<path d="M38.9108 144.242H37.173V142.504C37.1635 142.433 37.1283 142.367 37.0741 142.32C37.0199 142.272 36.9502 142.246 36.8782 142.246C36.8061 142.246 36.7364 142.272 36.6822 142.32C36.628 142.367 36.5928 142.433 36.5833 142.504V144.242H34.8455C34.768 144.242 34.6936 144.273 34.6388 144.328C34.584 144.382 34.5532 144.457 34.5532 144.534C34.5532 144.612 34.5838 144.687 34.6385 144.743C34.6932 144.798 34.7675 144.83 34.8455 144.832H36.5833V146.57C36.5928 146.641 36.628 146.707 36.6822 146.754C36.7364 146.802 36.8061 146.828 36.8782 146.828C36.9502 146.828 37.0199 146.802 37.0741 146.754C37.1283 146.707 37.1635 146.641 37.173 146.57V144.832H38.9108C38.9888 144.83 39.0632 144.798 39.1178 144.743C39.1725 144.687 39.2031 144.612 39.2031 144.534C39.2031 144.457 39.1723 144.382 39.1175 144.328C39.0627 144.273 38.9884 144.242 38.9108 144.242Z" fill="white"/>
<path d="M7.73424 142.626H4.50908C4.4306 142.627 4.35572 142.659 4.30022 142.714C4.24472 142.77 4.21295 142.845 4.21161 142.923V146.174C4.21298 146.252 4.24492 146.327 4.30056 146.381C4.3562 146.436 4.43108 146.467 4.50908 146.467H7.76033C7.83784 146.467 7.91217 146.436 7.96698 146.381C8.02179 146.326 8.05258 146.252 8.05258 146.174V142.923C8.05268 142.882 8.04435 142.842 8.02812 142.804C8.01188 142.767 7.98808 142.733 7.95821 142.705C7.92833 142.677 7.89303 142.656 7.8545 142.642C7.81596 142.628 7.77502 142.623 7.73424 142.626ZM7.43677 145.877H4.77523V143.2H7.43677V145.877Z" fill="white"/>
</g>
<g opacity="0.6">
<path d="M34.6837 134.688C34.633 134.687 34.5836 134.671 34.5428 134.641L32.4553 133.279C32.4215 133.263 32.3914 133.24 32.3672 133.212C32.3429 133.183 32.3251 133.15 32.3148 133.114C32.3045 133.078 32.3021 133.04 32.3076 133.003C32.3132 132.967 32.3266 132.931 32.347 132.9C32.3673 132.869 32.3942 132.842 32.4257 132.822C32.4572 132.802 32.4927 132.789 32.5297 132.784C32.5666 132.779 32.6043 132.781 32.6401 132.792C32.6759 132.803 32.709 132.821 32.7371 132.845L34.6889 134.114L36.6407 132.845C36.6991 132.807 36.77 132.794 36.8383 132.807C36.9066 132.821 36.9668 132.861 37.006 132.919C37.0433 132.977 37.056 133.047 37.0413 133.115C37.0267 133.182 36.9858 133.241 36.9278 133.279L34.8403 134.641C34.7946 134.673 34.7396 134.69 34.6837 134.688Z" fill="#DD5491"/>
<path d="M34.6837 133.619C34.6339 133.618 34.5852 133.604 34.5428 133.578L32.4553 132.216C32.3969 132.177 32.356 132.117 32.3413 132.049C32.3267 131.981 32.3395 131.909 32.3771 131.85C32.4153 131.793 32.4746 131.753 32.5421 131.74C32.6095 131.726 32.6796 131.739 32.7371 131.777L34.6889 133.045L36.6407 131.777C36.6989 131.739 36.7697 131.726 36.8378 131.74C36.9058 131.754 36.9654 131.795 37.0034 131.853C37.0415 131.911 37.0549 131.982 37.0407 132.05C37.0265 132.118 36.9859 132.177 36.9278 132.216L34.8403 133.578C34.793 133.606 34.7388 133.62 34.6837 133.619Z" fill="#DD5491"/>
</g>
<path opacity="0.1" d="M69.6594 44.6367C69.145 44.6381 68.652 44.8431 68.2882 45.2069C67.9244 45.5706 67.7195 46.0636 67.7181 46.5781V127.118C67.7181 127.633 67.9226 128.127 68.2867 128.491C68.6508 128.855 69.1446 129.06 69.6594 129.06C70.1743 129.06 70.6681 128.855 71.0322 128.491C71.3963 128.127 71.6008 127.633 71.6008 127.118V46.5781C71.6008 46.3231 71.5506 46.0707 71.453 45.8352C71.3555 45.5996 71.2125 45.3856 71.0322 45.2053C70.8519 45.0251 70.6379 44.8821 70.4024 44.7845C70.1668 44.6869 69.9144 44.6367 69.6594 44.6367Z" fill="black"/>
<path opacity="0.6" d="M69.6595 45.1836C69.2443 45.1836 68.846 45.3485 68.5524 45.6422C68.2588 45.9358 68.0939 46.334 68.0939 46.7492V57.6146C68.147 57.9878 68.3331 58.3292 68.6178 58.5763C68.9026 58.8233 69.2669 58.9593 69.6438 58.9593C70.0208 58.9593 70.3851 58.8233 70.6698 58.5763C70.9546 58.3292 71.1406 57.9878 71.1938 57.6146V46.7336C71.1898 46.3264 71.0274 45.9368 70.7409 45.6475C70.4545 45.3581 70.0666 45.1917 69.6595 45.1836Z" fill="white"/>
<path d="M31.3072 20.457L29.966 24.5642H28.9222L28.0194 21.7826L27.0852 24.5642H26.0415L24.6951 20.457H25.6814L26.6051 23.343L27.5758 20.457H28.5152L29.4545 23.3639L30.4096 20.457H31.3072Z" fill="white"/>
<path d="M31.7195 20.4577C31.7192 20.385 31.7341 20.3131 31.7632 20.2465C31.7923 20.1799 31.835 20.1201 31.8886 20.071C31.9421 20.0219 32.0053 19.9845 32.0742 19.9612C32.143 19.9379 32.2159 19.9292 32.2883 19.9358C32.3581 19.9294 32.4285 19.9371 32.4953 19.9585C32.5621 19.9799 32.6238 20.0145 32.6769 20.0603C32.73 20.106 32.7733 20.1621 32.8043 20.225C32.8353 20.2879 32.8533 20.3563 32.8572 20.4263C32.8385 20.564 32.7706 20.6901 32.666 20.7815C32.5614 20.8728 32.4272 20.9232 32.2883 20.9232C32.1495 20.9232 32.0153 20.8728 31.9107 20.7815C31.8061 20.6901 31.7382 20.564 31.7195 20.4263V20.4577ZM31.8291 21.4075H32.7476V24.5387H31.8291V21.4075Z" fill="white"/>
<path d="M33.2903 24.2745L33.5982 23.6169C33.9297 23.8143 34.3083 23.9189 34.6941 23.9196C35.1168 23.9196 35.2786 23.81 35.2786 23.6326C35.2786 23.1107 33.3686 23.6326 33.3686 22.3801C33.3686 21.7852 33.8904 21.3363 34.8298 21.3363C35.2515 21.3289 35.6688 21.4238 36.0458 21.6129L35.7379 22.2653C35.4615 22.1074 35.148 22.0264 34.8298 22.0304C34.4175 22.0304 34.2453 22.1557 34.2453 22.3227C34.2453 22.8446 36.1501 22.3227 36.1501 23.5856C36.1501 24.1701 35.6283 24.5876 34.6576 24.5876C34.1824 24.6039 33.7111 24.496 33.2903 24.2745Z" fill="white"/>
<path d="M39.9441 22.7564V24.5672H39.0256V22.8973C39.0256 22.3754 38.7908 22.1562 38.3889 22.1562C37.9871 22.1562 37.627 22.4224 37.627 23.0069V24.5725H36.7137V20.2148H37.627V21.7439C37.762 21.6182 37.9204 21.5203 38.0932 21.4558C38.2661 21.3913 38.4499 21.3616 38.6342 21.3682C38.8162 21.356 38.9987 21.3842 39.1685 21.4508C39.3383 21.5174 39.4913 21.6207 39.6165 21.7534C39.7417 21.8861 39.836 22.0448 39.8926 22.2182C39.9493 22.3916 39.9669 22.5754 39.9441 22.7564Z" fill="white"/>
<path d="M40.7687 20.207H41.6872V24.5647H40.7687V20.207Z" fill="white"/>
<path d="M42.423 20.4582C42.4227 20.3855 42.4376 20.3136 42.4667 20.247C42.4958 20.1804 42.5385 20.1206 42.5921 20.0715C42.6456 20.0224 42.7088 19.985 42.7777 19.9617C42.8465 19.9384 42.9195 19.9297 42.9919 19.9363C43.0621 19.9291 43.133 19.9363 43.2004 19.9573C43.2678 19.9784 43.3302 20.0129 43.3839 20.0587C43.4375 20.1046 43.4813 20.1608 43.5126 20.2241C43.5439 20.2874 43.562 20.3564 43.5659 20.4268C43.5663 20.5 43.5513 20.5724 43.5218 20.6394C43.4924 20.7064 43.4492 20.7664 43.3951 20.8156C43.341 20.8648 43.2771 20.9021 43.2076 20.925C43.1382 20.948 43.0646 20.956 42.9919 20.9487C42.922 20.9551 42.8516 20.9474 42.7849 20.926C42.7181 20.9047 42.6563 20.87 42.6032 20.8242C42.5502 20.7785 42.5068 20.7224 42.4759 20.6595C42.4449 20.5966 42.4269 20.5282 42.423 20.4582ZM42.5378 21.408H43.4511V24.5392H42.5378V21.408Z" fill="white"/>
<path d="M43.9991 24.2747L44.3018 23.6171C44.6333 23.8145 45.0119 23.9191 45.3977 23.9198C45.8204 23.9198 45.9822 23.8102 45.9822 23.6328C45.9822 23.1109 44.0721 23.6328 44.0721 22.3803C44.0721 21.7853 44.594 21.3365 45.5334 21.3365C45.9553 21.3274 46.3729 21.4224 46.7493 21.6131L46.4467 22.2655C46.1682 22.1081 45.8532 22.0271 45.5334 22.0306C45.1263 22.0306 44.9489 22.1559 44.9489 22.3229C44.9489 22.8447 46.8537 22.3229 46.8537 23.5858C46.8537 24.1703 46.3318 24.5878 45.3664 24.5878C44.891 24.6055 44.4194 24.4975 43.9991 24.2747Z" fill="white"/>
<path d="M49.4579 24.4123C49.2338 24.5499 48.9744 24.6188 48.7116 24.6106C48.5558 24.6318 48.3972 24.6174 48.2478 24.5687C48.0983 24.52 47.9618 24.4381 47.8484 24.3292C47.735 24.2204 47.6476 24.0873 47.5929 23.9399C47.5381 23.7925 47.5174 23.6347 47.5322 23.4782V22.1787H47.0416V21.4742H47.5322V20.707H48.4454V21.4742H49.2335V22.1787H48.4454V23.4677C48.4382 23.5218 48.4432 23.5767 48.4601 23.6286C48.4769 23.6804 48.5051 23.7279 48.5426 23.7674C48.5802 23.8069 48.6261 23.8376 48.677 23.857C48.7279 23.8765 48.7825 23.8844 48.8368 23.88C48.9696 23.8838 49.1 23.8434 49.2074 23.7652L49.4579 24.4123Z" fill="white"/>
<path opacity="0.3" d="M5.2136 29.5156H68.9497C69.2981 29.5149 69.6431 29.583 69.9651 29.716C70.287 29.849 70.5796 30.0443 70.8259 30.2906C71.0722 30.5369 71.2675 30.8294 71.4005 31.1514C71.5334 31.4733 71.6015 31.8184 71.6009 32.1667C71.6015 32.5153 71.5335 32.8606 71.4006 33.1829C71.2676 33.5051 71.0725 33.798 70.8262 34.0447C70.58 34.2915 70.2875 34.4872 69.9655 34.6208C69.6435 34.7543 69.2983 34.8231 68.9497 34.8231H5.2136C4.86477 34.8231 4.51935 34.7544 4.19707 34.6209C3.87479 34.4874 3.58196 34.2917 3.3353 34.045C3.08864 33.7984 2.89297 33.5055 2.75948 33.1833C2.62599 32.861 2.55728 32.5156 2.55728 32.1667C2.55728 31.8181 2.62602 31.473 2.75958 31.151C2.89314 30.829 3.08889 30.5365 3.33562 30.2903C3.58235 30.044 3.87522 29.8489 4.19747 29.7159C4.51972 29.583 4.86502 29.5149 5.2136 29.5156Z" fill="black"/>
<path d="M67.9425 32.8511C67.659 32.85 67.3872 32.7376 67.1858 32.5379C67.0853 32.4394 67.0057 32.3216 66.9519 32.1916C66.8981 32.0615 66.8712 31.922 66.8727 31.7812C66.8712 31.6405 66.8981 31.5009 66.9519 31.3709C67.0057 31.2408 67.0853 31.123 67.1858 31.0245C67.2852 30.9251 67.4031 30.8462 67.533 30.7924C67.6628 30.7386 67.802 30.7109 67.9425 30.7109C68.0831 30.7109 68.2222 30.7386 68.3521 30.7924C68.4819 30.8462 68.5999 30.9251 68.6992 31.0245C68.7997 31.123 68.8793 31.2408 68.9331 31.3709C68.9869 31.5009 69.0139 31.6405 69.0124 31.7812C69.0175 31.9263 68.9923 32.0709 68.9383 32.2057C68.8844 32.3404 68.803 32.4625 68.6992 32.564C68.4937 32.7541 68.2224 32.8571 67.9425 32.8511ZM67.9425 31.2333C67.8708 31.2314 67.7996 31.2444 67.7331 31.2713C67.6667 31.2983 67.6065 31.3386 67.5563 31.3898C67.505 31.4412 67.4643 31.5023 67.4365 31.5694C67.4087 31.6366 67.3945 31.7086 67.3946 31.7812C67.3934 31.8533 67.4072 31.9248 67.435 31.9913C67.4629 32.0577 67.5042 32.1177 67.5563 32.1674C67.6609 32.2658 67.799 32.3205 67.9425 32.3205C68.086 32.3205 68.2242 32.2658 68.3287 32.1674C68.3809 32.1177 68.4222 32.0577 68.45 31.9913C68.4779 31.9248 68.4916 31.8533 68.4905 31.7812C68.4905 31.7086 68.4763 31.6366 68.4485 31.5694C68.4208 31.5023 68.3801 31.4412 68.3287 31.3898C68.2785 31.3386 68.2184 31.2983 68.1519 31.2713C68.0855 31.2444 68.0142 31.2314 67.9425 31.2333Z" fill="white"/>
<path d="M69.5289 33.6087C69.4601 33.6078 69.3945 33.5796 69.3463 33.5305L68.3025 32.518C68.2544 32.4684 68.2275 32.4019 68.2275 32.3328C68.2275 32.2636 68.2544 32.1972 68.3025 32.1475C68.3268 32.123 68.3557 32.1036 68.3875 32.0904C68.4193 32.0771 68.4534 32.0703 68.4878 32.0703C68.5223 32.0703 68.5564 32.0771 68.5882 32.0904C68.62 32.1036 68.6488 32.123 68.6731 32.1475L69.6907 33.1651C69.7385 33.2139 69.7653 33.2795 69.7653 33.3478C69.7653 33.4161 69.7385 33.4817 69.6907 33.5305C69.6475 33.5745 69.5903 33.6022 69.5289 33.6087Z" fill="white"/>
<path opacity="0.6" d="M64.6286 73.3438H3.69496C3.06664 73.3438 2.55728 73.8531 2.55728 74.4814V99.1555C2.55728 99.7838 3.06664 100.293 3.69496 100.293H64.6286C65.257 100.293 65.7663 99.7838 65.7663 99.1555V74.4814C65.7663 73.8531 65.257 73.3438 64.6286 73.3438Z" fill="#DD5491"/>
<path d="M27.4245 75.9727H5.33365V96.2735H27.4245V75.9727Z" fill="#DD5491"/>
<path opacity="0.6" d="M27.4245 75.9727H5.33365V96.2735H27.4245V75.9727Z" fill="white"/>
<path opacity="0.3" d="M26.3546 77.0391H6.46088V95.1428H26.3546V77.0391Z" fill="white"/>
<path opacity="0.3" d="M26.3546 91.3101V95.1406H6.4661L6.46088 86.2897L10.568 82.6992L16.6582 88.6381L19.8834 86.2897L26.3546 91.3101Z" fill="white"/>
<g opacity="0.6">
<path d="M23.0407 82.6998C23.0407 83.0167 22.9468 83.3264 22.7707 83.5899C22.5947 83.8534 22.3445 84.0587 22.0517 84.18C21.759 84.3013 21.4368 84.333 21.126 84.2712C20.8153 84.2093 20.5298 84.0568 20.3057 83.8327C20.0817 83.6086 19.9291 83.3232 19.8672 83.0124C19.8054 82.7016 19.8371 82.3794 19.9584 82.0867C20.0797 81.7939 20.285 81.5437 20.5485 81.3677C20.812 81.1916 21.1217 81.0977 21.4386 81.0977C21.6492 81.097 21.8578 81.1379 22.0525 81.2182C22.2472 81.2985 22.4241 81.4165 22.573 81.5654C22.7219 81.7143 22.8399 81.8912 22.9202 82.0859C23.0005 82.2806 23.0414 82.4892 23.0407 82.6998Z" fill="white"/>
<path opacity="0.3" d="M23.0407 82.6998C23.0407 83.0167 22.9468 83.3264 22.7707 83.5899C22.5947 83.8534 22.3445 84.0587 22.0517 84.18C21.759 84.3013 21.4368 84.333 21.126 84.2712C20.8153 84.2093 20.5298 84.0568 20.3057 83.8327C20.0817 83.6086 19.9291 83.3232 19.8672 83.0124C19.8054 82.7016 19.8371 82.3794 19.9584 82.0867C20.0797 81.7939 20.285 81.5437 20.5485 81.3677C20.812 81.1916 21.1217 81.0977 21.4386 81.0977C21.6492 81.097 21.8578 81.1379 22.0525 81.2182C22.2472 81.2985 22.4241 81.4165 22.573 81.5654C22.7219 81.7143 22.8399 81.8912 22.9202 82.0859C23.0005 82.2806 23.0414 82.4892 23.0407 82.6998Z" fill="white"/>
</g>
<g opacity="0.3">
<path d="M53.0745 77.7071H31.4168C31.241 77.7071 31.0724 77.6372 30.9482 77.5129C30.8239 77.3887 30.754 77.2201 30.754 77.0443C30.754 76.9575 30.7712 76.8716 30.8046 76.7914C30.8379 76.7113 30.8869 76.6386 30.9485 76.5775C31.0101 76.5164 31.0832 76.468 31.1636 76.4353C31.244 76.4025 31.33 76.3861 31.4168 76.3867H53.0745C53.161 76.386 53.2468 76.4026 53.3269 76.4354C53.407 76.4682 53.4798 76.5166 53.541 76.5778C53.6022 76.639 53.6506 76.7117 53.6834 76.7918C53.7162 76.8719 53.7327 76.9577 53.732 77.0443C53.7327 77.1311 53.7162 77.2172 53.6835 77.2975C53.6507 77.3779 53.6024 77.451 53.5413 77.5126C53.4802 77.5743 53.4074 77.6232 53.3273 77.6565C53.2472 77.6899 53.1613 77.7071 53.0745 77.7071Z" fill="white"/>
<path d="M61.534 81.6641H31.4168C31.33 81.6648 31.244 81.6483 31.1636 81.6155C31.0832 81.5828 31.0101 81.5345 30.9485 81.4733C30.8869 81.4122 30.8379 81.3395 30.8046 81.2594C30.7712 81.1793 30.754 81.0933 30.754 81.0065C30.754 80.8307 30.8239 80.6622 30.9482 80.5379C31.0724 80.4136 31.241 80.3438 31.4168 80.3438H61.534C61.7098 80.3437 61.8784 80.4136 62.0027 80.5379C62.1269 80.6622 62.1968 80.8307 62.1968 81.0065C62.1968 81.0933 62.1796 81.1793 62.1462 81.2594C62.1129 81.3395 62.0639 81.4122 62.0023 81.4733C61.9407 81.5345 61.8676 81.5828 61.7872 81.6155C61.7069 81.6483 61.6208 81.6648 61.534 81.6641Z" fill="white"/>
<path d="M43.566 85.6368H31.4168C31.241 85.6368 31.0724 85.5669 30.9482 85.4426C30.8239 85.3183 30.754 85.1498 30.754 84.974C30.754 84.8872 30.7712 84.8013 30.8046 84.7211C30.8379 84.641 30.8869 84.5683 30.9485 84.5072C31.0101 84.446 31.0832 84.3977 31.1636 84.365C31.244 84.3322 31.33 84.3157 31.4168 84.3164H43.566C43.6525 84.3157 43.7383 84.3323 43.8184 84.3651C43.8985 84.3979 43.9713 84.4463 44.0325 84.5075C44.0937 84.5687 44.1421 84.6414 44.1749 84.7215C44.2077 84.8016 44.2242 84.8874 44.2235 84.974C44.2242 85.0608 44.2077 85.1468 44.175 85.2272C44.1422 85.3076 44.0939 85.3807 44.0328 85.4423C43.9717 85.5039 43.8989 85.5528 43.8188 85.5862C43.7387 85.6196 43.6528 85.6368 43.566 85.6368Z" fill="white"/>
</g>
<path d="M31.0149 92.3726C31.5994 91.4228 32.7215 91.7881 33.2955 92.5239C33.8748 91.7829 34.9916 91.4176 35.5813 92.3674C36.5677 93.9695 34.5376 95.4568 33.5773 96.0205L33.306 96.1875L33.0294 96.0205C32.0691 95.4621 30.0286 93.9799 31.0149 92.3726Z" fill="white"/>
<g opacity="0.6">
<path d="M40.0851 92.625H43.3311L43.1798 96.205H40.2416L40.0851 92.625Z" fill="white"/>
<path d="M42.3187 91.778L42.1673 91.4648H41.2541L41.0975 91.778L39.7928 91.9293V92.2842H43.6286V91.9293L42.3187 91.778Z" fill="white"/>
</g>
<g opacity="0.6">
<path d="M52.1873 91.6043H51.3523C51.3068 91.6035 51.2625 91.6188 51.2272 91.6474C51.1919 91.6761 51.1678 91.7162 51.1592 91.7609L51.1018 92.0323H47.0729H47.0364H47.0051C47.0051 92.0323 47.0051 92.0323 46.979 92.0584V92.0897V92.121C46.9764 92.1348 46.9764 92.1489 46.979 92.1627L47.4069 94.579C47.4154 94.6242 47.4393 94.665 47.4745 94.6945C47.5097 94.724 47.5541 94.7404 47.6 94.7408H50.8147C50.8602 94.7416 50.9045 94.7264 50.9398 94.6977C50.9752 94.6691 50.9992 94.6289 51.0078 94.5842L51.4932 92.2149C51.498 92.1873 51.498 92.1591 51.4932 92.1314L51.5349 91.907H52.2134C52.2598 91.8994 52.302 91.8756 52.3324 91.8397C52.3629 91.8039 52.3796 91.7584 52.3796 91.7113C52.3796 91.6643 52.3629 91.6188 52.3324 91.5829C52.302 91.5471 52.2598 91.5232 52.2134 91.5156L52.1873 91.6043ZM50.8565 93.2535H50.0111L50.058 92.4237H51.0235L50.8565 93.2535ZM48.769 93.2535L48.7325 92.4237H49.6718L49.6249 93.2535H48.769ZM49.604 93.6449L49.557 94.4485H48.8264L48.7899 93.6449H49.604ZM47.3652 92.4237H48.3463L48.3828 93.2535H47.5165L47.3652 92.4237ZM47.5791 93.6449H48.3985L48.435 94.4485H47.7201L47.5791 93.6449ZM50.6164 94.4485H49.9484L49.9954 93.6449H50.7782L50.6164 94.4485Z" fill="white"/>
<path d="M47.7357 95.2344C47.6385 95.2334 47.5431 95.2613 47.4618 95.3145C47.3804 95.3678 47.3167 95.444 47.2788 95.5336C47.2409 95.6231 47.2304 95.7219 47.2487 95.8174C47.2671 95.9129 47.3134 96.0008 47.3818 96.0699C47.4502 96.1391 47.5375 96.1863 47.6328 96.2057C47.7281 96.225 47.827 96.2156 47.917 96.1787C48.0069 96.1417 48.0839 96.0788 48.138 95.998C48.1921 95.9173 48.221 95.8222 48.221 95.725C48.221 95.5958 48.1701 95.4718 48.0792 95.3799C47.9883 95.2881 47.8649 95.2358 47.7357 95.2344Z" fill="white"/>
<path d="M50.987 95.2344C50.8897 95.2334 50.7944 95.2613 50.713 95.3145C50.6317 95.3678 50.568 95.444 50.5301 95.5336C50.4921 95.6231 50.4817 95.7219 50.5 95.8174C50.5183 95.9129 50.5646 96.0008 50.633 96.0699C50.7014 96.1391 50.7888 96.1863 50.8841 96.2057C50.9794 96.225 51.0783 96.2156 51.1683 96.1787C51.2582 96.1417 51.3351 96.0788 51.3893 95.998C51.4434 95.9173 51.4723 95.8222 51.4723 95.725C51.4723 95.5958 51.4214 95.4718 51.3305 95.3799C51.2396 95.2881 51.1162 95.2358 50.987 95.2344Z" fill="white"/>
</g>
<path opacity="0.6" d="M64.6286 102.047H3.69496C3.06664 102.047 2.55728 102.556 2.55728 103.185V127.859C2.55728 128.487 3.06664 128.996 3.69496 128.996H64.6286C65.257 128.996 65.7663 128.487 65.7663 127.859V103.185C65.7663 102.556 65.257 102.047 64.6286 102.047Z" fill="#DD5491"/>
<path d="M27.4245 104.676H5.33365V124.977H27.4245V104.676Z" fill="#DD5491"/>
<path opacity="0.6" d="M27.4245 104.676H5.33365V124.977H27.4245V104.676Z" fill="white"/>
<path opacity="0.3" d="M26.3546 105.742H6.46088V123.846H26.3546V105.742Z" fill="white"/>
<path opacity="0.3" d="M26.3546 120.017V123.848H6.4661L6.46088 114.997L10.568 111.406L16.6582 117.345L19.8834 114.997L26.3546 120.017Z" fill="white"/>
<g opacity="0.6">
<path d="M23.0407 111.403C23.0407 111.72 22.9468 112.03 22.7707 112.293C22.5947 112.557 22.3445 112.762 22.0517 112.883C21.759 113.004 21.4368 113.036 21.126 112.974C20.8153 112.912 20.5298 112.76 20.3057 112.536C20.0817 112.312 19.9291 112.026 19.8672 111.716C19.8054 111.405 19.8371 111.083 19.9584 110.79C20.0797 110.497 20.285 110.247 20.5485 110.071C20.812 109.895 21.1217 109.801 21.4386 109.801C21.6492 109.8 21.8578 109.841 22.0525 109.921C22.2472 110.002 22.4241 110.12 22.573 110.269C22.7219 110.417 22.8399 110.594 22.9202 110.789C23.0005 110.984 23.0414 111.192 23.0407 111.403Z" fill="white"/>
<path opacity="0.3" d="M23.0407 111.403C23.0407 111.72 22.9468 112.03 22.7707 112.293C22.5947 112.557 22.3445 112.762 22.0517 112.883C21.759 113.004 21.4368 113.036 21.126 112.974C20.8153 112.912 20.5298 112.76 20.3057 112.536C20.0817 112.312 19.9291 112.026 19.8672 111.716C19.8054 111.405 19.8371 111.083 19.9584 110.79C20.0797 110.497 20.285 110.247 20.5485 110.071C20.812 109.895 21.1217 109.801 21.4386 109.801C21.6492 109.8 21.8578 109.841 22.0525 109.921C22.2472 110.002 22.4241 110.12 22.573 110.269C22.7219 110.417 22.8399 110.594 22.9202 110.789C23.0005 110.984 23.0414 111.192 23.0407 111.403Z" fill="white"/>
</g>
<g opacity="0.3">
<path d="M53.0745 106.41H31.4168C31.241 106.41 31.0724 106.34 30.9482 106.216C30.8239 106.092 30.754 105.923 30.754 105.747C30.754 105.661 30.7712 105.575 30.8046 105.495C30.8379 105.414 30.8869 105.342 30.9485 105.281C31.0101 105.219 31.0832 105.171 31.1636 105.138C31.244 105.106 31.33 105.089 31.4168 105.09H53.0745C53.161 105.089 53.2468 105.106 53.3269 105.139C53.407 105.171 53.4798 105.22 53.541 105.281C53.6022 105.342 53.6506 105.415 53.6834 105.495C53.7162 105.575 53.7327 105.661 53.732 105.747C53.7327 105.834 53.7162 105.92 53.6835 106.001C53.6507 106.081 53.6024 106.154 53.5413 106.216C53.4802 106.277 53.4074 106.326 53.3273 106.36C53.2472 106.393 53.1613 106.41 53.0745 106.41Z" fill="white"/>
<path d="M61.534 110.367H31.4168C31.33 110.368 31.244 110.351 31.1636 110.319C31.0832 110.286 31.0101 110.238 30.9485 110.176C30.8869 110.115 30.8379 110.043 30.8046 109.963C30.7712 109.882 30.754 109.796 30.754 109.71C30.754 109.534 30.8239 109.365 30.9482 109.241C31.0724 109.117 31.241 109.047 31.4168 109.047H61.534C61.7098 109.047 61.8784 109.117 62.0027 109.241C62.1269 109.365 62.1968 109.534 62.1968 109.71C62.1968 109.796 62.1796 109.882 62.1462 109.963C62.1129 110.043 62.0639 110.115 62.0023 110.176C61.9407 110.238 61.8676 110.286 61.7872 110.319C61.7069 110.351 61.6208 110.368 61.534 110.367Z" fill="white"/>
<path d="M43.566 114.34H31.4168C31.241 114.34 31.0724 114.27 30.9482 114.146C30.8239 114.021 30.754 113.853 30.754 113.677C30.754 113.59 30.7712 113.504 30.8046 113.424C30.8379 113.344 30.8869 113.271 30.9485 113.21C31.0101 113.149 31.0832 113.101 31.1636 113.068C31.244 113.035 31.33 113.019 31.4168 113.02H43.566C43.6525 113.019 43.7383 113.035 43.8184 113.068C43.8985 113.101 43.9713 113.149 44.0325 113.211C44.0937 113.272 44.1421 113.345 44.1749 113.425C44.2077 113.505 44.2242 113.591 44.2235 113.677C44.2242 113.764 44.2077 113.85 44.175 113.93C44.1422 114.011 44.0939 114.084 44.0328 114.145C43.9717 114.207 43.8989 114.256 43.8188 114.289C43.7387 114.323 43.6528 114.34 43.566 114.34Z" fill="white"/>
</g>
<path d="M31.0149 121.076C31.5994 120.126 32.7215 120.491 33.2955 121.227C33.8748 120.486 34.9916 120.121 35.5813 121.07C36.5677 122.673 34.5376 124.16 33.5773 124.724L33.306 124.891L33.0294 124.724C32.0691 124.165 30.0286 122.683 31.0149 121.076Z" fill="white"/>
<g opacity="0.6">
<path d="M40.0851 121.324H43.3311L43.1798 124.909H40.2416L40.0851 121.324Z" fill="white"/>
<path d="M42.3187 120.481L42.1673 120.168H41.2541L41.0975 120.481L39.7928 120.632V120.987H43.6286V120.632L42.3187 120.481Z" fill="white"/>
</g>
<g opacity="0.6">
<path d="M52.1873 120.304H51.3523C51.3068 120.303 51.2625 120.318 51.2272 120.347C51.1919 120.375 51.1678 120.415 51.1592 120.46L51.1018 120.731H47.0729H47.0364H47.0051L46.979 120.758V120.789V120.82C46.9764 120.834 46.9764 120.848 46.979 120.862L47.4069 123.278C47.4154 123.323 47.4393 123.364 47.4745 123.394C47.5097 123.423 47.5541 123.44 47.6 123.44H50.8147C50.8602 123.441 50.9045 123.426 50.9398 123.397C50.9752 123.368 50.9992 123.328 51.0078 123.283L51.4932 120.914C51.498 120.887 51.498 120.858 51.4932 120.831L51.5349 120.606H52.2134C52.2598 120.599 52.302 120.575 52.3324 120.539C52.3629 120.503 52.3796 120.458 52.3796 120.411C52.3796 120.364 52.3629 120.318 52.3324 120.282C52.302 120.246 52.2598 120.222 52.2134 120.215L52.1873 120.304ZM50.8565 121.953H50.0111L50.058 121.123H51.0235L50.8565 121.953ZM48.769 121.953L48.7325 121.123H49.6718L49.6249 121.953H48.769ZM49.604 122.344L49.557 123.148H48.8264L48.7899 122.344H49.604ZM47.3652 121.123H48.3463L48.3828 121.953H47.5165L47.3652 121.123ZM47.5791 122.344H48.3985L48.435 123.148H47.7201L47.5791 122.344ZM50.6164 123.148H49.9484L49.9954 122.344H50.7782L50.6164 123.148Z" fill="white"/>
<path d="M47.7357 123.934C47.6385 123.933 47.5431 123.96 47.4618 124.014C47.3804 124.067 47.3167 124.143 47.2788 124.233C47.2409 124.322 47.2304 124.421 47.2487 124.517C47.2671 124.612 47.3134 124.7 47.3818 124.769C47.4502 124.838 47.5375 124.886 47.6328 124.905C47.7281 124.924 47.827 124.915 47.917 124.878C48.0069 124.841 48.0839 124.778 48.138 124.697C48.1921 124.616 48.221 124.521 48.221 124.424C48.221 124.295 48.1701 124.171 48.0792 124.079C47.9883 123.987 47.8649 123.935 47.7357 123.934Z" fill="white"/>
<path d="M50.987 123.934C50.8897 123.933 50.7944 123.96 50.713 124.014C50.6317 124.067 50.568 124.143 50.5301 124.233C50.4921 124.322 50.4817 124.421 50.5 124.517C50.5183 124.612 50.5646 124.7 50.633 124.769C50.7014 124.838 50.7888 124.886 50.8841 124.905C50.9794 124.924 51.0783 124.915 51.1683 124.878C51.2582 124.841 51.3351 124.778 51.3893 124.697C51.4434 124.616 51.4723 124.521 51.4723 124.424C51.4723 124.295 51.4214 124.171 51.3305 124.079C51.2396 123.987 51.1162 123.935 50.987 123.934Z" fill="white"/>
</g>
<path opacity="0.6" d="M64.6286 44.6367H3.69496C3.06664 44.6367 2.55728 45.1461 2.55728 45.7744V70.4485C2.55728 71.0768 3.06664 71.5862 3.69496 71.5862H64.6286C65.257 71.5862 65.7663 71.0768 65.7663 70.4485V45.7744C65.7663 45.1461 65.257 44.6367 64.6286 44.6367Z" fill="#DD5491"/>
<path d="M27.4245 47.2656H5.33365V67.5664H27.4245V47.2656Z" fill="#DD5491"/>
<path opacity="0.6" d="M27.4245 47.2656H5.33365V67.5664H27.4245V47.2656Z" fill="white"/>
<path opacity="0.3" d="M26.3546 48.3359H6.46088V66.4397H26.3546V48.3359Z" fill="white"/>
<path opacity="0.3" d="M26.3546 62.607V66.4375H6.4661L6.46088 57.5866L10.568 53.9961L16.6582 59.935L19.8834 57.5866L26.3546 62.607Z" fill="white"/>
<g opacity="0.6">
<path d="M23.0407 53.9928C23.0407 54.3096 22.9468 54.6194 22.7707 54.8829C22.5947 55.1463 22.3445 55.3517 22.0517 55.473C21.759 55.5942 21.4368 55.626 21.126 55.5641C20.8153 55.5023 20.5298 55.3497 20.3057 55.1257C20.0817 54.9016 19.9291 54.6161 19.8672 54.3053C19.8054 53.9945 19.8371 53.6724 19.9584 53.3797C20.0797 53.0869 20.285 52.8367 20.5485 52.6606C20.812 52.4846 21.1217 52.3906 21.4386 52.3906C21.6492 52.3899 21.8578 52.4309 22.0525 52.5112C22.2472 52.5915 22.4241 52.7094 22.573 52.8583C22.7219 53.0073 22.8399 53.1842 22.9202 53.3788C23.0005 53.5735 23.0414 53.7822 23.0407 53.9928Z" fill="white"/>
<path opacity="0.3" d="M23.0407 53.9928C23.0407 54.3096 22.9468 54.6194 22.7707 54.8829C22.5947 55.1463 22.3445 55.3517 22.0517 55.473C21.759 55.5942 21.4368 55.626 21.126 55.5641C20.8153 55.5023 20.5298 55.3497 20.3057 55.1257C20.0817 54.9016 19.9291 54.6161 19.8672 54.3053C19.8054 53.9945 19.8371 53.6724 19.9584 53.3797C20.0797 53.0869 20.285 52.8367 20.5485 52.6606C20.812 52.4846 21.1217 52.3906 21.4386 52.3906C21.6492 52.3899 21.8578 52.4309 22.0525 52.5112C22.2472 52.5915 22.4241 52.7094 22.573 52.8583C22.7219 53.0073 22.8399 53.1842 22.9202 53.3788C23.0005 53.5735 23.0414 53.7822 23.0407 53.9928Z" fill="white"/>
</g>
<g opacity="0.3">
<path d="M53.0745 49.0039H31.4168C31.3298 49.0039 31.2436 48.9868 31.1632 48.9535C31.0828 48.9202 31.0097 48.8714 30.9482 48.8098C30.8866 48.7483 30.8378 48.6752 30.8045 48.5948C30.7712 48.5144 30.754 48.4282 30.754 48.3412C30.754 48.2544 30.7712 48.1684 30.8046 48.0883C30.8379 48.0082 30.8869 47.9355 30.9485 47.8744C31.0101 47.8132 31.0832 47.7649 31.1636 47.7322C31.244 47.6994 31.33 47.6829 31.4168 47.6836H53.0745C53.161 47.6829 53.2468 47.6995 53.3269 47.7323C53.407 47.7651 53.4798 47.8135 53.541 47.8747C53.6022 47.9359 53.6506 48.0086 53.6834 48.0887C53.7162 48.1688 53.7327 48.2546 53.732 48.3412C53.7327 48.428 53.7162 48.514 53.6835 48.5944C53.6507 48.6748 53.6024 48.7479 53.5413 48.8095C53.4802 48.8711 53.4074 48.92 53.3273 48.9534C53.2472 48.9868 53.1613 49.004 53.0745 49.0039Z" fill="white"/>
<path d="M61.534 52.961H31.4168C31.33 52.9616 31.244 52.9452 31.1636 52.9124C31.0832 52.8797 31.0101 52.8313 30.9485 52.7702C30.8869 52.7091 30.8379 52.6364 30.8046 52.5562C30.7712 52.4761 30.754 52.3902 30.754 52.3034C30.754 52.1276 30.8239 51.959 30.9482 51.8348C31.0724 51.7105 31.241 51.6406 31.4168 51.6406H61.534C61.7098 51.6406 61.8784 51.7105 62.0027 51.8348C62.1269 51.959 62.1968 52.1276 62.1968 52.3034C62.1968 52.3902 62.1796 52.4761 62.1462 52.5562C62.1129 52.6364 62.0639 52.7091 62.0023 52.7702C61.9407 52.8313 61.8676 52.8797 61.7872 52.9124C61.7069 52.9452 61.6208 52.9616 61.534 52.961Z" fill="white"/>
<path d="M43.566 56.9336H31.4168C31.241 56.9336 31.0724 56.8638 30.9482 56.7395C30.8239 56.6152 30.754 56.4466 30.754 56.2709C30.754 56.1841 30.7712 56.0981 30.8046 56.018C30.8379 55.9379 30.8869 55.8652 30.9485 55.804C31.0101 55.7429 31.0832 55.6946 31.1636 55.6618C31.244 55.6291 31.33 55.6126 31.4168 55.6133H43.566C43.6525 55.6126 43.7383 55.6291 43.8184 55.6619C43.8985 55.6947 43.9713 55.7431 44.0325 55.8043C44.0937 55.8655 44.1421 55.9383 44.1749 56.0184C44.2077 56.0985 44.2242 56.1843 44.2235 56.2709C44.2242 56.3576 44.2077 56.4437 44.175 56.5241C44.1422 56.6045 44.0939 56.6776 44.0328 56.7392C43.9717 56.8008 43.8989 56.8497 43.8188 56.8831C43.7387 56.9165 43.6528 56.9336 43.566 56.9336Z" fill="white"/>
</g>
<path d="M31.0149 63.6656C31.5994 62.7157 32.7215 63.0811 33.2955 63.8169C33.8748 63.0758 34.9916 62.7105 35.5813 63.6603C36.5677 65.2625 34.5376 66.7498 33.5773 67.3134L33.306 67.4804L33.0294 67.3134C32.0691 66.755 30.0286 65.2729 31.0149 63.6656Z" fill="white"/>
<g opacity="0.6">
<path d="M40.0851 63.9219H43.3311L43.1798 67.5019H40.2416L40.0851 63.9219Z" fill="white"/>
<path d="M42.3187 63.0748L42.1673 62.7617H41.2541L41.0975 63.0748L39.7928 63.2262V63.5811H43.6286V63.2262L42.3187 63.0748Z" fill="white"/>
</g>
<g opacity="0.6">
<path d="M52.1873 62.9012H51.3523C51.3068 62.9004 51.2625 62.9157 51.2272 62.9443C51.1919 62.9729 51.1678 63.0131 51.1592 63.0578L51.1018 63.3292H47.0729H47.0364H47.0051C47.0051 63.3292 47.0051 63.3292 46.979 63.3553V63.3866V63.4179C46.9764 63.4317 46.9764 63.4458 46.979 63.4596L47.4069 65.8759C47.4154 65.921 47.4393 65.9619 47.4745 65.9914C47.5097 66.0209 47.5541 66.0372 47.6 66.0377H50.8147C50.8602 66.0385 50.9045 66.0232 50.9398 65.9946C50.9752 65.9659 50.9992 65.9258 51.0078 65.8811L51.4932 63.5118C51.498 63.4842 51.498 63.4559 51.4932 63.4283L51.5349 63.2039H52.2134C52.2598 63.1963 52.302 63.1724 52.3324 63.1366C52.3629 63.1007 52.3796 63.0552 52.3796 63.0082C52.3796 62.9612 52.3629 62.9157 52.3324 62.8798C52.302 62.844 52.2598 62.8201 52.2134 62.8125L52.1873 62.9012ZM50.8565 64.5503H50.0111L50.058 63.7206H51.0235L50.8565 64.5503ZM48.769 64.5503L48.7325 63.7206H49.6718L49.6249 64.5503H48.769ZM49.604 64.9417L49.557 65.7454H48.8264L48.7899 64.9417H49.604ZM47.3652 63.7206H48.3463L48.3828 64.5503H47.5165L47.3652 63.7206ZM47.5791 64.9417H48.3985L48.435 65.7454H47.7201L47.5791 64.9417ZM50.6164 65.7454H49.9484L49.9954 64.9417H50.7782L50.6164 65.7454Z" fill="white"/>
<path d="M47.7357 66.5313C47.6385 66.5302 47.5431 66.5581 47.4618 66.6114C47.3804 66.6647 47.3167 66.7409 47.2788 66.8305C47.2409 66.92 47.2304 67.0188 47.2487 67.1143C47.2671 67.2098 47.3134 67.2977 47.3818 67.3668C47.4502 67.436 47.5375 67.4832 47.6328 67.5026C47.7281 67.5219 47.827 67.5125 47.917 67.4755C48.0069 67.4386 48.0839 67.3757 48.138 67.2949C48.1921 67.2141 48.221 67.1191 48.221 67.0218C48.221 66.8926 48.1701 66.7686 48.0792 66.6768C47.9883 66.5849 47.8649 66.5327 47.7357 66.5313Z" fill="white"/>
<path d="M50.987 66.5313C50.8897 66.5302 50.7944 66.5581 50.713 66.6114C50.6317 66.6647 50.568 66.7409 50.5301 66.8305C50.4921 66.92 50.4817 67.0188 50.5 67.1143C50.5183 67.2098 50.5646 67.2977 50.633 67.3668C50.7014 67.436 50.7888 67.4832 50.8841 67.5026C50.9794 67.5219 51.0783 67.5125 51.1683 67.4755C51.2582 67.4386 51.3351 67.3757 51.3893 67.2949C51.4434 67.2141 51.4723 67.1191 51.4723 67.0218C51.4723 66.8926 51.4214 66.7686 51.3305 66.6768C51.2396 66.5849 51.1162 66.5327 50.987 66.5313Z" fill="white"/>
</g>
<path d="M113.142 87.9467L108.81 91.8399C108.81 91.8399 110.486 93.1602 110.94 93.6247C111.394 94.0891 108.962 95.6182 108.241 95.1903C107.521 94.7623 106.436 92.8523 106.024 92.0591C105.611 91.2658 107.589 89.9977 107.589 89.9977L111.091 86.5898L113.142 87.9467Z" fill="#B97964"/>
<path d="M120.318 79.5401C120.166 82.6713 112.208 89.273 112.208 89.273L109.703 87.6291C109.703 87.6291 116.075 80.8917 115.245 78.8564C114.953 78.1415 113.94 77.2386 112.756 76.3775C111.165 75.2607 109.508 74.2429 107.793 73.3298L109.624 68.8261L111.07 65.2773C113.763 66.3785 120.474 76.4402 120.318 79.5401Z" fill="#DD5491"/>
<path opacity="0.2" d="M112.756 76.4069C111.165 75.2901 109.508 74.2723 107.793 73.3592L109.624 68.8555C111.117 70.395 113.418 73.3697 112.756 76.4069Z" fill="black"/>
<path d="M69.67 67.7647L60.6833 64.1116C60.6833 64.1116 59.984 62.9478 59.3839 62.7965C58.7837 62.6452 55.0784 62.8748 54.7966 63.3184C54.5148 63.762 55.0941 66.5696 55.8404 66.8045C56.5866 67.0393 59.7701 66.387 60.0466 66.2095L68.0782 70.3167L69.67 67.7647Z" fill="#B97964"/>
<path d="M120.965 179.004L117.687 179.583L116.346 175.116L115.12 171.02L118.898 169.699L119.994 174.626L120.965 179.004Z" fill="#B97964"/>
<path opacity="0.2" d="M120.01 174.72L116.362 175.2L115.125 171.056L118.898 169.715L120.01 174.72Z" fill="black"/>
<path d="M99.093 179.083H95.7687L95.2208 174.621L94.725 170.452L98.6755 169.852L98.8999 174.747L99.093 179.083Z" fill="#B97964"/>
<path opacity="0.2" d="M98.8999 175.043L95.2208 174.881L94.725 170.581L98.6755 169.918L98.8999 175.043Z" fill="black"/>
<path d="M120.318 171.138L114.932 172.088C109.499 158.519 105.632 147.242 102.929 137.864C101.457 132.802 100.293 128.303 99.4114 124.295L99.641 139.033V172.281H94.1822C80.8797 109.135 90.31 94.4545 90.31 94.4545L106.222 91.793C106.852 94.7422 107.298 97.7279 107.558 100.733L108.273 106.009L114.493 138.14L120.318 171.138Z" fill="#F598AF"/>
<path d="M114.092 171.424L120.772 169.211L120.678 172.05L115.156 173.814L114.092 171.424Z" fill="#DD5491"/>
<path opacity="0.6" d="M114.092 171.424L120.772 169.211L120.678 172.05L115.156 173.814L114.092 171.424Z" fill="white"/>
<path d="M93.4673 171.732L100.434 170.715L99.8498 173.496L94.104 174.274L93.4673 171.732Z" fill="#DD5491"/>
<path opacity="0.6" d="M93.4673 171.732L100.434 170.715L99.8498 173.496L94.104 174.274L93.4673 171.732Z" fill="white"/>
<path opacity="0.2" d="M103.665 140.345C103.409 139.504 103.143 138.68 102.908 137.866C101.577 133.273 100.685 129.14 99.641 125.435L99.1191 118.609C99.1191 118.609 102.522 111.109 101.248 105.828C101.363 106.131 103.618 111.882 102.736 117.622C102.529 125.209 102.84 132.8 103.665 140.345Z" fill="black"/>
<path d="M103.028 59.9519C102.994 59.9924 102.955 60.0291 102.913 60.0615C102.366 60.6028 101.717 61.0303 101.003 61.3192C98.9156 62.0968 97.397 61.9872 96.3063 61.1365C94.772 59.8475 94.104 57.2956 93.89 54.1435C93.7644 52.8925 93.8384 51.6294 94.1092 50.4017C94.1066 50.3844 94.1066 50.3668 94.1092 50.3495C94.1092 50.3077 94.1092 50.2503 94.1457 50.2086C94.3244 49.5132 94.6745 48.8738 95.1641 48.3486C95.6537 47.8235 96.267 47.4295 96.9482 47.2026C97.5373 46.9877 98.148 46.8372 98.7695 46.7538C104.86 45.9083 107.255 55.8709 103.028 59.9519Z" fill="#B97964"/>
<path opacity="0.2" d="M102.913 60.0594C102.355 60.5743 101.701 60.9734 100.987 61.2337C98.8999 62.006 97.3761 61.8286 96.2906 60.9623C97.6205 61.1177 98.9646 60.8316 100.116 60.1482C100.545 59.9231 101.02 59.7982 101.504 59.7829C101.989 59.7675 102.47 59.8621 102.913 60.0594Z" fill="black"/>
<path d="M104.62 64.7751C105.585 66.2833 103.706 67.7393 103.706 67.7393C99.6775 67.5462 98.3467 65.9336 98.3467 65.9336C100.69 63.3242 98.2632 59.3789 98.2632 59.3789L98.9626 59.4467L103.404 58.7266C103.404 58.7266 103.075 61.3359 103.106 61.9152C103.299 64.8481 104.62 64.7751 104.62 64.7751Z" fill="#B97964"/>
<path d="M94.0988 50.3631C94.0988 50.3631 94.3128 54.6789 98.5973 55.9993C98.5973 55.9993 100.909 60.216 103.477 59.9498C106.984 59.5897 109.421 54.2092 107.563 49.3193C105.157 42.9577 95.1426 43.6988 94.0988 50.3631Z" fill="#263238"/>
<path d="M96.3898 55.0365C96.3063 54.3685 96.6977 53.1786 97.7571 53.1995C98.8165 53.2204 99.782 55.8088 97.2352 56.7169C96.8803 56.8526 96.5672 56.4299 96.3898 55.0365Z" fill="#B97964"/>
<path d="M95.4138 178.45H99.1295C99.2061 178.451 99.28 178.478 99.3396 178.527C99.3991 178.575 99.4409 178.641 99.4583 178.716L100.22 182.16C100.235 182.234 100.236 182.309 100.222 182.383C100.208 182.457 100.18 182.527 100.138 182.589C100.097 182.652 100.044 182.705 99.9819 182.747C99.9198 182.789 99.85 182.819 99.7766 182.834C99.7351 182.839 99.693 182.839 99.6514 182.834C98.1328 182.807 98.0127 182.714 96.1027 182.714C94.9285 182.714 91.3797 182.839 89.7567 182.839C88.1337 182.839 87.9249 181.237 88.5877 181.085C91.5676 180.438 93.8064 179.52 94.7667 178.68C94.9452 178.523 95.1767 178.441 95.4138 178.45Z" fill="#263238"/>
<path d="M94.1353 179.131C93.8736 179.152 93.6125 179.084 93.3942 178.938C93.3161 178.878 93.2565 178.797 93.2223 178.705C93.1881 178.612 93.1808 178.512 93.2011 178.416C93.2005 178.363 93.2149 178.311 93.2426 178.266C93.2703 178.22 93.3102 178.184 93.3577 178.16C93.7856 177.941 95.0381 178.708 95.1738 178.797C95.1898 178.805 95.2027 178.818 95.2103 178.834C95.2179 178.85 95.2197 178.868 95.2155 178.886C95.2139 178.904 95.2064 178.922 95.1942 178.936C95.1821 178.95 95.1658 178.96 95.1477 178.964C94.8173 179.056 94.4778 179.112 94.1353 179.131ZM93.5612 178.333C93.5219 178.322 93.4805 178.322 93.4412 178.333C93.4412 178.333 93.389 178.369 93.3838 178.442C93.3765 178.502 93.3835 178.564 93.4044 178.621C93.4253 178.678 93.4593 178.729 93.5038 178.771C93.9372 178.969 94.4297 178.995 94.8815 178.844C94.4786 178.59 94.0303 178.416 93.5612 178.333Z" fill="#DD5491"/>
<path d="M95.1269 178.997H95.0799C94.6833 178.783 93.9109 177.927 93.9892 177.52C94.0025 177.453 94.0389 177.392 94.0922 177.348C94.1455 177.304 94.2124 177.28 94.2814 177.28C94.3514 177.273 94.4221 177.28 94.4894 177.3C94.5566 177.321 94.619 177.355 94.6728 177.4C95.1216 177.76 95.1947 178.872 95.1947 178.929C95.1956 178.946 95.1923 178.962 95.1849 178.977C95.1776 178.991 95.1666 179.004 95.153 179.013C95.1432 179.01 95.1344 179.004 95.1269 178.997ZM94.3493 177.432H94.3023C94.1875 177.432 94.177 177.505 94.1718 177.526C94.1196 177.776 94.6154 178.423 95.0121 178.721C94.9844 178.28 94.8243 177.858 94.5528 177.51C94.4966 177.459 94.4247 177.43 94.3493 177.426V177.432Z" fill="#DD5491"/>
<path d="M117.562 178.45H121.273C121.35 178.45 121.425 178.476 121.484 178.524C121.544 178.573 121.586 178.641 121.601 178.716L122.363 182.16C122.379 182.233 122.381 182.309 122.367 182.382C122.354 182.456 122.326 182.526 122.285 182.589C122.244 182.651 122.191 182.705 122.13 182.747C122.068 182.789 121.998 182.819 121.925 182.834H121.8C120.281 182.808 120.156 182.714 118.251 182.714C117.072 182.714 113.528 182.839 111.905 182.839C110.282 182.839 110.068 181.237 110.736 181.085C113.716 180.438 115.955 179.52 116.91 178.68C117.09 178.523 117.323 178.441 117.562 178.45Z" fill="#263238"/>
<path d="M116.283 179.131C116.02 179.152 115.757 179.084 115.537 178.938C115.463 178.875 115.406 178.794 115.373 178.702C115.34 178.611 115.332 178.512 115.349 178.416C115.348 178.363 115.362 178.31 115.39 178.265C115.418 178.22 115.458 178.183 115.506 178.16C115.934 177.941 117.181 178.708 117.322 178.797C117.337 178.805 117.35 178.819 117.357 178.835C117.365 178.851 117.367 178.868 117.364 178.886C117.361 178.904 117.354 178.921 117.342 178.935C117.329 178.949 117.314 178.959 117.296 178.964C116.965 179.056 116.626 179.112 116.283 179.131ZM115.704 178.333C115.667 178.323 115.627 178.323 115.589 178.333C115.563 178.333 115.532 178.369 115.532 178.442C115.523 178.503 115.53 178.564 115.551 178.622C115.572 178.679 115.606 178.73 115.652 178.771C116.085 178.969 116.578 178.995 117.03 178.844C116.626 178.588 116.175 178.415 115.704 178.333Z" fill="#DD5491"/>
<path d="M117.27 178.997H117.233C116.831 178.783 116.059 177.927 116.137 177.52C116.153 177.452 116.19 177.392 116.244 177.348C116.298 177.304 116.365 177.28 116.435 177.28C116.504 177.273 116.574 177.28 116.64 177.301C116.706 177.321 116.768 177.355 116.821 177.4C117.27 177.76 117.343 178.871 117.369 178.929C117.369 178.945 117.365 178.961 117.357 178.975C117.35 178.99 117.34 179.002 117.327 179.012C117.307 179.014 117.287 179.008 117.27 178.997ZM116.492 177.431H116.45C116.33 177.431 116.32 177.504 116.315 177.525C116.268 177.776 116.758 178.423 117.155 178.72C117.132 178.279 116.973 177.857 116.701 177.509C116.643 177.458 116.569 177.429 116.492 177.426V177.431Z" fill="#DD5491"/>
<path d="M90.31 94.5302C90.31 94.5302 88.2225 74.219 93.4412 65.9264C93.4412 65.9264 100.747 63.3902 111.07 65.295C111.07 65.295 107.213 79.5577 106.765 94.5198L90.31 94.5302Z" fill="#DD5491"/>
<path d="M94.7928 47.312C94.6832 47.0249 93.1176 48.4914 93.0445 48.601C92.7071 49.0734 92.5092 49.6311 92.4732 50.2105C92.4372 50.7899 92.5647 51.3678 92.841 51.8784C93.4516 52.9221 94.7198 53.6475 94.8293 54.853C94.8763 55.4062 94.6571 55.9489 94.6571 56.5073C94.692 57.2435 95.0076 57.9382 95.5391 58.4487C96.5567 59.4925 98.2267 59.936 98.3311 61.6269C98.3161 62.3685 98.2621 63.1089 98.1693 63.8449C98.1266 64.2149 98.172 64.5897 98.3017 64.9389C98.4314 65.2881 98.6417 65.6016 98.9156 65.8541C99.3795 66.1091 99.8766 66.2988 100.392 66.4177C100.888 66.6003 101.389 67.0074 101.368 67.5345C101.291 67.8685 101.176 68.1925 101.024 68.5C100.966 68.8067 100.999 69.1236 101.118 69.412C101.238 69.7003 101.439 69.9474 101.697 70.123C102.704 70.8953 104.348 70.8118 105.157 71.8817C105.297 72.0315 105.402 72.2102 105.466 72.405C105.529 72.5999 105.549 72.8063 105.524 73.0097C105.499 73.2131 105.43 73.4086 105.322 73.5825C105.213 73.7564 105.068 73.9044 104.896 74.0161C104.896 74.0161 106.838 74.1518 107.182 72.294C107.333 72.7598 107.294 73.2662 107.074 73.7037C106.855 74.1413 106.471 74.4747 106.008 74.6319C106.008 74.6319 107.855 74.9085 108.205 72.5705C108.364 72.8933 108.629 73.1516 108.956 73.3017C109.283 73.4519 109.652 73.4849 110 73.3951C110 73.3951 108.57 72.9045 109.666 71.3598C110.292 70.4778 111.117 69.575 111.232 68.453C111.378 67.2005 110.345 66.2455 110.522 64.9878C110.684 63.8083 111.806 62.9577 112.088 61.7991C112.238 61.055 112.102 60.2816 111.707 59.6334C111.107 58.5896 109.911 58.0677 109.911 56.7422C109.911 55.6985 110.334 54.686 110.559 53.6579C110.761 52.9424 110.701 52.1784 110.392 51.5026C110.058 51.0055 109.641 50.5694 109.16 50.2136C107.756 48.9559 108.481 46.9832 107.219 45.6002C106.926 45.2742 106.563 45.0198 106.157 44.8569C105.75 44.694 105.312 44.6269 104.875 44.6609C104.372 44.76 103.875 44.8907 103.388 45.0523C102.344 45.308 101.718 44.7861 100.92 44.2434C99.6253 43.3666 97.757 42.9544 96.301 43.685C95.6556 44.0073 95.148 44.5513 94.871 45.2174C94.594 45.8835 94.5663 46.6271 94.7928 47.312Z" fill="#263238"/>
<path d="M97.2978 60.0905C96.9032 60.1147 96.508 60.0577 96.1364 59.923C95.7648 59.7884 95.4247 59.579 95.1372 59.3077C94.4588 58.6032 94.3753 57.6273 94.3805 56.6984V56.4479C94.3805 55.4824 94.3805 54.6526 93.8586 53.8385C93.6916 53.5828 93.4933 53.3167 93.3054 53.0975C92.9205 52.6586 92.6038 52.1642 92.3661 51.631C92.2364 51.3065 92.175 50.9587 92.1858 50.6094C92.1966 50.2601 92.2793 49.9168 92.4287 49.6009C93.1593 48.0353 95.1737 47.2682 95.7739 47.0699C95.8043 47.0588 95.8379 47.0603 95.8673 47.074C95.8967 47.0877 95.9194 47.1125 95.9305 47.1429C95.9415 47.1734 95.94 47.207 95.9263 47.2363C95.9126 47.2657 95.8878 47.2884 95.8574 47.2995C94.6623 47.7013 93.1958 48.5468 92.6531 49.7053C92.516 49.9906 92.4401 50.3014 92.4302 50.6177C92.4203 50.9341 92.4767 51.249 92.5957 51.5423C92.8229 52.0522 93.1275 52.5239 93.4985 52.9409C93.6916 53.1862 93.8899 53.4367 94.0622 53.7028C94.6362 54.5744 94.6258 55.4824 94.6153 56.4427V56.6932C94.6153 57.5908 94.6884 58.5145 95.3042 59.1512C96.1653 60.0384 97.543 59.9183 98.6494 59.7148C98.6807 59.7113 98.7122 59.7197 98.7376 59.7385C98.763 59.7572 98.7804 59.7848 98.7863 59.8157C98.7922 59.8467 98.7863 59.8787 98.7696 59.9055C98.7529 59.9323 98.7268 59.9517 98.6964 59.9601C98.2348 60.0434 97.7668 60.0871 97.2978 60.0905Z" fill="#263238"/>
<path d="M109.76 72.3144C109.741 72.314 109.722 72.3091 109.704 72.3C109.687 72.291 109.672 72.278 109.661 72.2622C109.212 71.6151 110.183 70.514 110.861 69.7833C111.005 69.6337 111.141 69.4769 111.268 69.3137C111.569 68.9579 111.746 68.5136 111.771 68.0483C111.797 67.583 111.67 67.1221 111.409 66.7356L111.227 66.4799C110.809 65.8954 110.334 65.2274 110.705 64.4237C110.867 64.1063 111.072 63.813 111.315 63.5522C111.533 63.3243 111.719 63.068 111.868 62.7903C112.112 62.3161 112.159 61.7652 112 61.2565C111.841 60.7478 111.488 60.3221 111.018 60.0713C111.003 60.0637 110.991 60.0533 110.981 60.0406C110.971 60.028 110.963 60.0135 110.959 59.9979C110.954 59.9823 110.953 59.9659 110.955 59.9498C110.957 59.9338 110.963 59.9183 110.971 59.9043C110.989 59.877 111.016 59.8572 111.048 59.8485C111.08 59.8399 111.113 59.843 111.143 59.8574C111.663 60.1438 112.053 60.6208 112.229 61.1882C112.405 61.7555 112.354 62.369 112.088 62.8999C111.928 63.1947 111.731 63.4683 111.503 63.714C111.275 63.9552 111.081 64.2275 110.929 64.5229C110.626 65.2013 111.023 65.7545 111.451 66.339L111.634 66.5999C111.923 67.0268 112.066 67.5365 112.039 68.0518C112.013 68.567 111.819 69.0595 111.487 69.4546C111.356 69.6279 111.215 69.7934 111.065 69.9504C110.496 70.5766 109.546 71.636 109.88 72.1213C109.899 72.1478 109.907 72.1806 109.902 72.2127C109.897 72.2449 109.88 72.2738 109.854 72.2935C109.826 72.3122 109.793 72.3197 109.76 72.3144Z" fill="#263238"/>
<path opacity="0.2" d="M90.3099 82.0794C90.1077 79.7328 90.0781 77.3746 90.2212 75.0237C92.1365 73.4267 93.6238 72.2891 93.6238 72.2891C93.6238 72.2891 94.1822 78.2854 90.3099 82.0794Z" fill="black"/>
<path d="M94.4119 65.4492C94.4119 65.4492 95.8 72.4475 90.1743 75.9597C90.1743 75.9597 76.7152 75.9232 74.158 75.0882C71.6009 74.2532 63.8041 69.1232 63.8041 69.1232L65.7716 65.7049C65.7716 65.7049 73.297 68.3717 75.5671 69.1232C77.8372 69.8747 94.4119 65.4492 94.4119 65.4492Z" fill="#DD5491"/>
<path d="M111.98 35.8767L128.074 35.8543C129.138 35.8528 129.999 34.9894 129.997 33.9259L129.975 17.8314C129.973 16.7678 129.11 15.9069 128.046 15.9083L111.952 15.9308C110.888 15.9323 110.027 16.7957 110.029 17.8592L110.051 33.9537C110.053 35.0172 110.916 35.8782 111.98 35.8767Z" fill="#DD5491"/>
<path d="M122.165 34.8534C122.165 34.8534 119.556 40.834 113.679 42.6815C113.679 42.6815 116.92 40.8184 116.68 34.582L122.165 34.8534Z" fill="#DD5491"/>
<g opacity="0.7">
<path d="M121.82 22.9395C121.82 21.9532 121.006 21.2747 119.618 21.2747C119.094 21.2424 118.57 21.3359 118.09 21.5474C117.61 21.759 117.187 22.0824 116.857 22.4907L115.73 21.6922C116.581 20.5963 117.922 19.9648 119.723 19.9648C121.946 19.9648 123.376 21.0086 123.376 22.7099C123.376 25.2827 120.646 25.4549 120.646 27.4746H119.081C119.107 25.0531 121.82 24.7347 121.82 22.9395ZM118.893 29.99C118.895 29.7935 118.955 29.6021 119.065 29.4396C119.176 29.2772 119.332 29.1511 119.514 29.0771C119.696 29.0031 119.896 28.9845 120.088 29.0237C120.281 29.0629 120.458 29.1582 120.596 29.2974C120.735 29.4367 120.829 29.6139 120.867 29.8066C120.905 29.9993 120.886 30.199 120.811 30.3806C120.736 30.5623 120.609 30.7177 120.446 30.8274C120.283 30.9371 120.091 30.9962 119.895 30.9972C119.762 31.0001 119.63 30.9759 119.507 30.9263C119.384 30.8766 119.272 30.8024 119.178 30.7083C119.084 30.6141 119.011 30.5019 118.962 30.3784C118.913 30.2549 118.889 30.1228 118.893 29.99Z" fill="white"/>
</g>
</svg>
