<svg width="182" height="142" viewBox="0 0 182 142" fill="none" xmlns="http://www.w3.org/2000/svg">
<path d="M179.372 138.574H168.455V13.1375C168.453 10.0683 167.234 7.12523 165.064 4.95434C162.895 2.78345 159.952 1.56217 156.883 1.55859H25.1507C22.0815 1.56217 19.1392 2.78345 16.9695 4.95434C14.7999 7.12523 13.5803 10.0683 13.5786 13.1375V138.574H2.62789C1.9321 138.574 1.26471 138.85 0.772075 139.341C0.279444 139.832 0.00178867 140.499 0 141.195V141.634H29.2108V141.195C29.2108 140.5 28.9346 139.833 28.4431 139.341C27.9515 138.85 27.2848 138.574 26.5897 138.574H15.6863V13.1375C15.6863 10.6292 16.6827 8.22358 18.4564 6.44991C20.23 4.67625 22.6356 3.67982 25.144 3.67982H156.876C159.385 3.67982 161.79 4.67625 163.564 6.44991C165.338 8.22358 166.334 10.6292 166.334 13.1375V138.574H155.41C154.715 138.574 154.047 138.85 153.555 139.341C153.062 139.832 152.784 140.499 152.782 141.195V141.634H182V141.195C181.998 140.499 181.721 139.832 181.228 139.341C180.735 138.85 180.068 138.574 179.372 138.574Z" fill="#263238"/>
<path opacity="0.4" d="M179.372 138.574H168.455V13.1375C168.453 10.0683 167.234 7.12523 165.064 4.95434C162.895 2.78345 159.952 1.56217 156.883 1.55859H25.1507C22.0815 1.56217 19.1392 2.78345 16.9695 4.95434C14.7999 7.12523 13.5803 10.0683 13.5786 13.1375V138.574H2.62789C1.9321 138.574 1.26471 138.85 0.772075 139.341C0.279444 139.832 0.00178867 140.499 0 141.195V141.634H29.2108V141.195C29.2108 140.5 28.9346 139.833 28.4431 139.341C27.9515 138.85 27.2848 138.574 26.5897 138.574H15.6863V13.1375C15.6863 10.6292 16.6827 8.22358 18.4564 6.44991C20.23 4.67625 22.6356 3.67982 25.144 3.67982H156.876C159.385 3.67982 161.79 4.67625 163.564 6.44991C165.338 8.22358 166.334 10.6292 166.334 13.1375V138.574H155.41C154.715 138.574 154.047 138.85 153.555 139.341C153.062 139.832 152.784 140.499 152.782 141.195V141.634H182V141.195C181.998 140.499 181.721 139.832 181.228 139.341C180.735 138.85 180.068 138.574 179.372 138.574Z" fill="white"/>
<path d="M56.6719 4.3318C56.6908 4.10217 56.7361 3.87548 56.807 3.65625H55.7126C55.6612 3.8787 55.6251 4.10441 55.6045 4.3318C55.5505 5.01411 56.6179 5.00735 56.6719 4.3318Z" fill="#263238"/>
<path d="M74.3915 20.8802L60.0496 12.2737V8.17306C63.0153 7.53804 64.7177 3.99141 62.2857 1.55943C61.9404 1.19514 61.5245 0.905025 61.0634 0.706761C60.6023 0.508498 60.1057 0.40625 59.6038 0.40625C59.1018 0.40625 58.6052 0.508498 58.1441 0.706761C57.683 0.905025 57.2671 1.19514 56.9218 1.55943H59.0701C59.5074 1.4712 59.9603 1.50037 60.3827 1.64394C60.8052 1.78752 61.182 2.04039 61.475 2.37685C61.8593 2.77291 62.1201 3.27223 62.2256 3.81394C62.331 4.35564 62.2766 4.91632 62.0689 5.42763C61.8613 5.93893 61.5093 6.37878 61.056 6.69353C60.6027 7.00828 60.0676 7.18436 59.5159 7.20027C59.3761 7.20198 59.2423 7.25783 59.1428 7.35609C59.0433 7.45436 58.9857 7.58739 58.9822 7.7272V12.2804L44.6876 20.8802C44.0999 21.2315 44.6336 22.157 45.2213 21.7989L52.2132 17.597L57.2934 14.5435C57.8676 14.199 58.4891 13.868 59.0363 13.4964C59.1511 13.4153 59.4484 13.2802 59.6038 13.1857C59.9618 13.4829 61.2048 14.199 61.5493 14.4016C63.2202 15.4105 64.8911 16.4148 66.5619 17.4146L73.8511 21.7989C73.9724 21.862 74.1133 21.8761 74.2447 21.8383C74.3761 21.8006 74.488 21.7138 74.5573 21.596C74.6266 21.4782 74.6481 21.3382 74.6172 21.205C74.5864 21.0718 74.5056 20.9555 74.3915 20.8802Z" fill="#263238"/>
<path d="M77.033 41.1148L78.3841 67.029L41.3369 66.752L42.1273 42.189L37.1688 77.1082L27.7854 75.9732C27.9637 64.0197 29.2779 52.1103 31.7103 40.4055C35.642 22.4899 44.9511 19.4297 44.9511 19.4297C49.5057 21.6047 54.489 22.7336 59.5363 22.7336C64.5835 22.7336 69.5669 21.6047 74.1214 19.4297C74.1214 19.4297 84.383 22.2062 86.9569 37.8452C89.5307 53.4842 90.9358 76.2435 90.9358 76.2435L81.5525 77.0947L77.033 41.1148Z" fill="#DD5491"/>
<g opacity="0.2">
<path d="M34.8787 76.823L37.1688 77.1L41.8436 44.1602C40.9384 45.4032 39.817 47.619 39.0671 51.5372C37.8782 57.5766 35.7704 71.0336 34.8787 76.823Z" fill="black"/>
</g>
<g opacity="0.2">
<path d="M84.7411 76.8091C83.8426 71.0129 81.7416 57.5694 80.5527 51.5368C79.6474 46.97 78.3098 44.7204 77.3438 43.6328L81.539 77.0996L84.7411 76.8091Z" fill="black"/>
</g>
<g opacity="0.8">
<path d="M77.6681 53.5469H41.7626L41.5667 59.5728H77.9721L77.6681 53.5469Z" fill="white"/>
</g>
<path opacity="0.1" d="M46.336 26.2969L42.9582 37.8218C42.9582 37.8218 41.5599 30.9041 46.336 26.2969Z" fill="black"/>
<path opacity="0.1" d="M73.412 26.2969L76.7898 37.8218C76.7898 37.8218 78.1949 30.9041 73.412 26.2969Z" fill="black"/>
<path d="M74.0808 4.3318C74.1032 4.10268 74.1485 3.87636 74.2159 3.65625H73.1283C73.0733 3.87799 73.0371 4.10397 73.0202 4.3318C72.9594 5.01411 74.02 5.00735 74.0808 4.3318Z" fill="#263238"/>
<path d="M91.8005 20.8797L77.4789 12.2732V8.17256C80.4513 7.53755 82.1469 3.99091 79.7149 1.55893C79.3702 1.19484 78.9549 0.904836 78.4944 0.706648C78.0339 0.508461 77.5377 0.40625 77.0364 0.40625C76.535 0.40625 76.0389 0.508461 75.5783 0.706648C75.1178 0.904836 74.7025 1.19484 74.3578 1.55893H76.5061C76.9424 1.47055 77.3943 1.49967 77.8157 1.64329C78.2371 1.78692 78.6128 2.03989 78.9043 2.37635C79.2882 2.772 79.5489 3.27071 79.6546 3.81182C79.7604 4.35293 79.7065 4.9131 79.4996 5.42416C79.2928 5.93522 78.9418 6.37514 78.4895 6.69039C78.0372 7.00563 77.503 7.18261 76.9519 7.19978C76.8121 7.20148 76.6783 7.25733 76.5788 7.3556C76.4793 7.45386 76.4217 7.58689 76.4182 7.72671V12.2799L62.0763 20.8797C61.9622 20.955 61.8815 21.0713 61.8506 21.2045C61.8198 21.3377 61.8412 21.4777 61.9105 21.5955C61.9799 21.7134 62.0918 21.8001 62.2232 21.8379C62.3546 21.8756 62.4955 21.8615 62.6168 21.7984L69.6019 17.5965L74.6821 14.543C75.2631 14.1985 75.8846 13.8675 76.4318 13.4959C76.5466 13.4148 76.8438 13.2797 76.9925 13.1852C77.3505 13.4824 78.6003 14.1985 78.9381 14.4011L83.9641 17.4344L91.2601 21.8187C91.8478 22.1632 92.3815 21.231 91.8005 20.8797Z" fill="#263238"/>
<path d="M62.36 19.4609C66.9134 21.6359 71.8957 22.7647 76.9418 22.7647C81.9879 22.7647 86.9702 21.6359 91.5235 19.4609C91.5235 19.4609 101.576 23.3724 105.035 38.7074L94.4554 41.1461L95.8065 67.0602L58.7864 66.7697L59.5835 42.2067L50.3285 39.0316C50.3285 39.0316 52.2808 22.8725 62.36 19.4609Z" fill="#DD5491"/>
<path opacity="0.5" d="M62.36 19.4609C66.9134 21.6359 71.8957 22.7647 76.9418 22.7647C81.9879 22.7647 86.9702 21.6359 91.5235 19.4609C91.5235 19.4609 101.576 23.3724 105.035 38.7074L94.4554 41.1461L95.8065 67.0602L58.7864 66.7697L59.5835 42.2067L50.3285 39.0316C50.3285 39.0316 52.2808 22.8725 62.36 19.4609Z" fill="white"/>
<path opacity="0.2" d="M58.1109 41.6794L59.4215 42.132L60.1781 33.0391L58.1109 41.6794Z" fill="black"/>
<path opacity="0.2" d="M93.1652 30.6484L94.4352 41.1127L96.4956 40.6398L93.1652 30.6484Z" fill="black"/>
<path d="M76.9654 38.9499C83.364 38.9499 88.5511 36.8327 88.5511 34.221C88.5511 31.6094 83.364 29.4922 76.9654 29.4922C70.5668 29.4922 65.3798 31.6094 65.3798 34.221C65.3798 36.8327 70.5668 38.9499 76.9654 38.9499Z" fill="#F598AF"/>
<path d="M105.987 4.3318C106.006 4.10217 106.051 3.87548 106.122 3.65625H105.035C104.977 3.87779 104.939 4.10378 104.92 4.3318C104.872 5.01411 105.94 5.00735 105.987 4.3318Z" fill="#263238"/>
<path d="M123.713 20.8849L109.365 12.2784V8.17782C112.337 7.5428 114.033 3.99617 111.601 1.56419C111.255 1.20077 110.839 0.911428 110.378 0.713718C109.917 0.516009 109.421 0.414062 108.919 0.414062C108.417 0.414062 107.921 0.516009 107.46 0.713718C106.999 0.911428 106.583 1.20077 106.237 1.56419H108.392C108.828 1.47581 109.28 1.50492 109.702 1.64855C110.123 1.79217 110.499 2.04515 110.79 2.38161C111.175 2.77767 111.435 3.27699 111.541 3.8187C111.646 4.3604 111.592 4.92108 111.384 5.43239C111.176 5.94369 110.824 6.38354 110.371 6.69829C109.918 7.01305 109.383 7.18912 108.831 7.20504C108.692 7.20679 108.559 7.26287 108.46 7.36131C108.362 7.45975 108.306 7.59276 108.304 7.73197V12.2852L93.9825 20.8917C93.3948 21.243 93.9285 22.1685 94.5162 21.8104L101.508 17.6085L106.588 14.555C107.163 14.2105 107.791 13.8795 108.338 13.5079C108.453 13.4268 108.75 13.2917 108.899 13.1972C109.257 13.4944 110.506 14.2105 110.844 14.4132L115.857 17.4261L123.153 21.8104C123.768 22.1685 124.301 21.2362 123.713 20.8849Z" fill="#263238"/>
<path d="M140.244 71.6029C140.244 71.6029 138.826 48.8504 136.265 33.2047C135.279 27.1923 133.158 23.0714 130.922 20.3016C129.517 18.5728 127.743 17.1804 125.73 16.2265C123.717 15.2727 121.516 14.7815 119.289 14.7892H114.229L111.283 17.8697H106.318L103.717 14.7892H100.792C97.6599 14.7806 94.5819 15.6066 91.8749 17.1822C89.1678 18.7578 86.9292 21.026 85.3895 23.7537C83.3565 27.5217 81.8905 31.569 81.039 35.765C78.6033 47.4648 77.2868 59.3699 77.1073 71.3192L86.4974 72.4541L91.4492 37.5349L90.8818 79.2704L127.902 79.5609L126.355 36.4743L130.861 72.4541L140.244 71.6029Z" fill="#DD5491"/>
<path opacity="0.2" d="M90.8278 31.3935C90.4765 36.1223 83.7345 71.8455 83.7345 71.8455L85.4977 72.3318L86.4975 72.4534L91.4493 37.5342C91.4493 37.5342 91.1858 26.6579 90.8278 31.3935Z" fill="black"/>
<path opacity="0.2" d="M133.117 72.2536C132.185 65.7277 129.827 49.2308 128.388 40.2595C126.618 28.9102 126.321 30.2005 126.321 30.2005V36.4764L130.827 72.4562L133.117 72.2536Z" fill="black"/>
<path d="M103.629 14.0039L108.851 17.3952L113.614 14.0039L116.593 14.5781L113.155 21.3471L108.851 18.8206L104.089 21.3471L101.454 14.5781L103.629 14.0039Z" fill="#263238"/>
<path opacity="0.2" d="M103.629 14.0039L108.851 17.3952L113.614 14.0039L116.593 14.5781L113.155 21.3471L108.851 18.8206L104.089 21.3471L101.454 14.5781L103.629 14.0039Z" fill="white"/>
<path d="M76.4925 70.0352L87.0919 71.3863L86.7338 73.6629L76.4925 72.3793V70.0352Z" fill="#263238"/>
<path opacity="0.2" d="M76.4925 70.0352L87.0919 71.3863L86.7338 73.6629L76.4925 72.3793V70.0352Z" fill="white"/>
<path d="M140.69 70.2266L130.057 71.1993L130.327 73.4895L140.852 72.5504L140.69 70.2266Z" fill="#263238"/>
<path opacity="0.2" d="M140.69 70.2266L130.057 71.1993L130.327 73.4895L140.852 72.5504L140.69 70.2266Z" fill="#D9D9D9"/>
<path opacity="0.7" d="M109.534 31.3931C109.534 31.5628 109.483 31.7287 109.389 31.8698C109.295 32.0108 109.161 32.1208 109.004 32.1857C108.847 32.2507 108.675 32.2677 108.508 32.2346C108.342 32.2015 108.189 32.1198 108.069 31.9998C107.949 31.8798 107.867 31.7269 107.834 31.5605C107.801 31.3941 107.818 31.2216 107.883 31.0648C107.948 30.908 108.058 30.774 108.199 30.6797C108.34 30.5855 108.506 30.5352 108.676 30.5352C108.903 30.5352 109.122 30.6255 109.282 30.7864C109.443 30.9473 109.534 31.1656 109.534 31.3931Z" fill="white"/>
<path opacity="0.7" d="M109.885 44.6257C109.889 44.7978 109.842 44.9672 109.749 45.1122C109.656 45.2572 109.522 45.3712 109.364 45.4396C109.206 45.5079 109.031 45.5276 108.862 45.496C108.693 45.4644 108.537 45.383 108.414 45.2622C108.291 45.1414 108.207 44.9868 108.173 44.8181C108.139 44.6494 108.156 44.4743 108.222 44.3152C108.287 44.1561 108.399 44.0203 108.543 43.9252C108.686 43.8301 108.855 43.78 109.027 43.7813C109.252 43.7812 109.468 43.8698 109.629 44.0278C109.789 44.1857 109.881 44.4005 109.885 44.6257Z" fill="white"/>
<path opacity="0.7" d="M110.398 58.3306C110.4 58.5019 110.35 58.6698 110.256 58.8129C110.162 58.9559 110.027 59.0678 109.869 59.1343C109.711 59.2008 109.537 59.2189 109.369 59.1863C109.201 59.1537 109.046 59.0719 108.925 58.9512C108.803 58.8305 108.72 58.6765 108.686 58.5086C108.652 58.3406 108.669 58.1664 108.734 58.008C108.799 57.8496 108.91 57.7142 109.053 57.6189C109.195 57.5235 109.362 57.4727 109.534 57.4727C109.762 57.4726 109.981 57.5628 110.143 57.7235C110.305 57.8842 110.397 58.1025 110.398 58.3306Z" fill="white"/>
<path opacity="0.7" d="M110.398 72.3541C110.4 72.5254 110.35 72.6932 110.256 72.8363C110.162 72.9794 110.027 73.0913 109.869 73.1578C109.711 73.2242 109.537 73.2423 109.369 73.2097C109.201 73.1771 109.046 73.0953 108.925 72.9747C108.803 72.854 108.72 72.6999 108.686 72.532C108.652 72.3641 108.669 72.1899 108.734 72.0315C108.799 71.8731 108.91 71.7376 109.053 71.6423C109.195 71.547 109.362 71.4961 109.534 71.4961C109.647 71.4952 109.759 71.5168 109.864 71.5595C109.969 71.6022 110.064 71.6653 110.145 71.745C110.225 71.8248 110.289 71.9196 110.332 72.0242C110.376 72.1287 110.398 72.2408 110.398 72.3541Z" fill="white"/>
<path d="M126.997 4.3318C127.019 4.10268 127.064 3.87636 127.132 3.65625H126.044C125.993 3.8787 125.957 4.10441 125.936 4.3318C125.875 5.01411 126.929 5.00735 126.997 4.3318Z" fill="#263238"/>
<path d="M144.71 20.8797L130.395 12.2732V8.17256C133.36 7.53755 135.056 3.99091 132.624 1.55893C132.279 1.19484 131.864 0.904836 131.404 0.706648C130.943 0.508461 130.447 0.40625 129.946 0.40625C129.444 0.40625 128.948 0.508461 128.488 0.706648C128.027 0.904836 127.612 1.19484 127.267 1.55893H129.415C129.853 1.47071 130.305 1.49987 130.728 1.64345C131.15 1.78702 131.527 2.03989 131.82 2.37635C132.204 2.77242 132.465 3.27174 132.571 3.81344C132.676 4.35515 132.622 4.91582 132.414 5.42713C132.206 5.93844 131.854 6.37828 131.401 6.69304C130.948 7.00779 130.413 7.18387 129.861 7.19978C129.721 7.20149 129.587 7.25733 129.488 7.3556C129.388 7.45386 129.331 7.58689 129.327 7.72671V12.2799L115.006 20.8864C114.425 21.2377 114.958 22.1632 115.546 21.8052L122.531 17.6033L127.612 14.5498C128.192 14.2052 128.814 13.8742 129.361 13.5027C129.476 13.4216 129.773 13.2865 129.922 13.1919C130.28 13.4892 131.53 14.2052 131.867 14.4079L136.887 17.4209C139.31 18.8845 141.74 20.346 144.176 21.8052C144.764 22.1632 145.297 21.231 144.71 20.8797Z" fill="#263238"/>
<path d="M112.871 21.3473L116.985 17.875C116.985 17.875 122.68 22.7863 129.861 22.0161C134.378 21.468 138.748 20.0624 142.737 17.875L146.176 20.4218C146.176 20.4218 141.244 28.1163 147.007 37.4997L146.142 66.3052H114.094L112.824 36.858C112.824 36.858 119.498 28.6635 112.871 21.3473Z" fill="#F598AF"/>
<path opacity="0.5" d="M146.858 42.4582L146.79 42.3906L141.143 48.0315L135.502 42.3906L129.861 48.0315L124.22 42.3906L118.573 48.0315L113.047 42.4987L113.27 47.7342L118.573 53.0373L124.22 47.3965L129.861 53.0373L135.502 47.3965L141.143 53.0373L146.703 47.4775L146.858 42.4582Z" fill="white"/>
<path opacity="0.7" d="M146.702 47.4795L141.143 53.0393L135.502 47.3984L129.861 53.0393L124.22 47.3984L118.573 53.0393L113.269 47.7362L113.499 52.965L118.573 58.0451L124.22 52.3975L129.861 58.0451L135.502 52.3975L141.143 58.0451L146.547 52.6407L146.702 47.4795Z" fill="white"/>
<path opacity="0.9" d="M146.547 52.6377L141.143 58.0421L135.502 52.3945L129.861 58.0421L124.22 52.3945L118.573 58.0421L113.499 52.962L113.722 58.1907L118.573 63.048L124.22 57.4004L129.861 63.048L135.502 57.4004L141.143 63.048L146.392 57.7989L146.547 52.6377Z" fill="white"/>
</svg>
