<svg width="376" height="546" viewBox="0 0 376 546" fill="none" xmlns="http://www.w3.org/2000/svg">
<rect width="376" height="546" rx="20" fill="#FCFCFC"/>
<path d="M105.072 342.768V344.96H102.096V354H99.36V344.96H96.384V342.768H105.072ZM105.901 349.52C105.901 348.603 106.072 347.797 106.413 347.104C106.765 346.411 107.24 345.877 107.837 345.504C108.434 345.131 109.101 344.944 109.837 344.944C110.466 344.944 111.016 345.072 111.485 345.328C111.965 345.584 112.333 345.92 112.589 346.336V345.072H115.325V354H112.589V352.736C112.322 353.152 111.949 353.488 111.469 353.744C111 354 110.45 354.128 109.821 354.128C109.096 354.128 108.434 353.941 107.837 353.568C107.24 353.184 106.765 352.645 106.413 351.952C106.072 351.248 105.901 350.437 105.901 349.52ZM112.589 349.536C112.589 348.853 112.397 348.315 112.013 347.92C111.64 347.525 111.181 347.328 110.637 347.328C110.093 347.328 109.629 347.525 109.245 347.92C108.872 348.304 108.685 348.837 108.685 349.52C108.685 350.203 108.872 350.747 109.245 351.152C109.629 351.547 110.093 351.744 110.637 351.744C111.181 351.744 111.64 351.547 112.013 351.152C112.397 350.757 112.589 350.219 112.589 349.536ZM120.041 342.16V354H117.305V342.16H120.041ZM124.759 342.16V354H122.023V342.16H124.759ZM135.158 349.392C135.158 349.648 135.142 349.915 135.11 350.192H128.918C128.961 350.747 129.137 351.173 129.446 351.472C129.766 351.76 130.155 351.904 130.614 351.904C131.297 351.904 131.771 351.616 132.038 351.04H134.95C134.801 351.627 134.529 352.155 134.134 352.624C133.75 353.093 133.265 353.461 132.678 353.728C132.091 353.995 131.435 354.128 130.71 354.128C129.835 354.128 129.057 353.941 128.374 353.568C127.691 353.195 127.158 352.661 126.774 351.968C126.39 351.275 126.198 350.464 126.198 349.536C126.198 348.608 126.385 347.797 126.758 347.104C127.142 346.411 127.675 345.877 128.358 345.504C129.041 345.131 129.825 344.944 130.71 344.944C131.574 344.944 132.342 345.125 133.014 345.488C133.686 345.851 134.209 346.368 134.582 347.04C134.966 347.712 135.158 348.496 135.158 349.392ZM132.358 348.672C132.358 348.203 132.198 347.829 131.878 347.552C131.558 347.275 131.158 347.136 130.678 347.136C130.219 347.136 129.83 347.269 129.51 347.536C129.201 347.803 129.009 348.181 128.934 348.672H132.358Z" fill="#1A1A1A"/>
<path d="M99.8519 385.768V392.488C99.8519 393.16 100.017 393.677 100.348 394.04C100.679 394.403 101.164 394.584 101.804 394.584C102.444 394.584 102.935 394.403 103.276 394.04C103.617 393.677 103.788 393.16 103.788 392.488V385.768H106.524V392.472C106.524 393.475 106.311 394.323 105.884 395.016C105.457 395.709 104.881 396.232 104.156 396.584C103.441 396.936 102.641 397.112 101.756 397.112C100.871 397.112 100.076 396.941 99.3719 396.6C98.6785 396.248 98.1292 395.725 97.7239 395.032C97.3185 394.328 97.1159 393.475 97.1159 392.472V385.768H99.8519ZM103.676 383.512L99.8199 385.128V383.24L103.676 381.384V383.512ZM113.885 387.976C114.93 387.976 115.762 388.317 116.381 389C117.01 389.672 117.325 390.6 117.325 391.784V397H114.605V392.152C114.605 391.555 114.45 391.091 114.141 390.76C113.832 390.429 113.416 390.264 112.893 390.264C112.37 390.264 111.954 390.429 111.645 390.76C111.336 391.091 111.181 391.555 111.181 392.152V397H108.445V388.072H111.181V389.256C111.458 388.861 111.832 388.552 112.301 388.328C112.77 388.093 113.298 387.976 113.885 387.976ZM120.602 387.144C120.122 387.144 119.728 387.005 119.418 386.728C119.12 386.44 118.97 386.088 118.97 385.672C118.97 385.245 119.12 384.893 119.418 384.616C119.728 384.328 120.122 384.184 120.602 384.184C121.072 384.184 121.456 384.328 121.754 384.616C122.064 384.893 122.218 385.245 122.218 385.672C122.218 386.088 122.064 386.44 121.754 386.728C121.456 387.005 121.072 387.144 120.602 387.144ZM121.962 388.072V397H119.226V388.072H121.962ZM123.401 392.536C123.401 391.608 123.588 390.797 123.961 390.104C124.345 389.411 124.873 388.877 125.545 388.504C126.228 388.131 127.006 387.944 127.881 387.944C129.001 387.944 129.934 388.237 130.681 388.824C131.438 389.411 131.934 390.237 132.169 391.304H129.257C129.012 390.621 128.537 390.28 127.833 390.28C127.332 390.28 126.932 390.477 126.633 390.872C126.334 391.256 126.185 391.811 126.185 392.536C126.185 393.261 126.334 393.821 126.633 394.216C126.932 394.6 127.332 394.792 127.833 394.792C128.537 394.792 129.012 394.451 129.257 393.768H132.169C131.934 394.813 131.438 395.635 130.681 396.232C129.924 396.829 128.99 397.128 127.881 397.128C127.006 397.128 126.228 396.941 125.545 396.568C124.873 396.195 124.345 395.661 123.961 394.968C123.588 394.275 123.401 393.464 123.401 392.536ZM137.697 397.128C136.822 397.128 136.033 396.941 135.329 396.568C134.635 396.195 134.086 395.661 133.681 394.968C133.286 394.275 133.089 393.464 133.089 392.536C133.089 391.619 133.291 390.813 133.697 390.12C134.102 389.416 134.657 388.877 135.361 388.504C136.065 388.131 136.854 387.944 137.729 387.944C138.603 387.944 139.393 388.131 140.097 388.504C140.801 388.877 141.355 389.416 141.761 390.12C142.166 390.813 142.369 391.619 142.369 392.536C142.369 393.453 142.161 394.264 141.745 394.968C141.339 395.661 140.779 396.195 140.065 396.568C139.361 396.941 138.571 397.128 137.697 397.128ZM137.697 394.76C138.219 394.76 138.662 394.568 139.025 394.184C139.398 393.8 139.585 393.251 139.585 392.536C139.585 391.821 139.403 391.272 139.041 390.888C138.689 390.504 138.251 390.312 137.729 390.312C137.195 390.312 136.753 390.504 136.401 390.888C136.049 391.261 135.873 391.811 135.873 392.536C135.873 393.251 136.043 393.8 136.385 394.184C136.737 394.568 137.174 394.76 137.697 394.76Z" fill="#1A1A1A"/>
<path d="M162.736 394.568V393.192L168.112 385.48H170.32V392.984H171.808V394.568H170.32V397H168.528V394.568H162.736ZM168.608 387.336L164.832 392.984H168.608V387.336ZM180.711 386.744L176.263 397H174.423L178.919 386.936H172.999V385.384H180.711V386.744ZM186.061 392.584C186.061 391.677 186.242 390.883 186.605 390.2C186.978 389.507 187.49 388.973 188.141 388.6C188.791 388.227 189.538 388.04 190.381 388.04C191.447 388.04 192.327 388.296 193.021 388.808C193.725 389.309 194.199 390.029 194.445 390.968H192.477C192.317 390.531 192.061 390.189 191.709 389.944C191.357 389.699 190.914 389.576 190.381 389.576C189.634 389.576 189.037 389.843 188.589 390.376C188.151 390.899 187.933 391.635 187.933 392.584C187.933 393.533 188.151 394.275 188.589 394.808C189.037 395.341 189.634 395.608 190.381 395.608C191.437 395.608 192.135 395.144 192.477 394.216H194.445C194.189 395.112 193.709 395.827 193.005 396.36C192.301 396.883 191.426 397.144 190.381 397.144C189.538 397.144 188.791 396.957 188.141 396.584C187.49 396.2 186.978 395.667 186.605 394.984C186.242 394.291 186.061 393.491 186.061 392.584ZM206.935 388.04C207.628 388.04 208.247 388.184 208.791 388.472C209.345 388.76 209.777 389.187 210.087 389.752C210.407 390.317 210.567 391 210.567 391.8V397H208.759V392.072C208.759 391.283 208.561 390.68 208.167 390.264C207.772 389.837 207.233 389.624 206.551 389.624C205.868 389.624 205.324 389.837 204.919 390.264C204.524 390.68 204.327 391.283 204.327 392.072V397H202.519V392.072C202.519 391.283 202.321 390.68 201.927 390.264C201.532 389.837 200.993 389.624 200.311 389.624C199.628 389.624 199.084 389.837 198.679 390.264C198.284 390.68 198.087 391.283 198.087 392.072V397H196.263V388.184H198.087V389.192C198.385 388.829 198.764 388.547 199.223 388.344C199.681 388.141 200.172 388.04 200.695 388.04C201.399 388.04 202.028 388.189 202.583 388.488C203.137 388.787 203.564 389.219 203.863 389.784C204.129 389.251 204.545 388.829 205.111 388.52C205.676 388.2 206.284 388.04 206.935 388.04Z" fill="#595959"/>
<path d="M237.48 386.904H232.12V390.088C232.344 389.789 232.675 389.539 233.112 389.336C233.56 389.133 234.035 389.032 234.536 389.032C235.432 389.032 236.157 389.224 236.712 389.608C237.277 389.992 237.677 390.477 237.912 391.064C238.157 391.651 238.28 392.269 238.28 392.92C238.28 393.709 238.125 394.413 237.816 395.032C237.517 395.64 237.064 396.12 236.456 396.472C235.859 396.824 235.123 397 234.248 397C233.085 397 232.152 396.712 231.448 396.136C230.744 395.56 230.323 394.797 230.184 393.848H231.96C232.077 394.349 232.339 394.749 232.744 395.048C233.149 395.336 233.656 395.48 234.264 395.48C235.021 395.48 235.587 395.251 235.96 394.792C236.344 394.333 236.536 393.725 236.536 392.968C236.536 392.2 236.344 391.613 235.96 391.208C235.576 390.792 235.011 390.584 234.264 390.584C233.741 390.584 233.299 390.717 232.936 390.984C232.584 391.24 232.328 391.592 232.168 392.04H230.44V385.304H237.48V386.904ZM247.699 386.904H242.339V390.088C242.563 389.789 242.893 389.539 243.331 389.336C243.779 389.133 244.253 389.032 244.755 389.032C245.651 389.032 246.376 389.224 246.931 389.608C247.496 389.992 247.896 390.477 248.131 391.064C248.376 391.651 248.499 392.269 248.499 392.92C248.499 393.709 248.344 394.413 248.035 395.032C247.736 395.64 247.283 396.12 246.675 396.472C246.077 396.824 245.341 397 244.467 397C243.304 397 242.371 396.712 241.667 396.136C240.963 395.56 240.541 394.797 240.403 393.848H242.179C242.296 394.349 242.557 394.749 242.963 395.048C243.368 395.336 243.875 395.48 244.483 395.48C245.24 395.48 245.805 395.251 246.179 394.792C246.563 394.333 246.755 393.725 246.755 392.968C246.755 392.2 246.563 391.613 246.179 391.208C245.795 390.792 245.229 390.584 244.483 390.584C243.96 390.584 243.517 390.717 243.155 390.984C242.803 391.24 242.547 391.592 242.387 392.04H240.659V385.304H247.699V386.904ZM254.186 392.584C254.186 391.677 254.367 390.883 254.73 390.2C255.103 389.507 255.615 388.973 256.266 388.6C256.916 388.227 257.663 388.04 258.506 388.04C259.572 388.04 260.452 388.296 261.146 388.808C261.85 389.309 262.324 390.029 262.57 390.968H260.602C260.442 390.531 260.186 390.189 259.834 389.944C259.482 389.699 259.039 389.576 258.506 389.576C257.759 389.576 257.162 389.843 256.714 390.376C256.276 390.899 256.058 391.635 256.058 392.584C256.058 393.533 256.276 394.275 256.714 394.808C257.162 395.341 257.759 395.608 258.506 395.608C259.562 395.608 260.26 395.144 260.602 394.216H262.57C262.314 395.112 261.834 395.827 261.13 396.36C260.426 396.883 259.551 397.144 258.506 397.144C257.663 397.144 256.916 396.957 256.266 396.584C255.615 396.2 255.103 395.667 254.73 394.984C254.367 394.291 254.186 393.491 254.186 392.584ZM275.06 388.04C275.753 388.04 276.372 388.184 276.916 388.472C277.47 388.76 277.902 389.187 278.212 389.752C278.532 390.317 278.692 391 278.692 391.8V397H276.884V392.072C276.884 391.283 276.686 390.68 276.292 390.264C275.897 389.837 275.358 389.624 274.676 389.624C273.993 389.624 273.449 389.837 273.044 390.264C272.649 390.68 272.452 391.283 272.452 392.072V397H270.644V392.072C270.644 391.283 270.446 390.68 270.052 390.264C269.657 389.837 269.118 389.624 268.436 389.624C267.753 389.624 267.209 389.837 266.804 390.264C266.409 390.68 266.212 391.283 266.212 392.072V397H264.388V388.184H266.212V389.192C266.51 388.829 266.889 388.547 267.348 388.344C267.806 388.141 268.297 388.04 268.82 388.04C269.524 388.04 270.153 388.189 270.708 388.488C271.262 388.787 271.689 389.219 271.988 389.784C272.254 389.251 272.67 388.829 273.236 388.52C273.801 388.2 274.409 388.04 275.06 388.04Z" fill="#595959"/>
<path d="M189.984 352.016H185.792L185.12 354H182.256L186.32 342.768H189.488L193.552 354H190.656L189.984 352.016ZM189.28 349.904L187.888 345.792L186.512 349.904H189.28Z" fill="#1A1A1A"/>
<path d="M256.792 348.24C257.443 348.379 257.965 348.704 258.36 349.216C258.755 349.717 258.952 350.293 258.952 350.944C258.952 351.883 258.621 352.629 257.96 353.184C257.309 353.728 256.397 354 255.224 354H249.992V342.768H255.048C256.189 342.768 257.08 343.029 257.72 343.552C258.371 344.075 258.696 344.784 258.696 345.68C258.696 346.341 258.52 346.891 258.168 347.328C257.827 347.765 257.368 348.069 256.792 348.24ZM252.728 347.312H254.52C254.968 347.312 255.309 347.216 255.544 347.024C255.789 346.821 255.912 346.528 255.912 346.144C255.912 345.76 255.789 345.467 255.544 345.264C255.309 345.061 254.968 344.96 254.52 344.96H252.728V347.312ZM254.744 351.792C255.203 351.792 255.555 351.691 255.8 351.488C256.056 351.275 256.184 350.971 256.184 350.576C256.184 350.181 256.051 349.872 255.784 349.648C255.528 349.424 255.171 349.312 254.712 349.312H252.728V351.792H254.744Z" fill="#1A1A1A"/>
<path d="M188.832 77.875H186.69V65.2233C186.69 64.5026 187.151 64.2424 188.192 63.6618C190.574 62.3806 196.86 58.9175 196.86 52.6917C196.86 42.9027 189.893 42.142 187.751 42.142C182.406 42.142 177.001 45.365 177.001 52.5716H174.839C174.839 43.9436 181.546 40 187.751 40C192.936 40 199.002 43.3231 199.002 52.6917C199.002 60.1986 191.915 64.0822 189.233 65.5636L188.832 65.7838V77.875Z" fill="#263238"/>
<path d="M257.216 114.909H252.532C252.508 113.733 252.212 112.579 251.666 111.537C251.121 110.495 250.341 109.594 249.389 108.904C245.826 106.141 224.426 101.116 219.041 99.1746C213.656 97.2328 197.441 89.866 194.498 88.5848C190.008 87.0101 185.116 87.0101 180.625 88.5848C177.703 89.866 161.448 97.2528 156.083 99.1746C150.718 101.096 129.218 106.141 125.735 108.904C124.782 109.594 124.003 110.495 123.457 111.537C122.912 112.579 122.616 113.733 122.592 114.909H117.907C115.125 111.846 115.045 108.023 120.19 103.979C125.334 99.9353 143.791 94.1099 150.217 91.4674C156.643 88.825 177.703 74.5118 180.886 73.631C185.291 72.6699 189.852 72.6699 194.258 73.631C197.441 74.5118 218.46 88.825 224.906 91.4674C231.352 94.1099 249.809 99.9753 254.934 103.979C260.059 107.983 259.999 111.846 257.216 114.909Z" fill="#DD5491"/>
<path opacity="0.2" d="M257.216 114.909H252.532C252.508 113.733 252.212 112.579 251.666 111.537C251.121 110.495 250.341 109.594 249.389 108.904C245.826 106.141 224.426 101.116 219.041 99.1746C213.656 97.2328 197.441 89.866 194.498 88.5848C190.008 87.0101 185.116 87.0101 180.625 88.5848C177.703 89.866 161.448 97.2528 156.083 99.1746C150.718 101.096 129.218 106.141 125.735 108.904C124.782 109.594 124.003 110.495 123.457 111.537C122.912 112.579 122.616 113.733 122.592 114.909H117.907C115.125 111.846 115.045 108.023 120.19 103.979C125.334 99.9353 143.791 94.1099 150.217 91.4674C156.643 88.825 177.703 74.5118 180.886 73.631C185.291 72.6699 189.852 72.6699 194.258 73.631C197.441 74.5118 218.46 88.825 224.906 91.4674C231.352 94.1099 249.809 99.9753 254.934 103.979C260.059 107.983 259.999 111.846 257.216 114.909Z" fill="black"/>
<path d="M220.063 88.9651C220.063 88.9651 251.452 98.0535 258.458 106.722C266.726 116.951 317.613 276.879 316.112 282.724C314.902 286.721 312.931 290.446 310.306 293.694L281.52 299.94C281.52 299.94 265.505 298.839 262.923 292.993C260.34 287.148 220.063 88.9651 220.063 88.9651Z" fill="#DD5491"/>
<path d="M225.408 90.6066L220.684 91.8878L220.063 88.925C220.063 88.925 222.165 89.5656 225.408 90.6066ZM230.473 92.3082L221.264 94.8305C221.464 95.8514 221.685 96.9725 221.945 98.2136L235.958 94.35C234.116 93.6294 232.214 92.9688 230.473 92.3482V92.3082ZM240.642 96.1717L222.625 101.136C222.846 102.217 223.066 103.358 223.326 104.539L245.747 98.3537C244.045 97.6531 242.344 96.8924 240.642 96.2118V96.1717ZM249.69 100.356L223.846 107.462C224.047 108.543 224.287 109.684 224.527 110.865L253.854 102.858C252.51 101.966 251.12 101.144 249.69 100.396V100.356ZM258.458 106.681C257.979 106.09 257.45 105.541 256.877 105.04L225.108 113.768C225.348 114.869 225.568 116.01 225.808 117.171L259.299 107.963C259.05 107.529 258.769 107.114 258.458 106.721V106.681ZM260.68 110.685L226.389 120.094C226.629 121.215 226.869 122.316 227.089 123.477L262.082 113.888C261.581 112.627 261.101 111.646 260.68 110.725V110.685ZM263.243 116.691L227.71 126.44C227.93 127.561 228.15 128.682 228.391 129.823L264.524 119.814C264.084 118.753 263.663 117.692 263.343 116.631L263.243 116.691ZM265.605 122.696L228.971 132.705C229.211 133.826 229.452 134.948 229.692 136.109L266.846 125.899C266.426 124.838 266.025 123.757 265.605 122.636V122.696ZM267.887 128.702L230.292 139.051C230.493 140.152 230.733 141.293 230.973 142.434L269.008 131.945C268.688 130.864 268.288 129.803 267.887 128.742V128.702ZM270.109 134.707L231.574 145.277C231.794 146.398 232.034 147.539 232.274 148.68L271.35 138.05C270.87 136.929 270.49 135.848 270.109 134.807V134.707ZM272.271 140.713L232.875 151.523C233.095 152.624 233.315 153.765 233.575 154.906L273.352 144.156C273.052 143.035 272.672 141.954 272.271 140.893V140.713ZM274.433 146.718L234.156 157.789C234.396 158.91 234.636 160.051 234.857 161.192L275.534 150.001C275.174 149.121 274.794 148.02 274.433 146.939V146.718ZM276.535 152.824L235.457 164.114C235.677 165.235 235.918 166.357 236.158 167.498L277.656 156.087C277.356 155.226 276.895 154.125 276.535 153.044V152.824ZM278.537 158.93L236.758 170.681C236.999 171.802 237.219 172.943 237.459 174.084L279.738 162.453C279.358 161.332 278.977 160.231 278.617 159.15L278.537 158.93ZM280.539 164.935L237.899 176.646L238.62 180.029L281.64 168.218L280.539 164.935ZM282.541 171.061L239.321 183.252C239.561 184.393 239.781 185.514 240.001 186.655L283.782 174.644C283.361 173.523 283.081 172.462 282.741 171.361L282.541 171.061ZM284.543 177.066L240.502 189.178C240.722 190.299 240.962 191.44 241.203 192.561L285.684 180.349L284.543 177.066ZM286.544 183.192L241.723 195.503C241.943 196.604 242.183 197.746 242.424 198.867L287.605 186.475C287.485 185.754 287.145 184.693 286.785 183.592L286.544 183.192ZM288.546 189.318L243.324 202.21L244.045 205.593L289.907 193.001C289.487 191.9 289.147 190.799 288.786 189.718L288.546 189.318ZM290.548 195.323L244.385 208.035C244.606 209.156 244.846 210.277 245.086 211.398L291.609 198.646C291.489 198.006 291.129 196.905 290.748 195.804L290.548 195.323ZM292.55 201.469L245.727 214.341C245.947 215.482 246.187 216.603 246.407 217.724L293.631 204.772L292.55 201.469ZM294.552 207.595L247.068 220.647C247.308 221.768 247.528 222.909 247.789 224.01L295.593 210.898C295.373 210.277 295.052 209.176 294.692 208.075L294.552 207.595ZM296.554 213.72L248.509 226.952L249.33 230.736L297.775 217.444C297.374 216.423 297.014 215.322 296.654 214.201L296.554 213.72ZM298.555 219.886L249.83 233.278C250.071 234.419 250.311 235.54 250.531 236.661L299.596 223.189C299.376 222.568 298.936 221.467 298.575 220.366L298.555 219.886ZM300.557 226.012L251.232 239.564L251.952 242.947L301.578 229.295C301.178 228.734 300.858 227.613 300.497 226.492L300.557 226.012ZM302.459 232.157L252.573 245.87C252.793 247.011 253.033 248.152 253.294 249.273L303.38 235.961C303.1 234.86 302.739 233.759 302.399 232.738L302.459 232.157ZM304.461 238.303L253.834 252.756C254.074 253.897 254.335 254.998 254.555 256.119L305.382 242.106C304.961 241.005 304.641 239.904 304.301 238.743L304.461 238.303ZM306.323 244.469L255.356 258.482C255.596 259.623 255.816 260.764 256.056 261.885L307.304 247.872C306.823 247.191 306.483 246.07 306.162 244.949L306.323 244.469ZM308.144 250.634L256.677 264.787C256.937 265.928 257.177 267.07 257.417 268.151L309.145 253.957L308.144 250.634ZM309.986 256.8L258.038 271.053C258.318 272.214 258.559 273.355 258.799 274.456L310.847 260.123C310.466 259.523 310.146 258.422 309.826 257.28L309.986 256.8ZM311.768 263.006L259.339 277.859C259.599 279.041 259.86 280.162 260.08 281.203L312.508 266.769C312.228 265.728 311.928 264.647 311.608 263.486L311.768 263.006ZM313.449 269.191L260.861 283.625C261.141 284.866 261.381 285.987 261.621 287.008L314.33 272.515C313.93 271.974 313.629 270.773 313.389 269.672L313.449 269.191ZM315.071 275.417L262.342 289.911C262.541 290.798 262.789 291.673 263.083 292.533C263.203 292.733 263.303 292.953 263.463 293.174L315.851 278.8C315.491 278.32 315.231 277.179 314.911 275.898L315.071 275.417ZM266.126 295.536C267.78 296.456 269.541 297.169 271.37 297.658L315.051 285.647C315.562 284.545 315.97 283.399 316.272 282.224C316.295 282.071 316.295 281.916 316.272 281.763L266.126 295.536ZM277.716 299.019C280.038 299.359 281.72 299.459 281.72 299.459L310.506 293.214C311.511 291.952 312.415 290.614 313.209 289.21L277.716 299.019Z" fill="#263238"/>
<path d="M155.061 88.9651C155.061 88.9651 123.672 98.0535 116.666 106.722C108.418 116.951 57.5312 276.879 59.0326 282.724C60.2303 286.722 62.1953 290.448 64.8179 293.694L93.6245 299.94C93.6245 299.94 109.639 298.839 112.202 292.993C114.764 287.148 155.061 88.9651 155.061 88.9651Z" fill="#DD5491"/>
<path d="M155.061 88.9651L154.66 90.8468L151.658 90.0261C153.759 89.3254 155.061 88.9651 155.061 88.9651ZM146.493 91.7076L140.848 93.7095L153.399 97.1727C153.659 95.9115 153.88 94.7905 154.08 93.8096L146.493 91.7076ZM136.163 95.5312C134.442 96.1918 132.7 96.9124 131.038 97.6931L152.118 103.478C152.338 102.277 152.578 101.136 152.799 100.075L136.163 95.5312ZM126.875 99.655C125.333 100.416 123.872 101.216 122.551 102.037L150.817 109.784C151.057 108.603 151.297 107.502 151.517 106.401L126.875 99.655ZM119.328 104.219C118.344 104.945 117.45 105.785 116.665 106.722L116.465 107.022L149.536 116.11C149.776 114.949 149.996 113.808 150.216 112.707L119.328 104.219ZM114.964 109.704C114.503 110.605 114.023 111.706 113.482 112.867L148.234 122.436C148.475 121.275 148.715 120.134 148.935 119.033L114.964 109.704ZM112.321 115.71C111.901 116.711 111.48 117.712 111.02 118.913L147.053 128.782C147.294 127.641 147.534 126.52 147.734 125.419L112.321 115.71ZM109.919 121.715C109.519 122.736 109.098 123.837 108.678 124.958L145.672 135.108C145.892 133.967 146.112 132.846 146.353 131.725L109.919 121.715ZM107.597 127.721C107.216 128.762 106.836 129.843 106.416 130.964L144.451 141.393C144.671 140.232 144.911 139.131 145.132 138.01L107.597 127.721ZM105.415 133.726C105.014 134.787 104.614 135.868 104.234 136.969L143.09 147.639C143.29 146.498 143.53 145.357 143.77 144.236L105.415 133.726ZM103.193 139.732C102.832 140.813 102.452 141.894 102.072 142.995L141.768 153.905C142.009 152.784 142.249 151.643 142.469 150.522L103.193 139.732ZM101.071 145.738C100.69 146.798 100.33 147.9 99.9298 149.001L140.487 160.131C140.727 158.99 140.948 157.869 141.168 156.748L101.071 145.738ZM99.069 151.743C98.6886 152.804 98.2883 153.905 97.9279 155.006L139.226 166.677C139.446 165.536 139.686 164.415 139.907 163.274L99.069 151.743ZM97.0671 157.749C96.7068 158.83 96.3064 159.931 95.9461 161.032L137.985 172.602C138.225 171.461 138.465 170.32 138.686 169.219L97.0671 157.749ZM95.0653 163.754C94.6849 164.855 94.3046 165.956 93.9643 167.057L136.824 178.828L137.545 175.425L95.0653 163.754ZM93.0634 169.88C92.6831 170.961 92.3227 172.062 91.9624 173.143L135.603 185.154C135.843 184.013 136.083 182.892 136.303 181.771L93.0634 169.88ZM91.0616 175.885C90.7012 176.986 90.3209 178.067 89.9606 179.168L134.322 191.36C134.542 190.239 134.782 189.098 135.022 187.957L91.0616 175.885ZM89.0597 182.011C88.7194 183.112 88.3391 184.193 87.9787 185.294L133.04 197.665C133.301 196.564 133.521 195.423 133.761 194.302L89.0597 182.011ZM87.0579 188.137C86.6975 189.238 86.3572 190.319 85.9769 191.42L131.759 203.991C131.999 202.87 132.2 201.729 132.46 200.628L87.0579 188.137ZM85.056 194.262C84.6957 195.363 84.3354 196.444 83.9951 197.545L130.058 210.718L130.778 207.334L85.056 194.262ZM83.0542 200.388C82.6939 201.469 82.3535 202.57 81.9932 203.691L129.097 216.623L129.797 213.24L83.0542 200.388ZM81.0523 206.514C80.712 207.595 80.3517 208.696 79.9914 209.797L127.735 222.929C127.976 221.788 128.216 220.667 128.436 219.526L81.0523 206.514ZM79.0505 212.659C78.7102 213.74 78.3699 214.841 78.0095 215.942L126.374 229.215C126.614 228.094 126.835 226.993 127.075 225.851L79.0505 212.659ZM77.0486 218.805L76.0277 222.088L124.973 235.54C125.233 234.419 125.473 233.278 125.694 232.137L77.0486 218.805ZM75.0468 224.931C74.7065 226.032 74.3462 227.133 74.0259 228.234L123.572 241.826C123.785 240.732 124.025 239.611 124.292 238.463L75.0468 224.931ZM73.0449 231.096C72.7046 232.197 72.3843 233.298 72.044 234.379L122.09 248.152C122.33 247.031 122.571 245.91 122.831 244.749L73.0449 231.096ZM71.1632 237.722C70.8429 238.823 70.5026 239.924 70.1623 241.025L120.829 254.918C121.056 253.811 121.296 252.69 121.55 251.555L71.1632 237.722ZM69.3215 243.888C68.9612 244.989 68.6409 246.11 68.3006 247.191L119.468 261.204C119.708 260.103 119.968 258.962 120.188 257.821L69.3215 243.888ZM67.4598 250.054C67.1195 251.175 66.7992 252.276 66.4789 253.357L118.127 267.57C118.347 266.449 118.607 265.328 118.847 264.167L67.4598 250.054ZM65.6581 256.22C65.3178 257.361 64.9975 258.442 64.6972 259.523L116.745 273.836C116.986 272.735 117.206 271.614 117.466 270.473L65.6581 256.22ZM63.8565 262.405C63.5362 263.546 63.2359 264.667 62.9356 265.728L115.364 280.142C115.604 279.061 115.864 277.94 116.105 276.758L63.8565 262.405ZM62.1349 268.591C61.8146 269.772 61.5143 270.873 61.2541 271.914L113.943 286.407C114.183 285.406 114.443 284.265 114.723 283.024L62.1349 268.591ZM60.4934 274.797C60.1931 276.078 59.9128 277.179 59.7126 278.18L112.361 292.633C112.541 292.033 112.842 290.912 113.262 289.31L60.4934 274.797ZM59.1521 281.123C59.0743 281.647 59.0743 282.18 59.1521 282.704C59.3523 283.445 59.5725 284.145 59.8328 284.846L106.035 297.518C107.64 296.977 109.152 296.194 110.52 295.196L59.1521 281.123ZM61.3341 288.369C62.1438 289.906 63.0602 291.384 64.0767 292.793L78.0896 296.657L93.5239 300C95.7078 299.823 97.8799 299.522 100.03 299.099L61.3341 288.369Z" fill="#263238"/>
<path d="M270.088 264.467C269.017 267.301 266.983 269.668 264.343 271.153V276.899H110.781V271.153C108.138 269.676 106.108 267.306 105.056 264.467C103.054 259.583 130.299 124.698 136.404 113.708C142.83 102.077 155.062 88.9651 155.062 88.9651C155.062 88.9651 164.17 114.989 187.572 114.989C210.973 114.989 220.062 88.9651 220.062 88.9651C220.062 88.9651 232.313 102.077 238.739 113.708C244.805 124.638 271.99 259.583 270.088 264.467Z" fill="#DD5491"/>
<path opacity="0.1" d="M270.088 264.467C269.017 267.301 266.983 269.668 264.343 271.153V276.899H110.781V271.153C108.138 269.676 106.108 267.306 105.056 264.467C103.054 259.583 130.299 124.698 136.404 113.708C142.83 102.077 155.062 88.9651 155.062 88.9651C155.062 88.9651 164.17 114.989 187.572 114.989C210.973 114.989 220.062 88.9651 220.062 88.9651C220.062 88.9651 232.313 102.077 238.739 113.708C244.805 124.638 271.99 259.583 270.088 264.467Z" fill="black"/>
<path d="M153.087 97.0527L150.2 102.053H155.974L153.087 97.0527ZM153.087 273.215L155.974 268.215H150.2L153.087 273.215ZM152.587 101.553V268.715H153.587V101.553H152.587Z" fill="white"/>
<path d="M125.061 174.131L130.061 177.018V171.245L125.061 174.131ZM252.178 174.131L247.178 171.245V177.018L252.178 174.131ZM129.561 174.631H247.678V173.631H129.561V174.631Z" fill="white"/>
<path d="M229.984 166.016H225.792L225.12 168H222.256L226.32 156.768H229.488L233.552 168H230.656L229.984 166.016ZM229.28 163.904L227.888 159.792L226.512 163.904H229.28Z" fill="white"/>
<path d="M169.792 244.24C170.443 244.379 170.965 244.704 171.36 245.216C171.755 245.717 171.952 246.293 171.952 246.944C171.952 247.883 171.621 248.629 170.96 249.184C170.309 249.728 169.397 250 168.224 250H162.992V238.768H168.048C169.189 238.768 170.08 239.029 170.72 239.552C171.371 240.075 171.696 240.784 171.696 241.68C171.696 242.341 171.52 242.891 171.168 243.328C170.827 243.765 170.368 244.069 169.792 244.24ZM165.728 243.312H167.52C167.968 243.312 168.309 243.216 168.544 243.024C168.789 242.821 168.912 242.528 168.912 242.144C168.912 241.76 168.789 241.467 168.544 241.264C168.309 241.061 167.968 240.96 167.52 240.96H165.728V243.312ZM167.744 247.792C168.203 247.792 168.555 247.691 168.8 247.488C169.056 247.275 169.184 246.971 169.184 246.576C169.184 246.181 169.051 245.872 168.784 245.648C168.528 245.424 168.171 245.312 167.712 245.312H165.728V247.792H167.744Z" fill="white"/>
</svg>
