<svg width="376" height="546" viewBox="0 0 376 546" fill="none" xmlns="http://www.w3.org/2000/svg">
<rect width="376" height="546" rx="20" fill="#FCFCFC"/>
<path d="M105.072 342.768V344.96H102.096V354H99.36V344.96H96.384V342.768H105.072ZM105.901 349.52C105.901 348.603 106.072 347.797 106.413 347.104C106.765 346.411 107.24 345.877 107.837 345.504C108.434 345.131 109.101 344.944 109.837 344.944C110.466 344.944 111.016 345.072 111.485 345.328C111.965 345.584 112.333 345.92 112.589 346.336V345.072H115.325V354H112.589V352.736C112.322 353.152 111.949 353.488 111.469 353.744C111 354 110.45 354.128 109.821 354.128C109.096 354.128 108.434 353.941 107.837 353.568C107.24 353.184 106.765 352.645 106.413 351.952C106.072 351.248 105.901 350.437 105.901 349.52ZM112.589 349.536C112.589 348.853 112.397 348.315 112.013 347.92C111.64 347.525 111.181 347.328 110.637 347.328C110.093 347.328 109.629 347.525 109.245 347.92C108.872 348.304 108.685 348.837 108.685 349.52C108.685 350.203 108.872 350.747 109.245 351.152C109.629 351.547 110.093 351.744 110.637 351.744C111.181 351.744 111.64 351.547 112.013 351.152C112.397 350.757 112.589 350.219 112.589 349.536ZM120.041 342.16V354H117.305V342.16H120.041ZM124.759 342.16V354H122.023V342.16H124.759ZM135.158 349.392C135.158 349.648 135.142 349.915 135.11 350.192H128.918C128.961 350.747 129.137 351.173 129.446 351.472C129.766 351.76 130.155 351.904 130.614 351.904C131.297 351.904 131.771 351.616 132.038 351.04H134.95C134.801 351.627 134.529 352.155 134.134 352.624C133.75 353.093 133.265 353.461 132.678 353.728C132.091 353.995 131.435 354.128 130.71 354.128C129.835 354.128 129.057 353.941 128.374 353.568C127.691 353.195 127.158 352.661 126.774 351.968C126.39 351.275 126.198 350.464 126.198 349.536C126.198 348.608 126.385 347.797 126.758 347.104C127.142 346.411 127.675 345.877 128.358 345.504C129.041 345.131 129.825 344.944 130.71 344.944C131.574 344.944 132.342 345.125 133.014 345.488C133.686 345.851 134.209 346.368 134.582 347.04C134.966 347.712 135.158 348.496 135.158 349.392ZM132.358 348.672C132.358 348.203 132.198 347.829 131.878 347.552C131.558 347.275 131.158 347.136 130.678 347.136C130.219 347.136 129.83 347.269 129.51 347.536C129.201 347.803 129.009 348.181 128.934 348.672H132.358Z" fill="#1A1A1A"/>
<path d="M116.056 397.112C115.235 397.112 114.499 396.979 113.848 396.712C113.197 396.445 112.675 396.051 112.28 395.528C111.896 395.005 111.693 394.376 111.672 393.64H114.584C114.627 394.056 114.771 394.376 115.016 394.6C115.261 394.813 115.581 394.92 115.976 394.92C116.381 394.92 116.701 394.829 116.936 394.648C117.171 394.456 117.288 394.195 117.288 393.864C117.288 393.587 117.192 393.357 117 393.176C116.819 392.995 116.589 392.845 116.312 392.728C116.045 392.611 115.661 392.477 115.16 392.328C114.435 392.104 113.843 391.88 113.384 391.656C112.925 391.432 112.531 391.101 112.2 390.664C111.869 390.227 111.704 389.656 111.704 388.952C111.704 387.907 112.083 387.091 112.84 386.504C113.597 385.907 114.584 385.608 115.8 385.608C117.037 385.608 118.035 385.907 118.792 386.504C119.549 387.091 119.955 387.912 120.008 388.968H117.048C117.027 388.605 116.893 388.323 116.648 388.12C116.403 387.907 116.088 387.8 115.704 387.8C115.373 387.8 115.107 387.891 114.904 388.072C114.701 388.243 114.6 388.493 114.6 388.824C114.6 389.187 114.771 389.469 115.112 389.672C115.453 389.875 115.987 390.093 116.712 390.328C117.437 390.573 118.024 390.808 118.472 391.032C118.931 391.256 119.325 391.581 119.656 392.008C119.987 392.435 120.152 392.984 120.152 393.656C120.152 394.296 119.987 394.877 119.656 395.4C119.336 395.923 118.867 396.339 118.248 396.648C117.629 396.957 116.899 397.112 116.056 397.112Z" fill="#1A1A1A"/>
<path d="M162.736 394.568V393.192L168.112 385.48H170.32V392.984H171.808V394.568H170.32V397H168.528V394.568H162.736ZM168.608 387.336L164.832 392.984H168.608V387.336ZM175.287 390.904C174.178 390.349 173.623 389.475 173.623 388.28C173.623 387.704 173.767 387.176 174.055 386.696C174.343 386.216 174.775 385.837 175.351 385.56C175.927 385.272 176.631 385.128 177.463 385.128C178.285 385.128 178.983 385.272 179.559 385.56C180.146 385.837 180.583 386.216 180.871 386.696C181.159 387.176 181.303 387.704 181.303 388.28C181.303 388.877 181.149 389.405 180.839 389.864C180.541 390.312 180.141 390.659 179.639 390.904C180.247 391.128 180.727 391.496 181.079 392.008C181.431 392.509 181.607 393.101 181.607 393.784C181.607 394.477 181.431 395.091 181.079 395.624C180.727 396.157 180.237 396.568 179.607 396.856C178.978 397.144 178.263 397.288 177.463 397.288C176.663 397.288 175.949 397.144 175.319 396.856C174.701 396.568 174.215 396.157 173.863 395.624C173.511 395.091 173.335 394.477 173.335 393.784C173.335 393.091 173.511 392.493 173.863 391.992C174.215 391.491 174.69 391.128 175.287 390.904ZM179.559 388.504C179.559 387.907 179.373 387.448 178.999 387.128C178.626 386.808 178.114 386.648 177.463 386.648C176.823 386.648 176.317 386.808 175.943 387.128C175.57 387.448 175.383 387.912 175.383 388.52C175.383 389.053 175.575 389.491 175.959 389.832C176.354 390.163 176.855 390.328 177.463 390.328C178.071 390.328 178.573 390.157 178.967 389.816C179.362 389.475 179.559 389.037 179.559 388.504ZM177.463 391.704C176.759 391.704 176.183 391.88 175.735 392.232C175.298 392.573 175.079 393.069 175.079 393.72C175.079 394.328 175.293 394.824 175.719 395.208C176.146 395.581 176.727 395.768 177.463 395.768C178.189 395.768 178.759 395.576 179.175 395.192C179.602 394.808 179.815 394.317 179.815 393.72C179.815 393.08 179.597 392.584 179.159 392.232C178.733 391.88 178.167 391.704 177.463 391.704ZM187.311 392.584C187.311 391.677 187.492 390.883 187.855 390.2C188.228 389.507 188.74 388.973 189.391 388.6C190.041 388.227 190.788 388.04 191.631 388.04C192.697 388.04 193.577 388.296 194.271 388.808C194.975 389.309 195.449 390.029 195.695 390.968H193.727C193.567 390.531 193.311 390.189 192.959 389.944C192.607 389.699 192.164 389.576 191.631 389.576C190.884 389.576 190.287 389.843 189.839 390.376C189.401 390.899 189.183 391.635 189.183 392.584C189.183 393.533 189.401 394.275 189.839 394.808C190.287 395.341 190.884 395.608 191.631 395.608C192.687 395.608 193.385 395.144 193.727 394.216H195.695C195.439 395.112 194.959 395.827 194.255 396.36C193.551 396.883 192.676 397.144 191.631 397.144C190.788 397.144 190.041 396.957 189.391 396.584C188.74 396.2 188.228 395.667 187.855 394.984C187.492 394.291 187.311 393.491 187.311 392.584ZM208.185 388.04C208.878 388.04 209.497 388.184 210.041 388.472C210.595 388.76 211.027 389.187 211.337 389.752C211.657 390.317 211.817 391 211.817 391.8V397H210.009V392.072C210.009 391.283 209.811 390.68 209.417 390.264C209.022 389.837 208.483 389.624 207.801 389.624C207.118 389.624 206.574 389.837 206.169 390.264C205.774 390.68 205.577 391.283 205.577 392.072V397H203.769V392.072C203.769 391.283 203.571 390.68 203.177 390.264C202.782 389.837 202.243 389.624 201.561 389.624C200.878 389.624 200.334 389.837 199.929 390.264C199.534 390.68 199.337 391.283 199.337 392.072V397H197.513V388.184H199.337V389.192C199.635 388.829 200.014 388.547 200.473 388.344C200.931 388.141 201.422 388.04 201.945 388.04C202.649 388.04 203.278 388.189 203.833 388.488C204.387 388.787 204.814 389.219 205.113 389.784C205.379 389.251 205.795 388.829 206.361 388.52C206.926 388.2 207.534 388.04 208.185 388.04Z" fill="#595959"/>
<path d="M162.736 437.568V436.192L168.112 428.48H170.32V435.984H171.808V437.568H170.32V440H168.528V437.568H162.736ZM168.608 430.336L164.832 435.984H168.608V430.336ZM175.591 436.832C175.698 437.365 175.927 437.771 176.279 438.048C176.631 438.325 177.106 438.464 177.703 438.464C178.461 438.464 179.015 438.165 179.367 437.568C179.719 436.971 179.895 435.952 179.895 434.512C179.639 434.875 179.277 435.157 178.807 435.36C178.349 435.552 177.847 435.648 177.303 435.648C176.61 435.648 175.981 435.509 175.415 435.232C174.85 434.944 174.402 434.523 174.071 433.968C173.751 433.403 173.591 432.72 173.591 431.92C173.591 430.747 173.933 429.813 174.615 429.12C175.309 428.416 176.258 428.064 177.463 428.064C178.914 428.064 179.943 428.549 180.551 429.52C181.17 430.48 181.479 431.957 181.479 433.952C181.479 435.328 181.362 436.453 181.127 437.328C180.903 438.203 180.509 438.864 179.943 439.312C179.378 439.76 178.594 439.984 177.591 439.984C176.45 439.984 175.57 439.685 174.951 439.088C174.333 438.491 173.986 437.739 173.911 436.832H175.591ZM177.623 434.112C178.263 434.112 178.765 433.915 179.127 433.52C179.501 433.115 179.687 432.581 179.687 431.92C179.687 431.184 179.49 430.613 179.095 430.208C178.711 429.792 178.183 429.584 177.511 429.584C176.839 429.584 176.306 429.797 175.911 430.224C175.527 430.64 175.335 431.189 175.335 431.872C175.335 432.523 175.522 433.061 175.895 433.488C176.279 433.904 176.855 434.112 177.623 434.112ZM187.264 435.584C187.264 434.677 187.445 433.883 187.808 433.2C188.181 432.507 188.693 431.973 189.344 431.6C189.995 431.227 190.741 431.04 191.584 431.04C192.651 431.04 193.531 431.296 194.224 431.808C194.928 432.309 195.403 433.029 195.648 433.968H193.68C193.52 433.531 193.264 433.189 192.912 432.944C192.56 432.699 192.117 432.576 191.584 432.576C190.837 432.576 190.24 432.843 189.792 433.376C189.355 433.899 189.136 434.635 189.136 435.584C189.136 436.533 189.355 437.275 189.792 437.808C190.24 438.341 190.837 438.608 191.584 438.608C192.64 438.608 193.339 438.144 193.68 437.216H195.648C195.392 438.112 194.912 438.827 194.208 439.36C193.504 439.883 192.629 440.144 191.584 440.144C190.741 440.144 189.995 439.957 189.344 439.584C188.693 439.2 188.181 438.667 187.808 437.984C187.445 437.291 187.264 436.491 187.264 435.584ZM208.138 431.04C208.831 431.04 209.45 431.184 209.994 431.472C210.548 431.76 210.98 432.187 211.29 432.752C211.61 433.317 211.77 434 211.77 434.8V440H209.962V435.072C209.962 434.283 209.764 433.68 209.37 433.264C208.975 432.837 208.436 432.624 207.754 432.624C207.071 432.624 206.527 432.837 206.122 433.264C205.727 433.68 205.53 434.283 205.53 435.072V440H203.722V435.072C203.722 434.283 203.524 433.68 203.13 433.264C202.735 432.837 202.196 432.624 201.514 432.624C200.831 432.624 200.287 432.837 199.882 433.264C199.487 433.68 199.29 434.283 199.29 435.072V440H197.466V431.184H199.29V432.192C199.588 431.829 199.967 431.547 200.426 431.344C200.884 431.141 201.375 431.04 201.898 431.04C202.602 431.04 203.231 431.189 203.786 431.488C204.34 431.787 204.767 432.219 205.066 432.784C205.332 432.251 205.748 431.829 206.314 431.52C206.879 431.2 207.487 431.04 208.138 431.04Z" fill="#595959"/>
<path d="M170.48 472.904H165.12V476.088C165.344 475.789 165.675 475.539 166.112 475.336C166.56 475.133 167.035 475.032 167.536 475.032C168.432 475.032 169.157 475.224 169.712 475.608C170.277 475.992 170.677 476.477 170.912 477.064C171.157 477.651 171.28 478.269 171.28 478.92C171.28 479.709 171.125 480.413 170.816 481.032C170.517 481.64 170.064 482.12 169.456 482.472C168.859 482.824 168.123 483 167.248 483C166.085 483 165.152 482.712 164.448 482.136C163.744 481.56 163.323 480.797 163.184 479.848H164.96C165.077 480.349 165.339 480.749 165.744 481.048C166.149 481.336 166.656 481.48 167.264 481.48C168.021 481.48 168.587 481.251 168.96 480.792C169.344 480.333 169.536 479.725 169.536 478.968C169.536 478.2 169.344 477.613 168.96 477.208C168.576 476.792 168.011 476.584 167.264 476.584C166.741 476.584 166.299 476.717 165.936 476.984C165.584 477.24 165.328 477.592 165.168 478.04H163.44V471.304H170.48V472.904ZM174.187 480.52C175.211 479.635 176.016 478.909 176.603 478.344C177.2 477.768 177.696 477.171 178.091 476.552C178.485 475.933 178.683 475.315 178.683 474.696C178.683 474.056 178.528 473.555 178.219 473.192C177.92 472.829 177.445 472.648 176.795 472.648C176.165 472.648 175.675 472.851 175.323 473.256C174.981 473.651 174.8 474.184 174.779 474.856H173.019C173.051 473.64 173.413 472.712 174.107 472.072C174.811 471.421 175.701 471.096 176.779 471.096C177.941 471.096 178.848 471.416 179.499 472.056C180.16 472.696 180.491 473.549 180.491 474.616C180.491 475.384 180.293 476.125 179.899 476.84C179.515 477.544 179.051 478.179 178.507 478.744C177.973 479.299 177.291 479.944 176.459 480.68L175.739 481.32H180.811V482.84H173.035V481.512L174.187 480.52ZM186.201 478.584C186.201 477.677 186.383 476.883 186.745 476.2C187.119 475.507 187.631 474.973 188.281 474.6C188.932 474.227 189.679 474.04 190.521 474.04C191.588 474.04 192.468 474.296 193.161 474.808C193.865 475.309 194.34 476.029 194.585 476.968H192.617C192.457 476.531 192.201 476.189 191.849 475.944C191.497 475.699 191.055 475.576 190.521 475.576C189.775 475.576 189.177 475.843 188.729 476.376C188.292 476.899 188.073 477.635 188.073 478.584C188.073 479.533 188.292 480.275 188.729 480.808C189.177 481.341 189.775 481.608 190.521 481.608C191.577 481.608 192.276 481.144 192.617 480.216H194.585C194.329 481.112 193.849 481.827 193.145 482.36C192.441 482.883 191.567 483.144 190.521 483.144C189.679 483.144 188.932 482.957 188.281 482.584C187.631 482.2 187.119 481.667 186.745 480.984C186.383 480.291 186.201 479.491 186.201 478.584ZM207.075 474.04C207.768 474.04 208.387 474.184 208.931 474.472C209.486 474.76 209.918 475.187 210.227 475.752C210.547 476.317 210.707 477 210.707 477.8V483H208.899V478.072C208.899 477.283 208.702 476.68 208.307 476.264C207.912 475.837 207.374 475.624 206.691 475.624C206.008 475.624 205.464 475.837 205.059 476.264C204.664 476.68 204.467 477.283 204.467 478.072V483H202.659V478.072C202.659 477.283 202.462 476.68 202.067 476.264C201.672 475.837 201.134 475.624 200.451 475.624C199.768 475.624 199.224 475.837 198.819 476.264C198.424 476.68 198.227 477.283 198.227 478.072V483H196.403V474.184H198.227V475.192C198.526 474.829 198.904 474.547 199.363 474.344C199.822 474.141 200.312 474.04 200.835 474.04C201.539 474.04 202.168 474.189 202.723 474.488C203.278 474.787 203.704 475.219 204.003 475.784C204.27 475.251 204.686 474.829 205.251 474.52C205.816 474.2 206.424 474.04 207.075 474.04Z" fill="#595959"/>
<path d="M238.352 386.744L233.904 397H232.064L236.56 386.936H230.64V385.384H238.352V386.744ZM246.185 388.04C246.068 387.549 245.854 387.181 245.545 386.936C245.236 386.691 244.804 386.568 244.249 386.568C243.406 386.568 242.777 386.893 242.361 387.544C241.945 388.184 241.726 389.251 241.705 390.744C241.982 390.275 242.388 389.912 242.921 389.656C243.454 389.4 244.03 389.272 244.649 389.272C245.353 389.272 245.972 389.427 246.505 389.736C247.049 390.035 247.47 390.472 247.769 391.048C248.078 391.624 248.233 392.312 248.233 393.112C248.233 393.859 248.084 394.525 247.785 395.112C247.497 395.699 247.065 396.163 246.489 396.504C245.913 396.835 245.22 397 244.409 397C243.31 397 242.446 396.76 241.817 396.28C241.198 395.789 240.761 395.101 240.505 394.216C240.26 393.331 240.137 392.227 240.137 390.904C240.137 387 241.513 385.048 244.265 385.048C245.332 385.048 246.169 385.336 246.777 385.912C247.396 386.488 247.758 387.197 247.865 388.04H246.185ZM244.249 390.808C243.598 390.808 243.044 391.005 242.585 391.4C242.137 391.784 241.913 392.344 241.913 393.08C241.913 393.816 242.121 394.403 242.537 394.84C242.964 395.267 243.556 395.48 244.313 395.48C244.985 395.48 245.513 395.272 245.897 394.856C246.292 394.44 246.489 393.885 246.489 393.192C246.489 392.467 246.297 391.891 245.913 391.464C245.54 391.027 244.985 390.808 244.249 390.808ZM253.967 392.584C253.967 391.677 254.148 390.883 254.511 390.2C254.884 389.507 255.396 388.973 256.047 388.6C256.698 388.227 257.444 388.04 258.287 388.04C259.354 388.04 260.234 388.296 260.927 388.808C261.631 389.309 262.106 390.029 262.351 390.968H260.383C260.223 390.531 259.967 390.189 259.615 389.944C259.263 389.699 258.82 389.576 258.287 389.576C257.54 389.576 256.943 389.843 256.495 390.376C256.058 390.899 255.839 391.635 255.839 392.584C255.839 393.533 256.058 394.275 256.495 394.808C256.943 395.341 257.54 395.608 258.287 395.608C259.343 395.608 260.042 395.144 260.383 394.216H262.351C262.095 395.112 261.615 395.827 260.911 396.36C260.207 396.883 259.332 397.144 258.287 397.144C257.444 397.144 256.698 396.957 256.047 396.584C255.396 396.2 254.884 395.667 254.511 394.984C254.148 394.291 253.967 393.491 253.967 392.584ZM274.841 388.04C275.534 388.04 276.153 388.184 276.697 388.472C277.251 388.76 277.683 389.187 277.993 389.752C278.313 390.317 278.473 391 278.473 391.8V397H276.665V392.072C276.665 391.283 276.467 390.68 276.073 390.264C275.678 389.837 275.139 389.624 274.457 389.624C273.774 389.624 273.23 389.837 272.825 390.264C272.43 390.68 272.233 391.283 272.233 392.072V397H270.425V392.072C270.425 391.283 270.227 390.68 269.833 390.264C269.438 389.837 268.899 389.624 268.217 389.624C267.534 389.624 266.99 389.837 266.585 390.264C266.19 390.68 265.993 391.283 265.993 392.072V397H264.169V388.184H265.993V389.192C266.291 388.829 266.67 388.547 267.129 388.344C267.587 388.141 268.078 388.04 268.601 388.04C269.305 388.04 269.934 388.189 270.489 388.488C271.043 388.787 271.47 389.219 271.769 389.784C272.035 389.251 272.451 388.829 273.017 388.52C273.582 388.2 274.19 388.04 274.841 388.04Z" fill="#595959"/>
<path d="M238.352 429.744L233.904 440H232.064L236.56 429.936H230.64V428.384H238.352V429.744ZM246.185 431.04C246.068 430.549 245.854 430.181 245.545 429.936C245.236 429.691 244.804 429.568 244.249 429.568C243.406 429.568 242.777 429.893 242.361 430.544C241.945 431.184 241.726 432.251 241.705 433.744C241.982 433.275 242.388 432.912 242.921 432.656C243.454 432.4 244.03 432.272 244.649 432.272C245.353 432.272 245.972 432.427 246.505 432.736C247.049 433.035 247.47 433.472 247.769 434.048C248.078 434.624 248.233 435.312 248.233 436.112C248.233 436.859 248.084 437.525 247.785 438.112C247.497 438.699 247.065 439.163 246.489 439.504C245.913 439.835 245.22 440 244.409 440C243.31 440 242.446 439.76 241.817 439.28C241.198 438.789 240.761 438.101 240.505 437.216C240.26 436.331 240.137 435.227 240.137 433.904C240.137 430 241.513 428.048 244.265 428.048C245.332 428.048 246.169 428.336 246.777 428.912C247.396 429.488 247.758 430.197 247.865 431.04H246.185ZM244.249 433.808C243.598 433.808 243.044 434.005 242.585 434.4C242.137 434.784 241.913 435.344 241.913 436.08C241.913 436.816 242.121 437.403 242.537 437.84C242.964 438.267 243.556 438.48 244.313 438.48C244.985 438.48 245.513 438.272 245.897 437.856C246.292 437.44 246.489 436.885 246.489 436.192C246.489 435.467 246.297 434.891 245.913 434.464C245.54 434.027 244.985 433.808 244.249 433.808ZM253.967 435.584C253.967 434.677 254.148 433.883 254.511 433.2C254.884 432.507 255.396 431.973 256.047 431.6C256.698 431.227 257.444 431.04 258.287 431.04C259.354 431.04 260.234 431.296 260.927 431.808C261.631 432.309 262.106 433.029 262.351 433.968H260.383C260.223 433.531 259.967 433.189 259.615 432.944C259.263 432.699 258.82 432.576 258.287 432.576C257.54 432.576 256.943 432.843 256.495 433.376C256.058 433.899 255.839 434.635 255.839 435.584C255.839 436.533 256.058 437.275 256.495 437.808C256.943 438.341 257.54 438.608 258.287 438.608C259.343 438.608 260.042 438.144 260.383 437.216H262.351C262.095 438.112 261.615 438.827 260.911 439.36C260.207 439.883 259.332 440.144 258.287 440.144C257.444 440.144 256.698 439.957 256.047 439.584C255.396 439.2 254.884 438.667 254.511 437.984C254.148 437.291 253.967 436.491 253.967 435.584ZM274.841 431.04C275.534 431.04 276.153 431.184 276.697 431.472C277.251 431.76 277.683 432.187 277.993 432.752C278.313 433.317 278.473 434 278.473 434.8V440H276.665V435.072C276.665 434.283 276.467 433.68 276.073 433.264C275.678 432.837 275.139 432.624 274.457 432.624C273.774 432.624 273.23 432.837 272.825 433.264C272.43 433.68 272.233 434.283 272.233 435.072V440H270.425V435.072C270.425 434.283 270.227 433.68 269.833 433.264C269.438 432.837 268.899 432.624 268.217 432.624C267.534 432.624 266.99 432.837 266.585 433.264C266.19 433.68 265.993 434.283 265.993 435.072V440H264.169V431.184H265.993V432.192C266.291 431.829 266.67 431.547 267.129 431.344C267.587 431.141 268.078 431.04 268.601 431.04C269.305 431.04 269.934 431.189 270.489 431.488C271.043 431.787 271.47 432.219 271.769 432.784C272.035 432.251 272.451 431.829 273.017 431.52C273.582 431.2 274.19 431.04 274.841 431.04Z" fill="#595959"/>
<path d="M231.928 476.904C230.819 476.349 230.264 475.475 230.264 474.28C230.264 473.704 230.408 473.176 230.696 472.696C230.984 472.216 231.416 471.837 231.992 471.56C232.568 471.272 233.272 471.128 234.104 471.128C234.925 471.128 235.624 471.272 236.2 471.56C236.787 471.837 237.224 472.216 237.512 472.696C237.8 473.176 237.944 473.704 237.944 474.28C237.944 474.877 237.789 475.405 237.48 475.864C237.181 476.312 236.781 476.659 236.28 476.904C236.888 477.128 237.368 477.496 237.72 478.008C238.072 478.509 238.248 479.101 238.248 479.784C238.248 480.477 238.072 481.091 237.72 481.624C237.368 482.157 236.877 482.568 236.248 482.856C235.619 483.144 234.904 483.288 234.104 483.288C233.304 483.288 232.589 483.144 231.96 482.856C231.341 482.568 230.856 482.157 230.504 481.624C230.152 481.091 229.976 480.477 229.976 479.784C229.976 479.091 230.152 478.493 230.504 477.992C230.856 477.491 231.331 477.128 231.928 476.904ZM236.2 474.504C236.2 473.907 236.013 473.448 235.64 473.128C235.267 472.808 234.755 472.648 234.104 472.648C233.464 472.648 232.957 472.808 232.584 473.128C232.211 473.448 232.024 473.912 232.024 474.52C232.024 475.053 232.216 475.491 232.6 475.832C232.995 476.163 233.496 476.328 234.104 476.328C234.712 476.328 235.213 476.157 235.608 475.816C236.003 475.475 236.2 475.037 236.2 474.504ZM234.104 477.704C233.4 477.704 232.824 477.88 232.376 478.232C231.939 478.573 231.72 479.069 231.72 479.72C231.72 480.328 231.933 480.824 232.36 481.208C232.787 481.581 233.368 481.768 234.104 481.768C234.829 481.768 235.4 481.576 235.816 481.192C236.243 480.808 236.456 480.317 236.456 479.72C236.456 479.08 236.237 478.584 235.8 478.232C235.373 477.88 234.808 477.704 234.104 477.704ZM240.163 477.016C240.163 475.171 240.472 473.731 241.091 472.696C241.72 471.651 242.798 471.128 244.323 471.128C245.848 471.128 246.92 471.651 247.539 472.696C248.168 473.731 248.483 475.171 248.483 477.016C248.483 478.883 248.168 480.344 247.539 481.4C246.92 482.445 245.848 482.968 244.323 482.968C242.798 482.968 241.72 482.445 241.091 481.4C240.472 480.344 240.163 478.883 240.163 477.016ZM246.691 477.016C246.691 476.152 246.632 475.421 246.515 474.824C246.408 474.227 246.184 473.741 245.843 473.368C245.502 472.984 244.995 472.792 244.323 472.792C243.651 472.792 243.144 472.984 242.803 473.368C242.462 473.741 242.232 474.227 242.115 474.824C242.008 475.421 241.955 476.152 241.955 477.016C241.955 477.912 242.008 478.664 242.115 479.272C242.222 479.88 242.446 480.371 242.787 480.744C243.139 481.117 243.651 481.304 244.323 481.304C244.995 481.304 245.502 481.117 245.843 480.744C246.195 480.371 246.424 479.88 246.531 479.272C246.638 478.664 246.691 477.912 246.691 477.016ZM254.201 478.584C254.201 477.677 254.383 476.883 254.745 476.2C255.119 475.507 255.631 474.973 256.281 474.6C256.932 474.227 257.679 474.04 258.521 474.04C259.588 474.04 260.468 474.296 261.161 474.808C261.865 475.309 262.34 476.029 262.585 476.968H260.617C260.457 476.531 260.201 476.189 259.849 475.944C259.497 475.699 259.055 475.576 258.521 475.576C257.775 475.576 257.177 475.843 256.729 476.376C256.292 476.899 256.073 477.635 256.073 478.584C256.073 479.533 256.292 480.275 256.729 480.808C257.177 481.341 257.775 481.608 258.521 481.608C259.577 481.608 260.276 481.144 260.617 480.216H262.585C262.329 481.112 261.849 481.827 261.145 482.36C260.441 482.883 259.567 483.144 258.521 483.144C257.679 483.144 256.932 482.957 256.281 482.584C255.631 482.2 255.119 481.667 254.745 480.984C254.383 480.291 254.201 479.491 254.201 478.584ZM275.075 474.04C275.768 474.04 276.387 474.184 276.931 474.472C277.486 474.76 277.918 475.187 278.227 475.752C278.547 476.317 278.707 477 278.707 477.8V483H276.899V478.072C276.899 477.283 276.702 476.68 276.307 476.264C275.912 475.837 275.374 475.624 274.691 475.624C274.008 475.624 273.464 475.837 273.059 476.264C272.664 476.68 272.467 477.283 272.467 478.072V483H270.659V478.072C270.659 477.283 270.462 476.68 270.067 476.264C269.672 475.837 269.134 475.624 268.451 475.624C267.768 475.624 267.224 475.837 266.819 476.264C266.424 476.68 266.227 477.283 266.227 478.072V483H264.403V474.184H266.227V475.192C266.526 474.829 266.904 474.547 267.363 474.344C267.822 474.141 268.312 474.04 268.835 474.04C269.539 474.04 270.168 474.189 270.723 474.488C271.278 474.787 271.704 475.219 272.003 475.784C272.27 475.251 272.686 474.829 273.251 474.52C273.816 474.2 274.424 474.04 275.075 474.04Z" fill="#595959"/>
<path d="M121.712 428.768V440H118.976V433.264L116.464 440H114.256L111.728 433.248V440H108.992V428.768H112.224L115.376 436.544L118.496 428.768H121.712Z" fill="#1A1A1A"/>
<path d="M115.728 480.888H119.312V483H112.992V471.768H115.728V480.888Z" fill="#1A1A1A"/>
<path d="M189.984 352.016H185.792L185.12 354H182.256L186.32 342.768H189.488L193.552 354H190.656L189.984 352.016ZM189.28 349.904L187.888 345.792L186.512 349.904H189.28Z" fill="#1A1A1A"/>
<path d="M256.792 348.24C257.443 348.379 257.965 348.704 258.36 349.216C258.755 349.717 258.952 350.293 258.952 350.944C258.952 351.883 258.621 352.629 257.96 353.184C257.309 353.728 256.397 354 255.224 354H249.992V342.768H255.048C256.189 342.768 257.08 343.029 257.72 343.552C258.371 344.075 258.696 344.784 258.696 345.68C258.696 346.341 258.52 346.891 258.168 347.328C257.827 347.765 257.368 348.069 256.792 348.24ZM252.728 347.312H254.52C254.968 347.312 255.309 347.216 255.544 347.024C255.789 346.821 255.912 346.528 255.912 346.144C255.912 345.76 255.789 345.467 255.544 345.264C255.309 345.061 254.968 344.96 254.52 344.96H252.728V347.312ZM254.744 351.792C255.203 351.792 255.555 351.691 255.8 351.488C256.056 351.275 256.184 350.971 256.184 350.576C256.184 350.181 256.051 349.872 255.784 349.648C255.528 349.424 255.171 349.312 254.712 349.312H252.728V351.792H254.744Z" fill="#1A1A1A"/>
<path d="M196.026 76.2319H193.751V62.7929C193.751 62.0274 194.24 61.7509 195.345 61.1343C197.876 59.7734 204.553 56.0947 204.553 49.4815C204.553 39.0833 197.153 38.2753 194.878 38.2753C189.2 38.2753 183.459 41.6988 183.459 49.3539H181.162C181.162 40.189 188.286 36 194.878 36C200.385 36 206.828 39.5299 206.828 49.4815C206.828 57.4556 199.3 61.5809 196.451 63.1544L196.026 63.3883V76.2319Z" fill="#263238"/>
<path d="M253.079 111.418H249.184C249.164 110.318 248.918 109.238 248.465 108.263C248.011 107.287 247.363 106.444 246.571 105.798C243.608 103.213 225.815 98.511 221.337 96.6939C216.86 94.8768 203.378 87.9829 200.931 86.784C197.197 85.3104 193.129 85.3104 189.396 86.784C186.966 87.9829 173.45 94.8955 168.989 96.6939C164.528 98.4923 146.652 103.213 143.755 105.798C142.963 106.444 142.315 107.287 141.862 108.263C141.408 109.238 141.162 110.318 141.142 111.418H137.247C134.934 108.552 134.867 104.974 139.145 101.19C143.422 97.4057 158.769 91.9544 164.112 89.4816C169.455 87.0088 186.966 73.6146 189.612 72.7903C193.275 71.8909 197.068 71.8909 200.731 72.7903C203.378 73.6146 220.855 87.0088 226.214 89.4816C231.574 91.9544 246.921 97.4432 251.182 101.19C255.443 104.936 255.393 108.552 253.079 111.418Z" fill="#DD5491"/>
<path opacity="0.2" d="M253.079 111.418H249.184C249.164 110.318 248.918 109.238 248.465 108.263C248.011 107.287 247.363 106.444 246.571 105.798C243.608 103.213 225.815 98.511 221.337 96.6939C216.86 94.8768 203.378 87.9829 200.931 86.784C197.197 85.3104 193.129 85.3104 189.396 86.784C186.966 87.9829 173.45 94.8955 168.989 96.6939C164.528 98.4923 146.652 103.213 143.755 105.798C142.963 106.444 142.315 107.287 141.862 108.263C141.408 109.238 141.162 110.318 141.142 111.418H137.247C134.934 108.552 134.867 104.974 139.145 101.19C143.422 97.4057 158.769 91.9544 164.112 89.4816C169.455 87.0088 186.966 73.6146 189.612 72.7903C193.275 71.8909 197.068 71.8909 200.731 72.7903C203.378 73.6146 220.855 87.0088 226.214 89.4816C231.574 91.9544 246.921 97.4432 251.182 101.19C255.443 104.936 255.393 108.552 253.079 111.418Z" fill="black"/>
<path d="M165.418 92.2981L162.531 97.2981H168.305L165.418 92.2981ZM165.418 279.423L168.305 274.423H162.531L165.418 279.423ZM164.918 96.7981V274.923H165.918V96.7981H164.918Z" fill="white"/>
<path d="M289.744 266.866C292.978 266.572 295.392 263.798 295.168 260.558C293.908 242.283 289.589 184.484 282.724 142.533C279.544 123.147 272.704 109.861 265.495 100.93C260.966 95.3561 255.246 90.8666 248.756 87.791C242.266 84.7155 235.169 83.1319 227.987 83.1565H214.237C212.599 83.1565 211.032 83.8262 209.9 85.0101L203.948 91.2354C202.816 92.4192 201.249 93.0889 199.611 93.0889H188.953C187.186 93.0889 185.509 92.3098 184.369 90.9596L179.578 85.2858C178.438 83.9356 176.761 83.1565 174.994 83.1565H168.349C158.25 83.129 148.326 85.7923 139.598 90.8723C130.869 95.9524 123.652 103.266 118.687 112.061C112.132 124.21 107.406 137.259 104.66 150.788C97.1736 186.749 92.9665 223.311 92.0885 260.025C92.0151 263.094 94.2964 265.704 97.3439 266.072L116.424 268.378C119.666 268.77 122.626 266.497 123.085 263.264L138.225 156.495L136.478 285.027C136.433 288.354 139.103 291.082 142.43 291.108L249.49 291.948C252.907 291.975 255.656 289.147 255.533 285.733L250.77 153.075L264.578 263.329C264.98 266.538 267.853 268.852 271.074 268.559L289.744 266.866Z" fill="#C74C83"/>
<path opacity="0.2" d="M136.221 136.685C135.088 151.932 113.351 267.113 113.351 267.113L119.036 268.681L122.259 269.073L138.225 156.484C138.225 156.484 137.376 121.416 136.221 136.685Z" fill="black"/>
<path opacity="0.2" d="M272.571 268.424C269.565 247.383 261.963 194.193 257.324 165.267C251.617 128.674 250.659 132.834 250.659 132.834V153.069L265.187 269.077L272.571 268.424Z" fill="black"/>
<path d="M177.494 80.6135L194.331 91.5478L209.687 80.6135L219.293 82.4649L208.206 104.29L194.331 96.1437L178.975 104.29L170.48 82.4649L177.494 80.6135Z" fill="#263238"/>
<path opacity="0.2" d="M177.494 80.6135L194.331 91.5478L209.687 80.6135L219.293 82.4649L208.206 104.29L194.331 96.1437L178.975 104.29L170.48 82.4649L177.494 80.6135Z" fill="#263238"/>
<path d="M90 261.276L124.175 265.632L123.021 272.973L90 268.834V261.276Z" fill="#263238"/>
<path opacity="0.2" d="M90 261.276L124.175 265.632L123.021 272.973L90 268.834V261.276Z" fill="#263238"/>
<path d="M296.989 261.892L262.705 265.028L263.576 272.412L297.512 269.384L296.989 261.892Z" fill="#263238"/>
<path opacity="0.7" d="M196.533 136.687C196.533 137.234 196.371 137.769 196.067 138.224C195.763 138.679 195.331 139.033 194.825 139.243C194.32 139.452 193.764 139.507 193.227 139.4C192.69 139.293 192.198 139.03 191.811 138.643C191.424 138.256 191.16 137.763 191.054 137.227C190.947 136.69 191.002 136.134 191.211 135.629C191.42 135.123 191.775 134.691 192.23 134.387C192.685 134.083 193.22 133.921 193.767 133.921C194.5 133.921 195.204 134.212 195.723 134.731C196.242 135.25 196.533 135.954 196.533 136.687Z" fill="white"/>
<path opacity="0.7" d="M197.665 179.356C197.678 179.911 197.525 180.457 197.226 180.924C196.927 181.392 196.495 181.759 195.985 181.98C195.476 182.2 194.912 182.263 194.366 182.162C193.821 182.06 193.318 181.797 192.922 181.408C192.527 181.018 192.256 180.52 192.146 179.976C192.035 179.432 192.09 178.867 192.302 178.354C192.514 177.842 192.875 177.404 193.337 177.097C193.8 176.79 194.344 176.629 194.899 176.633C195.625 176.633 196.322 176.918 196.84 177.428C197.357 177.937 197.654 178.629 197.665 179.356Z" fill="white"/>
<path opacity="0.7" d="M199.319 223.545C199.323 224.097 199.164 224.639 198.86 225.1C198.556 225.561 198.122 225.922 197.613 226.136C197.104 226.351 196.543 226.409 196.001 226.304C195.458 226.199 194.96 225.935 194.568 225.546C194.175 225.157 193.908 224.66 193.798 224.119C193.689 223.577 193.743 223.016 193.953 222.505C194.164 221.994 194.521 221.558 194.98 221.25C195.439 220.943 195.979 220.779 196.531 220.779C197.267 220.779 197.973 221.07 198.495 221.588C199.017 222.106 199.313 222.809 199.319 223.545Z" fill="white"/>
<path opacity="0.7" d="M199.319 268.756C199.323 269.308 199.164 269.849 198.86 270.31C198.556 270.772 198.122 271.133 197.613 271.347C197.104 271.561 196.543 271.62 196.001 271.514C195.458 271.409 194.96 271.146 194.568 270.757C194.175 270.368 193.908 269.871 193.798 269.329C193.689 268.788 193.743 268.226 193.953 267.716C194.164 267.205 194.521 266.768 194.98 266.461C195.439 266.153 195.979 265.989 196.531 265.989C196.896 265.986 197.258 266.056 197.596 266.194C197.935 266.331 198.242 266.535 198.501 266.792C198.76 267.049 198.966 267.355 199.107 267.692C199.247 268.029 199.319 268.391 199.319 268.756Z" fill="white"/>
<path d="M231.276 86.9871L228.39 91.9871H234.163L231.276 86.9871ZM231.276 292L234.163 287H228.39L231.276 292ZM230.776 91.4871V287.5H231.776V91.4871H230.776Z" fill="white"/>
<path d="M138.862 166.654L143.862 169.541V163.768L138.862 166.654ZM250.396 166.654L245.396 163.768V169.541L250.396 166.654ZM143.362 167.154H245.896V166.154H143.362V167.154Z" fill="white"/>
<path d="M159.593 152.928H155.401L154.729 154.912H151.865L155.929 143.68H159.097L163.161 154.912H160.265L159.593 152.928ZM158.889 150.816L157.497 146.704L156.121 150.816H158.889Z" fill="white"/>
<path d="M245.442 274.495C246.093 274.634 246.615 274.959 247.01 275.471C247.405 275.972 247.602 276.548 247.602 277.199C247.602 278.138 247.271 278.884 246.61 279.439C245.959 279.983 245.047 280.255 243.874 280.255H238.642V269.023H243.698C244.839 269.023 245.73 269.284 246.37 269.807C247.021 270.33 247.346 271.039 247.346 271.935C247.346 272.596 247.17 273.146 246.818 273.583C246.477 274.02 246.018 274.324 245.442 274.495ZM241.378 273.567H243.17C243.618 273.567 243.959 273.471 244.194 273.279C244.439 273.076 244.562 272.783 244.562 272.399C244.562 272.015 244.439 271.722 244.194 271.519C243.959 271.316 243.618 271.215 243.17 271.215H241.378V273.567ZM243.394 278.047C243.853 278.047 244.205 277.946 244.45 277.743C244.706 277.53 244.834 277.226 244.834 276.831C244.834 276.436 244.701 276.127 244.434 275.903C244.178 275.679 243.821 275.567 243.362 275.567H241.378V278.047H243.394Z" fill="white"/>
</svg>
