<svg width="376" height="546" viewBox="0 0 376 546" fill="none" xmlns="http://www.w3.org/2000/svg">
<rect width="376" height="546" rx="20" fill="#FCFCFC"/>
<path d="M37.072 342.768V344.96H34.096V354H31.36V344.96H28.384V342.768H37.072ZM37.9011 349.52C37.9011 348.603 38.0718 347.797 38.4131 347.104C38.7651 346.411 39.2398 345.877 39.8371 345.504C40.4345 345.131 41.1011 344.944 41.8371 344.944C42.4665 344.944 43.0158 345.072 43.4851 345.328C43.9651 345.584 44.3331 345.92 44.5891 346.336V345.072H47.3251V354H44.5891V352.736C44.3225 353.152 43.9491 353.488 43.4691 353.744C42.9998 354 42.4505 354.128 41.8211 354.128C41.0958 354.128 40.4345 353.941 39.8371 353.568C39.2398 353.184 38.7651 352.645 38.4131 351.952C38.0718 351.248 37.9011 350.437 37.9011 349.52ZM44.5891 349.536C44.5891 348.853 44.3971 348.315 44.0131 347.92C43.6398 347.525 43.1811 347.328 42.6371 347.328C42.0931 347.328 41.6291 347.525 41.2451 347.92C40.8718 348.304 40.6851 348.837 40.6851 349.52C40.6851 350.203 40.8718 350.747 41.2451 351.152C41.6291 351.547 42.0931 351.744 42.6371 351.744C43.1811 351.744 43.6398 351.547 44.0131 351.152C44.3971 350.757 44.5891 350.219 44.5891 349.536ZM52.0405 342.16V354H49.3045V342.16H52.0405ZM56.7593 342.16V354H54.0233V342.16H56.7593ZM67.158 349.392C67.158 349.648 67.142 349.915 67.11 350.192H60.918C60.9607 350.747 61.1367 351.173 61.446 351.472C61.766 351.76 62.1553 351.904 62.614 351.904C63.2967 351.904 63.7713 351.616 64.038 351.04H66.95C66.8007 351.627 66.5287 352.155 66.134 352.624C65.75 353.093 65.2647 353.461 64.678 353.728C64.0913 353.995 63.4353 354.128 62.71 354.128C61.8353 354.128 61.0567 353.941 60.374 353.568C59.6913 353.195 59.158 352.661 58.774 351.968C58.39 351.275 58.198 350.464 58.198 349.536C58.198 348.608 58.3847 347.797 58.758 347.104C59.142 346.411 59.6753 345.877 60.358 345.504C61.0407 345.131 61.8247 344.944 62.71 344.944C63.574 344.944 64.342 345.125 65.014 345.488C65.686 345.851 66.2087 346.368 66.582 347.04C66.966 347.712 67.158 348.496 67.158 349.392ZM64.358 348.672C64.358 348.203 64.198 347.829 63.878 347.552C63.558 347.275 63.158 347.136 62.678 347.136C62.2193 347.136 61.83 347.269 61.51 347.536C61.2007 347.803 61.0087 348.181 60.934 348.672H64.358Z" fill="#1A1A1A"/>
<path d="M48.056 397.112C47.2347 397.112 46.4987 396.979 45.848 396.712C45.1973 396.445 44.6747 396.051 44.28 395.528C43.896 395.005 43.6933 394.376 43.672 393.64H46.584C46.6267 394.056 46.7707 394.376 47.016 394.6C47.2613 394.813 47.5813 394.92 47.976 394.92C48.3813 394.92 48.7013 394.829 48.936 394.648C49.1707 394.456 49.288 394.195 49.288 393.864C49.288 393.587 49.192 393.357 49 393.176C48.8187 392.995 48.5893 392.845 48.312 392.728C48.0453 392.611 47.6613 392.477 47.16 392.328C46.4347 392.104 45.8427 391.88 45.384 391.656C44.9253 391.432 44.5307 391.101 44.2 390.664C43.8693 390.227 43.704 389.656 43.704 388.952C43.704 387.907 44.0827 387.091 44.84 386.504C45.5973 385.907 46.584 385.608 47.8 385.608C49.0373 385.608 50.0347 385.907 50.792 386.504C51.5493 387.091 51.9547 387.912 52.008 388.968H49.048C49.0267 388.605 48.8933 388.323 48.648 388.12C48.4027 387.907 48.088 387.8 47.704 387.8C47.3733 387.8 47.1067 387.891 46.904 388.072C46.7013 388.243 46.6 388.493 46.6 388.824C46.6 389.187 46.7707 389.469 47.112 389.672C47.4533 389.875 47.9867 390.093 48.712 390.328C49.4373 390.573 50.024 390.808 50.472 391.032C50.9307 391.256 51.3253 391.581 51.656 392.008C51.9867 392.435 52.152 392.984 52.152 393.656C52.152 394.296 51.9867 394.877 51.656 395.4C51.336 395.923 50.8667 396.339 50.248 396.648C49.6293 396.957 48.8987 397.112 48.056 397.112Z" fill="#1A1A1A"/>
<path d="M94.928 388.216C94.992 387.224 95.3707 386.451 96.064 385.896C96.768 385.341 97.664 385.064 98.752 385.064C99.4987 385.064 100.144 385.197 100.688 385.464C101.232 385.731 101.643 386.093 101.92 386.552C102.197 387.011 102.336 387.528 102.336 388.104C102.336 388.765 102.16 389.331 101.808 389.8C101.456 390.269 101.035 390.584 100.544 390.744V390.808C101.173 391 101.664 391.352 102.016 391.864C102.368 392.365 102.544 393.011 102.544 393.8C102.544 394.429 102.4 394.989 102.112 395.48C101.824 395.971 101.397 396.36 100.832 396.648C100.267 396.925 99.5893 397.064 98.8 397.064C97.648 397.064 96.6987 396.771 95.952 396.184C95.216 395.587 94.8213 394.733 94.768 393.624H96.528C96.5707 394.189 96.7893 394.653 97.184 395.016C97.5787 395.368 98.112 395.544 98.784 395.544C99.4347 395.544 99.936 395.368 100.288 395.016C100.64 394.653 100.816 394.189 100.816 393.624C100.816 392.877 100.576 392.349 100.096 392.04C99.6267 391.72 98.9013 391.56 97.92 391.56H97.504V390.056H97.936C98.8 390.045 99.456 389.901 99.904 389.624C100.363 389.347 100.592 388.909 100.592 388.312C100.592 387.8 100.427 387.395 100.096 387.096C99.7653 386.787 99.296 386.632 98.688 386.632C98.0907 386.632 97.6267 386.787 97.296 387.096C96.9653 387.395 96.768 387.768 96.704 388.216H94.928ZM110.732 388.04C110.615 387.549 110.401 387.181 110.092 386.936C109.783 386.691 109.351 386.568 108.796 386.568C107.953 386.568 107.324 386.893 106.908 387.544C106.492 388.184 106.273 389.251 106.252 390.744C106.529 390.275 106.935 389.912 107.468 389.656C108.001 389.4 108.577 389.272 109.196 389.272C109.9 389.272 110.519 389.427 111.052 389.736C111.596 390.035 112.017 390.472 112.316 391.048C112.625 391.624 112.78 392.312 112.78 393.112C112.78 393.859 112.631 394.525 112.332 395.112C112.044 395.699 111.612 396.163 111.036 396.504C110.46 396.835 109.767 397 108.956 397C107.857 397 106.993 396.76 106.364 396.28C105.745 395.789 105.308 395.101 105.052 394.216C104.807 393.331 104.684 392.227 104.684 390.904C104.684 387 106.06 385.048 108.812 385.048C109.879 385.048 110.716 385.336 111.324 385.912C111.943 386.488 112.305 387.197 112.412 388.04H110.732ZM108.796 390.808C108.145 390.808 107.591 391.005 107.132 391.4C106.684 391.784 106.46 392.344 106.46 393.08C106.46 393.816 106.668 394.403 107.084 394.84C107.511 395.267 108.103 395.48 108.86 395.48C109.532 395.48 110.06 395.272 110.444 394.856C110.839 394.44 111.036 393.885 111.036 393.192C111.036 392.467 110.844 391.891 110.46 391.464C110.087 391.027 109.532 390.808 108.796 390.808ZM118.514 392.584C118.514 391.677 118.695 390.883 119.058 390.2C119.431 389.507 119.943 388.973 120.594 388.6C121.245 388.227 121.991 388.04 122.834 388.04C123.901 388.04 124.781 388.296 125.474 388.808C126.178 389.309 126.653 390.029 126.898 390.968H124.93C124.77 390.531 124.514 390.189 124.162 389.944C123.81 389.699 123.367 389.576 122.834 389.576C122.087 389.576 121.49 389.843 121.042 390.376C120.605 390.899 120.386 391.635 120.386 392.584C120.386 393.533 120.605 394.275 121.042 394.808C121.49 395.341 122.087 395.608 122.834 395.608C123.89 395.608 124.589 395.144 124.93 394.216H126.898C126.642 395.112 126.162 395.827 125.458 396.36C124.754 396.883 123.879 397.144 122.834 397.144C121.991 397.144 121.245 396.957 120.594 396.584C119.943 396.2 119.431 395.667 119.058 394.984C118.695 394.291 118.514 393.491 118.514 392.584ZM139.388 388.04C140.081 388.04 140.7 388.184 141.244 388.472C141.798 388.76 142.23 389.187 142.54 389.752C142.86 390.317 143.02 391 143.02 391.8V397H141.212V392.072C141.212 391.283 141.014 390.68 140.62 390.264C140.225 389.837 139.686 389.624 139.004 389.624C138.321 389.624 137.777 389.837 137.372 390.264C136.977 390.68 136.78 391.283 136.78 392.072V397H134.972V392.072C134.972 391.283 134.774 390.68 134.38 390.264C133.985 389.837 133.446 389.624 132.764 389.624C132.081 389.624 131.537 389.837 131.132 390.264C130.737 390.68 130.54 391.283 130.54 392.072V397H128.716V388.184H130.54V389.192C130.838 388.829 131.217 388.547 131.676 388.344C132.134 388.141 132.625 388.04 133.148 388.04C133.852 388.04 134.481 388.189 135.036 388.488C135.59 388.787 136.017 389.219 136.316 389.784C136.582 389.251 136.998 388.829 137.564 388.52C138.129 388.2 138.737 388.04 139.388 388.04Z" fill="#595959"/>
<path d="M94.928 431.216C94.992 430.224 95.3707 429.451 96.064 428.896C96.768 428.341 97.664 428.064 98.752 428.064C99.4987 428.064 100.144 428.197 100.688 428.464C101.232 428.731 101.643 429.093 101.92 429.552C102.197 430.011 102.336 430.528 102.336 431.104C102.336 431.765 102.16 432.331 101.808 432.8C101.456 433.269 101.035 433.584 100.544 433.744V433.808C101.173 434 101.664 434.352 102.016 434.864C102.368 435.365 102.544 436.011 102.544 436.8C102.544 437.429 102.4 437.989 102.112 438.48C101.824 438.971 101.397 439.36 100.832 439.648C100.267 439.925 99.5893 440.064 98.8 440.064C97.648 440.064 96.6987 439.771 95.952 439.184C95.216 438.587 94.8213 437.733 94.768 436.624H96.528C96.5707 437.189 96.7893 437.653 97.184 438.016C97.5787 438.368 98.112 438.544 98.784 438.544C99.4347 438.544 99.936 438.368 100.288 438.016C100.64 437.653 100.816 437.189 100.816 436.624C100.816 435.877 100.576 435.349 100.096 435.04C99.6267 434.72 98.9013 434.56 97.92 434.56H97.504V433.056H97.936C98.8 433.045 99.456 432.901 99.904 432.624C100.363 432.347 100.592 431.909 100.592 431.312C100.592 430.8 100.427 430.395 100.096 430.096C99.7653 429.787 99.296 429.632 98.688 429.632C98.0907 429.632 97.6267 429.787 97.296 430.096C96.9653 430.395 96.768 430.768 96.704 431.216H94.928ZM106.732 436.832C106.839 437.365 107.068 437.771 107.42 438.048C107.772 438.325 108.247 438.464 108.844 438.464C109.601 438.464 110.156 438.165 110.508 437.568C110.86 436.971 111.036 435.952 111.036 434.512C110.78 434.875 110.417 435.157 109.948 435.36C109.489 435.552 108.988 435.648 108.444 435.648C107.751 435.648 107.121 435.509 106.556 435.232C105.991 434.944 105.543 434.523 105.212 433.968C104.892 433.403 104.732 432.72 104.732 431.92C104.732 430.747 105.073 429.813 105.756 429.12C106.449 428.416 107.399 428.064 108.604 428.064C110.055 428.064 111.084 428.549 111.692 429.52C112.311 430.48 112.62 431.957 112.62 433.952C112.62 435.328 112.503 436.453 112.268 437.328C112.044 438.203 111.649 438.864 111.084 439.312C110.519 439.76 109.735 439.984 108.732 439.984C107.591 439.984 106.711 439.685 106.092 439.088C105.473 438.491 105.127 437.739 105.052 436.832H106.732ZM108.764 434.112C109.404 434.112 109.905 433.915 110.268 433.52C110.641 433.115 110.828 432.581 110.828 431.92C110.828 431.184 110.631 430.613 110.236 430.208C109.852 429.792 109.324 429.584 108.652 429.584C107.98 429.584 107.447 429.797 107.052 430.224C106.668 430.64 106.476 431.189 106.476 431.872C106.476 432.523 106.663 433.061 107.036 433.488C107.42 433.904 107.996 434.112 108.764 434.112ZM118.405 435.584C118.405 434.677 118.586 433.883 118.949 433.2C119.322 432.507 119.834 431.973 120.485 431.6C121.135 431.227 121.882 431.04 122.725 431.04C123.791 431.04 124.671 431.296 125.365 431.808C126.069 432.309 126.543 433.029 126.789 433.968H124.821C124.661 433.531 124.405 433.189 124.053 432.944C123.701 432.699 123.258 432.576 122.725 432.576C121.978 432.576 121.381 432.843 120.933 433.376C120.495 433.899 120.277 434.635 120.277 435.584C120.277 436.533 120.495 437.275 120.933 437.808C121.381 438.341 121.978 438.608 122.725 438.608C123.781 438.608 124.479 438.144 124.821 437.216H126.789C126.533 438.112 126.053 438.827 125.349 439.36C124.645 439.883 123.77 440.144 122.725 440.144C121.882 440.144 121.135 439.957 120.485 439.584C119.834 439.2 119.322 438.667 118.949 437.984C118.586 437.291 118.405 436.491 118.405 435.584ZM139.278 431.04C139.972 431.04 140.59 431.184 141.134 431.472C141.689 431.76 142.121 432.187 142.43 432.752C142.75 433.317 142.91 434 142.91 434.8V440H141.102V435.072C141.102 434.283 140.905 433.68 140.51 433.264C140.116 432.837 139.577 432.624 138.894 432.624C138.212 432.624 137.668 432.837 137.262 433.264C136.868 433.68 136.67 434.283 136.67 435.072V440H134.862V435.072C134.862 434.283 134.665 433.68 134.27 433.264C133.876 432.837 133.337 432.624 132.654 432.624C131.972 432.624 131.428 432.837 131.022 433.264C130.628 433.68 130.43 434.283 130.43 435.072V440H128.606V431.184H130.43V432.192C130.729 431.829 131.108 431.547 131.566 431.344C132.025 431.141 132.516 431.04 133.038 431.04C133.742 431.04 134.372 431.189 134.926 431.488C135.481 431.787 135.908 432.219 136.206 432.784C136.473 432.251 136.889 431.829 137.454 431.52C138.02 431.2 138.628 431.04 139.278 431.04Z" fill="#595959"/>
<path d="M95.736 480.568V479.192L101.112 471.48H103.32V478.984H104.808V480.568H103.32V483H101.528V480.568H95.736ZM101.608 473.336L97.832 478.984H101.608V473.336ZM107.327 480.52C108.351 479.635 109.157 478.909 109.743 478.344C110.341 477.768 110.837 477.171 111.231 476.552C111.626 475.933 111.823 475.315 111.823 474.696C111.823 474.056 111.669 473.555 111.359 473.192C111.061 472.829 110.586 472.648 109.935 472.648C109.306 472.648 108.815 472.851 108.463 473.256C108.122 473.651 107.941 474.184 107.919 474.856H106.159C106.191 473.64 106.554 472.712 107.247 472.072C107.951 471.421 108.842 471.096 109.919 471.096C111.082 471.096 111.989 471.416 112.639 472.056C113.301 472.696 113.631 473.549 113.631 474.616C113.631 475.384 113.434 476.125 113.039 476.84C112.655 477.544 112.191 478.179 111.647 478.744C111.114 479.299 110.431 479.944 109.599 480.68L108.879 481.32H113.951V482.84H106.175V481.512L107.327 480.52ZM119.342 478.584C119.342 477.677 119.523 476.883 119.886 476.2C120.259 475.507 120.771 474.973 121.422 474.6C122.073 474.227 122.819 474.04 123.662 474.04C124.729 474.04 125.609 474.296 126.302 474.808C127.006 475.309 127.481 476.029 127.726 476.968H125.758C125.598 476.531 125.342 476.189 124.99 475.944C124.638 475.699 124.195 475.576 123.662 475.576C122.915 475.576 122.318 475.843 121.87 476.376C121.433 476.899 121.214 477.635 121.214 478.584C121.214 479.533 121.433 480.275 121.87 480.808C122.318 481.341 122.915 481.608 123.662 481.608C124.718 481.608 125.417 481.144 125.758 480.216H127.726C127.47 481.112 126.99 481.827 126.286 482.36C125.582 482.883 124.707 483.144 123.662 483.144C122.819 483.144 122.073 482.957 121.422 482.584C120.771 482.2 120.259 481.667 119.886 480.984C119.523 480.291 119.342 479.491 119.342 478.584ZM140.216 474.04C140.909 474.04 141.528 474.184 142.072 474.472C142.626 474.76 143.058 475.187 143.368 475.752C143.688 476.317 143.848 477 143.848 477.8V483H142.04V478.072C142.04 477.283 141.842 476.68 141.448 476.264C141.053 475.837 140.514 475.624 139.832 475.624C139.149 475.624 138.605 475.837 138.2 476.264C137.805 476.68 137.608 477.283 137.608 478.072V483H135.8V478.072C135.8 477.283 135.602 476.68 135.208 476.264C134.813 475.837 134.274 475.624 133.592 475.624C132.909 475.624 132.365 475.837 131.96 476.264C131.565 476.68 131.368 477.283 131.368 478.072V483H129.544V474.184H131.368V475.192C131.666 474.829 132.045 474.547 132.504 474.344C132.962 474.141 133.453 474.04 133.976 474.04C134.68 474.04 135.309 474.189 135.864 474.488C136.418 474.787 136.845 475.219 137.144 475.784C137.41 475.251 137.826 474.829 138.392 474.52C138.957 474.2 139.565 474.04 140.216 474.04Z" fill="#595959"/>
<path d="M164.232 393.832C164.339 394.365 164.568 394.771 164.92 395.048C165.272 395.325 165.747 395.464 166.344 395.464C167.101 395.464 167.656 395.165 168.008 394.568C168.36 393.971 168.536 392.952 168.536 391.512C168.28 391.875 167.917 392.157 167.448 392.36C166.989 392.552 166.488 392.648 165.944 392.648C165.251 392.648 164.621 392.509 164.056 392.232C163.491 391.944 163.043 391.523 162.712 390.968C162.392 390.403 162.232 389.72 162.232 388.92C162.232 387.747 162.573 386.813 163.256 386.12C163.949 385.416 164.899 385.064 166.104 385.064C167.555 385.064 168.584 385.549 169.192 386.52C169.811 387.48 170.12 388.957 170.12 390.952C170.12 392.328 170.003 393.453 169.768 394.328C169.544 395.203 169.149 395.864 168.584 396.312C168.019 396.76 167.235 396.984 166.232 396.984C165.091 396.984 164.211 396.685 163.592 396.088C162.973 395.491 162.627 394.739 162.552 393.832H164.232ZM166.264 391.112C166.904 391.112 167.405 390.915 167.768 390.52C168.141 390.115 168.328 389.581 168.328 388.92C168.328 388.184 168.131 387.613 167.736 387.208C167.352 386.792 166.824 386.584 166.152 386.584C165.48 386.584 164.947 386.797 164.552 387.224C164.168 387.64 163.976 388.189 163.976 388.872C163.976 389.523 164.163 390.061 164.536 390.488C164.92 390.904 165.496 391.112 166.264 391.112ZM178.388 388.04C178.271 387.549 178.058 387.181 177.748 386.936C177.439 386.691 177.007 386.568 176.452 386.568C175.61 386.568 174.98 386.893 174.564 387.544C174.148 388.184 173.93 389.251 173.908 390.744C174.186 390.275 174.591 389.912 175.124 389.656C175.658 389.4 176.234 389.272 176.852 389.272C177.556 389.272 178.175 389.427 178.708 389.736C179.252 390.035 179.674 390.472 179.972 391.048C180.282 391.624 180.436 392.312 180.436 393.112C180.436 393.859 180.287 394.525 179.988 395.112C179.7 395.699 179.268 396.163 178.692 396.504C178.116 396.835 177.423 397 176.612 397C175.514 397 174.65 396.76 174.02 396.28C173.402 395.789 172.964 395.101 172.708 394.216C172.463 393.331 172.34 392.227 172.34 390.904C172.34 387 173.716 385.048 176.468 385.048C177.535 385.048 178.372 385.336 178.98 385.912C179.599 386.488 179.962 387.197 180.068 388.04H178.388ZM176.452 390.808C175.802 390.808 175.247 391.005 174.788 391.4C174.34 391.784 174.116 392.344 174.116 393.08C174.116 393.816 174.324 394.403 174.74 394.84C175.167 395.267 175.759 395.48 176.516 395.48C177.188 395.48 177.716 395.272 178.1 394.856C178.495 394.44 178.692 393.885 178.692 393.192C178.692 392.467 178.5 391.891 178.116 391.464C177.743 391.027 177.188 390.808 176.452 390.808ZM186.17 392.584C186.17 391.677 186.351 390.883 186.714 390.2C187.087 389.507 187.599 388.973 188.25 388.6C188.901 388.227 189.647 388.04 190.49 388.04C191.557 388.04 192.437 388.296 193.13 388.808C193.834 389.309 194.309 390.029 194.554 390.968H192.586C192.426 390.531 192.17 390.189 191.818 389.944C191.466 389.699 191.023 389.576 190.49 389.576C189.743 389.576 189.146 389.843 188.698 390.376C188.261 390.899 188.042 391.635 188.042 392.584C188.042 393.533 188.261 394.275 188.698 394.808C189.146 395.341 189.743 395.608 190.49 395.608C191.546 395.608 192.245 395.144 192.586 394.216H194.554C194.298 395.112 193.818 395.827 193.114 396.36C192.41 396.883 191.535 397.144 190.49 397.144C189.647 397.144 188.901 396.957 188.25 396.584C187.599 396.2 187.087 395.667 186.714 394.984C186.351 394.291 186.17 393.491 186.17 392.584ZM207.044 388.04C207.737 388.04 208.356 388.184 208.9 388.472C209.455 388.76 209.887 389.187 210.196 389.752C210.516 390.317 210.676 391 210.676 391.8V397H208.868V392.072C208.868 391.283 208.671 390.68 208.276 390.264C207.881 389.837 207.343 389.624 206.66 389.624C205.977 389.624 205.433 389.837 205.028 390.264C204.633 390.68 204.436 391.283 204.436 392.072V397H202.628V392.072C202.628 391.283 202.431 390.68 202.036 390.264C201.641 389.837 201.103 389.624 200.42 389.624C199.737 389.624 199.193 389.837 198.788 390.264C198.393 390.68 198.196 391.283 198.196 392.072V397H196.372V388.184H198.196V389.192C198.495 388.829 198.873 388.547 199.332 388.344C199.791 388.141 200.281 388.04 200.804 388.04C201.508 388.04 202.137 388.189 202.692 388.488C203.247 388.787 203.673 389.219 203.972 389.784C204.239 389.251 204.655 388.829 205.22 388.52C205.785 388.2 206.393 388.04 207.044 388.04Z" fill="#595959"/>
<path d="M164.232 436.832C164.339 437.365 164.568 437.771 164.92 438.048C165.272 438.325 165.747 438.464 166.344 438.464C167.101 438.464 167.656 438.165 168.008 437.568C168.36 436.971 168.536 435.952 168.536 434.512C168.28 434.875 167.917 435.157 167.448 435.36C166.989 435.552 166.488 435.648 165.944 435.648C165.251 435.648 164.621 435.509 164.056 435.232C163.491 434.944 163.043 434.523 162.712 433.968C162.392 433.403 162.232 432.72 162.232 431.92C162.232 430.747 162.573 429.813 163.256 429.12C163.949 428.416 164.899 428.064 166.104 428.064C167.555 428.064 168.584 428.549 169.192 429.52C169.811 430.48 170.12 431.957 170.12 433.952C170.12 435.328 170.003 436.453 169.768 437.328C169.544 438.203 169.149 438.864 168.584 439.312C168.019 439.76 167.235 439.984 166.232 439.984C165.091 439.984 164.211 439.685 163.592 439.088C162.973 438.491 162.627 437.739 162.552 436.832H164.232ZM166.264 434.112C166.904 434.112 167.405 433.915 167.768 433.52C168.141 433.115 168.328 432.581 168.328 431.92C168.328 431.184 168.131 430.613 167.736 430.208C167.352 429.792 166.824 429.584 166.152 429.584C165.48 429.584 164.947 429.797 164.552 430.224C164.168 430.64 163.976 431.189 163.976 431.872C163.976 432.523 164.163 433.061 164.536 433.488C164.92 433.904 165.496 434.112 166.264 434.112ZM174.084 433.904C172.975 433.349 172.42 432.475 172.42 431.28C172.42 430.704 172.564 430.176 172.852 429.696C173.14 429.216 173.572 428.837 174.148 428.56C174.724 428.272 175.428 428.128 176.26 428.128C177.082 428.128 177.78 428.272 178.356 428.56C178.943 428.837 179.38 429.216 179.668 429.696C179.956 430.176 180.1 430.704 180.1 431.28C180.1 431.877 179.946 432.405 179.636 432.864C179.338 433.312 178.938 433.659 178.436 433.904C179.044 434.128 179.524 434.496 179.876 435.008C180.228 435.509 180.404 436.101 180.404 436.784C180.404 437.477 180.228 438.091 179.876 438.624C179.524 439.157 179.034 439.568 178.404 439.856C177.775 440.144 177.06 440.288 176.26 440.288C175.46 440.288 174.746 440.144 174.116 439.856C173.498 439.568 173.012 439.157 172.66 438.624C172.308 438.091 172.132 437.477 172.132 436.784C172.132 436.091 172.308 435.493 172.66 434.992C173.012 434.491 173.487 434.128 174.084 433.904ZM178.356 431.504C178.356 430.907 178.17 430.448 177.796 430.128C177.423 429.808 176.911 429.648 176.26 429.648C175.62 429.648 175.114 429.808 174.74 430.128C174.367 430.448 174.18 430.912 174.18 431.52C174.18 432.053 174.372 432.491 174.756 432.832C175.151 433.163 175.652 433.328 176.26 433.328C176.868 433.328 177.37 433.157 177.764 432.816C178.159 432.475 178.356 432.037 178.356 431.504ZM176.26 434.704C175.556 434.704 174.98 434.88 174.532 435.232C174.095 435.573 173.876 436.069 173.876 436.72C173.876 437.328 174.09 437.824 174.516 438.208C174.943 438.581 175.524 438.768 176.26 438.768C176.986 438.768 177.556 438.576 177.972 438.192C178.399 437.808 178.612 437.317 178.612 436.72C178.612 436.08 178.394 435.584 177.956 435.232C177.53 434.88 176.964 434.704 176.26 434.704ZM186.108 435.584C186.108 434.677 186.289 433.883 186.652 433.2C187.025 432.507 187.537 431.973 188.188 431.6C188.838 431.227 189.585 431.04 190.428 431.04C191.494 431.04 192.374 431.296 193.068 431.808C193.772 432.309 194.246 433.029 194.492 433.968H192.524C192.364 433.531 192.108 433.189 191.756 432.944C191.404 432.699 190.961 432.576 190.428 432.576C189.681 432.576 189.084 432.843 188.636 433.376C188.198 433.899 187.98 434.635 187.98 435.584C187.98 436.533 188.198 437.275 188.636 437.808C189.084 438.341 189.681 438.608 190.428 438.608C191.484 438.608 192.182 438.144 192.524 437.216H194.492C194.236 438.112 193.756 438.827 193.052 439.36C192.348 439.883 191.473 440.144 190.428 440.144C189.585 440.144 188.838 439.957 188.188 439.584C187.537 439.2 187.025 438.667 186.652 437.984C186.289 437.291 186.108 436.491 186.108 435.584ZM206.981 431.04C207.675 431.04 208.293 431.184 208.837 431.472C209.392 431.76 209.824 432.187 210.133 432.752C210.453 433.317 210.613 434 210.613 434.8V440H208.805V435.072C208.805 434.283 208.608 433.68 208.213 433.264C207.819 432.837 207.28 432.624 206.597 432.624C205.915 432.624 205.371 432.837 204.965 433.264C204.571 433.68 204.373 434.283 204.373 435.072V440H202.565V435.072C202.565 434.283 202.368 433.68 201.973 433.264C201.579 432.837 201.04 432.624 200.357 432.624C199.675 432.624 199.131 432.837 198.725 433.264C198.331 433.68 198.133 434.283 198.133 435.072V440H196.309V431.184H198.133V432.192C198.432 431.829 198.811 431.547 199.269 431.344C199.728 431.141 200.219 431.04 200.741 431.04C201.445 431.04 202.075 431.189 202.629 431.488C203.184 431.787 203.611 432.219 203.909 432.784C204.176 432.251 204.592 431.829 205.157 431.52C205.723 431.2 206.331 431.04 206.981 431.04Z" fill="#595959"/>
<path d="M164.232 479.832C164.339 480.365 164.568 480.771 164.92 481.048C165.272 481.325 165.747 481.464 166.344 481.464C167.101 481.464 167.656 481.165 168.008 480.568C168.36 479.971 168.536 478.952 168.536 477.512C168.28 477.875 167.917 478.157 167.448 478.36C166.989 478.552 166.488 478.648 165.944 478.648C165.251 478.648 164.621 478.509 164.056 478.232C163.491 477.944 163.043 477.523 162.712 476.968C162.392 476.403 162.232 475.72 162.232 474.92C162.232 473.747 162.573 472.813 163.256 472.12C163.949 471.416 164.899 471.064 166.104 471.064C167.555 471.064 168.584 471.549 169.192 472.52C169.811 473.48 170.12 474.957 170.12 476.952C170.12 478.328 170.003 479.453 169.768 480.328C169.544 481.203 169.149 481.864 168.584 482.312C168.019 482.76 167.235 482.984 166.232 482.984C165.091 482.984 164.211 482.685 163.592 482.088C162.973 481.491 162.627 480.739 162.552 479.832H164.232ZM166.264 477.112C166.904 477.112 167.405 476.915 167.768 476.52C168.141 476.115 168.328 475.581 168.328 474.92C168.328 474.184 168.131 473.613 167.736 473.208C167.352 472.792 166.824 472.584 166.152 472.584C165.48 472.584 164.947 472.797 164.552 473.224C164.168 473.64 163.976 474.189 163.976 474.872C163.976 475.523 164.163 476.061 164.536 476.488C164.92 476.904 165.496 477.112 166.264 477.112ZM174.388 479.832C174.495 480.365 174.724 480.771 175.076 481.048C175.428 481.325 175.903 481.464 176.5 481.464C177.258 481.464 177.812 481.165 178.164 480.568C178.516 479.971 178.692 478.952 178.692 477.512C178.436 477.875 178.074 478.157 177.604 478.36C177.146 478.552 176.644 478.648 176.1 478.648C175.407 478.648 174.778 478.509 174.212 478.232C173.647 477.944 173.199 477.523 172.868 476.968C172.548 476.403 172.388 475.72 172.388 474.92C172.388 473.747 172.73 472.813 173.412 472.12C174.106 471.416 175.055 471.064 176.26 471.064C177.711 471.064 178.74 471.549 179.348 472.52C179.967 473.48 180.276 474.957 180.276 476.952C180.276 478.328 180.159 479.453 179.924 480.328C179.7 481.203 179.306 481.864 178.74 482.312C178.175 482.76 177.391 482.984 176.388 482.984C175.247 482.984 174.367 482.685 173.748 482.088C173.13 481.491 172.783 480.739 172.708 479.832H174.388ZM176.42 477.112C177.06 477.112 177.562 476.915 177.924 476.52C178.298 476.115 178.484 475.581 178.484 474.92C178.484 474.184 178.287 473.613 177.892 473.208C177.508 472.792 176.98 472.584 176.308 472.584C175.636 472.584 175.103 472.797 174.708 473.224C174.324 473.64 174.132 474.189 174.132 474.872C174.132 475.523 174.319 476.061 174.692 476.488C175.076 476.904 175.652 477.112 176.42 477.112ZM186.061 478.584C186.061 477.677 186.242 476.883 186.605 476.2C186.978 475.507 187.49 474.973 188.141 474.6C188.791 474.227 189.538 474.04 190.381 474.04C191.447 474.04 192.327 474.296 193.021 474.808C193.725 475.309 194.199 476.029 194.445 476.968H192.477C192.317 476.531 192.061 476.189 191.709 475.944C191.357 475.699 190.914 475.576 190.381 475.576C189.634 475.576 189.037 475.843 188.589 476.376C188.151 476.899 187.933 477.635 187.933 478.584C187.933 479.533 188.151 480.275 188.589 480.808C189.037 481.341 189.634 481.608 190.381 481.608C191.437 481.608 192.135 481.144 192.477 480.216H194.445C194.189 481.112 193.709 481.827 193.005 482.36C192.301 482.883 191.426 483.144 190.381 483.144C189.538 483.144 188.791 482.957 188.141 482.584C187.49 482.2 186.978 481.667 186.605 480.984C186.242 480.291 186.061 479.491 186.061 478.584ZM206.935 474.04C207.628 474.04 208.247 474.184 208.791 474.472C209.345 474.76 209.777 475.187 210.087 475.752C210.407 476.317 210.567 477 210.567 477.8V483H208.759V478.072C208.759 477.283 208.561 476.68 208.167 476.264C207.772 475.837 207.233 475.624 206.551 475.624C205.868 475.624 205.324 475.837 204.919 476.264C204.524 476.68 204.327 477.283 204.327 478.072V483H202.519V478.072C202.519 477.283 202.321 476.68 201.927 476.264C201.532 475.837 200.993 475.624 200.311 475.624C199.628 475.624 199.084 475.837 198.679 476.264C198.284 476.68 198.087 477.283 198.087 478.072V483H196.263V474.184H198.087V475.192C198.385 474.829 198.764 474.547 199.223 474.344C199.681 474.141 200.172 474.04 200.695 474.04C201.399 474.04 202.028 474.189 202.583 474.488C203.137 474.787 203.564 475.219 203.863 475.784C204.129 475.251 204.545 474.829 205.111 474.52C205.676 474.2 206.284 474.04 206.935 474.04Z" fill="#595959"/>
<path d="M53.712 428.768V440H50.976V433.264L48.464 440H46.256L43.728 433.248V440H40.992V428.768H44.224L47.376 436.544L50.496 428.768H53.712Z" fill="#1A1A1A"/>
<path d="M47.728 480.888H51.312V483H44.992V471.768H47.728V480.888Z" fill="#1A1A1A"/>
<path d="M121.984 352.016H117.792L117.12 354H114.256L118.32 342.768H121.488L125.552 354H122.656L121.984 352.016ZM121.28 349.904L119.888 345.792L118.512 349.904H121.28Z" fill="#1A1A1A"/>
<path d="M188.792 348.24C189.443 348.379 189.965 348.704 190.36 349.216C190.755 349.717 190.952 350.293 190.952 350.944C190.952 351.883 190.621 352.629 189.96 353.184C189.309 353.728 188.397 354 187.224 354H181.992V342.768H187.048C188.189 342.768 189.08 343.029 189.72 343.552C190.371 344.075 190.696 344.784 190.696 345.68C190.696 346.341 190.52 346.891 190.168 347.328C189.827 347.765 189.368 348.069 188.792 348.24ZM184.728 347.312H186.52C186.968 347.312 187.309 347.216 187.544 347.024C187.789 346.821 187.912 346.528 187.912 346.144C187.912 345.76 187.789 345.467 187.544 345.264C187.309 345.061 186.968 344.96 186.52 344.96H184.728V347.312ZM186.744 351.792C187.203 351.792 187.555 351.691 187.8 351.488C188.056 351.275 188.184 350.971 188.184 350.576C188.184 350.181 188.051 349.872 187.784 349.648C187.528 349.424 187.171 349.312 186.712 349.312H184.728V351.792H186.744Z" fill="#1A1A1A"/>
<path d="M232.968 394.52C233.992 393.635 234.797 392.909 235.384 392.344C235.981 391.768 236.477 391.171 236.872 390.552C237.267 389.933 237.464 389.315 237.464 388.696C237.464 388.056 237.309 387.555 237 387.192C236.701 386.829 236.227 386.648 235.576 386.648C234.947 386.648 234.456 386.851 234.104 387.256C233.763 387.651 233.581 388.184 233.56 388.856H231.8C231.832 387.64 232.195 386.712 232.888 386.072C233.592 385.421 234.483 385.096 235.56 385.096C236.723 385.096 237.629 385.416 238.28 386.056C238.941 386.696 239.272 387.549 239.272 388.616C239.272 389.384 239.075 390.125 238.68 390.84C238.296 391.544 237.832 392.179 237.288 392.744C236.755 393.299 236.072 393.944 235.24 394.68L234.52 395.32H239.592V396.84H231.816V395.512L232.968 394.52ZM248.586 386.744L244.138 397H242.298L246.794 386.936H240.874V385.384H248.586V386.744ZM253.936 392.584C253.936 391.677 254.117 390.883 254.48 390.2C254.853 389.507 255.365 388.973 256.016 388.6C256.666 388.227 257.413 388.04 258.256 388.04C259.322 388.04 260.202 388.296 260.896 388.808C261.6 389.309 262.074 390.029 262.32 390.968H260.352C260.192 390.531 259.936 390.189 259.584 389.944C259.232 389.699 258.789 389.576 258.256 389.576C257.509 389.576 256.912 389.843 256.464 390.376C256.026 390.899 255.808 391.635 255.808 392.584C255.808 393.533 256.026 394.275 256.464 394.808C256.912 395.341 257.509 395.608 258.256 395.608C259.312 395.608 260.01 395.144 260.352 394.216H262.32C262.064 395.112 261.584 395.827 260.88 396.36C260.176 396.883 259.301 397.144 258.256 397.144C257.413 397.144 256.666 396.957 256.016 396.584C255.365 396.2 254.853 395.667 254.48 394.984C254.117 394.291 253.936 393.491 253.936 392.584ZM274.81 388.04C275.503 388.04 276.122 388.184 276.666 388.472C277.22 388.76 277.652 389.187 277.962 389.752C278.282 390.317 278.442 391 278.442 391.8V397H276.634V392.072C276.634 391.283 276.436 390.68 276.042 390.264C275.647 389.837 275.108 389.624 274.426 389.624C273.743 389.624 273.199 389.837 272.794 390.264C272.399 390.68 272.202 391.283 272.202 392.072V397H270.394V392.072C270.394 391.283 270.196 390.68 269.802 390.264C269.407 389.837 268.868 389.624 268.186 389.624C267.503 389.624 266.959 389.837 266.554 390.264C266.159 390.68 265.962 391.283 265.962 392.072V397H264.138V388.184H265.962V389.192C266.26 388.829 266.639 388.547 267.098 388.344C267.556 388.141 268.047 388.04 268.57 388.04C269.274 388.04 269.903 388.189 270.458 388.488C271.012 388.787 271.439 389.219 271.738 389.784C272.004 389.251 272.42 388.829 272.986 388.52C273.551 388.2 274.159 388.04 274.81 388.04Z" fill="#595959"/>
<path d="M231.968 437.52C232.992 436.635 233.797 435.909 234.384 435.344C234.981 434.768 235.477 434.171 235.872 433.552C236.267 432.933 236.464 432.315 236.464 431.696C236.464 431.056 236.309 430.555 236 430.192C235.701 429.829 235.227 429.648 234.576 429.648C233.947 429.648 233.456 429.851 233.104 430.256C232.763 430.651 232.581 431.184 232.56 431.856H230.8C230.832 430.64 231.195 429.712 231.888 429.072C232.592 428.421 233.483 428.096 234.56 428.096C235.723 428.096 236.629 428.416 237.28 429.056C237.941 429.696 238.272 430.549 238.272 431.616C238.272 432.384 238.075 433.125 237.68 433.84C237.296 434.544 236.832 435.179 236.288 435.744C235.755 436.299 235.072 436.944 234.24 437.68L233.52 438.32H238.592V439.84H230.816V438.512L231.968 437.52ZM242.162 433.904C241.053 433.349 240.498 432.475 240.498 431.28C240.498 430.704 240.642 430.176 240.93 429.696C241.218 429.216 241.65 428.837 242.226 428.56C242.802 428.272 243.506 428.128 244.338 428.128C245.16 428.128 245.858 428.272 246.434 428.56C247.021 428.837 247.458 429.216 247.746 429.696C248.034 430.176 248.178 430.704 248.178 431.28C248.178 431.877 248.024 432.405 247.714 432.864C247.416 433.312 247.016 433.659 246.514 433.904C247.122 434.128 247.602 434.496 247.954 435.008C248.306 435.509 248.482 436.101 248.482 436.784C248.482 437.477 248.306 438.091 247.954 438.624C247.602 439.157 247.112 439.568 246.482 439.856C245.853 440.144 245.138 440.288 244.338 440.288C243.538 440.288 242.824 440.144 242.194 439.856C241.576 439.568 241.09 439.157 240.738 438.624C240.386 438.091 240.21 437.477 240.21 436.784C240.21 436.091 240.386 435.493 240.738 434.992C241.09 434.491 241.565 434.128 242.162 433.904ZM246.434 431.504C246.434 430.907 246.248 430.448 245.874 430.128C245.501 429.808 244.989 429.648 244.338 429.648C243.698 429.648 243.192 429.808 242.818 430.128C242.445 430.448 242.258 430.912 242.258 431.52C242.258 432.053 242.45 432.491 242.834 432.832C243.229 433.163 243.73 433.328 244.338 433.328C244.946 433.328 245.448 433.157 245.842 432.816C246.237 432.475 246.434 432.037 246.434 431.504ZM244.338 434.704C243.634 434.704 243.058 434.88 242.61 435.232C242.173 435.573 241.954 436.069 241.954 436.72C241.954 437.328 242.168 437.824 242.594 438.208C243.021 438.581 243.602 438.768 244.338 438.768C245.064 438.768 245.634 438.576 246.05 438.192C246.477 437.808 246.69 437.317 246.69 436.72C246.69 436.08 246.472 435.584 246.034 435.232C245.608 434.88 245.042 434.704 244.338 434.704ZM254.186 435.584C254.186 434.677 254.367 433.883 254.73 433.2C255.103 432.507 255.615 431.973 256.266 431.6C256.916 431.227 257.663 431.04 258.506 431.04C259.572 431.04 260.452 431.296 261.146 431.808C261.85 432.309 262.324 433.029 262.57 433.968H260.602C260.442 433.531 260.186 433.189 259.834 432.944C259.482 432.699 259.039 432.576 258.506 432.576C257.759 432.576 257.162 432.843 256.714 433.376C256.276 433.899 256.058 434.635 256.058 435.584C256.058 436.533 256.276 437.275 256.714 437.808C257.162 438.341 257.759 438.608 258.506 438.608C259.562 438.608 260.26 438.144 260.602 437.216H262.57C262.314 438.112 261.834 438.827 261.13 439.36C260.426 439.883 259.551 440.144 258.506 440.144C257.663 440.144 256.916 439.957 256.266 439.584C255.615 439.2 255.103 438.667 254.73 437.984C254.367 437.291 254.186 436.491 254.186 435.584ZM275.06 431.04C275.753 431.04 276.372 431.184 276.916 431.472C277.47 431.76 277.902 432.187 278.212 432.752C278.532 433.317 278.692 434 278.692 434.8V440H276.884V435.072C276.884 434.283 276.686 433.68 276.292 433.264C275.897 432.837 275.358 432.624 274.676 432.624C273.993 432.624 273.449 432.837 273.044 433.264C272.649 433.68 272.452 434.283 272.452 435.072V440H270.644V435.072C270.644 434.283 270.446 433.68 270.052 433.264C269.657 432.837 269.118 432.624 268.436 432.624C267.753 432.624 267.209 432.837 266.804 433.264C266.409 433.68 266.212 434.283 266.212 435.072V440H264.388V431.184H266.212V432.192C266.51 431.829 266.889 431.547 267.348 431.344C267.806 431.141 268.297 431.04 268.82 431.04C269.524 431.04 270.153 431.189 270.708 431.488C271.262 431.787 271.689 432.219 271.988 432.784C272.254 432.251 272.67 431.829 273.236 431.52C273.801 431.2 274.409 431.04 275.06 431.04Z" fill="#595959"/>
<path d="M231.968 480.52C232.992 479.635 233.797 478.909 234.384 478.344C234.981 477.768 235.477 477.171 235.872 476.552C236.267 475.933 236.464 475.315 236.464 474.696C236.464 474.056 236.309 473.555 236 473.192C235.701 472.829 235.227 472.648 234.576 472.648C233.947 472.648 233.456 472.851 233.104 473.256C232.763 473.651 232.581 474.184 232.56 474.856H230.8C230.832 473.64 231.195 472.712 231.888 472.072C232.592 471.421 233.483 471.096 234.56 471.096C235.723 471.096 236.629 471.416 237.28 472.056C237.941 472.696 238.272 473.549 238.272 474.616C238.272 475.384 238.075 476.125 237.68 476.84C237.296 477.544 236.832 478.179 236.288 478.744C235.755 479.299 235.072 479.944 234.24 480.68L233.52 481.32H238.592V482.84H230.816V481.512L231.968 480.52ZM242.466 479.832C242.573 480.365 242.802 480.771 243.154 481.048C243.506 481.325 243.981 481.464 244.578 481.464C245.336 481.464 245.89 481.165 246.242 480.568C246.594 479.971 246.77 478.952 246.77 477.512C246.514 477.875 246.152 478.157 245.682 478.36C245.224 478.552 244.722 478.648 244.178 478.648C243.485 478.648 242.856 478.509 242.29 478.232C241.725 477.944 241.277 477.523 240.946 476.968C240.626 476.403 240.466 475.72 240.466 474.92C240.466 473.747 240.808 472.813 241.49 472.12C242.184 471.416 243.133 471.064 244.338 471.064C245.789 471.064 246.818 471.549 247.426 472.52C248.045 473.48 248.354 474.957 248.354 476.952C248.354 478.328 248.237 479.453 248.002 480.328C247.778 481.203 247.384 481.864 246.818 482.312C246.253 482.76 245.469 482.984 244.466 482.984C243.325 482.984 242.445 482.685 241.826 482.088C241.208 481.491 240.861 480.739 240.786 479.832H242.466ZM244.498 477.112C245.138 477.112 245.64 476.915 246.002 476.52C246.376 476.115 246.562 475.581 246.562 474.92C246.562 474.184 246.365 473.613 245.97 473.208C245.586 472.792 245.058 472.584 244.386 472.584C243.714 472.584 243.181 472.797 242.786 473.224C242.402 473.64 242.21 474.189 242.21 474.872C242.21 475.523 242.397 476.061 242.77 476.488C243.154 476.904 243.73 477.112 244.498 477.112ZM254.139 478.584C254.139 477.677 254.32 476.883 254.683 476.2C255.056 475.507 255.568 474.973 256.219 474.6C256.87 474.227 257.616 474.04 258.459 474.04C259.526 474.04 260.406 474.296 261.099 474.808C261.803 475.309 262.278 476.029 262.523 476.968H260.555C260.395 476.531 260.139 476.189 259.787 475.944C259.435 475.699 258.992 475.576 258.459 475.576C257.712 475.576 257.115 475.843 256.667 476.376C256.23 476.899 256.011 477.635 256.011 478.584C256.011 479.533 256.23 480.275 256.667 480.808C257.115 481.341 257.712 481.608 258.459 481.608C259.515 481.608 260.214 481.144 260.555 480.216H262.523C262.267 481.112 261.787 481.827 261.083 482.36C260.379 482.883 259.504 483.144 258.459 483.144C257.616 483.144 256.87 482.957 256.219 482.584C255.568 482.2 255.056 481.667 254.683 480.984C254.32 480.291 254.139 479.491 254.139 478.584ZM275.013 474.04C275.706 474.04 276.325 474.184 276.869 474.472C277.423 474.76 277.855 475.187 278.165 475.752C278.485 476.317 278.645 477 278.645 477.8V483H276.837V478.072C276.837 477.283 276.639 476.68 276.245 476.264C275.85 475.837 275.311 475.624 274.629 475.624C273.946 475.624 273.402 475.837 272.997 476.264C272.602 476.68 272.405 477.283 272.405 478.072V483H270.597V478.072C270.597 477.283 270.399 476.68 270.005 476.264C269.61 475.837 269.071 475.624 268.389 475.624C267.706 475.624 267.162 475.837 266.757 476.264C266.362 476.68 266.165 477.283 266.165 478.072V483H264.341V474.184H266.165V475.192C266.463 474.829 266.842 474.547 267.301 474.344C267.759 474.141 268.25 474.04 268.773 474.04C269.477 474.04 270.106 474.189 270.661 474.488C271.215 474.787 271.642 475.219 271.941 475.784C272.207 475.251 272.623 474.829 273.189 474.52C273.754 474.2 274.362 474.04 275.013 474.04Z" fill="#595959"/>
<path d="M249.528 348.368C249.528 347.259 249.768 346.272 250.248 345.408C250.728 344.533 251.395 343.856 252.248 343.376C253.112 342.885 254.088 342.64 255.176 342.64C256.509 342.64 257.651 342.992 258.6 343.696C259.549 344.4 260.184 345.36 260.504 346.576H257.496C257.272 346.107 256.952 345.749 256.536 345.504C256.131 345.259 255.667 345.136 255.144 345.136C254.301 345.136 253.619 345.429 253.096 346.016C252.573 346.603 252.312 347.387 252.312 348.368C252.312 349.349 252.573 350.133 253.096 350.72C253.619 351.307 254.301 351.6 255.144 351.6C255.667 351.6 256.131 351.477 256.536 351.232C256.952 350.987 257.272 350.629 257.496 350.16H260.504C260.184 351.376 259.549 352.336 258.6 353.04C257.651 353.733 256.509 354.08 255.176 354.08C254.088 354.08 253.112 353.84 252.248 353.36C251.395 352.869 250.728 352.192 250.248 351.328C249.768 350.464 249.528 349.477 249.528 348.368Z" fill="#1A1A1A"/>
<path d="M305.48 386.904H300.12V390.088C300.344 389.789 300.675 389.539 301.112 389.336C301.56 389.133 302.035 389.032 302.536 389.032C303.432 389.032 304.157 389.224 304.712 389.608C305.277 389.992 305.677 390.477 305.912 391.064C306.157 391.651 306.28 392.269 306.28 392.92C306.28 393.709 306.125 394.413 305.816 395.032C305.517 395.64 305.064 396.12 304.456 396.472C303.859 396.824 303.123 397 302.248 397C301.085 397 300.152 396.712 299.448 396.136C298.744 395.56 298.323 394.797 298.184 393.848H299.96C300.077 394.349 300.339 394.749 300.744 395.048C301.149 395.336 301.656 395.48 302.264 395.48C303.021 395.48 303.587 395.251 303.96 394.792C304.344 394.333 304.536 393.725 304.536 392.968C304.536 392.2 304.344 391.613 303.96 391.208C303.576 390.792 303.011 390.584 302.264 390.584C301.741 390.584 301.299 390.717 300.936 390.984C300.584 391.24 300.328 391.592 300.168 392.04H298.44V385.304H305.48V386.904ZM308.179 391.016C308.179 389.171 308.488 387.731 309.107 386.696C309.736 385.651 310.813 385.128 312.339 385.128C313.864 385.128 314.936 385.651 315.555 386.696C316.184 387.731 316.499 389.171 316.499 391.016C316.499 392.883 316.184 394.344 315.555 395.4C314.936 396.445 313.864 396.968 312.339 396.968C310.813 396.968 309.736 396.445 309.107 395.4C308.488 394.344 308.179 392.883 308.179 391.016ZM314.707 391.016C314.707 390.152 314.648 389.421 314.531 388.824C314.424 388.227 314.2 387.741 313.859 387.368C313.517 386.984 313.011 386.792 312.339 386.792C311.667 386.792 311.16 386.984 310.819 387.368C310.477 387.741 310.248 388.227 310.131 388.824C310.024 389.421 309.971 390.152 309.971 391.016C309.971 391.912 310.024 392.664 310.131 393.272C310.237 393.88 310.461 394.371 310.803 394.744C311.155 395.117 311.667 395.304 312.339 395.304C313.011 395.304 313.517 395.117 313.859 394.744C314.211 394.371 314.44 393.88 314.547 393.272C314.653 392.664 314.707 391.912 314.707 391.016ZM322.217 392.584C322.217 391.677 322.398 390.883 322.761 390.2C323.134 389.507 323.646 388.973 324.297 388.6C324.948 388.227 325.694 388.04 326.537 388.04C327.604 388.04 328.484 388.296 329.177 388.808C329.881 389.309 330.356 390.029 330.601 390.968H328.633C328.473 390.531 328.217 390.189 327.865 389.944C327.513 389.699 327.07 389.576 326.537 389.576C325.79 389.576 325.193 389.843 324.745 390.376C324.308 390.899 324.089 391.635 324.089 392.584C324.089 393.533 324.308 394.275 324.745 394.808C325.193 395.341 325.79 395.608 326.537 395.608C327.593 395.608 328.292 395.144 328.633 394.216H330.601C330.345 395.112 329.865 395.827 329.161 396.36C328.457 396.883 327.582 397.144 326.537 397.144C325.694 397.144 324.948 396.957 324.297 396.584C323.646 396.2 323.134 395.667 322.761 394.984C322.398 394.291 322.217 393.491 322.217 392.584ZM343.091 388.04C343.784 388.04 344.403 388.184 344.947 388.472C345.501 388.76 345.933 389.187 346.243 389.752C346.563 390.317 346.723 391 346.723 391.8V397H344.915V392.072C344.915 391.283 344.717 390.68 344.323 390.264C343.928 389.837 343.389 389.624 342.707 389.624C342.024 389.624 341.48 389.837 341.075 390.264C340.68 390.68 340.483 391.283 340.483 392.072V397H338.675V392.072C338.675 391.283 338.477 390.68 338.083 390.264C337.688 389.837 337.149 389.624 336.467 389.624C335.784 389.624 335.24 389.837 334.835 390.264C334.44 390.68 334.243 391.283 334.243 392.072V397H332.419V388.184H334.243V389.192C334.541 388.829 334.92 388.547 335.379 388.344C335.837 388.141 336.328 388.04 336.851 388.04C337.555 388.04 338.184 388.189 338.739 388.488C339.293 388.787 339.72 389.219 340.019 389.784C340.285 389.251 340.701 388.829 341.267 388.52C341.832 388.2 342.44 388.04 343.091 388.04Z" fill="#595959"/>
<path d="M305.48 429.904H300.12V433.088C300.344 432.789 300.675 432.539 301.112 432.336C301.56 432.133 302.035 432.032 302.536 432.032C303.432 432.032 304.157 432.224 304.712 432.608C305.277 432.992 305.677 433.477 305.912 434.064C306.157 434.651 306.28 435.269 306.28 435.92C306.28 436.709 306.125 437.413 305.816 438.032C305.517 438.64 305.064 439.12 304.456 439.472C303.859 439.824 303.123 440 302.248 440C301.085 440 300.152 439.712 299.448 439.136C298.744 438.56 298.323 437.797 298.184 436.848H299.96C300.077 437.349 300.339 437.749 300.744 438.048C301.149 438.336 301.656 438.48 302.264 438.48C303.021 438.48 303.587 438.251 303.96 437.792C304.344 437.333 304.536 436.725 304.536 435.968C304.536 435.2 304.344 434.613 303.96 434.208C303.576 433.792 303.011 433.584 302.264 433.584C301.741 433.584 301.299 433.717 300.936 433.984C300.584 434.24 300.328 434.592 300.168 435.04H298.44V428.304H305.48V429.904ZM307.955 437.568V436.192L313.331 428.48H315.539V435.984H317.027V437.568H315.539V440H313.747V437.568H307.955ZM313.827 430.336L310.051 435.984H313.827V430.336ZM322.326 435.584C322.326 434.677 322.508 433.883 322.87 433.2C323.244 432.507 323.756 431.973 324.406 431.6C325.057 431.227 325.804 431.04 326.646 431.04C327.713 431.04 328.593 431.296 329.286 431.808C329.99 432.309 330.465 433.029 330.71 433.968H328.742C328.582 433.531 328.326 433.189 327.974 432.944C327.622 432.699 327.18 432.576 326.646 432.576C325.9 432.576 325.302 432.843 324.854 433.376C324.417 433.899 324.198 434.635 324.198 435.584C324.198 436.533 324.417 437.275 324.854 437.808C325.302 438.341 325.9 438.608 326.646 438.608C327.702 438.608 328.401 438.144 328.742 437.216H330.71C330.454 438.112 329.974 438.827 329.27 439.36C328.566 439.883 327.692 440.144 326.646 440.144C325.804 440.144 325.057 439.957 324.406 439.584C323.756 439.2 323.244 438.667 322.87 437.984C322.508 437.291 322.326 436.491 322.326 435.584ZM343.2 431.04C343.893 431.04 344.512 431.184 345.056 431.472C345.611 431.76 346.043 432.187 346.352 432.752C346.672 433.317 346.832 434 346.832 434.8V440H345.024V435.072C345.024 434.283 344.827 433.68 344.432 433.264C344.037 432.837 343.499 432.624 342.816 432.624C342.133 432.624 341.589 432.837 341.184 433.264C340.789 433.68 340.592 434.283 340.592 435.072V440H338.784V435.072C338.784 434.283 338.587 433.68 338.192 433.264C337.797 432.837 337.259 432.624 336.576 432.624C335.893 432.624 335.349 432.837 334.944 433.264C334.549 433.68 334.352 434.283 334.352 435.072V440H332.528V431.184H334.352V432.192C334.651 431.829 335.029 431.547 335.488 431.344C335.947 431.141 336.437 431.04 336.96 431.04C337.664 431.04 338.293 431.189 338.848 431.488C339.403 431.787 339.829 432.219 340.128 432.784C340.395 432.251 340.811 431.829 341.376 431.52C341.941 431.2 342.549 431.04 343.2 431.04Z" fill="#595959"/>
<path d="M306.48 472.904H301.12V476.088C301.344 475.789 301.675 475.539 302.112 475.336C302.56 475.133 303.035 475.032 303.536 475.032C304.432 475.032 305.157 475.224 305.712 475.608C306.277 475.992 306.677 476.477 306.912 477.064C307.157 477.651 307.28 478.269 307.28 478.92C307.28 479.709 307.125 480.413 306.816 481.032C306.517 481.64 306.064 482.12 305.456 482.472C304.859 482.824 304.123 483 303.248 483C302.085 483 301.152 482.712 300.448 482.136C299.744 481.56 299.323 480.797 299.184 479.848H300.96C301.077 480.349 301.339 480.749 301.744 481.048C302.149 481.336 302.656 481.48 303.264 481.48C304.021 481.48 304.587 481.251 304.96 480.792C305.344 480.333 305.536 479.725 305.536 478.968C305.536 478.2 305.344 477.613 304.96 477.208C304.576 476.792 304.011 476.584 303.264 476.584C302.741 476.584 302.299 476.717 301.936 476.984C301.584 477.24 301.328 477.592 301.168 478.04H299.44V471.304H306.48V472.904ZM316.571 472.744L312.123 483H310.283L314.779 472.936H308.859V471.384H316.571V472.744ZM321.92 478.584C321.92 477.677 322.101 476.883 322.464 476.2C322.837 475.507 323.349 474.973 324 474.6C324.651 474.227 325.397 474.04 326.24 474.04C327.307 474.04 328.187 474.296 328.88 474.808C329.584 475.309 330.059 476.029 330.304 476.968H328.336C328.176 476.531 327.92 476.189 327.568 475.944C327.216 475.699 326.773 475.576 326.24 475.576C325.493 475.576 324.896 475.843 324.448 476.376C324.011 476.899 323.792 477.635 323.792 478.584C323.792 479.533 324.011 480.275 324.448 480.808C324.896 481.341 325.493 481.608 326.24 481.608C327.296 481.608 327.995 481.144 328.336 480.216H330.304C330.048 481.112 329.568 481.827 328.864 482.36C328.16 482.883 327.285 483.144 326.24 483.144C325.397 483.144 324.651 482.957 324 482.584C323.349 482.2 322.837 481.667 322.464 480.984C322.101 480.291 321.92 479.491 321.92 478.584ZM342.794 474.04C343.487 474.04 344.106 474.184 344.65 474.472C345.205 474.76 345.637 475.187 345.946 475.752C346.266 476.317 346.426 477 346.426 477.8V483H344.618V478.072C344.618 477.283 344.421 476.68 344.026 476.264C343.631 475.837 343.093 475.624 342.41 475.624C341.727 475.624 341.183 475.837 340.778 476.264C340.383 476.68 340.186 477.283 340.186 478.072V483H338.378V478.072C338.378 477.283 338.181 476.68 337.786 476.264C337.391 475.837 336.853 475.624 336.17 475.624C335.487 475.624 334.943 475.837 334.538 476.264C334.143 476.68 333.946 477.283 333.946 478.072V483H332.122V474.184H333.946V475.192C334.245 474.829 334.623 474.547 335.082 474.344C335.541 474.141 336.031 474.04 336.554 474.04C337.258 474.04 337.887 474.189 338.442 474.488C338.997 474.787 339.423 475.219 339.722 475.784C339.989 475.251 340.405 474.829 340.97 474.52C341.535 474.2 342.143 474.04 342.794 474.04Z" fill="#595959"/>
<path d="M322.2 342.768C323.384 342.768 324.419 343.003 325.304 343.472C326.189 343.941 326.872 344.603 327.352 345.456C327.843 346.299 328.088 347.275 328.088 348.384C328.088 349.483 327.843 350.459 327.352 351.312C326.872 352.165 326.184 352.827 325.288 353.296C324.403 353.765 323.373 354 322.2 354H317.992V342.768H322.2ZM322.024 351.632C323.059 351.632 323.864 351.349 324.44 350.784C325.016 350.219 325.304 349.419 325.304 348.384C325.304 347.349 325.016 346.544 324.44 345.968C323.864 345.392 323.059 345.104 322.024 345.104H320.728V351.632H322.024Z" fill="#1A1A1A"/>
<path d="M145.663 57.7453C142.625 57.3215 139.766 59.2221 139.028 62.1995C133.552 84.2809 112.466 169.927 110.592 186.851C108.741 203.564 97.1013 281.002 93.8453 302.575C93.3679 305.739 95.463 308.666 98.5986 309.3L116.465 312.914C119.506 313.529 122.502 311.764 123.39 308.792C129.93 286.895 154.939 203.009 156.983 193.859C159.184 184.014 185.233 117.061 188.634 108.335C188.881 107.704 189.012 107.053 189.035 106.376L190.313 69.4028C190.419 66.3322 188.189 63.6776 185.146 63.2531L145.663 57.7453Z" fill="#DD5491"/>
<path d="M95.2877 299.983L123.395 306.99C123.522 307.015 123.654 306.992 123.763 306.924C123.873 306.856 123.952 306.749 123.984 306.626C124.016 306.502 123.999 306.371 123.937 306.259C123.875 306.148 123.771 306.064 123.648 306.025L95.6414 299.018C95.5118 298.983 95.3734 299 95.2566 299.065C95.1397 299.131 95.054 299.24 95.0182 299.368C94.9825 299.496 94.9997 299.632 95.066 299.748C95.1324 299.863 95.2424 299.948 95.3719 299.983H95.2877Z" fill="black"/>
<path d="M189.984 42.016H185.792L185.12 44H182.256L186.32 32.768H189.488L193.552 44H190.656L189.984 42.016ZM189.28 39.904L187.888 35.792L186.512 39.904H189.28Z" fill="#DD5491"/>
<path d="M259.792 286.24C260.443 286.379 260.965 286.704 261.36 287.216C261.755 287.717 261.952 288.293 261.952 288.944C261.952 289.883 261.621 290.629 260.96 291.184C260.309 291.728 259.397 292 258.224 292H252.992V280.768H258.048C259.189 280.768 260.08 281.029 260.72 281.552C261.371 282.075 261.696 282.784 261.696 283.68C261.696 284.341 261.52 284.891 261.168 285.328C260.827 285.765 260.368 286.069 259.792 286.24ZM255.728 285.312H257.52C257.968 285.312 258.309 285.216 258.544 285.024C258.789 284.821 258.912 284.528 258.912 284.144C258.912 283.76 258.789 283.467 258.544 283.264C258.309 283.061 257.968 282.96 257.52 282.96H255.728V285.312ZM257.744 289.792C258.203 289.792 258.555 289.691 258.8 289.488C259.056 289.275 259.184 288.971 259.184 288.576C259.184 288.181 259.051 287.872 258.784 287.648C258.528 287.424 258.171 287.312 257.712 287.312H255.728V289.792H257.744Z" fill="#DD5491"/>
<path d="M181.1 107.228C168.63 130.759 161.428 156.335 152.617 181.163C143.464 206.923 136.148 233.231 129.58 259.662C125.889 274.556 122.426 289.48 119.012 304.435C118.882 305 119.825 305.244 119.955 304.679C125.987 278.218 132.181 251.772 139.578 225.616C146.861 199.842 155.836 174.556 164.647 149.193C169.305 134.978 175.087 121.108 181.945 107.701C182.222 107.167 181.376 106.709 181.1 107.228Z" fill="#263238"/>
<path d="M154.004 78.3251C152.21 83.4855 149.025 88.1713 144.729 91.9689C140.434 95.7666 135.161 98.5594 129.375 100.101C129.245 100.133 129.134 100.211 129.067 100.316C129 100.422 128.982 100.547 129.018 100.664C129.054 100.781 129.141 100.88 129.259 100.94C129.377 101 129.517 101.016 129.647 100.984C135.602 99.395 141.027 96.5175 145.444 92.6053C149.862 88.6932 153.134 83.8669 154.972 78.5533C155.176 77.9903 154.191 77.762 154.004 78.3251Z" fill="#263238"/>
<path d="M232.815 150.603C235.987 150.826 238.784 148.54 239.049 145.371C241.002 121.953 239.454 81.3286 238.759 66.0458C238.607 62.7137 235.75 60.1717 232.421 60.3822L184.589 63.4069C181.056 63.6303 178.483 66.8212 179.065 70.3128C181.498 84.9128 187.694 120.858 193.404 143.776C194.024 146.264 196.185 148.031 198.743 148.211L232.815 150.603Z" fill="#DD5491"/>
<path d="M187.999 78.729C187.308 88.0325 186.65 97.336 185.958 106.546C185.958 107.151 184.929 107.151 184.963 106.546C185.317 101.802 185.655 97.0259 185.992 92.2656C183.513 94.0177 180.595 91.8934 179.785 89.521C178.668 85.5139 178.744 81.3045 180.004 77.3335C180.156 76.7442 181.134 77.0078 180.983 77.566C180.232 80.2421 179.947 83.0107 180.139 85.7686C180.152 87.2493 180.479 88.7134 181.101 90.0793C181.893 91.5058 183.917 92.7308 185.52 91.4283C185.599 91.3776 185.693 91.3504 185.79 91.3504C185.886 91.3504 185.98 91.3776 186.06 91.4283C186.38 87.2262 186.684 83.0086 186.987 78.8065C187.038 78.1707 188.033 78.1708 187.999 78.729Z" fill="#263238"/>
<path d="M217.002 79.3968C216.931 85.5711 219.217 91.5425 223.399 96.1078C227.58 100.673 233.347 103.493 239.537 104C240.154 104 240.154 103.095 239.537 103.046C233.6 102.544 228.075 99.8262 224.072 95.4388C220.069 91.0513 217.886 85.3198 217.961 79.3968C217.94 79.2853 217.881 79.1847 217.793 79.1122C217.706 79.0397 217.595 79 217.481 79C217.367 79 217.257 79.0397 217.169 79.1122C217.082 79.1847 217.022 79.2853 217.002 79.3968Z" fill="#263238"/>
<path d="M206.433 310.13C206.86 312.983 209.334 315 212.218 315H228.685C231.786 315 234.373 312.694 234.602 309.601C237.562 269.637 239.555 165.113 239.934 143.996C239.976 141.679 238.676 139.59 236.599 138.562L198.763 119.833C194.526 117.736 189.641 121.109 190.138 125.81C191.983 143.255 195.604 177.19 197.449 192.348C197.563 193.279 197.639 194.183 197.684 195.12C198.214 206.148 201.993 280.443 206.433 310.13Z" fill="#DD5491"/>
<path d="M206.498 308H234.502C234.634 308 234.761 307.947 234.854 307.854C234.948 307.76 235 307.633 235 307.5C235 307.367 234.948 307.24 234.854 307.146C234.761 307.053 234.634 307 234.502 307H206.498C206.366 307 206.239 307.053 206.146 307.146C206.052 307.24 206 307.367 206 307.5C206 307.633 206.052 307.76 206.146 307.854C206.239 307.947 206.366 308 206.498 308Z" fill="black"/>
<path d="M222.349 197.936C226.644 199.355 231.356 199.355 235.651 197.936C236.266 197.729 236.002 196.824 235.369 197.03C231.258 198.397 226.742 198.397 222.631 197.03C221.998 196.824 221.734 197.729 222.349 197.936Z" fill="black"/>
<path d="M192 108.437C195.336 134.25 198.055 160.124 200.34 186.029C202.626 211.934 204.677 237.717 206.662 263.576C207.774 278.241 208.886 292.902 209.998 307.558C209.998 308.14 211.033 308.155 210.999 307.558C208.931 281.515 207.013 255.594 204.961 229.628C202.909 203.662 200.691 177.956 197.988 152.173C196.554 137.6 194.919 123.021 193.084 108.437C193.084 107.854 192.017 107.854 192.083 108.437H192Z" fill="#263238"/>
<path d="M139 47L144 49.8868V44.1132L139 47ZM235.005 47L230.005 44.1132V49.8868L235.005 47ZM143.5 47.5H230.505V46.5H143.5V47.5Z" fill="#DD5491"/>
<path d="M133 104L138 106.887V101.113L133 104ZM229.005 104L224.005 101.113V106.887L229.005 104ZM137.5 104.5H224.505V103.5H137.5V104.5Z" fill="#FCFCFC"/>
<path d="M184 64L181.113 69H186.887L184 64ZM184 113L186.887 108H181.113L184 113ZM183.5 68.5V108.5H184.5V68.5H183.5Z" fill="#FCFCFC"/>
<path d="M249 312L251.887 307H246.113L249 312ZM249 60L246.113 65H251.887L249 60ZM249.5 307.5L249.5 64.5H248.5L248.5 307.5H249.5Z" fill="#DD5491"/>
<path d="M204.2 88.768C205.384 88.768 206.419 89.0027 207.304 89.472C208.189 89.9413 208.872 90.6027 209.352 91.456C209.843 92.2987 210.088 93.2747 210.088 94.384C210.088 95.4827 209.843 96.4587 209.352 97.312C208.872 98.1653 208.184 98.8267 207.288 99.296C206.403 99.7653 205.373 100 204.2 100H199.992V88.768H204.2ZM204.024 97.632C205.059 97.632 205.864 97.3493 206.44 96.784C207.016 96.2187 207.304 95.4187 207.304 94.384C207.304 93.3493 207.016 92.544 206.44 91.968C205.864 91.392 205.059 91.104 204.024 91.104H202.728V97.632H204.024Z" fill="#FCFCFC"/>
<path d="M166.528 72.368C166.528 71.2587 166.768 70.272 167.248 69.408C167.728 68.5333 168.395 67.856 169.248 67.376C170.112 66.8853 171.088 66.64 172.176 66.64C173.509 66.64 174.651 66.992 175.6 67.696C176.549 68.4 177.184 69.36 177.504 70.576H174.496C174.272 70.1067 173.952 69.7493 173.536 69.504C173.131 69.2587 172.667 69.136 172.144 69.136C171.301 69.136 170.619 69.4293 170.096 70.016C169.573 70.6027 169.312 71.3867 169.312 72.368C169.312 73.3493 169.573 74.1333 170.096 74.72C170.619 75.3067 171.301 75.6 172.144 75.6C172.667 75.6 173.131 75.4773 173.536 75.232C173.952 74.9867 174.272 74.6293 174.496 74.16H177.504C177.184 75.376 176.549 76.336 175.6 77.04C174.651 77.7333 173.509 78.08 172.176 78.08C171.088 78.08 170.112 77.84 169.248 77.36C168.395 76.8693 167.728 76.192 167.248 75.328C166.768 74.464 166.528 73.4773 166.528 72.368Z" fill="#FCFCFC"/>
</svg>
